G04 MADE WITH FRITZING*
G04 WWW.FRITZING.ORG*
G04 DOUBLE SIDED*
G04 HOLES PLATED*
G04 CONTOUR ON CENTER OF CONTOUR VECTOR*
%ASAXBY*%
%FSLAX23Y23*%
%MOIN*%
%OFA0B0*%
%SFA1.0B1.0*%
%ADD10C,0.082000*%
%ADD11C,0.062992*%
%ADD12C,0.080000*%
%ADD13C,0.060000*%
%ADD14C,0.033222*%
%ADD15C,0.075000*%
%ADD16C,0.070000*%
%ADD17C,0.098425*%
%ADD18C,0.150000*%
%ADD19C,0.100000*%
%ADD20C,0.066000*%
%ADD21R,0.082000X0.082000*%
%ADD22R,0.062992X0.062992*%
%ADD23R,0.080000X0.080000*%
%ADD24C,0.015436*%
%ADD25C,0.024000*%
%ADD26R,0.001000X0.001000*%
%LNCOPPER1*%
G90*
G70*
G54D10*
X2620Y718D03*
X2620Y1016D03*
X2320Y718D03*
X2320Y1016D03*
G54D11*
X3020Y2119D03*
X3020Y2218D03*
X3020Y1619D03*
X3020Y1718D03*
G54D12*
X3220Y418D03*
X3083Y418D03*
X2420Y418D03*
X2283Y418D03*
X2720Y418D03*
X2583Y418D03*
G54D13*
X1220Y1018D03*
X1220Y1118D03*
X1221Y1218D03*
X1221Y1318D03*
X1220Y1418D03*
X1220Y1518D03*
X1220Y1618D03*
X1220Y1718D03*
X1220Y1818D03*
X1220Y1918D03*
X2120Y1018D03*
X2120Y1118D03*
X2120Y1218D03*
X2120Y1318D03*
X2120Y1418D03*
X2120Y1518D03*
X2120Y1618D03*
X2120Y1718D03*
X2120Y1818D03*
X2120Y1918D03*
X1520Y2218D03*
X1720Y2218D03*
X1820Y2218D03*
X1920Y2218D03*
G54D14*
X1623Y2218D03*
G54D13*
X1623Y2218D03*
G54D14*
X2029Y2218D03*
G54D13*
X2029Y2218D03*
G54D15*
X2620Y1318D03*
X2620Y1718D03*
X2320Y1318D03*
X2320Y1718D03*
G54D16*
X1020Y1418D03*
G54D17*
X820Y403D03*
G54D18*
X270Y2168D03*
G54D17*
X622Y403D03*
G54D19*
X420Y403D03*
G54D20*
X360Y1858D03*
G54D16*
X1020Y1218D03*
X220Y2018D03*
X1020Y1618D03*
X220Y1918D03*
X220Y1818D03*
X220Y1718D03*
X220Y1618D03*
X220Y1518D03*
X220Y1418D03*
X1020Y1118D03*
X220Y1318D03*
X1020Y1318D03*
X220Y1218D03*
X1020Y1518D03*
X220Y1118D03*
G54D18*
X970Y2168D03*
G54D16*
X220Y1018D03*
X220Y918D03*
X220Y818D03*
X220Y718D03*
X220Y618D03*
X220Y518D03*
X1020Y518D03*
X1020Y618D03*
X1020Y718D03*
X1020Y818D03*
X1020Y918D03*
X1020Y1018D03*
G54D21*
X2620Y717D03*
X2320Y717D03*
G54D22*
X3020Y2119D03*
X3020Y1619D03*
G54D23*
X3220Y418D03*
X2420Y418D03*
X2720Y418D03*
G54D24*
X2051Y796D02*
X2051Y2139D01*
D02*
X2051Y2139D02*
X1299Y2139D01*
D02*
X1299Y2139D02*
X1299Y796D01*
D02*
X2051Y796D02*
X1866Y796D01*
D02*
X1485Y796D02*
X1299Y796D01*
G54D25*
D02*
X1196Y1724D02*
X396Y1930D01*
D02*
X2410Y447D02*
X2330Y687D01*
D02*
X396Y1930D02*
X251Y1920D01*
D02*
X2320Y1048D02*
X2320Y1289D01*
D02*
X1164Y1354D02*
X1068Y1690D01*
D02*
X1200Y1331D02*
X1164Y1354D01*
D02*
X1068Y1690D02*
X251Y1620D01*
D02*
X2145Y1718D02*
X2292Y1718D01*
D02*
X3036Y490D02*
X2751Y425D01*
D02*
X3156Y490D02*
X3036Y490D01*
D02*
X3200Y441D02*
X3156Y490D01*
D02*
X2964Y1690D02*
X2964Y1546D01*
D02*
X2996Y1706D02*
X2964Y1690D01*
D02*
X2964Y1546D02*
X3036Y490D01*
D02*
X2144Y1912D02*
X2994Y1724D01*
D02*
X195Y1735D02*
X156Y1762D01*
D02*
X396Y2074D02*
X1196Y1923D01*
D02*
X156Y2074D02*
X396Y2074D01*
D02*
X156Y1762D02*
X156Y2074D01*
G54D26*
X383Y491D02*
X457Y491D01*
X382Y490D02*
X457Y490D01*
X585Y490D02*
X658Y490D01*
X783Y490D02*
X856Y490D01*
X382Y489D02*
X457Y489D01*
X585Y489D02*
X659Y489D01*
X783Y489D02*
X857Y489D01*
X382Y488D02*
X457Y488D01*
X585Y488D02*
X659Y488D01*
X783Y488D02*
X857Y488D01*
X382Y487D02*
X457Y487D01*
X585Y487D02*
X659Y487D01*
X783Y487D02*
X857Y487D01*
X382Y486D02*
X457Y486D01*
X585Y486D02*
X659Y486D01*
X783Y486D02*
X857Y486D01*
X382Y485D02*
X457Y485D01*
X585Y485D02*
X659Y485D01*
X783Y485D02*
X857Y485D01*
X382Y484D02*
X457Y484D01*
X585Y484D02*
X659Y484D01*
X783Y484D02*
X857Y484D01*
X382Y483D02*
X457Y483D01*
X585Y483D02*
X659Y483D01*
X783Y483D02*
X857Y483D01*
X382Y482D02*
X457Y482D01*
X585Y482D02*
X659Y482D01*
X783Y482D02*
X857Y482D01*
X382Y481D02*
X457Y481D01*
X585Y481D02*
X659Y481D01*
X783Y481D02*
X857Y481D01*
X382Y480D02*
X457Y480D01*
X585Y480D02*
X659Y480D01*
X783Y480D02*
X857Y480D01*
X382Y479D02*
X457Y479D01*
X585Y479D02*
X659Y479D01*
X783Y479D02*
X857Y479D01*
X382Y478D02*
X457Y478D01*
X585Y478D02*
X659Y478D01*
X783Y478D02*
X857Y478D01*
X382Y477D02*
X457Y477D01*
X585Y477D02*
X659Y477D01*
X783Y477D02*
X857Y477D01*
X382Y476D02*
X457Y476D01*
X585Y476D02*
X659Y476D01*
X783Y476D02*
X857Y476D01*
X382Y475D02*
X457Y475D01*
X585Y475D02*
X659Y475D01*
X783Y475D02*
X857Y475D01*
X382Y474D02*
X457Y474D01*
X585Y474D02*
X659Y474D01*
X783Y474D02*
X857Y474D01*
X382Y473D02*
X457Y473D01*
X585Y473D02*
X659Y473D01*
X783Y473D02*
X857Y473D01*
X382Y472D02*
X457Y472D01*
X585Y472D02*
X659Y472D01*
X783Y472D02*
X857Y472D01*
X382Y471D02*
X457Y471D01*
X585Y471D02*
X659Y471D01*
X783Y471D02*
X857Y471D01*
X382Y470D02*
X457Y470D01*
X585Y470D02*
X659Y470D01*
X783Y470D02*
X857Y470D01*
X382Y469D02*
X457Y469D01*
X585Y469D02*
X659Y469D01*
X783Y469D02*
X857Y469D01*
X382Y468D02*
X457Y468D01*
X585Y468D02*
X659Y468D01*
X783Y468D02*
X857Y468D01*
X382Y467D02*
X457Y467D01*
X585Y467D02*
X659Y467D01*
X783Y467D02*
X857Y467D01*
X382Y466D02*
X457Y466D01*
X585Y466D02*
X659Y466D01*
X783Y466D02*
X857Y466D01*
X382Y465D02*
X457Y465D01*
X585Y465D02*
X659Y465D01*
X783Y465D02*
X857Y465D01*
X382Y464D02*
X457Y464D01*
X585Y464D02*
X659Y464D01*
X783Y464D02*
X857Y464D01*
X382Y463D02*
X457Y463D01*
X585Y463D02*
X659Y463D01*
X783Y463D02*
X857Y463D01*
X382Y462D02*
X457Y462D01*
X585Y462D02*
X659Y462D01*
X783Y462D02*
X857Y462D01*
X382Y461D02*
X457Y461D01*
X585Y461D02*
X659Y461D01*
X783Y461D02*
X857Y461D01*
X382Y460D02*
X457Y460D01*
X585Y460D02*
X659Y460D01*
X783Y460D02*
X857Y460D01*
X382Y459D02*
X457Y459D01*
X585Y459D02*
X659Y459D01*
X783Y459D02*
X857Y459D01*
X382Y458D02*
X457Y458D01*
X585Y458D02*
X659Y458D01*
X783Y458D02*
X857Y458D01*
X382Y457D02*
X457Y457D01*
X585Y457D02*
X659Y457D01*
X783Y457D02*
X857Y457D01*
X382Y456D02*
X457Y456D01*
X585Y456D02*
X659Y456D01*
X783Y456D02*
X857Y456D01*
X382Y455D02*
X457Y455D01*
X585Y455D02*
X659Y455D01*
X783Y455D02*
X857Y455D01*
X382Y454D02*
X457Y454D01*
X585Y454D02*
X659Y454D01*
X783Y454D02*
X857Y454D01*
X382Y453D02*
X457Y453D01*
X585Y453D02*
X659Y453D01*
X783Y453D02*
X857Y453D01*
X382Y452D02*
X457Y452D01*
X585Y452D02*
X659Y452D01*
X783Y452D02*
X857Y452D01*
X382Y451D02*
X457Y451D01*
X585Y451D02*
X659Y451D01*
X783Y451D02*
X857Y451D01*
X382Y450D02*
X457Y450D01*
X585Y450D02*
X659Y450D01*
X783Y450D02*
X857Y450D01*
X382Y449D02*
X457Y449D01*
X585Y449D02*
X659Y449D01*
X783Y449D02*
X857Y449D01*
X382Y448D02*
X457Y448D01*
X585Y448D02*
X659Y448D01*
X783Y448D02*
X857Y448D01*
X382Y447D02*
X457Y447D01*
X585Y447D02*
X659Y447D01*
X783Y447D02*
X857Y447D01*
X382Y446D02*
X457Y446D01*
X585Y446D02*
X659Y446D01*
X783Y446D02*
X857Y446D01*
X382Y445D02*
X457Y445D01*
X585Y445D02*
X659Y445D01*
X783Y445D02*
X857Y445D01*
X382Y444D02*
X457Y444D01*
X585Y444D02*
X659Y444D01*
X783Y444D02*
X857Y444D01*
X382Y443D02*
X457Y443D01*
X585Y443D02*
X659Y443D01*
X783Y443D02*
X857Y443D01*
X382Y442D02*
X419Y442D01*
X421Y442D02*
X457Y442D01*
X585Y442D02*
X659Y442D01*
X783Y442D02*
X857Y442D01*
X382Y441D02*
X411Y441D01*
X429Y441D02*
X457Y441D01*
X585Y441D02*
X615Y441D01*
X629Y441D02*
X659Y441D01*
X783Y441D02*
X813Y441D01*
X827Y441D02*
X857Y441D01*
X382Y440D02*
X407Y440D01*
X432Y440D02*
X457Y440D01*
X585Y440D02*
X610Y440D01*
X633Y440D02*
X659Y440D01*
X783Y440D02*
X808Y440D01*
X831Y440D02*
X857Y440D01*
X382Y439D02*
X404Y439D01*
X435Y439D02*
X457Y439D01*
X585Y439D02*
X607Y439D01*
X636Y439D02*
X659Y439D01*
X783Y439D02*
X805Y439D01*
X834Y439D02*
X857Y439D01*
X382Y438D02*
X402Y438D01*
X437Y438D02*
X457Y438D01*
X585Y438D02*
X605Y438D01*
X638Y438D02*
X659Y438D01*
X783Y438D02*
X803Y438D01*
X836Y438D02*
X857Y438D01*
X382Y437D02*
X400Y437D01*
X439Y437D02*
X457Y437D01*
X585Y437D02*
X603Y437D01*
X640Y437D02*
X659Y437D01*
X783Y437D02*
X801Y437D01*
X838Y437D02*
X857Y437D01*
X382Y436D02*
X399Y436D01*
X441Y436D02*
X457Y436D01*
X585Y436D02*
X601Y436D01*
X642Y436D02*
X659Y436D01*
X783Y436D02*
X799Y436D01*
X840Y436D02*
X857Y436D01*
X382Y435D02*
X397Y435D01*
X442Y435D02*
X457Y435D01*
X585Y435D02*
X600Y435D01*
X643Y435D02*
X659Y435D01*
X783Y435D02*
X798Y435D01*
X841Y435D02*
X857Y435D01*
X382Y434D02*
X396Y434D01*
X443Y434D02*
X457Y434D01*
X585Y434D02*
X598Y434D01*
X645Y434D02*
X659Y434D01*
X783Y434D02*
X796Y434D01*
X843Y434D02*
X857Y434D01*
X382Y433D02*
X395Y433D01*
X445Y433D02*
X457Y433D01*
X585Y433D02*
X597Y433D01*
X646Y433D02*
X659Y433D01*
X783Y433D02*
X795Y433D01*
X844Y433D02*
X857Y433D01*
X382Y432D02*
X394Y432D01*
X446Y432D02*
X457Y432D01*
X585Y432D02*
X596Y432D01*
X647Y432D02*
X659Y432D01*
X783Y432D02*
X794Y432D01*
X845Y432D02*
X857Y432D01*
X382Y431D02*
X393Y431D01*
X447Y431D02*
X457Y431D01*
X585Y431D02*
X595Y431D01*
X648Y431D02*
X659Y431D01*
X783Y431D02*
X793Y431D01*
X846Y431D02*
X857Y431D01*
X382Y430D02*
X392Y430D01*
X448Y430D02*
X457Y430D01*
X585Y430D02*
X594Y430D01*
X649Y430D02*
X659Y430D01*
X783Y430D02*
X792Y430D01*
X847Y430D02*
X857Y430D01*
X382Y429D02*
X391Y429D01*
X449Y429D02*
X457Y429D01*
X585Y429D02*
X593Y429D01*
X650Y429D02*
X659Y429D01*
X783Y429D02*
X791Y429D01*
X848Y429D02*
X857Y429D01*
X382Y428D02*
X390Y428D01*
X450Y428D02*
X457Y428D01*
X585Y428D02*
X592Y428D01*
X651Y428D02*
X659Y428D01*
X783Y428D02*
X790Y428D01*
X849Y428D02*
X857Y428D01*
X382Y427D02*
X389Y427D01*
X450Y427D02*
X457Y427D01*
X585Y427D02*
X591Y427D01*
X652Y427D02*
X659Y427D01*
X783Y427D02*
X789Y427D01*
X850Y427D02*
X857Y427D01*
X382Y426D02*
X388Y426D01*
X451Y426D02*
X457Y426D01*
X585Y426D02*
X591Y426D01*
X653Y426D02*
X659Y426D01*
X783Y426D02*
X789Y426D01*
X851Y426D02*
X857Y426D01*
X382Y425D02*
X388Y425D01*
X452Y425D02*
X457Y425D01*
X585Y425D02*
X590Y425D01*
X653Y425D02*
X659Y425D01*
X783Y425D02*
X788Y425D01*
X851Y425D02*
X857Y425D01*
X382Y424D02*
X387Y424D01*
X452Y424D02*
X457Y424D01*
X585Y424D02*
X589Y424D01*
X654Y424D02*
X659Y424D01*
X783Y424D02*
X787Y424D01*
X852Y424D02*
X857Y424D01*
X382Y423D02*
X386Y423D01*
X453Y423D02*
X457Y423D01*
X585Y423D02*
X589Y423D01*
X655Y423D02*
X659Y423D01*
X783Y423D02*
X787Y423D01*
X853Y423D02*
X857Y423D01*
X382Y422D02*
X386Y422D01*
X454Y422D02*
X457Y422D01*
X585Y422D02*
X588Y422D01*
X655Y422D02*
X659Y422D01*
X783Y422D02*
X786Y422D01*
X853Y422D02*
X857Y422D01*
X382Y421D02*
X385Y421D01*
X454Y421D02*
X457Y421D01*
X585Y421D02*
X588Y421D01*
X656Y421D02*
X659Y421D01*
X783Y421D02*
X786Y421D01*
X854Y421D02*
X857Y421D01*
X382Y420D02*
X385Y420D01*
X455Y420D02*
X457Y420D01*
X585Y420D02*
X587Y420D01*
X656Y420D02*
X659Y420D01*
X783Y420D02*
X785Y420D01*
X854Y420D02*
X857Y420D01*
X382Y419D02*
X384Y419D01*
X455Y419D02*
X457Y419D01*
X585Y419D02*
X587Y419D01*
X657Y419D02*
X659Y419D01*
X783Y419D02*
X785Y419D01*
X855Y419D02*
X857Y419D01*
X382Y418D02*
X384Y418D01*
X455Y418D02*
X457Y418D01*
X585Y418D02*
X586Y418D01*
X657Y418D02*
X659Y418D01*
X783Y418D02*
X784Y418D01*
X855Y418D02*
X857Y418D01*
X382Y417D02*
X384Y417D01*
X456Y417D02*
X457Y417D01*
X585Y417D02*
X586Y417D01*
X657Y417D02*
X659Y417D01*
X783Y417D02*
X784Y417D01*
X855Y417D02*
X857Y417D01*
X382Y416D02*
X383Y416D01*
X456Y416D02*
X457Y416D01*
X585Y416D02*
X586Y416D01*
X658Y416D02*
X659Y416D01*
X783Y416D02*
X784Y416D01*
X856Y416D02*
X857Y416D01*
X382Y415D02*
X383Y415D01*
X456Y415D02*
X457Y415D01*
X585Y415D02*
X585Y415D01*
X658Y415D02*
X659Y415D01*
X783Y415D02*
X783Y415D01*
X856Y415D02*
X857Y415D01*
X382Y414D02*
X383Y414D01*
X457Y414D02*
X457Y414D01*
X585Y414D02*
X585Y414D01*
X658Y414D02*
X659Y414D01*
X783Y414D02*
X783Y414D01*
X856Y414D02*
X857Y414D01*
X382Y413D02*
X382Y413D01*
X457Y413D02*
X457Y413D01*
X585Y413D02*
X585Y413D01*
X659Y413D02*
X659Y413D01*
X783Y413D02*
X783Y413D01*
X857Y413D02*
X857Y413D01*
X382Y412D02*
X382Y412D01*
X457Y412D02*
X457Y412D01*
X585Y412D02*
X585Y412D01*
X659Y412D02*
X659Y412D01*
X783Y412D02*
X783Y412D01*
X857Y412D02*
X857Y412D01*
X382Y411D02*
X382Y411D01*
X457Y411D02*
X457Y411D01*
X659Y411D02*
X659Y411D01*
X857Y411D02*
X857Y411D01*
X382Y398D02*
X382Y398D01*
X457Y398D02*
X457Y398D01*
X382Y397D02*
X382Y397D01*
X457Y397D02*
X457Y397D01*
X659Y397D02*
X659Y397D01*
X857Y397D02*
X857Y397D01*
X382Y396D02*
X382Y396D01*
X457Y396D02*
X457Y396D01*
X585Y396D02*
X585Y396D01*
X659Y396D02*
X659Y396D01*
X783Y396D02*
X783Y396D01*
X857Y396D02*
X857Y396D01*
X382Y395D02*
X383Y395D01*
X457Y395D02*
X457Y395D01*
X585Y395D02*
X585Y395D01*
X658Y395D02*
X659Y395D01*
X783Y395D02*
X783Y395D01*
X856Y395D02*
X857Y395D01*
X382Y394D02*
X383Y394D01*
X457Y394D02*
X457Y394D01*
X585Y394D02*
X585Y394D01*
X658Y394D02*
X659Y394D01*
X783Y394D02*
X783Y394D01*
X856Y394D02*
X857Y394D01*
X382Y393D02*
X383Y393D01*
X456Y393D02*
X457Y393D01*
X585Y393D02*
X585Y393D01*
X658Y393D02*
X659Y393D01*
X783Y393D02*
X783Y393D01*
X856Y393D02*
X857Y393D01*
X382Y392D02*
X384Y392D01*
X456Y392D02*
X457Y392D01*
X585Y392D02*
X586Y392D01*
X657Y392D02*
X659Y392D01*
X783Y392D02*
X784Y392D01*
X855Y392D02*
X857Y392D01*
X382Y391D02*
X384Y391D01*
X456Y391D02*
X457Y391D01*
X585Y391D02*
X586Y391D01*
X657Y391D02*
X659Y391D01*
X783Y391D02*
X784Y391D01*
X855Y391D02*
X857Y391D01*
X382Y390D02*
X384Y390D01*
X455Y390D02*
X457Y390D01*
X585Y390D02*
X586Y390D01*
X657Y390D02*
X659Y390D01*
X783Y390D02*
X784Y390D01*
X855Y390D02*
X857Y390D01*
X382Y389D02*
X385Y389D01*
X455Y389D02*
X457Y389D01*
X585Y389D02*
X587Y389D01*
X656Y389D02*
X659Y389D01*
X783Y389D02*
X785Y389D01*
X854Y389D02*
X857Y389D01*
X382Y388D02*
X385Y388D01*
X454Y388D02*
X457Y388D01*
X585Y388D02*
X587Y388D01*
X656Y388D02*
X659Y388D01*
X783Y388D02*
X785Y388D01*
X854Y388D02*
X857Y388D01*
X382Y387D02*
X386Y387D01*
X454Y387D02*
X457Y387D01*
X585Y387D02*
X588Y387D01*
X655Y387D02*
X659Y387D01*
X783Y387D02*
X786Y387D01*
X853Y387D02*
X857Y387D01*
X382Y386D02*
X386Y386D01*
X453Y386D02*
X457Y386D01*
X585Y386D02*
X588Y386D01*
X655Y386D02*
X659Y386D01*
X783Y386D02*
X786Y386D01*
X853Y386D02*
X857Y386D01*
X382Y385D02*
X387Y385D01*
X453Y385D02*
X457Y385D01*
X585Y385D02*
X589Y385D01*
X654Y385D02*
X659Y385D01*
X783Y385D02*
X787Y385D01*
X852Y385D02*
X857Y385D01*
X382Y384D02*
X387Y384D01*
X452Y384D02*
X457Y384D01*
X585Y384D02*
X590Y384D01*
X654Y384D02*
X659Y384D01*
X783Y384D02*
X788Y384D01*
X852Y384D02*
X857Y384D01*
X382Y383D02*
X388Y383D01*
X451Y383D02*
X457Y383D01*
X585Y383D02*
X590Y383D01*
X653Y383D02*
X659Y383D01*
X783Y383D02*
X788Y383D01*
X851Y383D02*
X857Y383D01*
X382Y382D02*
X389Y382D01*
X451Y382D02*
X457Y382D01*
X585Y382D02*
X591Y382D01*
X652Y382D02*
X659Y382D01*
X783Y382D02*
X789Y382D01*
X850Y382D02*
X857Y382D01*
X382Y381D02*
X389Y381D01*
X450Y381D02*
X457Y381D01*
X585Y381D02*
X592Y381D01*
X652Y381D02*
X659Y381D01*
X783Y381D02*
X790Y381D01*
X849Y381D02*
X857Y381D01*
X382Y380D02*
X390Y380D01*
X449Y380D02*
X457Y380D01*
X585Y380D02*
X593Y380D01*
X651Y380D02*
X659Y380D01*
X783Y380D02*
X791Y380D01*
X849Y380D02*
X857Y380D01*
X382Y379D02*
X391Y379D01*
X448Y379D02*
X457Y379D01*
X585Y379D02*
X594Y379D01*
X650Y379D02*
X659Y379D01*
X783Y379D02*
X792Y379D01*
X848Y379D02*
X857Y379D01*
X382Y378D02*
X392Y378D01*
X447Y378D02*
X457Y378D01*
X585Y378D02*
X594Y378D01*
X649Y378D02*
X659Y378D01*
X783Y378D02*
X792Y378D01*
X847Y378D02*
X857Y378D01*
X382Y377D02*
X393Y377D01*
X446Y377D02*
X457Y377D01*
X585Y377D02*
X595Y377D01*
X648Y377D02*
X659Y377D01*
X783Y377D02*
X793Y377D01*
X846Y377D02*
X857Y377D01*
X382Y376D02*
X394Y376D01*
X445Y376D02*
X457Y376D01*
X585Y376D02*
X597Y376D01*
X647Y376D02*
X659Y376D01*
X783Y376D02*
X795Y376D01*
X845Y376D02*
X857Y376D01*
X382Y375D02*
X395Y375D01*
X444Y375D02*
X457Y375D01*
X585Y375D02*
X598Y375D01*
X645Y375D02*
X659Y375D01*
X783Y375D02*
X796Y375D01*
X843Y375D02*
X857Y375D01*
X382Y374D02*
X397Y374D01*
X443Y374D02*
X457Y374D01*
X585Y374D02*
X599Y374D01*
X644Y374D02*
X659Y374D01*
X783Y374D02*
X797Y374D01*
X842Y374D02*
X857Y374D01*
X382Y373D02*
X398Y373D01*
X441Y373D02*
X457Y373D01*
X585Y373D02*
X601Y373D01*
X643Y373D02*
X659Y373D01*
X783Y373D02*
X799Y373D01*
X841Y373D02*
X857Y373D01*
X382Y372D02*
X400Y372D01*
X440Y372D02*
X457Y372D01*
X585Y372D02*
X602Y372D01*
X641Y372D02*
X659Y372D01*
X783Y372D02*
X800Y372D01*
X839Y372D02*
X857Y372D01*
X382Y371D02*
X401Y371D01*
X438Y371D02*
X457Y371D01*
X585Y371D02*
X604Y371D01*
X639Y371D02*
X659Y371D01*
X783Y371D02*
X802Y371D01*
X837Y371D02*
X857Y371D01*
X382Y370D02*
X403Y370D01*
X436Y370D02*
X457Y370D01*
X585Y370D02*
X606Y370D01*
X637Y370D02*
X659Y370D01*
X783Y370D02*
X804Y370D01*
X835Y370D02*
X857Y370D01*
X382Y369D02*
X406Y369D01*
X434Y369D02*
X457Y369D01*
X585Y369D02*
X609Y369D01*
X635Y369D02*
X659Y369D01*
X783Y369D02*
X807Y369D01*
X833Y369D02*
X857Y369D01*
X382Y368D02*
X409Y368D01*
X431Y368D02*
X457Y368D01*
X585Y368D02*
X612Y368D01*
X631Y368D02*
X659Y368D01*
X783Y368D02*
X810Y368D01*
X829Y368D02*
X857Y368D01*
X382Y367D02*
X413Y367D01*
X426Y367D02*
X457Y367D01*
X585Y367D02*
X619Y367D01*
X625Y367D02*
X659Y367D01*
X783Y367D02*
X817Y367D01*
X823Y367D02*
X857Y367D01*
X382Y366D02*
X457Y366D01*
X585Y366D02*
X659Y366D01*
X783Y366D02*
X857Y366D01*
X382Y365D02*
X457Y365D01*
X585Y365D02*
X659Y365D01*
X783Y365D02*
X857Y365D01*
X382Y364D02*
X457Y364D01*
X585Y364D02*
X659Y364D01*
X783Y364D02*
X857Y364D01*
X382Y363D02*
X457Y363D01*
X585Y363D02*
X659Y363D01*
X783Y363D02*
X857Y363D01*
X382Y362D02*
X457Y362D01*
X585Y362D02*
X659Y362D01*
X783Y362D02*
X857Y362D01*
X382Y361D02*
X457Y361D01*
X585Y361D02*
X659Y361D01*
X783Y361D02*
X857Y361D01*
X382Y360D02*
X457Y360D01*
X585Y360D02*
X659Y360D01*
X783Y360D02*
X857Y360D01*
X382Y359D02*
X457Y359D01*
X585Y359D02*
X659Y359D01*
X783Y359D02*
X857Y359D01*
X382Y358D02*
X457Y358D01*
X585Y358D02*
X659Y358D01*
X783Y358D02*
X857Y358D01*
X382Y357D02*
X457Y357D01*
X585Y357D02*
X659Y357D01*
X783Y357D02*
X857Y357D01*
X382Y356D02*
X457Y356D01*
X585Y356D02*
X659Y356D01*
X783Y356D02*
X857Y356D01*
X382Y355D02*
X457Y355D01*
X585Y355D02*
X659Y355D01*
X783Y355D02*
X857Y355D01*
X382Y354D02*
X457Y354D01*
X585Y354D02*
X659Y354D01*
X783Y354D02*
X857Y354D01*
X382Y353D02*
X457Y353D01*
X585Y353D02*
X659Y353D01*
X783Y353D02*
X857Y353D01*
X382Y352D02*
X457Y352D01*
X585Y352D02*
X659Y352D01*
X783Y352D02*
X857Y352D01*
X382Y351D02*
X457Y351D01*
X585Y351D02*
X659Y351D01*
X783Y351D02*
X857Y351D01*
X382Y350D02*
X457Y350D01*
X585Y350D02*
X659Y350D01*
X783Y350D02*
X857Y350D01*
X382Y349D02*
X457Y349D01*
X585Y349D02*
X659Y349D01*
X783Y349D02*
X857Y349D01*
X382Y348D02*
X457Y348D01*
X585Y348D02*
X659Y348D01*
X783Y348D02*
X857Y348D01*
X382Y347D02*
X457Y347D01*
X585Y347D02*
X659Y347D01*
X783Y347D02*
X857Y347D01*
X382Y346D02*
X457Y346D01*
X585Y346D02*
X659Y346D01*
X783Y346D02*
X857Y346D01*
X382Y345D02*
X457Y345D01*
X585Y345D02*
X659Y345D01*
X783Y345D02*
X857Y345D01*
X382Y344D02*
X457Y344D01*
X585Y344D02*
X659Y344D01*
X783Y344D02*
X857Y344D01*
X382Y343D02*
X457Y343D01*
X585Y343D02*
X659Y343D01*
X783Y343D02*
X857Y343D01*
X382Y342D02*
X457Y342D01*
X585Y342D02*
X659Y342D01*
X783Y342D02*
X857Y342D01*
X382Y341D02*
X457Y341D01*
X585Y341D02*
X659Y341D01*
X783Y341D02*
X857Y341D01*
X382Y340D02*
X457Y340D01*
X585Y340D02*
X659Y340D01*
X783Y340D02*
X857Y340D01*
X382Y339D02*
X457Y339D01*
X585Y339D02*
X659Y339D01*
X783Y339D02*
X857Y339D01*
X382Y338D02*
X457Y338D01*
X585Y338D02*
X659Y338D01*
X783Y338D02*
X857Y338D01*
X382Y337D02*
X457Y337D01*
X585Y337D02*
X659Y337D01*
X783Y337D02*
X857Y337D01*
X382Y336D02*
X457Y336D01*
X585Y336D02*
X659Y336D01*
X783Y336D02*
X857Y336D01*
X382Y335D02*
X457Y335D01*
X585Y335D02*
X659Y335D01*
X783Y335D02*
X857Y335D01*
X382Y334D02*
X457Y334D01*
X585Y334D02*
X659Y334D01*
X783Y334D02*
X857Y334D01*
X382Y333D02*
X457Y333D01*
X585Y333D02*
X659Y333D01*
X783Y333D02*
X857Y333D01*
X382Y332D02*
X457Y332D01*
X585Y332D02*
X659Y332D01*
X783Y332D02*
X857Y332D01*
X382Y331D02*
X457Y331D01*
X585Y331D02*
X659Y331D01*
X783Y331D02*
X857Y331D01*
X382Y330D02*
X457Y330D01*
X585Y330D02*
X659Y330D01*
X783Y330D02*
X857Y330D01*
X382Y329D02*
X457Y329D01*
X585Y329D02*
X659Y329D01*
X783Y329D02*
X857Y329D01*
X382Y328D02*
X457Y328D01*
X585Y328D02*
X659Y328D01*
X783Y328D02*
X857Y328D01*
X382Y327D02*
X457Y327D01*
X585Y327D02*
X659Y327D01*
X783Y327D02*
X857Y327D01*
X382Y326D02*
X457Y326D01*
X585Y326D02*
X659Y326D01*
X783Y326D02*
X857Y326D01*
X382Y325D02*
X457Y325D01*
X585Y325D02*
X659Y325D01*
X783Y325D02*
X857Y325D01*
X382Y324D02*
X457Y324D01*
X585Y324D02*
X659Y324D01*
X783Y324D02*
X857Y324D01*
X382Y323D02*
X457Y323D01*
X585Y323D02*
X659Y323D01*
X783Y323D02*
X857Y323D01*
X382Y322D02*
X457Y322D01*
X585Y322D02*
X659Y322D01*
X783Y322D02*
X857Y322D01*
X382Y321D02*
X457Y321D01*
X585Y321D02*
X659Y321D01*
X783Y321D02*
X857Y321D01*
X382Y320D02*
X457Y320D01*
X585Y320D02*
X659Y320D01*
X783Y320D02*
X857Y320D01*
X382Y319D02*
X457Y319D01*
X585Y319D02*
X659Y319D01*
X783Y319D02*
X857Y319D01*
X382Y318D02*
X457Y318D01*
D02*
G04 End of Copper1*
M02*