; NON-PLATED HOLES START AT T1
; THROUGH (PLATED) HOLES START AT T100
M48
INCH
T1C0.033222
T2C0.125984
T100C0.040000
T101C0.051181
T102C0.035000
T103C0.028000
T104C0.031497
T105C0.042000
T106C0.039370
T107C0.098425
%
T1
X020252Y022093
X016189Y022097
T2
X001161Y023095
X035161Y023095
X001161Y001095
X035161Y001095
T100
X024161Y004095
X022783Y004095
X030783Y004095
X032161Y004095
X025783Y004095
X027161Y004095
T101
X004161Y003945
X006181Y003945
X008161Y003945
T102
X023161Y017095
X026161Y013095
X023161Y013095
X026161Y017095
T103
X021158Y010095
X012161Y017095
X012165Y012095
X012161Y014095
X021158Y018095
X012161Y011095
X021158Y015095
X021161Y013095
X012161Y019095
X012161Y016095
X018161Y022093
X019161Y022097
X021158Y017095
X012161Y010095
X021158Y014095
X021161Y012095
X015161Y022097
X021158Y011095
X012161Y018095
X012165Y013095
X012161Y015095
X021158Y019095
X021158Y016095
X016189Y022097
X020252Y022093
X017161Y022093
T104
X030161Y022095
X030161Y017095
X030161Y021111
X030161Y016111
T105
X026161Y007095
X026161Y010075
X023161Y007095
X023161Y010075
T106
X010161Y009095
X002161Y015095
X002161Y008095
X010161Y013095
X010161Y006095
X002161Y012095
X002161Y005095
X010161Y010095
X003561Y018495
X002161Y017095
X010161Y015095
X010161Y008095
X002161Y014095
X002161Y007095
X010161Y012095
X010161Y005095
X002161Y011095
X002161Y019095
X002161Y016095
X002161Y009095
X002161Y020095
X010161Y014095
X010161Y007095
X002161Y013095
X002161Y006095
X010161Y011095
X002161Y010095
X002161Y018095
X010161Y016095
T107
X002661Y021595
X009661Y021595
T00
M30
