G04 MADE WITH FRITZING*
G04 WWW.FRITZING.ORG*
G04 DOUBLE SIDED*
G04 HOLES PLATED*
G04 CONTOUR ON CENTER OF CONTOUR VECTOR*
%ASAXBY*%
%FSLAX23Y23*%
%MOIN*%
%OFA0B0*%
%SFA1.0B1.0*%
%ADD10C,0.092000*%
%ADD11C,0.072992*%
%ADD12C,0.090000*%
%ADD13C,0.070000*%
%ADD14C,0.043222*%
%ADD15C,0.085000*%
%ADD16C,0.080000*%
%ADD17C,0.108425*%
%ADD18C,0.160000*%
%ADD19C,0.110000*%
%ADD20C,0.076000*%
%ADD21C,0.096614*%
%ADD22R,0.092000X0.092000*%
%ADD23R,0.072992X0.072992*%
%ADD24R,0.090000X0.090000*%
%ADD25C,0.025436*%
%ADD26R,0.001000X0.001000*%
%LNMASK1*%
G90*
G70*
G54D10*
X2620Y718D03*
X2620Y1016D03*
X2320Y718D03*
X2320Y1016D03*
G54D11*
X3020Y2119D03*
X3020Y2218D03*
X3020Y1619D03*
X3020Y1718D03*
G54D12*
X3220Y418D03*
X3083Y418D03*
X2420Y418D03*
X2283Y418D03*
X2720Y418D03*
X2583Y418D03*
G54D13*
X1220Y1018D03*
X1220Y1118D03*
X1221Y1218D03*
X1221Y1318D03*
X1220Y1418D03*
X1220Y1518D03*
X1220Y1618D03*
X1220Y1718D03*
X1220Y1818D03*
X1220Y1918D03*
X2120Y1018D03*
X2120Y1118D03*
X2120Y1218D03*
X2120Y1318D03*
X2120Y1418D03*
X2120Y1518D03*
X2120Y1618D03*
X2120Y1718D03*
X2120Y1818D03*
X2120Y1918D03*
X1520Y2218D03*
X1720Y2218D03*
X1820Y2218D03*
X1920Y2218D03*
G54D14*
X1623Y2218D03*
G54D13*
X1623Y2218D03*
G54D14*
X2029Y2218D03*
G54D13*
X2029Y2218D03*
G54D15*
X2620Y1318D03*
X2620Y1718D03*
X2320Y1318D03*
X2320Y1718D03*
G54D16*
X1020Y1418D03*
G54D17*
X820Y403D03*
G54D18*
X270Y2168D03*
G54D17*
X622Y403D03*
G54D19*
X420Y403D03*
G54D20*
X360Y1858D03*
G54D16*
X1020Y1218D03*
X220Y2018D03*
X1020Y1618D03*
X220Y1918D03*
X220Y1818D03*
X220Y1718D03*
X220Y1618D03*
X220Y1518D03*
X220Y1418D03*
X1020Y1118D03*
X220Y1318D03*
X1020Y1318D03*
X220Y1218D03*
X1020Y1518D03*
X220Y1118D03*
G54D18*
X970Y2168D03*
G54D16*
X220Y1018D03*
X220Y918D03*
X220Y818D03*
X220Y718D03*
X220Y618D03*
X220Y518D03*
X1020Y518D03*
X1020Y618D03*
X1020Y718D03*
X1020Y818D03*
X1020Y918D03*
X1020Y1018D03*
G54D21*
X3520Y2318D03*
X3520Y118D03*
X120Y2318D03*
X120Y118D03*
G54D22*
X2620Y717D03*
X2320Y717D03*
G54D23*
X3020Y2119D03*
X3020Y1619D03*
G54D24*
X3220Y418D03*
X2420Y418D03*
X2720Y418D03*
G54D25*
X2051Y796D02*
X2051Y2139D01*
D02*
X2051Y2139D02*
X1299Y2139D01*
D02*
X1299Y2139D02*
X1299Y796D01*
D02*
X2051Y796D02*
X1866Y796D01*
D02*
X1485Y796D02*
X1299Y796D01*
G54D26*
X378Y496D02*
X462Y496D01*
X377Y495D02*
X462Y495D01*
X580Y495D02*
X663Y495D01*
X778Y495D02*
X861Y495D01*
X377Y494D02*
X462Y494D01*
X580Y494D02*
X664Y494D01*
X778Y494D02*
X862Y494D01*
X377Y493D02*
X462Y493D01*
X580Y493D02*
X664Y493D01*
X778Y493D02*
X862Y493D01*
X377Y492D02*
X462Y492D01*
X580Y492D02*
X664Y492D01*
X778Y492D02*
X862Y492D01*
X377Y491D02*
X462Y491D01*
X580Y491D02*
X664Y491D01*
X778Y491D02*
X862Y491D01*
X377Y490D02*
X462Y490D01*
X580Y490D02*
X664Y490D01*
X778Y490D02*
X862Y490D01*
X377Y489D02*
X462Y489D01*
X580Y489D02*
X664Y489D01*
X778Y489D02*
X862Y489D01*
X377Y488D02*
X462Y488D01*
X580Y488D02*
X664Y488D01*
X778Y488D02*
X862Y488D01*
X377Y487D02*
X462Y487D01*
X580Y487D02*
X664Y487D01*
X778Y487D02*
X862Y487D01*
X377Y486D02*
X462Y486D01*
X580Y486D02*
X664Y486D01*
X778Y486D02*
X862Y486D01*
X377Y485D02*
X462Y485D01*
X580Y485D02*
X664Y485D01*
X778Y485D02*
X862Y485D01*
X377Y484D02*
X462Y484D01*
X580Y484D02*
X664Y484D01*
X778Y484D02*
X862Y484D01*
X377Y483D02*
X462Y483D01*
X580Y483D02*
X664Y483D01*
X778Y483D02*
X862Y483D01*
X377Y482D02*
X462Y482D01*
X580Y482D02*
X664Y482D01*
X778Y482D02*
X862Y482D01*
X377Y481D02*
X462Y481D01*
X580Y481D02*
X664Y481D01*
X778Y481D02*
X862Y481D01*
X377Y480D02*
X462Y480D01*
X580Y480D02*
X664Y480D01*
X778Y480D02*
X862Y480D01*
X377Y479D02*
X462Y479D01*
X580Y479D02*
X664Y479D01*
X778Y479D02*
X862Y479D01*
X377Y478D02*
X462Y478D01*
X580Y478D02*
X664Y478D01*
X778Y478D02*
X862Y478D01*
X377Y477D02*
X462Y477D01*
X580Y477D02*
X664Y477D01*
X778Y477D02*
X862Y477D01*
X377Y476D02*
X462Y476D01*
X580Y476D02*
X664Y476D01*
X778Y476D02*
X862Y476D01*
X377Y475D02*
X462Y475D01*
X580Y475D02*
X664Y475D01*
X778Y475D02*
X862Y475D01*
X377Y474D02*
X462Y474D01*
X580Y474D02*
X664Y474D01*
X778Y474D02*
X862Y474D01*
X377Y473D02*
X462Y473D01*
X580Y473D02*
X664Y473D01*
X778Y473D02*
X862Y473D01*
X377Y472D02*
X462Y472D01*
X580Y472D02*
X664Y472D01*
X778Y472D02*
X862Y472D01*
X377Y471D02*
X462Y471D01*
X580Y471D02*
X664Y471D01*
X778Y471D02*
X862Y471D01*
X377Y470D02*
X462Y470D01*
X580Y470D02*
X664Y470D01*
X778Y470D02*
X862Y470D01*
X377Y469D02*
X462Y469D01*
X580Y469D02*
X664Y469D01*
X778Y469D02*
X862Y469D01*
X377Y468D02*
X462Y468D01*
X580Y468D02*
X664Y468D01*
X778Y468D02*
X862Y468D01*
X377Y467D02*
X462Y467D01*
X580Y467D02*
X664Y467D01*
X778Y467D02*
X862Y467D01*
X377Y466D02*
X462Y466D01*
X580Y466D02*
X664Y466D01*
X778Y466D02*
X862Y466D01*
X377Y465D02*
X462Y465D01*
X580Y465D02*
X664Y465D01*
X778Y465D02*
X862Y465D01*
X377Y464D02*
X462Y464D01*
X580Y464D02*
X664Y464D01*
X778Y464D02*
X862Y464D01*
X377Y463D02*
X462Y463D01*
X580Y463D02*
X664Y463D01*
X778Y463D02*
X862Y463D01*
X377Y462D02*
X462Y462D01*
X580Y462D02*
X664Y462D01*
X778Y462D02*
X862Y462D01*
X377Y461D02*
X462Y461D01*
X580Y461D02*
X664Y461D01*
X778Y461D02*
X862Y461D01*
X377Y460D02*
X462Y460D01*
X580Y460D02*
X664Y460D01*
X778Y460D02*
X862Y460D01*
X377Y459D02*
X462Y459D01*
X580Y459D02*
X664Y459D01*
X778Y459D02*
X862Y459D01*
X377Y458D02*
X462Y458D01*
X580Y458D02*
X664Y458D01*
X778Y458D02*
X862Y458D01*
X377Y457D02*
X462Y457D01*
X580Y457D02*
X664Y457D01*
X778Y457D02*
X862Y457D01*
X377Y456D02*
X462Y456D01*
X580Y456D02*
X664Y456D01*
X778Y456D02*
X862Y456D01*
X377Y455D02*
X462Y455D01*
X580Y455D02*
X664Y455D01*
X778Y455D02*
X862Y455D01*
X377Y454D02*
X462Y454D01*
X580Y454D02*
X664Y454D01*
X778Y454D02*
X862Y454D01*
X377Y453D02*
X462Y453D01*
X580Y453D02*
X664Y453D01*
X778Y453D02*
X862Y453D01*
X377Y452D02*
X462Y452D01*
X580Y452D02*
X664Y452D01*
X778Y452D02*
X862Y452D01*
X377Y451D02*
X462Y451D01*
X580Y451D02*
X664Y451D01*
X778Y451D02*
X862Y451D01*
X377Y450D02*
X462Y450D01*
X580Y450D02*
X664Y450D01*
X778Y450D02*
X862Y450D01*
X377Y449D02*
X462Y449D01*
X580Y449D02*
X664Y449D01*
X778Y449D02*
X862Y449D01*
X377Y448D02*
X462Y448D01*
X580Y448D02*
X664Y448D01*
X778Y448D02*
X862Y448D01*
X377Y447D02*
X462Y447D01*
X580Y447D02*
X664Y447D01*
X778Y447D02*
X862Y447D01*
X377Y446D02*
X462Y446D01*
X580Y446D02*
X664Y446D01*
X778Y446D02*
X862Y446D01*
X377Y445D02*
X462Y445D01*
X580Y445D02*
X664Y445D01*
X778Y445D02*
X862Y445D01*
X377Y444D02*
X462Y444D01*
X580Y444D02*
X664Y444D01*
X778Y444D02*
X862Y444D01*
X377Y443D02*
X462Y443D01*
X580Y443D02*
X664Y443D01*
X778Y443D02*
X862Y443D01*
X377Y442D02*
X462Y442D01*
X580Y442D02*
X664Y442D01*
X778Y442D02*
X862Y442D01*
X377Y441D02*
X462Y441D01*
X580Y441D02*
X664Y441D01*
X778Y441D02*
X862Y441D01*
X377Y440D02*
X462Y440D01*
X580Y440D02*
X664Y440D01*
X778Y440D02*
X862Y440D01*
X377Y439D02*
X462Y439D01*
X580Y439D02*
X664Y439D01*
X778Y439D02*
X862Y439D01*
X377Y438D02*
X462Y438D01*
X580Y438D02*
X664Y438D01*
X778Y438D02*
X862Y438D01*
X377Y437D02*
X419Y437D01*
X421Y437D02*
X462Y437D01*
X580Y437D02*
X664Y437D01*
X778Y437D02*
X862Y437D01*
X377Y436D02*
X411Y436D01*
X429Y436D02*
X462Y436D01*
X580Y436D02*
X615Y436D01*
X629Y436D02*
X664Y436D01*
X778Y436D02*
X813Y436D01*
X826Y436D02*
X862Y436D01*
X377Y435D02*
X408Y435D01*
X432Y435D02*
X462Y435D01*
X580Y435D02*
X611Y435D01*
X633Y435D02*
X664Y435D01*
X778Y435D02*
X809Y435D01*
X831Y435D02*
X862Y435D01*
X377Y434D02*
X405Y434D01*
X434Y434D02*
X462Y434D01*
X580Y434D02*
X608Y434D01*
X635Y434D02*
X664Y434D01*
X778Y434D02*
X806Y434D01*
X833Y434D02*
X862Y434D01*
X377Y433D02*
X403Y433D01*
X436Y433D02*
X462Y433D01*
X580Y433D02*
X606Y433D01*
X637Y433D02*
X664Y433D01*
X778Y433D02*
X804Y433D01*
X835Y433D02*
X862Y433D01*
X377Y432D02*
X402Y432D01*
X438Y432D02*
X462Y432D01*
X580Y432D02*
X604Y432D01*
X639Y432D02*
X664Y432D01*
X778Y432D02*
X802Y432D01*
X837Y432D02*
X862Y432D01*
X377Y431D02*
X400Y431D01*
X439Y431D02*
X462Y431D01*
X580Y431D02*
X603Y431D01*
X641Y431D02*
X664Y431D01*
X778Y431D02*
X801Y431D01*
X839Y431D02*
X862Y431D01*
X377Y430D02*
X399Y430D01*
X440Y430D02*
X462Y430D01*
X580Y430D02*
X601Y430D01*
X642Y430D02*
X664Y430D01*
X778Y430D02*
X799Y430D01*
X840Y430D02*
X862Y430D01*
X377Y429D02*
X398Y429D01*
X442Y429D02*
X462Y429D01*
X580Y429D02*
X600Y429D01*
X643Y429D02*
X664Y429D01*
X778Y429D02*
X798Y429D01*
X841Y429D02*
X862Y429D01*
X377Y428D02*
X397Y428D01*
X443Y428D02*
X462Y428D01*
X580Y428D02*
X599Y428D01*
X644Y428D02*
X664Y428D01*
X778Y428D02*
X797Y428D01*
X842Y428D02*
X862Y428D01*
X377Y427D02*
X396Y427D01*
X444Y427D02*
X462Y427D01*
X580Y427D02*
X598Y427D01*
X645Y427D02*
X664Y427D01*
X778Y427D02*
X796Y427D01*
X843Y427D02*
X862Y427D01*
X377Y426D02*
X395Y426D01*
X445Y426D02*
X462Y426D01*
X580Y426D02*
X597Y426D01*
X646Y426D02*
X664Y426D01*
X778Y426D02*
X795Y426D01*
X844Y426D02*
X862Y426D01*
X377Y425D02*
X394Y425D01*
X446Y425D02*
X462Y425D01*
X580Y425D02*
X596Y425D01*
X647Y425D02*
X664Y425D01*
X778Y425D02*
X794Y425D01*
X845Y425D02*
X862Y425D01*
X377Y424D02*
X393Y424D01*
X446Y424D02*
X462Y424D01*
X580Y424D02*
X595Y424D01*
X648Y424D02*
X664Y424D01*
X778Y424D02*
X793Y424D01*
X846Y424D02*
X862Y424D01*
X377Y423D02*
X392Y423D01*
X447Y423D02*
X462Y423D01*
X580Y423D02*
X595Y423D01*
X649Y423D02*
X664Y423D01*
X778Y423D02*
X793Y423D01*
X847Y423D02*
X862Y423D01*
X377Y422D02*
X392Y422D01*
X448Y422D02*
X462Y422D01*
X580Y422D02*
X594Y422D01*
X649Y422D02*
X664Y422D01*
X778Y422D02*
X792Y422D01*
X847Y422D02*
X862Y422D01*
X377Y421D02*
X391Y421D01*
X448Y421D02*
X462Y421D01*
X580Y421D02*
X593Y421D01*
X650Y421D02*
X664Y421D01*
X778Y421D02*
X791Y421D01*
X848Y421D02*
X862Y421D01*
X377Y420D02*
X390Y420D01*
X449Y420D02*
X462Y420D01*
X580Y420D02*
X593Y420D01*
X651Y420D02*
X664Y420D01*
X778Y420D02*
X791Y420D01*
X848Y420D02*
X862Y420D01*
X377Y419D02*
X390Y419D01*
X450Y419D02*
X462Y419D01*
X580Y419D02*
X592Y419D01*
X651Y419D02*
X664Y419D01*
X778Y419D02*
X790Y419D01*
X849Y419D02*
X862Y419D01*
X377Y418D02*
X389Y418D01*
X450Y418D02*
X462Y418D01*
X580Y418D02*
X592Y418D01*
X652Y418D02*
X664Y418D01*
X778Y418D02*
X790Y418D01*
X849Y418D02*
X862Y418D01*
X377Y417D02*
X389Y417D01*
X451Y417D02*
X462Y417D01*
X580Y417D02*
X591Y417D01*
X652Y417D02*
X664Y417D01*
X778Y417D02*
X789Y417D01*
X850Y417D02*
X862Y417D01*
X377Y416D02*
X389Y416D01*
X451Y416D02*
X462Y416D01*
X580Y416D02*
X591Y416D01*
X652Y416D02*
X664Y416D01*
X778Y416D02*
X789Y416D01*
X850Y416D02*
X862Y416D01*
X377Y415D02*
X388Y415D01*
X451Y415D02*
X462Y415D01*
X580Y415D02*
X590Y415D01*
X653Y415D02*
X664Y415D01*
X778Y415D02*
X788Y415D01*
X851Y415D02*
X862Y415D01*
X377Y414D02*
X388Y414D01*
X452Y414D02*
X462Y414D01*
X580Y414D02*
X590Y414D01*
X653Y414D02*
X664Y414D01*
X778Y414D02*
X788Y414D01*
X851Y414D02*
X862Y414D01*
X377Y413D02*
X388Y413D01*
X452Y413D02*
X462Y413D01*
X580Y413D02*
X590Y413D01*
X653Y413D02*
X664Y413D01*
X778Y413D02*
X788Y413D01*
X851Y413D02*
X862Y413D01*
X377Y412D02*
X387Y412D01*
X452Y412D02*
X462Y412D01*
X580Y412D02*
X590Y412D01*
X654Y412D02*
X664Y412D01*
X778Y412D02*
X788Y412D01*
X852Y412D02*
X862Y412D01*
X377Y411D02*
X387Y411D01*
X452Y411D02*
X462Y411D01*
X580Y411D02*
X589Y411D01*
X654Y411D02*
X664Y411D01*
X778Y411D02*
X787Y411D01*
X852Y411D02*
X862Y411D01*
X377Y410D02*
X387Y410D01*
X453Y410D02*
X462Y410D01*
X580Y410D02*
X589Y410D01*
X654Y410D02*
X664Y410D01*
X778Y410D02*
X787Y410D01*
X852Y410D02*
X862Y410D01*
X377Y409D02*
X387Y409D01*
X453Y409D02*
X462Y409D01*
X580Y409D02*
X589Y409D01*
X654Y409D02*
X664Y409D01*
X778Y409D02*
X787Y409D01*
X852Y409D02*
X862Y409D01*
X377Y408D02*
X387Y408D01*
X453Y408D02*
X462Y408D01*
X580Y408D02*
X589Y408D01*
X654Y408D02*
X664Y408D01*
X778Y408D02*
X787Y408D01*
X852Y408D02*
X862Y408D01*
X377Y407D02*
X387Y407D01*
X453Y407D02*
X462Y407D01*
X580Y407D02*
X589Y407D01*
X654Y407D02*
X664Y407D01*
X778Y407D02*
X787Y407D01*
X852Y407D02*
X862Y407D01*
X377Y406D02*
X387Y406D01*
X453Y406D02*
X462Y406D01*
X580Y406D02*
X589Y406D01*
X654Y406D02*
X664Y406D01*
X778Y406D02*
X787Y406D01*
X852Y406D02*
X862Y406D01*
X377Y405D02*
X387Y405D01*
X453Y405D02*
X462Y405D01*
X580Y405D02*
X589Y405D01*
X654Y405D02*
X664Y405D01*
X778Y405D02*
X787Y405D01*
X852Y405D02*
X862Y405D01*
X377Y404D02*
X387Y404D01*
X453Y404D02*
X462Y404D01*
X580Y404D02*
X589Y404D01*
X654Y404D02*
X664Y404D01*
X778Y404D02*
X787Y404D01*
X852Y404D02*
X862Y404D01*
X377Y403D02*
X387Y403D01*
X453Y403D02*
X462Y403D01*
X580Y403D02*
X589Y403D01*
X654Y403D02*
X664Y403D01*
X778Y403D02*
X787Y403D01*
X852Y403D02*
X862Y403D01*
X377Y402D02*
X387Y402D01*
X453Y402D02*
X462Y402D01*
X580Y402D02*
X589Y402D01*
X654Y402D02*
X664Y402D01*
X778Y402D02*
X787Y402D01*
X852Y402D02*
X862Y402D01*
X377Y401D02*
X387Y401D01*
X453Y401D02*
X462Y401D01*
X580Y401D02*
X589Y401D01*
X654Y401D02*
X664Y401D01*
X778Y401D02*
X787Y401D01*
X852Y401D02*
X862Y401D01*
X377Y400D02*
X387Y400D01*
X453Y400D02*
X462Y400D01*
X580Y400D02*
X589Y400D01*
X654Y400D02*
X664Y400D01*
X778Y400D02*
X787Y400D01*
X852Y400D02*
X862Y400D01*
X377Y399D02*
X387Y399D01*
X453Y399D02*
X462Y399D01*
X580Y399D02*
X589Y399D01*
X654Y399D02*
X664Y399D01*
X778Y399D02*
X787Y399D01*
X852Y399D02*
X862Y399D01*
X377Y398D02*
X387Y398D01*
X452Y398D02*
X462Y398D01*
X580Y398D02*
X589Y398D01*
X654Y398D02*
X664Y398D01*
X778Y398D02*
X787Y398D01*
X852Y398D02*
X862Y398D01*
X377Y397D02*
X387Y397D01*
X452Y397D02*
X462Y397D01*
X580Y397D02*
X589Y397D01*
X654Y397D02*
X664Y397D01*
X778Y397D02*
X787Y397D01*
X852Y397D02*
X862Y397D01*
X377Y396D02*
X387Y396D01*
X452Y396D02*
X462Y396D01*
X580Y396D02*
X590Y396D01*
X654Y396D02*
X664Y396D01*
X778Y396D02*
X788Y396D01*
X852Y396D02*
X862Y396D01*
X377Y395D02*
X388Y395D01*
X452Y395D02*
X462Y395D01*
X580Y395D02*
X590Y395D01*
X653Y395D02*
X664Y395D01*
X778Y395D02*
X788Y395D01*
X851Y395D02*
X862Y395D01*
X377Y394D02*
X388Y394D01*
X451Y394D02*
X462Y394D01*
X580Y394D02*
X590Y394D01*
X653Y394D02*
X664Y394D01*
X778Y394D02*
X788Y394D01*
X851Y394D02*
X862Y394D01*
X377Y393D02*
X388Y393D01*
X451Y393D02*
X462Y393D01*
X580Y393D02*
X591Y393D01*
X653Y393D02*
X664Y393D01*
X778Y393D02*
X789Y393D01*
X851Y393D02*
X862Y393D01*
X377Y392D02*
X389Y392D01*
X451Y392D02*
X462Y392D01*
X580Y392D02*
X591Y392D01*
X652Y392D02*
X664Y392D01*
X778Y392D02*
X789Y392D01*
X850Y392D02*
X862Y392D01*
X377Y391D02*
X389Y391D01*
X450Y391D02*
X462Y391D01*
X580Y391D02*
X592Y391D01*
X652Y391D02*
X664Y391D01*
X778Y391D02*
X789Y391D01*
X850Y391D02*
X862Y391D01*
X377Y390D02*
X390Y390D01*
X450Y390D02*
X462Y390D01*
X580Y390D02*
X592Y390D01*
X651Y390D02*
X664Y390D01*
X778Y390D02*
X790Y390D01*
X849Y390D02*
X862Y390D01*
X377Y389D02*
X390Y389D01*
X449Y389D02*
X462Y389D01*
X580Y389D02*
X593Y389D01*
X651Y389D02*
X664Y389D01*
X778Y389D02*
X790Y389D01*
X849Y389D02*
X862Y389D01*
X377Y388D02*
X391Y388D01*
X449Y388D02*
X462Y388D01*
X580Y388D02*
X593Y388D01*
X650Y388D02*
X664Y388D01*
X778Y388D02*
X791Y388D01*
X848Y388D02*
X862Y388D01*
X377Y387D02*
X391Y387D01*
X448Y387D02*
X462Y387D01*
X580Y387D02*
X594Y387D01*
X650Y387D02*
X664Y387D01*
X778Y387D02*
X792Y387D01*
X848Y387D02*
X862Y387D01*
X377Y386D02*
X392Y386D01*
X448Y386D02*
X462Y386D01*
X580Y386D02*
X594Y386D01*
X649Y386D02*
X664Y386D01*
X778Y386D02*
X792Y386D01*
X847Y386D02*
X862Y386D01*
X377Y385D02*
X393Y385D01*
X447Y385D02*
X462Y385D01*
X580Y385D02*
X595Y385D01*
X648Y385D02*
X664Y385D01*
X778Y385D02*
X793Y385D01*
X846Y385D02*
X862Y385D01*
X377Y384D02*
X393Y384D01*
X446Y384D02*
X462Y384D01*
X580Y384D02*
X596Y384D01*
X648Y384D02*
X664Y384D01*
X778Y384D02*
X794Y384D01*
X846Y384D02*
X862Y384D01*
X377Y383D02*
X394Y383D01*
X445Y383D02*
X462Y383D01*
X580Y383D02*
X597Y383D01*
X647Y383D02*
X664Y383D01*
X778Y383D02*
X795Y383D01*
X845Y383D02*
X862Y383D01*
X377Y382D02*
X395Y382D01*
X444Y382D02*
X462Y382D01*
X580Y382D02*
X597Y382D01*
X646Y382D02*
X664Y382D01*
X778Y382D02*
X795Y382D01*
X844Y382D02*
X862Y382D01*
X377Y381D02*
X396Y381D01*
X443Y381D02*
X462Y381D01*
X580Y381D02*
X598Y381D01*
X645Y381D02*
X664Y381D01*
X778Y381D02*
X796Y381D01*
X843Y381D02*
X862Y381D01*
X377Y380D02*
X397Y380D01*
X442Y380D02*
X462Y380D01*
X580Y380D02*
X599Y380D01*
X644Y380D02*
X664Y380D01*
X778Y380D02*
X797Y380D01*
X842Y380D02*
X862Y380D01*
X377Y379D02*
X398Y379D01*
X441Y379D02*
X462Y379D01*
X580Y379D02*
X601Y379D01*
X643Y379D02*
X664Y379D01*
X778Y379D02*
X799Y379D01*
X841Y379D02*
X862Y379D01*
X377Y378D02*
X400Y378D01*
X440Y378D02*
X462Y378D01*
X580Y378D02*
X602Y378D01*
X641Y378D02*
X664Y378D01*
X778Y378D02*
X800Y378D01*
X839Y378D02*
X862Y378D01*
X377Y377D02*
X401Y377D01*
X439Y377D02*
X462Y377D01*
X580Y377D02*
X603Y377D01*
X640Y377D02*
X664Y377D01*
X778Y377D02*
X801Y377D01*
X838Y377D02*
X862Y377D01*
X377Y376D02*
X403Y376D01*
X437Y376D02*
X462Y376D01*
X580Y376D02*
X605Y376D01*
X638Y376D02*
X664Y376D01*
X778Y376D02*
X803Y376D01*
X836Y376D02*
X862Y376D01*
X377Y375D02*
X404Y375D01*
X435Y375D02*
X462Y375D01*
X580Y375D02*
X607Y375D01*
X636Y375D02*
X664Y375D01*
X778Y375D02*
X805Y375D01*
X834Y375D02*
X862Y375D01*
X377Y374D02*
X406Y374D01*
X433Y374D02*
X462Y374D01*
X580Y374D02*
X609Y374D01*
X634Y374D02*
X664Y374D01*
X778Y374D02*
X807Y374D01*
X832Y374D02*
X862Y374D01*
X377Y373D02*
X409Y373D01*
X430Y373D02*
X462Y373D01*
X580Y373D02*
X612Y373D01*
X631Y373D02*
X664Y373D01*
X778Y373D02*
X810Y373D01*
X829Y373D02*
X862Y373D01*
X377Y372D02*
X413Y372D01*
X426Y372D02*
X462Y372D01*
X580Y372D02*
X618Y372D01*
X625Y372D02*
X664Y372D01*
X778Y372D02*
X816Y372D01*
X823Y372D02*
X862Y372D01*
X377Y371D02*
X462Y371D01*
X580Y371D02*
X664Y371D01*
X778Y371D02*
X862Y371D01*
X377Y370D02*
X462Y370D01*
X580Y370D02*
X664Y370D01*
X778Y370D02*
X862Y370D01*
X377Y369D02*
X462Y369D01*
X580Y369D02*
X664Y369D01*
X778Y369D02*
X862Y369D01*
X377Y368D02*
X462Y368D01*
X580Y368D02*
X664Y368D01*
X778Y368D02*
X862Y368D01*
X377Y367D02*
X462Y367D01*
X580Y367D02*
X664Y367D01*
X778Y367D02*
X862Y367D01*
X377Y366D02*
X462Y366D01*
X580Y366D02*
X664Y366D01*
X778Y366D02*
X862Y366D01*
X377Y365D02*
X462Y365D01*
X580Y365D02*
X664Y365D01*
X778Y365D02*
X862Y365D01*
X377Y364D02*
X462Y364D01*
X580Y364D02*
X664Y364D01*
X778Y364D02*
X862Y364D01*
X377Y363D02*
X462Y363D01*
X580Y363D02*
X664Y363D01*
X778Y363D02*
X862Y363D01*
X377Y362D02*
X462Y362D01*
X580Y362D02*
X664Y362D01*
X778Y362D02*
X862Y362D01*
X377Y361D02*
X462Y361D01*
X580Y361D02*
X664Y361D01*
X778Y361D02*
X862Y361D01*
X377Y360D02*
X462Y360D01*
X580Y360D02*
X664Y360D01*
X778Y360D02*
X862Y360D01*
X377Y359D02*
X462Y359D01*
X580Y359D02*
X664Y359D01*
X778Y359D02*
X862Y359D01*
X377Y358D02*
X462Y358D01*
X580Y358D02*
X664Y358D01*
X778Y358D02*
X862Y358D01*
X377Y357D02*
X462Y357D01*
X580Y357D02*
X664Y357D01*
X778Y357D02*
X862Y357D01*
X377Y356D02*
X462Y356D01*
X580Y356D02*
X664Y356D01*
X778Y356D02*
X862Y356D01*
X377Y355D02*
X462Y355D01*
X580Y355D02*
X664Y355D01*
X778Y355D02*
X862Y355D01*
X377Y354D02*
X462Y354D01*
X580Y354D02*
X664Y354D01*
X778Y354D02*
X862Y354D01*
X377Y353D02*
X462Y353D01*
X580Y353D02*
X664Y353D01*
X778Y353D02*
X862Y353D01*
X377Y352D02*
X462Y352D01*
X580Y352D02*
X664Y352D01*
X778Y352D02*
X862Y352D01*
X377Y351D02*
X462Y351D01*
X580Y351D02*
X664Y351D01*
X778Y351D02*
X862Y351D01*
X377Y350D02*
X462Y350D01*
X580Y350D02*
X664Y350D01*
X778Y350D02*
X862Y350D01*
X377Y349D02*
X462Y349D01*
X580Y349D02*
X664Y349D01*
X778Y349D02*
X862Y349D01*
X377Y348D02*
X462Y348D01*
X580Y348D02*
X664Y348D01*
X778Y348D02*
X862Y348D01*
X377Y347D02*
X462Y347D01*
X580Y347D02*
X664Y347D01*
X778Y347D02*
X862Y347D01*
X377Y346D02*
X462Y346D01*
X580Y346D02*
X664Y346D01*
X778Y346D02*
X862Y346D01*
X377Y345D02*
X462Y345D01*
X580Y345D02*
X664Y345D01*
X778Y345D02*
X862Y345D01*
X377Y344D02*
X462Y344D01*
X580Y344D02*
X664Y344D01*
X778Y344D02*
X862Y344D01*
X377Y343D02*
X462Y343D01*
X580Y343D02*
X664Y343D01*
X778Y343D02*
X862Y343D01*
X377Y342D02*
X462Y342D01*
X580Y342D02*
X664Y342D01*
X778Y342D02*
X862Y342D01*
X377Y341D02*
X462Y341D01*
X580Y341D02*
X664Y341D01*
X778Y341D02*
X862Y341D01*
X377Y340D02*
X462Y340D01*
X580Y340D02*
X664Y340D01*
X778Y340D02*
X862Y340D01*
X377Y339D02*
X462Y339D01*
X580Y339D02*
X664Y339D01*
X778Y339D02*
X862Y339D01*
X377Y338D02*
X462Y338D01*
X580Y338D02*
X664Y338D01*
X778Y338D02*
X862Y338D01*
X377Y337D02*
X462Y337D01*
X580Y337D02*
X664Y337D01*
X778Y337D02*
X862Y337D01*
X377Y336D02*
X462Y336D01*
X580Y336D02*
X664Y336D01*
X778Y336D02*
X862Y336D01*
X377Y335D02*
X462Y335D01*
X580Y335D02*
X664Y335D01*
X778Y335D02*
X862Y335D01*
X377Y334D02*
X462Y334D01*
X580Y334D02*
X664Y334D01*
X778Y334D02*
X862Y334D01*
X377Y333D02*
X462Y333D01*
X580Y333D02*
X664Y333D01*
X778Y333D02*
X862Y333D01*
X377Y332D02*
X462Y332D01*
X580Y332D02*
X664Y332D01*
X778Y332D02*
X862Y332D01*
X377Y331D02*
X462Y331D01*
X580Y331D02*
X664Y331D01*
X778Y331D02*
X862Y331D01*
X377Y330D02*
X462Y330D01*
X580Y330D02*
X664Y330D01*
X778Y330D02*
X862Y330D01*
X377Y329D02*
X462Y329D01*
X580Y329D02*
X664Y329D01*
X778Y329D02*
X862Y329D01*
X377Y328D02*
X462Y328D01*
X580Y328D02*
X664Y328D01*
X778Y328D02*
X862Y328D01*
X377Y327D02*
X462Y327D01*
X580Y327D02*
X664Y327D01*
X778Y327D02*
X862Y327D01*
X377Y326D02*
X462Y326D01*
X580Y326D02*
X664Y326D01*
X778Y326D02*
X862Y326D01*
X377Y325D02*
X462Y325D01*
X580Y325D02*
X664Y325D01*
X778Y325D02*
X862Y325D01*
X377Y324D02*
X462Y324D01*
X580Y324D02*
X664Y324D01*
X778Y324D02*
X862Y324D01*
X377Y323D02*
X462Y323D01*
X580Y323D02*
X664Y323D01*
X778Y323D02*
X862Y323D01*
X377Y322D02*
X462Y322D01*
X580Y322D02*
X664Y322D01*
X778Y322D02*
X862Y322D01*
X377Y321D02*
X462Y321D01*
X580Y321D02*
X664Y321D01*
X778Y321D02*
X862Y321D01*
X377Y320D02*
X462Y320D01*
X580Y320D02*
X664Y320D01*
X778Y320D02*
X862Y320D01*
X377Y319D02*
X462Y319D01*
X580Y319D02*
X664Y319D01*
X778Y319D02*
X862Y319D01*
X377Y318D02*
X462Y318D01*
X580Y318D02*
X664Y318D01*
X778Y318D02*
X862Y318D01*
X377Y317D02*
X462Y317D01*
X580Y317D02*
X664Y317D01*
X778Y317D02*
X862Y317D01*
X377Y316D02*
X462Y316D01*
X580Y316D02*
X664Y316D01*
X778Y316D02*
X862Y316D01*
X377Y315D02*
X462Y315D01*
X580Y315D02*
X664Y315D01*
X778Y315D02*
X862Y315D01*
X377Y314D02*
X462Y314D01*
X580Y314D02*
X664Y314D01*
X778Y314D02*
X862Y314D01*
X377Y313D02*
X462Y313D01*
D02*
G04 End of Mask1*
M02*