; NON-PLATED HOLES START AT T1
; THROUGH (PLATED) HOLES START AT T100
M48
INCH
T1C0.086614
T2C0.033222
T100C0.042000
T101C0.039370
T102C0.098425
T103C0.040000
T104C0.051181
T105C0.035000
T106C0.028000
T107C0.031497
%
T1
X001203Y001178
X035203Y001178
X001203Y023178
X035203Y023178
T2
X016231Y022180
X020293Y022176
T100
X023203Y010158
X026203Y007178
X026203Y010158
X023203Y007178
T101
X002203Y014178
X002203Y007178
X002203Y011178
X010203Y016178
X010203Y009178
X010203Y013178
X010203Y006178
X002203Y019178
X010203Y010178
X002203Y016178
X002203Y009178
X002203Y020178
X003603Y018578
X002203Y013178
X002203Y006178
X002203Y010178
X010203Y015178
X010203Y008178
X010203Y012178
X010203Y005178
X002203Y018178
X002203Y015178
X002203Y008178
X002203Y012178
X002203Y005178
X010203Y014178
X010203Y007178
X010203Y011178
X002203Y017178
T102
X009703Y021678
X002703Y021678
T103
X027203Y004178
X025825Y004178
X024203Y004178
X022825Y004178
X032203Y004178
X030825Y004178
T104
X006222Y004028
X008203Y004028
X004203Y004028
T105
X023203Y013178
X026203Y017178
X023203Y017178
X026203Y013178
T106
X012203Y016178
X020293Y022176
X015203Y022180
X021199Y010178
X012207Y012178
X012203Y010178
X021199Y018178
X021199Y015178
X012203Y018178
X021203Y013178
X012203Y015178
X019203Y022180
X016231Y022180
X018203Y022176
X021199Y017178
X017203Y022176
X021199Y014178
X012203Y017178
X021203Y012178
X021199Y011178
X012203Y014178
X012207Y013178
X012203Y011178
X021199Y019178
X021199Y016178
X012203Y019178
T107
X030203Y017178
X030203Y016194
X030203Y022178
X030203Y021194
T00
M30
