G04 MADE WITH FRITZING*
G04 WWW.FRITZING.ORG*
G04 DOUBLE SIDED*
G04 HOLES PLATED*
G04 CONTOUR ON CENTER OF CONTOUR VECTOR*
%ASAXBY*%
%FSLAX23Y23*%
%MOIN*%
%OFA0B0*%
%SFA1.0B1.0*%
%ADD10C,0.092000*%
%ADD11C,0.072992*%
%ADD12C,0.090000*%
%ADD13C,0.070000*%
%ADD14C,0.085000*%
%ADD15C,0.080000*%
%ADD16C,0.108425*%
%ADD17C,0.160000*%
%ADD18C,0.110000*%
%ADD19C,0.076000*%
%ADD20C,0.135984*%
%ADD21R,0.092000X0.092000*%
%ADD22R,0.072992X0.072992*%
%ADD23R,0.090000X0.090000*%
%ADD24R,0.001000X0.001000*%
%LNMASK0*%
G90*
G70*
G54D10*
X2616Y710D03*
X2616Y1008D03*
X2316Y710D03*
X2316Y1008D03*
G54D11*
X3016Y2111D03*
X3016Y2210D03*
X3016Y1611D03*
X3016Y1710D03*
G54D12*
X3216Y410D03*
X3078Y410D03*
X2416Y410D03*
X2278Y410D03*
X2716Y410D03*
X2578Y410D03*
G54D13*
X1216Y1010D03*
X1216Y1110D03*
X1217Y1210D03*
X1217Y1310D03*
X1216Y1410D03*
X1216Y1510D03*
X1216Y1610D03*
X1216Y1710D03*
X1216Y1810D03*
X1216Y1910D03*
X2116Y1010D03*
X2116Y1110D03*
X2116Y1210D03*
X2116Y1310D03*
X2116Y1410D03*
X2116Y1510D03*
X2116Y1610D03*
X2116Y1710D03*
X2116Y1810D03*
X2116Y1910D03*
X1516Y2210D03*
X1716Y2209D03*
X1816Y2209D03*
X1916Y2210D03*
G54D14*
X2616Y1310D03*
X2616Y1710D03*
X2316Y1310D03*
X2316Y1710D03*
G54D15*
X1016Y1410D03*
G54D16*
X816Y395D03*
G54D17*
X266Y2160D03*
G54D16*
X618Y395D03*
G54D18*
X416Y395D03*
G54D19*
X356Y1850D03*
G54D15*
X1016Y1210D03*
X216Y2010D03*
X1016Y1610D03*
X216Y1910D03*
X216Y1810D03*
X216Y1710D03*
X216Y1610D03*
X216Y1510D03*
X216Y1410D03*
X1016Y1110D03*
X216Y1310D03*
X1016Y1310D03*
X216Y1210D03*
X1016Y1510D03*
X216Y1110D03*
G54D17*
X966Y2160D03*
G54D15*
X216Y1010D03*
X216Y910D03*
X216Y810D03*
X216Y710D03*
X216Y610D03*
X216Y510D03*
X1016Y510D03*
X1016Y610D03*
X1016Y710D03*
X1016Y810D03*
X1016Y910D03*
X1016Y1010D03*
G54D20*
X3516Y2310D03*
X3516Y110D03*
X116Y2310D03*
X116Y110D03*
G54D21*
X2616Y709D03*
X2316Y709D03*
G54D22*
X3016Y2111D03*
X3016Y1611D03*
G54D23*
X3216Y410D03*
X2416Y410D03*
X2716Y410D03*
G54D24*
X373Y487D02*
X458Y487D01*
X373Y486D02*
X458Y486D01*
X576Y486D02*
X659Y486D01*
X774Y486D02*
X857Y486D01*
X373Y485D02*
X458Y485D01*
X576Y485D02*
X659Y485D01*
X774Y485D02*
X857Y485D01*
X373Y484D02*
X458Y484D01*
X576Y484D02*
X659Y484D01*
X774Y484D02*
X857Y484D01*
X373Y483D02*
X458Y483D01*
X576Y483D02*
X659Y483D01*
X774Y483D02*
X857Y483D01*
X373Y482D02*
X458Y482D01*
X576Y482D02*
X659Y482D01*
X774Y482D02*
X857Y482D01*
X373Y481D02*
X458Y481D01*
X576Y481D02*
X659Y481D01*
X774Y481D02*
X857Y481D01*
X373Y480D02*
X458Y480D01*
X576Y480D02*
X659Y480D01*
X774Y480D02*
X857Y480D01*
X373Y479D02*
X458Y479D01*
X576Y479D02*
X659Y479D01*
X774Y479D02*
X857Y479D01*
X373Y478D02*
X458Y478D01*
X576Y478D02*
X659Y478D01*
X774Y478D02*
X857Y478D01*
X373Y477D02*
X458Y477D01*
X576Y477D02*
X659Y477D01*
X774Y477D02*
X857Y477D01*
X373Y476D02*
X458Y476D01*
X576Y476D02*
X659Y476D01*
X774Y476D02*
X857Y476D01*
X373Y475D02*
X458Y475D01*
X576Y475D02*
X659Y475D01*
X774Y475D02*
X857Y475D01*
X373Y474D02*
X458Y474D01*
X576Y474D02*
X659Y474D01*
X774Y474D02*
X857Y474D01*
X373Y473D02*
X458Y473D01*
X576Y473D02*
X659Y473D01*
X774Y473D02*
X857Y473D01*
X373Y472D02*
X458Y472D01*
X576Y472D02*
X659Y472D01*
X774Y472D02*
X857Y472D01*
X373Y471D02*
X458Y471D01*
X576Y471D02*
X659Y471D01*
X774Y471D02*
X857Y471D01*
X373Y470D02*
X458Y470D01*
X576Y470D02*
X659Y470D01*
X774Y470D02*
X857Y470D01*
X373Y469D02*
X458Y469D01*
X576Y469D02*
X659Y469D01*
X774Y469D02*
X857Y469D01*
X373Y468D02*
X458Y468D01*
X576Y468D02*
X659Y468D01*
X774Y468D02*
X857Y468D01*
X373Y467D02*
X458Y467D01*
X576Y467D02*
X659Y467D01*
X774Y467D02*
X857Y467D01*
X373Y466D02*
X458Y466D01*
X576Y466D02*
X659Y466D01*
X774Y466D02*
X857Y466D01*
X373Y465D02*
X458Y465D01*
X576Y465D02*
X659Y465D01*
X774Y465D02*
X857Y465D01*
X373Y464D02*
X458Y464D01*
X576Y464D02*
X659Y464D01*
X774Y464D02*
X857Y464D01*
X373Y463D02*
X458Y463D01*
X576Y463D02*
X659Y463D01*
X774Y463D02*
X857Y463D01*
X373Y462D02*
X458Y462D01*
X576Y462D02*
X659Y462D01*
X774Y462D02*
X857Y462D01*
X373Y461D02*
X458Y461D01*
X576Y461D02*
X659Y461D01*
X774Y461D02*
X857Y461D01*
X373Y460D02*
X458Y460D01*
X576Y460D02*
X659Y460D01*
X774Y460D02*
X857Y460D01*
X373Y459D02*
X458Y459D01*
X576Y459D02*
X659Y459D01*
X774Y459D02*
X857Y459D01*
X373Y458D02*
X458Y458D01*
X576Y458D02*
X659Y458D01*
X774Y458D02*
X857Y458D01*
X373Y457D02*
X458Y457D01*
X576Y457D02*
X659Y457D01*
X774Y457D02*
X857Y457D01*
X373Y456D02*
X458Y456D01*
X576Y456D02*
X659Y456D01*
X774Y456D02*
X857Y456D01*
X373Y455D02*
X458Y455D01*
X576Y455D02*
X659Y455D01*
X774Y455D02*
X857Y455D01*
X373Y454D02*
X458Y454D01*
X576Y454D02*
X659Y454D01*
X774Y454D02*
X857Y454D01*
X373Y453D02*
X458Y453D01*
X576Y453D02*
X659Y453D01*
X774Y453D02*
X857Y453D01*
X373Y452D02*
X458Y452D01*
X576Y452D02*
X659Y452D01*
X774Y452D02*
X857Y452D01*
X373Y451D02*
X458Y451D01*
X576Y451D02*
X659Y451D01*
X774Y451D02*
X857Y451D01*
X373Y450D02*
X458Y450D01*
X576Y450D02*
X659Y450D01*
X774Y450D02*
X857Y450D01*
X373Y449D02*
X458Y449D01*
X576Y449D02*
X659Y449D01*
X774Y449D02*
X857Y449D01*
X373Y448D02*
X458Y448D01*
X576Y448D02*
X659Y448D01*
X774Y448D02*
X857Y448D01*
X373Y447D02*
X458Y447D01*
X576Y447D02*
X659Y447D01*
X774Y447D02*
X857Y447D01*
X373Y446D02*
X458Y446D01*
X576Y446D02*
X659Y446D01*
X774Y446D02*
X857Y446D01*
X373Y445D02*
X458Y445D01*
X576Y445D02*
X659Y445D01*
X774Y445D02*
X857Y445D01*
X373Y444D02*
X458Y444D01*
X576Y444D02*
X659Y444D01*
X774Y444D02*
X857Y444D01*
X373Y443D02*
X458Y443D01*
X576Y443D02*
X659Y443D01*
X774Y443D02*
X857Y443D01*
X373Y442D02*
X458Y442D01*
X576Y442D02*
X659Y442D01*
X774Y442D02*
X857Y442D01*
X373Y441D02*
X458Y441D01*
X576Y441D02*
X659Y441D01*
X774Y441D02*
X857Y441D01*
X373Y440D02*
X458Y440D01*
X576Y440D02*
X659Y440D01*
X774Y440D02*
X857Y440D01*
X373Y439D02*
X458Y439D01*
X576Y439D02*
X659Y439D01*
X774Y439D02*
X857Y439D01*
X373Y438D02*
X458Y438D01*
X576Y438D02*
X659Y438D01*
X774Y438D02*
X857Y438D01*
X373Y437D02*
X458Y437D01*
X576Y437D02*
X659Y437D01*
X774Y437D02*
X857Y437D01*
X373Y436D02*
X458Y436D01*
X576Y436D02*
X659Y436D01*
X774Y436D02*
X857Y436D01*
X373Y435D02*
X458Y435D01*
X576Y435D02*
X659Y435D01*
X774Y435D02*
X857Y435D01*
X373Y434D02*
X458Y434D01*
X576Y434D02*
X659Y434D01*
X774Y434D02*
X857Y434D01*
X373Y433D02*
X458Y433D01*
X576Y433D02*
X659Y433D01*
X774Y433D02*
X857Y433D01*
X373Y432D02*
X458Y432D01*
X576Y432D02*
X659Y432D01*
X774Y432D02*
X857Y432D01*
X373Y431D02*
X458Y431D01*
X576Y431D02*
X659Y431D01*
X774Y431D02*
X857Y431D01*
X373Y430D02*
X458Y430D01*
X576Y430D02*
X659Y430D01*
X774Y430D02*
X857Y430D01*
X373Y429D02*
X458Y429D01*
X576Y429D02*
X659Y429D01*
X774Y429D02*
X857Y429D01*
X373Y428D02*
X408Y428D01*
X423Y428D02*
X458Y428D01*
X576Y428D02*
X612Y428D01*
X623Y428D02*
X659Y428D01*
X774Y428D02*
X810Y428D01*
X821Y428D02*
X857Y428D01*
X373Y427D02*
X404Y427D01*
X427Y427D02*
X458Y427D01*
X576Y427D02*
X608Y427D01*
X627Y427D02*
X659Y427D01*
X774Y427D02*
X806Y427D01*
X825Y427D02*
X857Y427D01*
X373Y426D02*
X402Y426D01*
X429Y426D02*
X458Y426D01*
X576Y426D02*
X605Y426D01*
X630Y426D02*
X659Y426D01*
X774Y426D02*
X802Y426D01*
X828Y426D02*
X857Y426D01*
X373Y425D02*
X400Y425D01*
X431Y425D02*
X458Y425D01*
X576Y425D02*
X602Y425D01*
X633Y425D02*
X659Y425D01*
X774Y425D02*
X800Y425D01*
X831Y425D02*
X857Y425D01*
X373Y424D02*
X398Y424D01*
X433Y424D02*
X458Y424D01*
X576Y424D02*
X600Y424D01*
X635Y424D02*
X659Y424D01*
X774Y424D02*
X798Y424D01*
X833Y424D02*
X857Y424D01*
X373Y423D02*
X396Y423D01*
X435Y423D02*
X458Y423D01*
X576Y423D02*
X599Y423D01*
X636Y423D02*
X659Y423D01*
X774Y423D02*
X797Y423D01*
X834Y423D02*
X857Y423D01*
X373Y422D02*
X395Y422D01*
X436Y422D02*
X458Y422D01*
X576Y422D02*
X597Y422D01*
X638Y422D02*
X659Y422D01*
X774Y422D02*
X795Y422D01*
X836Y422D02*
X857Y422D01*
X373Y421D02*
X394Y421D01*
X437Y421D02*
X458Y421D01*
X576Y421D02*
X596Y421D01*
X639Y421D02*
X659Y421D01*
X774Y421D02*
X794Y421D01*
X837Y421D02*
X857Y421D01*
X373Y420D02*
X393Y420D01*
X438Y420D02*
X458Y420D01*
X576Y420D02*
X595Y420D01*
X640Y420D02*
X659Y420D01*
X774Y420D02*
X793Y420D01*
X838Y420D02*
X857Y420D01*
X373Y419D02*
X392Y419D01*
X439Y419D02*
X458Y419D01*
X576Y419D02*
X594Y419D01*
X641Y419D02*
X659Y419D01*
X774Y419D02*
X792Y419D01*
X839Y419D02*
X857Y419D01*
X373Y418D02*
X391Y418D01*
X440Y418D02*
X458Y418D01*
X576Y418D02*
X593Y418D01*
X642Y418D02*
X659Y418D01*
X774Y418D02*
X791Y418D01*
X840Y418D02*
X857Y418D01*
X373Y417D02*
X390Y417D01*
X441Y417D02*
X458Y417D01*
X576Y417D02*
X592Y417D01*
X643Y417D02*
X659Y417D01*
X774Y417D02*
X790Y417D01*
X841Y417D02*
X857Y417D01*
X373Y416D02*
X389Y416D01*
X442Y416D02*
X458Y416D01*
X576Y416D02*
X591Y416D01*
X644Y416D02*
X659Y416D01*
X774Y416D02*
X789Y416D01*
X842Y416D02*
X857Y416D01*
X373Y415D02*
X388Y415D01*
X443Y415D02*
X458Y415D01*
X576Y415D02*
X591Y415D01*
X644Y415D02*
X659Y415D01*
X774Y415D02*
X789Y415D01*
X842Y415D02*
X857Y415D01*
X373Y414D02*
X388Y414D01*
X443Y414D02*
X458Y414D01*
X576Y414D02*
X590Y414D01*
X645Y414D02*
X659Y414D01*
X774Y414D02*
X788Y414D01*
X843Y414D02*
X857Y414D01*
X373Y413D02*
X387Y413D01*
X444Y413D02*
X458Y413D01*
X576Y413D02*
X589Y413D01*
X646Y413D02*
X659Y413D01*
X774Y413D02*
X787Y413D01*
X844Y413D02*
X857Y413D01*
X373Y412D02*
X386Y412D01*
X445Y412D02*
X458Y412D01*
X576Y412D02*
X589Y412D01*
X646Y412D02*
X659Y412D01*
X774Y412D02*
X787Y412D01*
X844Y412D02*
X857Y412D01*
X373Y411D02*
X386Y411D01*
X445Y411D02*
X458Y411D01*
X576Y411D02*
X588Y411D01*
X647Y411D02*
X659Y411D01*
X774Y411D02*
X786Y411D01*
X845Y411D02*
X857Y411D01*
X373Y410D02*
X385Y410D01*
X446Y410D02*
X458Y410D01*
X576Y410D02*
X588Y410D01*
X647Y410D02*
X659Y410D01*
X774Y410D02*
X786Y410D01*
X845Y410D02*
X857Y410D01*
X373Y409D02*
X385Y409D01*
X446Y409D02*
X458Y409D01*
X576Y409D02*
X587Y409D01*
X648Y409D02*
X659Y409D01*
X774Y409D02*
X785Y409D01*
X846Y409D02*
X857Y409D01*
X373Y408D02*
X385Y408D01*
X447Y408D02*
X458Y408D01*
X576Y408D02*
X587Y408D01*
X648Y408D02*
X659Y408D01*
X774Y408D02*
X785Y408D01*
X846Y408D02*
X857Y408D01*
X373Y407D02*
X384Y407D01*
X447Y407D02*
X458Y407D01*
X576Y407D02*
X586Y407D01*
X649Y407D02*
X659Y407D01*
X774Y407D02*
X784Y407D01*
X847Y407D02*
X857Y407D01*
X373Y406D02*
X384Y406D01*
X447Y406D02*
X458Y406D01*
X576Y406D02*
X586Y406D01*
X649Y406D02*
X659Y406D01*
X774Y406D02*
X784Y406D01*
X847Y406D02*
X857Y406D01*
X373Y405D02*
X383Y405D01*
X448Y405D02*
X458Y405D01*
X576Y405D02*
X586Y405D01*
X649Y405D02*
X659Y405D01*
X774Y405D02*
X784Y405D01*
X847Y405D02*
X857Y405D01*
X373Y404D02*
X383Y404D01*
X448Y404D02*
X458Y404D01*
X576Y404D02*
X585Y404D01*
X650Y404D02*
X659Y404D01*
X774Y404D02*
X783Y404D01*
X848Y404D02*
X857Y404D01*
X373Y403D02*
X383Y403D01*
X448Y403D02*
X458Y403D01*
X576Y403D02*
X585Y403D01*
X650Y403D02*
X659Y403D01*
X774Y403D02*
X783Y403D01*
X848Y403D02*
X857Y403D01*
X373Y402D02*
X383Y402D01*
X448Y402D02*
X458Y402D01*
X576Y402D02*
X585Y402D01*
X650Y402D02*
X659Y402D01*
X774Y402D02*
X783Y402D01*
X848Y402D02*
X857Y402D01*
X373Y401D02*
X383Y401D01*
X448Y401D02*
X458Y401D01*
X576Y401D02*
X585Y401D01*
X650Y401D02*
X659Y401D01*
X774Y401D02*
X783Y401D01*
X848Y401D02*
X857Y401D01*
X373Y400D02*
X383Y400D01*
X448Y400D02*
X458Y400D01*
X575Y400D02*
X585Y400D01*
X650Y400D02*
X659Y400D01*
X773Y400D02*
X783Y400D01*
X848Y400D02*
X857Y400D01*
X373Y399D02*
X383Y399D01*
X449Y399D02*
X458Y399D01*
X575Y399D02*
X585Y399D01*
X650Y399D02*
X660Y399D01*
X773Y399D02*
X783Y399D01*
X848Y399D02*
X857Y399D01*
X373Y398D02*
X383Y398D01*
X449Y398D02*
X458Y398D01*
X575Y398D02*
X585Y398D01*
X650Y398D02*
X660Y398D01*
X773Y398D02*
X783Y398D01*
X848Y398D02*
X858Y398D01*
X373Y397D02*
X383Y397D01*
X449Y397D02*
X458Y397D01*
X575Y397D02*
X585Y397D01*
X650Y397D02*
X660Y397D01*
X773Y397D02*
X783Y397D01*
X848Y397D02*
X858Y397D01*
X373Y396D02*
X383Y396D01*
X449Y396D02*
X458Y396D01*
X575Y396D02*
X585Y396D01*
X650Y396D02*
X660Y396D01*
X773Y396D02*
X783Y396D01*
X848Y396D02*
X858Y396D01*
X373Y395D02*
X383Y395D01*
X449Y395D02*
X458Y395D01*
X575Y395D02*
X585Y395D01*
X650Y395D02*
X660Y395D01*
X773Y395D02*
X783Y395D01*
X848Y395D02*
X858Y395D01*
X373Y394D02*
X383Y394D01*
X449Y394D02*
X458Y394D01*
X575Y394D02*
X585Y394D01*
X650Y394D02*
X660Y394D01*
X773Y394D02*
X783Y394D01*
X848Y394D02*
X858Y394D01*
X373Y393D02*
X383Y393D01*
X449Y393D02*
X458Y393D01*
X575Y393D02*
X585Y393D01*
X650Y393D02*
X660Y393D01*
X773Y393D02*
X783Y393D01*
X848Y393D02*
X858Y393D01*
X373Y392D02*
X383Y392D01*
X448Y392D02*
X458Y392D01*
X575Y392D02*
X585Y392D01*
X650Y392D02*
X659Y392D01*
X773Y392D02*
X783Y392D01*
X848Y392D02*
X857Y392D01*
X373Y391D02*
X383Y391D01*
X448Y391D02*
X458Y391D01*
X576Y391D02*
X585Y391D01*
X650Y391D02*
X659Y391D01*
X774Y391D02*
X783Y391D01*
X848Y391D02*
X857Y391D01*
X373Y390D02*
X383Y390D01*
X448Y390D02*
X458Y390D01*
X576Y390D02*
X585Y390D01*
X650Y390D02*
X659Y390D01*
X774Y390D02*
X783Y390D01*
X848Y390D02*
X857Y390D01*
X373Y389D02*
X383Y389D01*
X448Y389D02*
X458Y389D01*
X576Y389D02*
X585Y389D01*
X650Y389D02*
X659Y389D01*
X774Y389D02*
X783Y389D01*
X848Y389D02*
X857Y389D01*
X373Y388D02*
X383Y388D01*
X448Y388D02*
X458Y388D01*
X576Y388D02*
X585Y388D01*
X650Y388D02*
X659Y388D01*
X774Y388D02*
X783Y388D01*
X848Y388D02*
X857Y388D01*
X373Y387D02*
X383Y387D01*
X448Y387D02*
X458Y387D01*
X576Y387D02*
X586Y387D01*
X649Y387D02*
X659Y387D01*
X774Y387D02*
X784Y387D01*
X847Y387D02*
X857Y387D01*
X373Y386D02*
X384Y386D01*
X447Y386D02*
X458Y386D01*
X576Y386D02*
X586Y386D01*
X649Y386D02*
X659Y386D01*
X774Y386D02*
X784Y386D01*
X847Y386D02*
X857Y386D01*
X373Y385D02*
X384Y385D01*
X447Y385D02*
X458Y385D01*
X576Y385D02*
X586Y385D01*
X649Y385D02*
X659Y385D01*
X774Y385D02*
X784Y385D01*
X847Y385D02*
X857Y385D01*
X373Y384D02*
X384Y384D01*
X447Y384D02*
X458Y384D01*
X576Y384D02*
X587Y384D01*
X648Y384D02*
X659Y384D01*
X774Y384D02*
X785Y384D01*
X846Y384D02*
X857Y384D01*
X373Y383D02*
X385Y383D01*
X446Y383D02*
X458Y383D01*
X576Y383D02*
X587Y383D01*
X648Y383D02*
X659Y383D01*
X774Y383D02*
X785Y383D01*
X846Y383D02*
X857Y383D01*
X373Y382D02*
X385Y382D01*
X446Y382D02*
X458Y382D01*
X576Y382D02*
X588Y382D01*
X647Y382D02*
X659Y382D01*
X774Y382D02*
X786Y382D01*
X845Y382D02*
X857Y382D01*
X373Y381D02*
X386Y381D01*
X445Y381D02*
X458Y381D01*
X576Y381D02*
X588Y381D01*
X647Y381D02*
X659Y381D01*
X774Y381D02*
X786Y381D01*
X845Y381D02*
X857Y381D01*
X373Y380D02*
X386Y380D01*
X445Y380D02*
X458Y380D01*
X576Y380D02*
X589Y380D01*
X646Y380D02*
X659Y380D01*
X774Y380D02*
X787Y380D01*
X844Y380D02*
X857Y380D01*
X373Y379D02*
X387Y379D01*
X444Y379D02*
X458Y379D01*
X576Y379D02*
X589Y379D01*
X646Y379D02*
X659Y379D01*
X774Y379D02*
X787Y379D01*
X844Y379D02*
X857Y379D01*
X373Y378D02*
X388Y378D01*
X444Y378D02*
X458Y378D01*
X576Y378D02*
X590Y378D01*
X645Y378D02*
X659Y378D01*
X774Y378D02*
X788Y378D01*
X843Y378D02*
X857Y378D01*
X373Y377D02*
X388Y377D01*
X443Y377D02*
X458Y377D01*
X576Y377D02*
X591Y377D01*
X644Y377D02*
X659Y377D01*
X774Y377D02*
X789Y377D01*
X842Y377D02*
X857Y377D01*
X373Y376D02*
X389Y376D01*
X442Y376D02*
X458Y376D01*
X576Y376D02*
X591Y376D01*
X644Y376D02*
X659Y376D01*
X774Y376D02*
X789Y376D01*
X842Y376D02*
X857Y376D01*
X373Y375D02*
X390Y375D01*
X441Y375D02*
X458Y375D01*
X576Y375D02*
X592Y375D01*
X643Y375D02*
X659Y375D01*
X774Y375D02*
X790Y375D01*
X841Y375D02*
X857Y375D01*
X373Y374D02*
X391Y374D01*
X440Y374D02*
X458Y374D01*
X576Y374D02*
X593Y374D01*
X642Y374D02*
X659Y374D01*
X774Y374D02*
X791Y374D01*
X840Y374D02*
X857Y374D01*
X373Y373D02*
X392Y373D01*
X439Y373D02*
X458Y373D01*
X576Y373D02*
X594Y373D01*
X641Y373D02*
X659Y373D01*
X774Y373D02*
X792Y373D01*
X839Y373D02*
X857Y373D01*
X373Y372D02*
X393Y372D01*
X438Y372D02*
X458Y372D01*
X576Y372D02*
X595Y372D01*
X640Y372D02*
X659Y372D01*
X774Y372D02*
X793Y372D01*
X838Y372D02*
X857Y372D01*
X373Y371D02*
X394Y371D01*
X437Y371D02*
X458Y371D01*
X576Y371D02*
X596Y371D01*
X639Y371D02*
X659Y371D01*
X774Y371D02*
X794Y371D01*
X837Y371D02*
X857Y371D01*
X373Y370D02*
X395Y370D01*
X436Y370D02*
X458Y370D01*
X576Y370D02*
X597Y370D01*
X638Y370D02*
X659Y370D01*
X774Y370D02*
X795Y370D01*
X836Y370D02*
X857Y370D01*
X373Y369D02*
X396Y369D01*
X435Y369D02*
X458Y369D01*
X576Y369D02*
X599Y369D01*
X636Y369D02*
X659Y369D01*
X774Y369D02*
X797Y369D01*
X834Y369D02*
X857Y369D01*
X373Y368D02*
X398Y368D01*
X433Y368D02*
X458Y368D01*
X576Y368D02*
X600Y368D01*
X635Y368D02*
X659Y368D01*
X774Y368D02*
X798Y368D01*
X833Y368D02*
X857Y368D01*
X373Y367D02*
X400Y367D01*
X432Y367D02*
X458Y367D01*
X576Y367D02*
X602Y367D01*
X633Y367D02*
X659Y367D01*
X774Y367D02*
X800Y367D01*
X831Y367D02*
X857Y367D01*
X373Y366D02*
X402Y366D01*
X430Y366D02*
X458Y366D01*
X576Y366D02*
X604Y366D01*
X631Y366D02*
X659Y366D01*
X774Y366D02*
X802Y366D01*
X829Y366D02*
X857Y366D01*
X373Y365D02*
X404Y365D01*
X427Y365D02*
X458Y365D01*
X576Y365D02*
X607Y365D01*
X628Y365D02*
X659Y365D01*
X774Y365D02*
X805Y365D01*
X826Y365D02*
X857Y365D01*
X373Y364D02*
X408Y364D01*
X424Y364D02*
X458Y364D01*
X576Y364D02*
X612Y364D01*
X623Y364D02*
X659Y364D01*
X774Y364D02*
X809Y364D01*
X821Y364D02*
X857Y364D01*
X373Y363D02*
X458Y363D01*
X576Y363D02*
X659Y363D01*
X774Y363D02*
X857Y363D01*
X373Y362D02*
X458Y362D01*
X576Y362D02*
X659Y362D01*
X774Y362D02*
X857Y362D01*
X373Y361D02*
X458Y361D01*
X576Y361D02*
X659Y361D01*
X774Y361D02*
X857Y361D01*
X373Y360D02*
X458Y360D01*
X576Y360D02*
X659Y360D01*
X774Y360D02*
X857Y360D01*
X373Y359D02*
X458Y359D01*
X576Y359D02*
X659Y359D01*
X774Y359D02*
X857Y359D01*
X373Y358D02*
X458Y358D01*
X576Y358D02*
X659Y358D01*
X774Y358D02*
X857Y358D01*
X373Y357D02*
X458Y357D01*
X576Y357D02*
X659Y357D01*
X774Y357D02*
X857Y357D01*
X373Y356D02*
X458Y356D01*
X576Y356D02*
X659Y356D01*
X774Y356D02*
X857Y356D01*
X373Y355D02*
X458Y355D01*
X576Y355D02*
X659Y355D01*
X774Y355D02*
X857Y355D01*
X373Y354D02*
X458Y354D01*
X576Y354D02*
X659Y354D01*
X774Y354D02*
X857Y354D01*
X373Y353D02*
X458Y353D01*
X576Y353D02*
X659Y353D01*
X774Y353D02*
X857Y353D01*
X373Y352D02*
X458Y352D01*
X576Y352D02*
X659Y352D01*
X774Y352D02*
X857Y352D01*
X373Y351D02*
X458Y351D01*
X576Y351D02*
X659Y351D01*
X774Y351D02*
X857Y351D01*
X373Y350D02*
X458Y350D01*
X576Y350D02*
X659Y350D01*
X774Y350D02*
X857Y350D01*
X373Y349D02*
X458Y349D01*
X576Y349D02*
X659Y349D01*
X774Y349D02*
X857Y349D01*
X373Y348D02*
X458Y348D01*
X576Y348D02*
X659Y348D01*
X774Y348D02*
X857Y348D01*
X373Y347D02*
X458Y347D01*
X576Y347D02*
X659Y347D01*
X774Y347D02*
X857Y347D01*
X373Y346D02*
X458Y346D01*
X576Y346D02*
X659Y346D01*
X774Y346D02*
X857Y346D01*
X373Y345D02*
X458Y345D01*
X576Y345D02*
X659Y345D01*
X774Y345D02*
X857Y345D01*
X373Y344D02*
X458Y344D01*
X576Y344D02*
X659Y344D01*
X774Y344D02*
X857Y344D01*
X373Y343D02*
X458Y343D01*
X576Y343D02*
X659Y343D01*
X774Y343D02*
X857Y343D01*
X373Y342D02*
X458Y342D01*
X576Y342D02*
X659Y342D01*
X774Y342D02*
X857Y342D01*
X373Y341D02*
X458Y341D01*
X576Y341D02*
X659Y341D01*
X774Y341D02*
X857Y341D01*
X373Y340D02*
X458Y340D01*
X576Y340D02*
X659Y340D01*
X774Y340D02*
X857Y340D01*
X373Y339D02*
X458Y339D01*
X576Y339D02*
X659Y339D01*
X774Y339D02*
X857Y339D01*
X373Y338D02*
X458Y338D01*
X576Y338D02*
X659Y338D01*
X774Y338D02*
X857Y338D01*
X373Y337D02*
X458Y337D01*
X576Y337D02*
X659Y337D01*
X774Y337D02*
X857Y337D01*
X373Y336D02*
X458Y336D01*
X576Y336D02*
X659Y336D01*
X774Y336D02*
X857Y336D01*
X373Y335D02*
X458Y335D01*
X576Y335D02*
X659Y335D01*
X774Y335D02*
X857Y335D01*
X373Y334D02*
X458Y334D01*
X576Y334D02*
X659Y334D01*
X774Y334D02*
X857Y334D01*
X373Y333D02*
X458Y333D01*
X576Y333D02*
X659Y333D01*
X774Y333D02*
X857Y333D01*
X373Y332D02*
X458Y332D01*
X576Y332D02*
X659Y332D01*
X774Y332D02*
X857Y332D01*
X373Y331D02*
X458Y331D01*
X576Y331D02*
X659Y331D01*
X774Y331D02*
X857Y331D01*
X373Y330D02*
X458Y330D01*
X576Y330D02*
X659Y330D01*
X774Y330D02*
X857Y330D01*
X373Y329D02*
X458Y329D01*
X576Y329D02*
X659Y329D01*
X774Y329D02*
X857Y329D01*
X373Y328D02*
X458Y328D01*
X576Y328D02*
X659Y328D01*
X774Y328D02*
X857Y328D01*
X373Y327D02*
X458Y327D01*
X576Y327D02*
X659Y327D01*
X774Y327D02*
X857Y327D01*
X373Y326D02*
X458Y326D01*
X576Y326D02*
X659Y326D01*
X774Y326D02*
X857Y326D01*
X373Y325D02*
X458Y325D01*
X576Y325D02*
X659Y325D01*
X774Y325D02*
X857Y325D01*
X373Y324D02*
X458Y324D01*
X576Y324D02*
X659Y324D01*
X774Y324D02*
X857Y324D01*
X373Y323D02*
X458Y323D01*
X576Y323D02*
X659Y323D01*
X774Y323D02*
X857Y323D01*
X373Y322D02*
X458Y322D01*
X576Y322D02*
X659Y322D01*
X774Y322D02*
X857Y322D01*
X373Y321D02*
X458Y321D01*
X576Y321D02*
X659Y321D01*
X774Y321D02*
X857Y321D01*
X373Y320D02*
X458Y320D01*
X576Y320D02*
X659Y320D01*
X774Y320D02*
X857Y320D01*
X373Y319D02*
X458Y319D01*
X576Y319D02*
X659Y319D01*
X774Y319D02*
X857Y319D01*
X373Y318D02*
X458Y318D01*
X576Y318D02*
X659Y318D01*
X774Y318D02*
X857Y318D01*
X373Y317D02*
X458Y317D01*
X576Y317D02*
X659Y317D01*
X774Y317D02*
X857Y317D01*
X373Y316D02*
X458Y316D01*
X576Y316D02*
X659Y316D01*
X774Y316D02*
X857Y316D01*
X373Y315D02*
X458Y315D01*
X576Y315D02*
X659Y315D01*
X774Y315D02*
X857Y315D01*
X373Y314D02*
X458Y314D01*
X576Y314D02*
X659Y314D01*
X774Y314D02*
X857Y314D01*
X373Y313D02*
X458Y313D01*
X576Y313D02*
X659Y313D01*
X774Y313D02*
X857Y313D01*
X373Y312D02*
X458Y312D01*
X576Y312D02*
X659Y312D01*
X774Y312D02*
X857Y312D01*
X373Y311D02*
X458Y311D01*
X576Y311D02*
X659Y311D01*
X774Y311D02*
X857Y311D01*
X373Y310D02*
X458Y310D01*
X576Y310D02*
X659Y310D01*
X774Y310D02*
X857Y310D01*
X373Y309D02*
X458Y309D01*
X576Y309D02*
X659Y309D01*
X774Y309D02*
X857Y309D01*
X373Y308D02*
X458Y308D01*
X576Y308D02*
X659Y308D01*
X774Y308D02*
X857Y308D01*
X373Y307D02*
X458Y307D01*
X576Y307D02*
X659Y307D01*
X774Y307D02*
X857Y307D01*
X373Y306D02*
X458Y306D01*
X576Y306D02*
X659Y306D01*
X774Y306D02*
X857Y306D01*
X373Y305D02*
X458Y305D01*
X576Y305D02*
X659Y305D01*
X774Y305D02*
X857Y305D01*
D02*
G04 End of Mask0*
M02*