G04 MADE WITH FRITZING*
G04 WWW.FRITZING.ORG*
G04 DOUBLE SIDED*
G04 HOLES PLATED*
G04 CONTOUR ON CENTER OF CONTOUR VECTOR*
%ASAXBY*%
%FSLAX23Y23*%
%MOIN*%
%OFA0B0*%
%SFA1.0B1.0*%
%ADD10C,0.092000*%
%ADD11C,0.072992*%
%ADD12C,0.090000*%
%ADD13C,0.070000*%
%ADD14C,0.043222*%
%ADD15C,0.085000*%
%ADD16C,0.080000*%
%ADD17C,0.108425*%
%ADD18C,0.160000*%
%ADD19C,0.110000*%
%ADD20C,0.076000*%
%ADD21C,0.135984*%
%ADD22R,0.092000X0.092000*%
%ADD23R,0.072992X0.072992*%
%ADD24R,0.090000X0.090000*%
%ADD25C,0.025436*%
%ADD26R,0.001000X0.001000*%
%LNMASK1*%
G90*
G70*
G54D10*
X2723Y701D03*
X2723Y999D03*
X2423Y701D03*
X2423Y999D03*
G54D11*
X3223Y2103D03*
X3223Y2201D03*
X3223Y1603D03*
X3223Y1701D03*
G54D12*
X3323Y401D03*
X3185Y401D03*
X2523Y401D03*
X2385Y401D03*
X2823Y401D03*
X2685Y401D03*
G54D13*
X1323Y1001D03*
X1323Y1101D03*
X1323Y1201D03*
X1323Y1301D03*
X1323Y1401D03*
X1323Y1501D03*
X1323Y1601D03*
X1323Y1701D03*
X1323Y1801D03*
X1323Y1901D03*
X2222Y1001D03*
X2222Y1101D03*
X2223Y1201D03*
X2223Y1301D03*
X2222Y1401D03*
X2222Y1501D03*
X2222Y1601D03*
X2222Y1701D03*
X2222Y1801D03*
X2222Y1901D03*
X1623Y2201D03*
X1823Y2201D03*
X1923Y2201D03*
X2023Y2201D03*
G54D14*
X1725Y2201D03*
G54D13*
X1725Y2201D03*
G54D14*
X2132Y2201D03*
G54D13*
X2132Y2201D03*
G54D15*
X2723Y1301D03*
X2723Y1701D03*
X2423Y1301D03*
X2423Y1701D03*
G54D16*
X1123Y1401D03*
G54D17*
X923Y386D03*
G54D18*
X373Y2151D03*
G54D17*
X725Y386D03*
G54D19*
X523Y386D03*
G54D20*
X463Y1841D03*
G54D16*
X1123Y1201D03*
X323Y2001D03*
X1123Y1601D03*
X323Y1901D03*
X323Y1801D03*
X323Y1701D03*
X323Y1601D03*
X323Y1501D03*
X323Y1401D03*
X1123Y1101D03*
X323Y1301D03*
X1123Y1301D03*
X323Y1201D03*
X1123Y1501D03*
X323Y1101D03*
G54D18*
X1073Y2151D03*
G54D16*
X323Y1001D03*
X323Y901D03*
X323Y801D03*
X323Y701D03*
X323Y601D03*
X323Y501D03*
X1123Y501D03*
X1123Y601D03*
X1123Y701D03*
X1123Y801D03*
X1123Y901D03*
X1123Y1001D03*
G54D21*
X3623Y2301D03*
X3623Y101D03*
X123Y2301D03*
X123Y101D03*
G54D22*
X2723Y700D03*
X2423Y700D03*
G54D23*
X3223Y2103D03*
X3223Y1603D03*
G54D24*
X3323Y401D03*
X2523Y401D03*
X2823Y401D03*
G54D25*
X2154Y779D02*
X2154Y2122D01*
D02*
X2154Y2122D02*
X1401Y2122D01*
D02*
X1401Y2122D02*
X1401Y779D01*
D02*
X2154Y779D02*
X1968Y779D01*
D02*
X1587Y779D02*
X1401Y779D01*
G54D26*
X480Y478D02*
X564Y478D01*
X480Y477D02*
X564Y477D01*
X682Y477D02*
X766Y477D01*
X880Y477D02*
X964Y477D01*
X480Y476D02*
X564Y476D01*
X682Y476D02*
X766Y476D01*
X880Y476D02*
X964Y476D01*
X480Y475D02*
X564Y475D01*
X682Y475D02*
X766Y475D01*
X880Y475D02*
X964Y475D01*
X480Y474D02*
X564Y474D01*
X682Y474D02*
X766Y474D01*
X880Y474D02*
X964Y474D01*
X480Y473D02*
X564Y473D01*
X682Y473D02*
X766Y473D01*
X880Y473D02*
X964Y473D01*
X480Y472D02*
X564Y472D01*
X682Y472D02*
X766Y472D01*
X880Y472D02*
X964Y472D01*
X480Y471D02*
X564Y471D01*
X682Y471D02*
X766Y471D01*
X880Y471D02*
X964Y471D01*
X480Y470D02*
X564Y470D01*
X682Y470D02*
X766Y470D01*
X880Y470D02*
X964Y470D01*
X480Y469D02*
X564Y469D01*
X682Y469D02*
X766Y469D01*
X880Y469D02*
X964Y469D01*
X480Y468D02*
X564Y468D01*
X682Y468D02*
X766Y468D01*
X880Y468D02*
X964Y468D01*
X480Y467D02*
X564Y467D01*
X682Y467D02*
X766Y467D01*
X880Y467D02*
X964Y467D01*
X480Y466D02*
X564Y466D01*
X682Y466D02*
X766Y466D01*
X880Y466D02*
X964Y466D01*
X480Y465D02*
X564Y465D01*
X682Y465D02*
X766Y465D01*
X880Y465D02*
X964Y465D01*
X480Y464D02*
X564Y464D01*
X682Y464D02*
X766Y464D01*
X880Y464D02*
X964Y464D01*
X480Y463D02*
X564Y463D01*
X682Y463D02*
X766Y463D01*
X880Y463D02*
X964Y463D01*
X480Y462D02*
X564Y462D01*
X682Y462D02*
X766Y462D01*
X880Y462D02*
X964Y462D01*
X480Y461D02*
X564Y461D01*
X682Y461D02*
X766Y461D01*
X880Y461D02*
X964Y461D01*
X480Y460D02*
X564Y460D01*
X682Y460D02*
X766Y460D01*
X880Y460D02*
X964Y460D01*
X480Y459D02*
X564Y459D01*
X682Y459D02*
X766Y459D01*
X880Y459D02*
X964Y459D01*
X480Y458D02*
X564Y458D01*
X682Y458D02*
X766Y458D01*
X880Y458D02*
X964Y458D01*
X480Y457D02*
X564Y457D01*
X682Y457D02*
X766Y457D01*
X880Y457D02*
X964Y457D01*
X480Y456D02*
X564Y456D01*
X682Y456D02*
X766Y456D01*
X880Y456D02*
X964Y456D01*
X480Y455D02*
X564Y455D01*
X682Y455D02*
X766Y455D01*
X880Y455D02*
X964Y455D01*
X480Y454D02*
X564Y454D01*
X682Y454D02*
X766Y454D01*
X880Y454D02*
X964Y454D01*
X480Y453D02*
X564Y453D01*
X682Y453D02*
X766Y453D01*
X880Y453D02*
X964Y453D01*
X480Y452D02*
X564Y452D01*
X682Y452D02*
X766Y452D01*
X880Y452D02*
X964Y452D01*
X480Y451D02*
X564Y451D01*
X682Y451D02*
X766Y451D01*
X880Y451D02*
X964Y451D01*
X480Y450D02*
X564Y450D01*
X682Y450D02*
X766Y450D01*
X880Y450D02*
X964Y450D01*
X480Y449D02*
X564Y449D01*
X682Y449D02*
X766Y449D01*
X880Y449D02*
X964Y449D01*
X480Y448D02*
X564Y448D01*
X682Y448D02*
X766Y448D01*
X880Y448D02*
X964Y448D01*
X480Y447D02*
X564Y447D01*
X682Y447D02*
X766Y447D01*
X880Y447D02*
X964Y447D01*
X480Y446D02*
X564Y446D01*
X682Y446D02*
X766Y446D01*
X880Y446D02*
X964Y446D01*
X480Y445D02*
X564Y445D01*
X682Y445D02*
X766Y445D01*
X880Y445D02*
X964Y445D01*
X480Y444D02*
X564Y444D01*
X682Y444D02*
X766Y444D01*
X880Y444D02*
X964Y444D01*
X480Y443D02*
X564Y443D01*
X682Y443D02*
X766Y443D01*
X880Y443D02*
X964Y443D01*
X480Y442D02*
X564Y442D01*
X682Y442D02*
X766Y442D01*
X880Y442D02*
X964Y442D01*
X480Y441D02*
X564Y441D01*
X682Y441D02*
X766Y441D01*
X880Y441D02*
X964Y441D01*
X480Y440D02*
X564Y440D01*
X682Y440D02*
X766Y440D01*
X880Y440D02*
X964Y440D01*
X480Y439D02*
X564Y439D01*
X682Y439D02*
X766Y439D01*
X880Y439D02*
X964Y439D01*
X480Y438D02*
X564Y438D01*
X682Y438D02*
X766Y438D01*
X880Y438D02*
X964Y438D01*
X480Y437D02*
X564Y437D01*
X682Y437D02*
X766Y437D01*
X880Y437D02*
X964Y437D01*
X480Y436D02*
X564Y436D01*
X682Y436D02*
X766Y436D01*
X880Y436D02*
X964Y436D01*
X480Y435D02*
X564Y435D01*
X682Y435D02*
X766Y435D01*
X880Y435D02*
X964Y435D01*
X480Y434D02*
X564Y434D01*
X682Y434D02*
X766Y434D01*
X880Y434D02*
X964Y434D01*
X480Y433D02*
X564Y433D01*
X682Y433D02*
X766Y433D01*
X880Y433D02*
X964Y433D01*
X480Y432D02*
X564Y432D01*
X682Y432D02*
X766Y432D01*
X880Y432D02*
X964Y432D01*
X480Y431D02*
X564Y431D01*
X682Y431D02*
X766Y431D01*
X880Y431D02*
X964Y431D01*
X480Y430D02*
X564Y430D01*
X682Y430D02*
X766Y430D01*
X880Y430D02*
X964Y430D01*
X480Y429D02*
X564Y429D01*
X682Y429D02*
X766Y429D01*
X880Y429D02*
X964Y429D01*
X480Y428D02*
X564Y428D01*
X682Y428D02*
X766Y428D01*
X880Y428D02*
X964Y428D01*
X480Y427D02*
X564Y427D01*
X682Y427D02*
X766Y427D01*
X880Y427D02*
X964Y427D01*
X480Y426D02*
X564Y426D01*
X682Y426D02*
X766Y426D01*
X880Y426D02*
X964Y426D01*
X480Y425D02*
X564Y425D01*
X682Y425D02*
X766Y425D01*
X880Y425D02*
X964Y425D01*
X480Y424D02*
X564Y424D01*
X682Y424D02*
X766Y424D01*
X880Y424D02*
X964Y424D01*
X480Y423D02*
X564Y423D01*
X682Y423D02*
X766Y423D01*
X880Y423D02*
X964Y423D01*
X480Y422D02*
X564Y422D01*
X682Y422D02*
X766Y422D01*
X880Y422D02*
X964Y422D01*
X480Y421D02*
X564Y421D01*
X682Y421D02*
X766Y421D01*
X880Y421D02*
X964Y421D01*
X480Y420D02*
X564Y420D01*
X682Y420D02*
X766Y420D01*
X880Y420D02*
X964Y420D01*
X480Y419D02*
X517Y419D01*
X527Y419D02*
X564Y419D01*
X682Y419D02*
X766Y419D01*
X880Y419D02*
X964Y419D01*
X480Y418D02*
X512Y418D01*
X532Y418D02*
X564Y418D01*
X682Y418D02*
X716Y418D01*
X732Y418D02*
X766Y418D01*
X880Y418D02*
X914Y418D01*
X930Y418D02*
X964Y418D01*
X480Y417D02*
X509Y417D01*
X535Y417D02*
X564Y417D01*
X682Y417D02*
X712Y417D01*
X736Y417D02*
X766Y417D01*
X880Y417D02*
X910Y417D01*
X934Y417D02*
X964Y417D01*
X480Y416D02*
X507Y416D01*
X537Y416D02*
X564Y416D01*
X682Y416D02*
X710Y416D01*
X738Y416D02*
X766Y416D01*
X880Y416D02*
X908Y416D01*
X936Y416D02*
X964Y416D01*
X480Y415D02*
X505Y415D01*
X539Y415D02*
X564Y415D01*
X682Y415D02*
X708Y415D01*
X740Y415D02*
X766Y415D01*
X880Y415D02*
X906Y415D01*
X938Y415D02*
X964Y415D01*
X480Y414D02*
X504Y414D01*
X541Y414D02*
X564Y414D01*
X682Y414D02*
X706Y414D01*
X742Y414D02*
X766Y414D01*
X880Y414D02*
X904Y414D01*
X940Y414D02*
X964Y414D01*
X480Y413D02*
X502Y413D01*
X542Y413D02*
X564Y413D01*
X682Y413D02*
X705Y413D01*
X743Y413D02*
X766Y413D01*
X880Y413D02*
X903Y413D01*
X941Y413D02*
X964Y413D01*
X480Y412D02*
X501Y412D01*
X543Y412D02*
X564Y412D01*
X682Y412D02*
X703Y412D01*
X745Y412D02*
X766Y412D01*
X880Y412D02*
X901Y412D01*
X943Y412D02*
X964Y412D01*
X480Y411D02*
X500Y411D01*
X544Y411D02*
X564Y411D01*
X682Y411D02*
X702Y411D01*
X746Y411D02*
X766Y411D01*
X880Y411D02*
X900Y411D01*
X944Y411D02*
X964Y411D01*
X480Y410D02*
X499Y410D01*
X545Y410D02*
X564Y410D01*
X682Y410D02*
X701Y410D01*
X747Y410D02*
X766Y410D01*
X880Y410D02*
X899Y410D01*
X945Y410D02*
X964Y410D01*
X480Y409D02*
X498Y409D01*
X546Y409D02*
X564Y409D01*
X682Y409D02*
X700Y409D01*
X748Y409D02*
X766Y409D01*
X880Y409D02*
X898Y409D01*
X946Y409D02*
X964Y409D01*
X480Y408D02*
X497Y408D01*
X547Y408D02*
X564Y408D01*
X682Y408D02*
X699Y408D01*
X749Y408D02*
X766Y408D01*
X880Y408D02*
X897Y408D01*
X947Y408D02*
X964Y408D01*
X480Y407D02*
X496Y407D01*
X548Y407D02*
X564Y407D01*
X682Y407D02*
X698Y407D01*
X750Y407D02*
X766Y407D01*
X880Y407D02*
X896Y407D01*
X948Y407D02*
X964Y407D01*
X480Y406D02*
X495Y406D01*
X549Y406D02*
X564Y406D01*
X682Y406D02*
X698Y406D01*
X750Y406D02*
X766Y406D01*
X880Y406D02*
X896Y406D01*
X948Y406D02*
X964Y406D01*
X480Y405D02*
X494Y405D01*
X550Y405D02*
X564Y405D01*
X682Y405D02*
X697Y405D01*
X751Y405D02*
X766Y405D01*
X880Y405D02*
X895Y405D01*
X949Y405D02*
X964Y405D01*
X480Y404D02*
X494Y404D01*
X550Y404D02*
X564Y404D01*
X682Y404D02*
X696Y404D01*
X752Y404D02*
X766Y404D01*
X880Y404D02*
X894Y404D01*
X950Y404D02*
X964Y404D01*
X480Y403D02*
X493Y403D01*
X551Y403D02*
X564Y403D01*
X682Y403D02*
X696Y403D01*
X752Y403D02*
X766Y403D01*
X880Y403D02*
X894Y403D01*
X950Y403D02*
X964Y403D01*
X480Y402D02*
X493Y402D01*
X552Y402D02*
X564Y402D01*
X682Y402D02*
X695Y402D01*
X753Y402D02*
X766Y402D01*
X880Y402D02*
X893Y402D01*
X951Y402D02*
X964Y402D01*
X480Y401D02*
X492Y401D01*
X552Y401D02*
X564Y401D01*
X682Y401D02*
X694Y401D01*
X754Y401D02*
X766Y401D01*
X880Y401D02*
X893Y401D01*
X952Y401D02*
X964Y401D01*
X480Y400D02*
X492Y400D01*
X553Y400D02*
X564Y400D01*
X682Y400D02*
X694Y400D01*
X754Y400D02*
X766Y400D01*
X880Y400D02*
X892Y400D01*
X952Y400D02*
X964Y400D01*
X480Y399D02*
X491Y399D01*
X553Y399D02*
X564Y399D01*
X682Y399D02*
X694Y399D01*
X755Y399D02*
X766Y399D01*
X880Y399D02*
X892Y399D01*
X953Y399D02*
X964Y399D01*
X480Y398D02*
X491Y398D01*
X553Y398D02*
X564Y398D01*
X682Y398D02*
X693Y398D01*
X755Y398D02*
X766Y398D01*
X880Y398D02*
X891Y398D01*
X953Y398D02*
X964Y398D01*
X480Y397D02*
X490Y397D01*
X554Y397D02*
X564Y397D01*
X682Y397D02*
X693Y397D01*
X755Y397D02*
X766Y397D01*
X880Y397D02*
X891Y397D01*
X953Y397D02*
X964Y397D01*
X480Y396D02*
X490Y396D01*
X554Y396D02*
X564Y396D01*
X682Y396D02*
X692Y396D01*
X756Y396D02*
X766Y396D01*
X880Y396D02*
X890Y396D01*
X954Y396D02*
X964Y396D01*
X480Y395D02*
X490Y395D01*
X554Y395D02*
X564Y395D01*
X682Y395D02*
X692Y395D01*
X756Y395D02*
X766Y395D01*
X880Y395D02*
X890Y395D01*
X954Y395D02*
X964Y395D01*
X480Y394D02*
X490Y394D01*
X555Y394D02*
X564Y394D01*
X682Y394D02*
X692Y394D01*
X756Y394D02*
X766Y394D01*
X880Y394D02*
X890Y394D01*
X954Y394D02*
X964Y394D01*
X480Y393D02*
X489Y393D01*
X555Y393D02*
X564Y393D01*
X682Y393D02*
X692Y393D01*
X756Y393D02*
X766Y393D01*
X880Y393D02*
X890Y393D01*
X954Y393D02*
X964Y393D01*
X480Y392D02*
X489Y392D01*
X555Y392D02*
X564Y392D01*
X682Y392D02*
X692Y392D01*
X757Y392D02*
X766Y392D01*
X880Y392D02*
X890Y392D01*
X955Y392D02*
X964Y392D01*
X480Y391D02*
X489Y391D01*
X555Y391D02*
X564Y391D01*
X682Y391D02*
X691Y391D01*
X757Y391D02*
X766Y391D01*
X880Y391D02*
X889Y391D01*
X955Y391D02*
X964Y391D01*
X480Y390D02*
X489Y390D01*
X555Y390D02*
X564Y390D01*
X682Y390D02*
X691Y390D01*
X757Y390D02*
X766Y390D01*
X880Y390D02*
X889Y390D01*
X955Y390D02*
X964Y390D01*
X480Y389D02*
X489Y389D01*
X555Y389D02*
X565Y389D01*
X682Y389D02*
X691Y389D01*
X757Y389D02*
X766Y389D01*
X880Y389D02*
X889Y389D01*
X955Y389D02*
X964Y389D01*
X480Y388D02*
X489Y388D01*
X555Y388D02*
X565Y388D01*
X682Y388D02*
X691Y388D01*
X757Y388D02*
X766Y388D01*
X880Y388D02*
X889Y388D01*
X955Y388D02*
X964Y388D01*
X480Y387D02*
X489Y387D01*
X555Y387D02*
X565Y387D01*
X682Y387D02*
X691Y387D01*
X757Y387D02*
X766Y387D01*
X880Y387D02*
X889Y387D01*
X955Y387D02*
X964Y387D01*
X480Y386D02*
X489Y386D01*
X555Y386D02*
X565Y386D01*
X682Y386D02*
X691Y386D01*
X757Y386D02*
X766Y386D01*
X880Y386D02*
X889Y386D01*
X955Y386D02*
X964Y386D01*
X480Y385D02*
X489Y385D01*
X555Y385D02*
X565Y385D01*
X682Y385D02*
X691Y385D01*
X757Y385D02*
X766Y385D01*
X880Y385D02*
X889Y385D01*
X955Y385D02*
X964Y385D01*
X480Y384D02*
X489Y384D01*
X555Y384D02*
X565Y384D01*
X682Y384D02*
X691Y384D01*
X757Y384D02*
X766Y384D01*
X880Y384D02*
X889Y384D01*
X955Y384D02*
X964Y384D01*
X480Y383D02*
X489Y383D01*
X555Y383D02*
X564Y383D01*
X682Y383D02*
X691Y383D01*
X757Y383D02*
X766Y383D01*
X880Y383D02*
X889Y383D01*
X955Y383D02*
X964Y383D01*
X480Y382D02*
X489Y382D01*
X555Y382D02*
X564Y382D01*
X682Y382D02*
X691Y382D01*
X757Y382D02*
X766Y382D01*
X880Y382D02*
X889Y382D01*
X955Y382D02*
X964Y382D01*
X480Y381D02*
X489Y381D01*
X555Y381D02*
X564Y381D01*
X682Y381D02*
X692Y381D01*
X757Y381D02*
X766Y381D01*
X880Y381D02*
X890Y381D01*
X955Y381D02*
X964Y381D01*
X480Y380D02*
X489Y380D01*
X555Y380D02*
X564Y380D01*
X682Y380D02*
X692Y380D01*
X756Y380D02*
X766Y380D01*
X880Y380D02*
X890Y380D01*
X954Y380D02*
X964Y380D01*
X480Y379D02*
X490Y379D01*
X554Y379D02*
X564Y379D01*
X682Y379D02*
X692Y379D01*
X756Y379D02*
X766Y379D01*
X880Y379D02*
X890Y379D01*
X954Y379D02*
X964Y379D01*
X480Y378D02*
X490Y378D01*
X554Y378D02*
X564Y378D01*
X682Y378D02*
X692Y378D01*
X756Y378D02*
X766Y378D01*
X880Y378D02*
X890Y378D01*
X954Y378D02*
X964Y378D01*
X480Y377D02*
X490Y377D01*
X554Y377D02*
X564Y377D01*
X682Y377D02*
X692Y377D01*
X756Y377D02*
X766Y377D01*
X880Y377D02*
X890Y377D01*
X954Y377D02*
X964Y377D01*
X480Y376D02*
X490Y376D01*
X554Y376D02*
X564Y376D01*
X682Y376D02*
X693Y376D01*
X755Y376D02*
X766Y376D01*
X880Y376D02*
X891Y376D01*
X953Y376D02*
X964Y376D01*
X480Y375D02*
X491Y375D01*
X553Y375D02*
X564Y375D01*
X682Y375D02*
X693Y375D01*
X755Y375D02*
X766Y375D01*
X880Y375D02*
X891Y375D01*
X953Y375D02*
X964Y375D01*
X480Y374D02*
X491Y374D01*
X553Y374D02*
X564Y374D01*
X682Y374D02*
X694Y374D01*
X755Y374D02*
X766Y374D01*
X880Y374D02*
X892Y374D01*
X953Y374D02*
X964Y374D01*
X480Y373D02*
X492Y373D01*
X553Y373D02*
X564Y373D01*
X682Y373D02*
X694Y373D01*
X754Y373D02*
X766Y373D01*
X880Y373D02*
X892Y373D01*
X952Y373D02*
X964Y373D01*
X480Y372D02*
X492Y372D01*
X552Y372D02*
X564Y372D01*
X682Y372D02*
X694Y372D01*
X754Y372D02*
X766Y372D01*
X880Y372D02*
X893Y372D01*
X952Y372D02*
X964Y372D01*
X480Y371D02*
X493Y371D01*
X552Y371D02*
X564Y371D01*
X682Y371D02*
X695Y371D01*
X753Y371D02*
X766Y371D01*
X880Y371D02*
X893Y371D01*
X951Y371D02*
X964Y371D01*
X480Y370D02*
X493Y370D01*
X551Y370D02*
X564Y370D01*
X682Y370D02*
X696Y370D01*
X752Y370D02*
X766Y370D01*
X880Y370D02*
X894Y370D01*
X950Y370D02*
X964Y370D01*
X480Y369D02*
X494Y369D01*
X550Y369D02*
X564Y369D01*
X682Y369D02*
X696Y369D01*
X752Y369D02*
X766Y369D01*
X880Y369D02*
X894Y369D01*
X950Y369D02*
X964Y369D01*
X480Y368D02*
X494Y368D01*
X550Y368D02*
X564Y368D01*
X682Y368D02*
X697Y368D01*
X751Y368D02*
X766Y368D01*
X880Y368D02*
X895Y368D01*
X949Y368D02*
X964Y368D01*
X480Y367D02*
X495Y367D01*
X549Y367D02*
X564Y367D01*
X682Y367D02*
X698Y367D01*
X750Y367D02*
X766Y367D01*
X880Y367D02*
X896Y367D01*
X948Y367D02*
X964Y367D01*
X480Y366D02*
X496Y366D01*
X548Y366D02*
X564Y366D01*
X682Y366D02*
X698Y366D01*
X750Y366D02*
X766Y366D01*
X880Y366D02*
X896Y366D01*
X948Y366D02*
X964Y366D01*
X480Y365D02*
X497Y365D01*
X547Y365D02*
X564Y365D01*
X682Y365D02*
X699Y365D01*
X749Y365D02*
X766Y365D01*
X880Y365D02*
X897Y365D01*
X947Y365D02*
X964Y365D01*
X480Y364D02*
X498Y364D01*
X546Y364D02*
X564Y364D01*
X682Y364D02*
X700Y364D01*
X748Y364D02*
X766Y364D01*
X880Y364D02*
X898Y364D01*
X946Y364D02*
X964Y364D01*
X480Y363D02*
X499Y363D01*
X545Y363D02*
X564Y363D01*
X682Y363D02*
X701Y363D01*
X747Y363D02*
X766Y363D01*
X880Y363D02*
X899Y363D01*
X945Y363D02*
X964Y363D01*
X480Y362D02*
X500Y362D01*
X544Y362D02*
X564Y362D01*
X682Y362D02*
X702Y362D01*
X746Y362D02*
X766Y362D01*
X880Y362D02*
X900Y362D01*
X944Y362D02*
X964Y362D01*
X480Y361D02*
X501Y361D01*
X543Y361D02*
X564Y361D01*
X682Y361D02*
X703Y361D01*
X745Y361D02*
X766Y361D01*
X880Y361D02*
X901Y361D01*
X943Y361D02*
X964Y361D01*
X480Y360D02*
X502Y360D01*
X542Y360D02*
X564Y360D01*
X682Y360D02*
X705Y360D01*
X743Y360D02*
X766Y360D01*
X880Y360D02*
X903Y360D01*
X941Y360D02*
X964Y360D01*
X480Y359D02*
X504Y359D01*
X540Y359D02*
X564Y359D01*
X682Y359D02*
X706Y359D01*
X742Y359D02*
X766Y359D01*
X880Y359D02*
X904Y359D01*
X940Y359D02*
X964Y359D01*
X480Y358D02*
X505Y358D01*
X539Y358D02*
X564Y358D01*
X682Y358D02*
X708Y358D01*
X740Y358D02*
X766Y358D01*
X880Y358D02*
X906Y358D01*
X938Y358D02*
X964Y358D01*
X480Y357D02*
X507Y357D01*
X537Y357D02*
X564Y357D01*
X682Y357D02*
X710Y357D01*
X738Y357D02*
X766Y357D01*
X880Y357D02*
X908Y357D01*
X936Y357D02*
X964Y357D01*
X480Y356D02*
X509Y356D01*
X535Y356D02*
X564Y356D01*
X682Y356D02*
X712Y356D01*
X736Y356D02*
X766Y356D01*
X880Y356D02*
X910Y356D01*
X934Y356D02*
X964Y356D01*
X480Y355D02*
X512Y355D01*
X532Y355D02*
X564Y355D01*
X682Y355D02*
X716Y355D01*
X732Y355D02*
X766Y355D01*
X880Y355D02*
X914Y355D01*
X930Y355D02*
X964Y355D01*
X480Y354D02*
X517Y354D01*
X527Y354D02*
X564Y354D01*
X682Y354D02*
X766Y354D01*
X880Y354D02*
X964Y354D01*
X480Y353D02*
X564Y353D01*
X682Y353D02*
X766Y353D01*
X880Y353D02*
X964Y353D01*
X480Y352D02*
X564Y352D01*
X682Y352D02*
X766Y352D01*
X880Y352D02*
X964Y352D01*
X480Y351D02*
X564Y351D01*
X682Y351D02*
X766Y351D01*
X880Y351D02*
X964Y351D01*
X480Y350D02*
X564Y350D01*
X682Y350D02*
X766Y350D01*
X880Y350D02*
X964Y350D01*
X480Y349D02*
X564Y349D01*
X682Y349D02*
X766Y349D01*
X880Y349D02*
X964Y349D01*
X480Y348D02*
X564Y348D01*
X682Y348D02*
X766Y348D01*
X880Y348D02*
X964Y348D01*
X480Y347D02*
X564Y347D01*
X682Y347D02*
X766Y347D01*
X880Y347D02*
X964Y347D01*
X480Y346D02*
X564Y346D01*
X682Y346D02*
X766Y346D01*
X880Y346D02*
X964Y346D01*
X480Y345D02*
X564Y345D01*
X682Y345D02*
X766Y345D01*
X880Y345D02*
X964Y345D01*
X480Y344D02*
X564Y344D01*
X682Y344D02*
X766Y344D01*
X880Y344D02*
X964Y344D01*
X480Y343D02*
X564Y343D01*
X682Y343D02*
X766Y343D01*
X880Y343D02*
X964Y343D01*
X480Y342D02*
X564Y342D01*
X682Y342D02*
X766Y342D01*
X880Y342D02*
X964Y342D01*
X480Y341D02*
X564Y341D01*
X682Y341D02*
X766Y341D01*
X880Y341D02*
X964Y341D01*
X480Y340D02*
X564Y340D01*
X682Y340D02*
X766Y340D01*
X880Y340D02*
X964Y340D01*
X480Y339D02*
X564Y339D01*
X682Y339D02*
X766Y339D01*
X880Y339D02*
X964Y339D01*
X480Y338D02*
X564Y338D01*
X682Y338D02*
X766Y338D01*
X880Y338D02*
X964Y338D01*
X480Y337D02*
X564Y337D01*
X682Y337D02*
X766Y337D01*
X880Y337D02*
X964Y337D01*
X480Y336D02*
X564Y336D01*
X682Y336D02*
X766Y336D01*
X880Y336D02*
X964Y336D01*
X480Y335D02*
X564Y335D01*
X682Y335D02*
X766Y335D01*
X880Y335D02*
X964Y335D01*
X480Y334D02*
X564Y334D01*
X682Y334D02*
X766Y334D01*
X880Y334D02*
X964Y334D01*
X480Y333D02*
X564Y333D01*
X682Y333D02*
X766Y333D01*
X880Y333D02*
X964Y333D01*
X480Y332D02*
X564Y332D01*
X682Y332D02*
X766Y332D01*
X880Y332D02*
X964Y332D01*
X480Y331D02*
X564Y331D01*
X682Y331D02*
X766Y331D01*
X880Y331D02*
X964Y331D01*
X480Y330D02*
X564Y330D01*
X682Y330D02*
X766Y330D01*
X880Y330D02*
X964Y330D01*
X480Y329D02*
X564Y329D01*
X682Y329D02*
X766Y329D01*
X880Y329D02*
X964Y329D01*
X480Y328D02*
X564Y328D01*
X682Y328D02*
X766Y328D01*
X880Y328D02*
X964Y328D01*
X480Y327D02*
X564Y327D01*
X682Y327D02*
X766Y327D01*
X880Y327D02*
X964Y327D01*
X480Y326D02*
X564Y326D01*
X682Y326D02*
X766Y326D01*
X880Y326D02*
X964Y326D01*
X480Y325D02*
X564Y325D01*
X682Y325D02*
X766Y325D01*
X880Y325D02*
X964Y325D01*
X480Y324D02*
X564Y324D01*
X682Y324D02*
X766Y324D01*
X880Y324D02*
X964Y324D01*
X480Y323D02*
X564Y323D01*
X682Y323D02*
X766Y323D01*
X880Y323D02*
X964Y323D01*
X480Y322D02*
X564Y322D01*
X682Y322D02*
X766Y322D01*
X880Y322D02*
X964Y322D01*
X480Y321D02*
X564Y321D01*
X682Y321D02*
X766Y321D01*
X880Y321D02*
X964Y321D01*
X480Y320D02*
X564Y320D01*
X682Y320D02*
X766Y320D01*
X880Y320D02*
X964Y320D01*
X480Y319D02*
X564Y319D01*
X682Y319D02*
X766Y319D01*
X880Y319D02*
X964Y319D01*
X480Y318D02*
X564Y318D01*
X682Y318D02*
X766Y318D01*
X880Y318D02*
X964Y318D01*
X480Y317D02*
X564Y317D01*
X682Y317D02*
X766Y317D01*
X880Y317D02*
X964Y317D01*
X480Y316D02*
X564Y316D01*
X682Y316D02*
X766Y316D01*
X880Y316D02*
X964Y316D01*
X480Y315D02*
X564Y315D01*
X682Y315D02*
X766Y315D01*
X880Y315D02*
X964Y315D01*
X480Y314D02*
X564Y314D01*
X682Y314D02*
X766Y314D01*
X880Y314D02*
X964Y314D01*
X480Y313D02*
X564Y313D01*
X682Y313D02*
X766Y313D01*
X880Y313D02*
X964Y313D01*
X480Y312D02*
X564Y312D01*
X682Y312D02*
X766Y312D01*
X880Y312D02*
X964Y312D01*
X480Y311D02*
X564Y311D01*
X682Y311D02*
X766Y311D01*
X880Y311D02*
X964Y311D01*
X480Y310D02*
X564Y310D01*
X682Y310D02*
X766Y310D01*
X880Y310D02*
X964Y310D01*
X480Y309D02*
X564Y309D01*
X682Y309D02*
X766Y309D01*
X880Y309D02*
X964Y309D01*
X480Y308D02*
X564Y308D01*
X682Y308D02*
X766Y308D01*
X880Y308D02*
X964Y308D01*
X480Y307D02*
X564Y307D01*
X682Y307D02*
X766Y307D01*
X880Y307D02*
X964Y307D01*
X480Y306D02*
X564Y306D01*
X682Y306D02*
X766Y306D01*
X880Y306D02*
X964Y306D01*
X480Y305D02*
X564Y305D01*
X682Y305D02*
X766Y305D01*
X880Y305D02*
X964Y305D01*
X480Y304D02*
X564Y304D01*
X682Y304D02*
X766Y304D01*
X880Y304D02*
X964Y304D01*
X480Y303D02*
X564Y303D01*
X682Y303D02*
X766Y303D01*
X880Y303D02*
X964Y303D01*
X480Y302D02*
X564Y302D01*
X682Y302D02*
X766Y302D01*
X880Y302D02*
X964Y302D01*
X480Y301D02*
X564Y301D01*
X682Y301D02*
X766Y301D01*
X880Y301D02*
X964Y301D01*
X480Y300D02*
X564Y300D01*
X682Y300D02*
X766Y300D01*
X880Y300D02*
X964Y300D01*
X480Y299D02*
X564Y299D01*
X682Y299D02*
X766Y299D01*
X880Y299D02*
X964Y299D01*
X480Y298D02*
X564Y298D01*
X682Y298D02*
X766Y298D01*
X880Y298D02*
X964Y298D01*
X480Y297D02*
X564Y297D01*
X682Y297D02*
X766Y297D01*
X880Y297D02*
X964Y297D01*
X480Y296D02*
X564Y296D01*
X682Y296D02*
X766Y296D01*
X880Y296D02*
X964Y296D01*
X480Y295D02*
X564Y295D01*
D02*
G04 End of Mask1*
M02*