; NON-PLATED HOLES START AT T1
; THROUGH (PLATED) HOLES START AT T100
M48
INCH
T1C0.125984
T2C0.033222
T100C0.031497
T101C0.042000
T102C0.039370
T103C0.098425
T104C0.040000
T105C0.051181
T106C0.035000
T107C0.028000
%
T1
X036225Y001010
X001225Y001010
X036225Y023010
X001225Y023010
T2
X017254Y022012
X021316Y022008
T100
X032225Y021026
X032225Y022010
X032225Y016026
X032225Y017010
T101
X027225Y007010
X027225Y009990
X024225Y007010
X024225Y009990
T102
X011225Y011010
X003225Y010010
X003225Y018010
X011225Y016010
X011225Y009010
X003225Y015010
X003225Y008010
X011225Y013010
X011225Y006010
X003225Y012010
X003225Y005010
X011225Y010010
X003225Y017010
X011225Y015010
X011225Y008010
X003225Y014010
X003225Y007010
X011225Y012010
X011225Y005010
X003225Y011010
X003225Y019010
X003225Y016010
X003225Y009010
X003225Y020010
X011225Y014010
X004625Y018410
X011225Y007010
X003225Y013010
X003225Y006010
T103
X010725Y021510
X003725Y021510
T104
X028225Y004010
X026847Y004010
X023847Y004010
X025225Y004010
X033225Y004010
X031847Y004010
T105
X005225Y003860
X007245Y003860
X009225Y003860
T106
X027225Y017010
X024225Y017010
X027225Y013010
X024225Y013010
T107
X022222Y018010
X022226Y013010
X022222Y015010
X013225Y017010
X013229Y012010
X013225Y014010
X022222Y017010
X022226Y012010
X016226Y022012
X013225Y011010
X022222Y014010
X022222Y011010
X013225Y019010
X013225Y016010
X022222Y019010
X022222Y016010
X013225Y010010
X021316Y022008
X022222Y010010
X017254Y022012
X020226Y022012
X018225Y022008
X013225Y018010
X019226Y022008
X013229Y013010
X013225Y015010
T00
M30
