M48
METRIC,LZ,000.000
;FILE_FORMAT=3:3
;TYPE=PLATED
;Layer: PTH_Through
;EasyEDA v6.5.8, 2022-08-15 07:29:34
;028e3914a6f949ed9ca799ef75e4ed4f,10
;Gerber Generator version 0.2
;Holesize 1 = 0.316 mm
T01C0.316
;Holesize 2 = 0.800 mm
T02C0.800
;Holesize 3 = 0.889 mm
T03C0.889
;Holesize 4 = 0.915 mm
T04C0.915
;Holesize 5 = 1.000 mm
T05C1.000
;Holesize 6 = 1.001 mm
T06C1.001
;Holesize 7 = 1.101 mm
T07C1.101
;Holesize 8 = 1.199 mm
T08C1.199
;Holesize 9 = 1.501 mm
T09C1.501
;Holesize 10 = 2.500 mm
T10C2.500
%
G05
G90
T01
X059817Y069596
X055626Y088011
X073787Y075184
T02
X043434Y075438
X045974Y075438
X051054Y045847
X051054Y048387
T03
X043434Y064770
X045974Y064770
T04
X064135Y067749
X064153Y057749
X070866Y057727
X070848Y067727
X050945Y051780
X050927Y061780
T05
X036576Y057658
X036576Y060198
X036576Y062738
X036576Y065278
X036576Y067818
X036576Y070358
X036576Y072898
X036576Y075438
X036576Y077978
X036576Y080518
X032766Y050800
X020066Y050800
X022606Y050800
X025146Y050800
X027686Y050800
X030226Y050800
X016256Y057658G85X016256Y057658
X016256Y080518
X016256Y077978
X016256Y075438
X016256Y072898
X016256Y070358
X016256Y067818
X016256Y065278
X016256Y062738
X016256Y060198
X016256Y057658
T06
X064135Y054229
X064135Y044069
X070866Y054229
X070866Y044069
X075946Y058420
X075946Y048260
T07
X032766Y042545
X030226Y042545
X027686Y042545
X025146Y042545
X022606Y042545
X020066Y042545
T08
X047523Y037084
X051029Y037084
X060477Y036957
X063983Y036957
X070764Y036830
X074270Y036830
X088417Y036957
X091923Y036957
T09
X082709Y052482G85X082709Y052482
X084709Y046482G85X084709Y046482
X096909Y046482G85X096909Y046482
X096909Y058482G85X096909Y058482
X084709Y058482G85X084709Y058482
T10
X036576Y084328
X036576Y051308
X016256Y051308
X016256Y084328
M30
