G04 Layer: TopSolderMaskLayer*
G04 EasyEDA v6.5.8, 2022-08-15 07:29:34*
G04 028e3914a6f949ed9ca799ef75e4ed4f,10*
G04 Gerber Generator version 0.2*
G04 Scale: 100 percent, Rotated: No, Reflected: No *
G04 Dimensions in millimeters *
G04 leading zeros omitted , absolute positions ,4 integer and 5 decimal *
%FSLAX45Y45*%
%MOMM*%

%ADD10C,2.0032*%
%ADD11C,1.7526*%
%ADD12C,2.0828*%
%ADD13C,1.9032*%
%ADD14C,2.1336*%
%ADD15C,2.3515*%
%ADD16C,1.7272*%
%ADD17C,3.7084*%
%ADD18C,1.9812*%

%LPD*%
D10*
G01*
X4343400Y7543800D03*
G36*
X4507407Y7443647D02*
G01*
X4504359Y7444155D01*
X4501311Y7445679D01*
X4499279Y7447711D01*
X4497755Y7450759D01*
X4497247Y7453807D01*
X4497324Y7453884D01*
X4497324Y7633715D01*
X4497247Y7633792D01*
X4497755Y7636840D01*
X4499279Y7639888D01*
X4501311Y7641920D01*
X4504359Y7643444D01*
X4507407Y7643952D01*
X4507484Y7643876D01*
X4687315Y7643876D01*
X4687392Y7643952D01*
X4690440Y7643444D01*
X4693488Y7641920D01*
X4695520Y7639888D01*
X4697044Y7636840D01*
X4697552Y7633792D01*
X4697475Y7633715D01*
X4697475Y7453884D01*
X4697552Y7453807D01*
X4697044Y7450759D01*
X4695520Y7447711D01*
X4693488Y7445679D01*
X4690440Y7444155D01*
X4687392Y7443647D01*
X4687315Y7443723D01*
X4507484Y7443723D01*
G37*
G01*
X5105400Y4584700D03*
G36*
X5015407Y4738547D02*
G01*
X5012359Y4739055D01*
X5009311Y4740579D01*
X5007279Y4742611D01*
X5005755Y4745659D01*
X5005247Y4748707D01*
X5005324Y4748784D01*
X5005324Y4928615D01*
X5005247Y4928692D01*
X5005755Y4931740D01*
X5007279Y4934788D01*
X5009311Y4936820D01*
X5012359Y4938344D01*
X5015407Y4938852D01*
X5015484Y4938776D01*
X5195315Y4938776D01*
X5195392Y4938852D01*
X5198440Y4938344D01*
X5201488Y4936820D01*
X5203520Y4934788D01*
X5205044Y4931740D01*
X5205552Y4928692D01*
X5205475Y4928615D01*
X5205475Y4748784D01*
X5205552Y4748707D01*
X5205044Y4745659D01*
X5203520Y4742611D01*
X5201488Y4740579D01*
X5198440Y4739055D01*
X5195392Y4738547D01*
X5195315Y4738623D01*
X5015484Y4738623D01*
G37*
G36*
X4260850Y6389370D02*
G01*
X4259325Y6389623D01*
X4257802Y6390386D01*
X4256786Y6391402D01*
X4256024Y6392926D01*
X4255770Y6394450D01*
X4255770Y6559550D01*
X4256024Y6561073D01*
X4256786Y6562597D01*
X4257802Y6563613D01*
X4259325Y6564376D01*
X4260850Y6564629D01*
X4425950Y6564629D01*
X4427474Y6564376D01*
X4428997Y6563613D01*
X4430013Y6562597D01*
X4430775Y6561073D01*
X4431029Y6559550D01*
X4431029Y6394450D01*
X4430775Y6392926D01*
X4430013Y6391402D01*
X4428997Y6390386D01*
X4427474Y6389623D01*
X4425950Y6389370D01*
G37*
D11*
G01*
X4597400Y6477000D03*
D12*
G01*
X6413500Y5422900D03*
G01*
X6413500Y4406900D03*
G01*
X7086600Y5422900D03*
G01*
X7086600Y4406900D03*
G01*
X7594600Y5842000D03*
G01*
X7594600Y4826000D03*
G36*
X3191509Y4159250D02*
G01*
X3191611Y4159351D01*
X3188563Y4159859D01*
X3185515Y4161383D01*
X3183483Y4163415D01*
X3181959Y4166463D01*
X3181451Y4169511D01*
X3181350Y4169410D01*
X3181350Y4339589D01*
X3181451Y4339488D01*
X3181959Y4342536D01*
X3183483Y4345584D01*
X3185515Y4347616D01*
X3188563Y4349140D01*
X3191611Y4349648D01*
X3191509Y4349750D01*
X3361690Y4349750D01*
X3361588Y4349648D01*
X3364636Y4349140D01*
X3367684Y4347616D01*
X3369716Y4345584D01*
X3371240Y4342536D01*
X3371748Y4339488D01*
X3371850Y4339589D01*
X3371850Y4169410D01*
X3371748Y4169511D01*
X3371240Y4166463D01*
X3369716Y4163415D01*
X3367684Y4161383D01*
X3364636Y4159859D01*
X3361588Y4159351D01*
X3361690Y4159250D01*
G37*
D13*
G01*
X3022600Y4254500D03*
G01*
X2768600Y4254500D03*
G01*
X2514600Y4254500D03*
G01*
X2260600Y4254500D03*
G01*
X2006600Y4254500D03*
G36*
X4650740Y3601720D02*
G01*
X4649216Y3601973D01*
X4647692Y3602736D01*
X4646676Y3603752D01*
X4645914Y3605276D01*
X4645660Y3606800D01*
X4645659Y3606800D01*
X4645659Y3810000D01*
X4645660Y3810000D01*
X4645914Y3811523D01*
X4646676Y3813047D01*
X4647692Y3814063D01*
X4649216Y3814826D01*
X4650740Y3815079D01*
X4853940Y3815079D01*
X4855464Y3814826D01*
X4856988Y3814063D01*
X4858004Y3813047D01*
X4858766Y3811523D01*
X4859020Y3810000D01*
X4859020Y3810000D01*
X4859020Y3606800D01*
X4859020Y3606800D01*
X4858766Y3605276D01*
X4858004Y3603752D01*
X4856988Y3602736D01*
X4855464Y3601973D01*
X4853940Y3601720D01*
G37*
D14*
G01*
X5102859Y3708400D03*
G36*
X5946140Y3589020D02*
G01*
X5944616Y3589273D01*
X5943092Y3590036D01*
X5942076Y3591052D01*
X5941314Y3592576D01*
X5941060Y3594100D01*
X5941059Y3594100D01*
X5941059Y3797300D01*
X5941060Y3797300D01*
X5941314Y3798823D01*
X5942076Y3800347D01*
X5943092Y3801363D01*
X5944616Y3802126D01*
X5946140Y3802379D01*
X6149340Y3802379D01*
X6150864Y3802126D01*
X6152388Y3801363D01*
X6153404Y3800347D01*
X6154166Y3798823D01*
X6154420Y3797300D01*
X6154420Y3797300D01*
X6154420Y3594100D01*
X6154420Y3594100D01*
X6154166Y3592576D01*
X6153404Y3591052D01*
X6152388Y3590036D01*
X6150864Y3589273D01*
X6149340Y3589020D01*
G37*
G01*
X6398259Y3695700D03*
G36*
X6974840Y3576320D02*
G01*
X6973316Y3576573D01*
X6971792Y3577336D01*
X6970776Y3578352D01*
X6970014Y3579876D01*
X6969760Y3581400D01*
X6969759Y3581400D01*
X6969759Y3784600D01*
X6969760Y3784600D01*
X6970014Y3786123D01*
X6970776Y3787647D01*
X6971792Y3788663D01*
X6973316Y3789426D01*
X6974840Y3789679D01*
X7178040Y3789679D01*
X7179564Y3789426D01*
X7181088Y3788663D01*
X7182104Y3787647D01*
X7182866Y3786123D01*
X7183120Y3784600D01*
X7183120Y3784600D01*
X7183120Y3581400D01*
X7183120Y3581400D01*
X7182866Y3579876D01*
X7182104Y3578352D01*
X7181088Y3577336D01*
X7179564Y3576573D01*
X7178040Y3576320D01*
G37*
G01*
X7426959Y3683000D03*
G36*
X8740140Y3589020D02*
G01*
X8738616Y3589273D01*
X8737092Y3590036D01*
X8736076Y3591052D01*
X8735314Y3592576D01*
X8735060Y3594100D01*
X8735059Y3594100D01*
X8735059Y3797300D01*
X8735060Y3797300D01*
X8735314Y3798823D01*
X8736076Y3800347D01*
X8737092Y3801363D01*
X8738616Y3802126D01*
X8740140Y3802379D01*
X8943340Y3802379D01*
X8944864Y3802126D01*
X8946388Y3801363D01*
X8947404Y3800347D01*
X8948166Y3798823D01*
X8948420Y3797300D01*
X8948420Y3797300D01*
X8948420Y3594100D01*
X8948420Y3594100D01*
X8948166Y3592576D01*
X8947404Y3591052D01*
X8946388Y3590036D01*
X8944864Y3589273D01*
X8943340Y3589020D01*
G37*
G01*
X9192259Y3695700D03*
D15*
G01*
X8270900Y5248198D03*
G01*
X8470900Y4648200D03*
G01*
X9690887Y4648200D03*
G01*
X9690887Y5848197D03*
G01*
X8470900Y5848197D03*
D16*
G01*
X6413500Y6774865D03*
G01*
X6415303Y5774867D03*
G01*
X7086600Y5772734D03*
G01*
X7084796Y6772732D03*
G01*
X5094503Y5177967D03*
G01*
X5092700Y6177965D03*
D17*
G01*
X3657600Y8432800D03*
D18*
G01*
X3657600Y5765800D03*
G01*
X3657600Y6019800D03*
G01*
X3657600Y6273800D03*
G01*
X3657600Y6527800D03*
G01*
X3657600Y6781800D03*
G01*
X3657600Y7035800D03*
G01*
X3657600Y7289800D03*
G01*
X3657600Y7543800D03*
G01*
X3657600Y7797800D03*
G01*
X3657600Y8051800D03*
D17*
G01*
X3657600Y5130800D03*
D18*
G01*
X3276600Y5080000D03*
G01*
X2006600Y5080000D03*
G01*
X2260600Y5080000D03*
G01*
X2514600Y5080000D03*
G01*
X2768600Y5080000D03*
G01*
X3022600Y5080000D03*
D17*
G01*
X1625600Y5130800D03*
D18*
G01*
X1625600Y5765800D03*
G01*
X1625600Y8051800D03*
G01*
X1625600Y7797800D03*
G01*
X1625600Y7543800D03*
G01*
X1625600Y7289800D03*
G01*
X1625600Y7035800D03*
G01*
X1625600Y6781800D03*
G01*
X1625600Y6527800D03*
G01*
X1625600Y6273800D03*
G01*
X1625600Y6019800D03*
G01*
X1625600Y5765800D03*
D17*
G01*
X1625600Y8432800D03*
M02*
