G04 Layer: BottomSilkscreenLayer*
G04 EasyEDA v6.5.8, 2022-08-15 07:29:34*
G04 028e3914a6f949ed9ca799ef75e4ed4f,10*
G04 Gerber Generator version 0.2*
G04 Scale: 100 percent, Rotated: No, Reflected: No *
G04 Dimensions in millimeters *
G04 leading zeros omitted , absolute positions ,4 integer and 5 decimal *
%FSLAX45Y45*%
%MOMM*%

%ADD10C,0.2540*%

%LPD*%
D10*
X6413500Y5880097D02*
G01*
X6413500Y5981697D01*
X6299200Y6019797D01*
X6413500Y6070597D01*
X6527800Y6121397D01*
X6413500Y6172197D01*
X6299200Y6222997D01*
X6413500Y6273797D01*
X6527800Y6324597D01*
X6413500Y6375397D01*
X6299200Y6426197D01*
X6413500Y6476997D01*
X6527800Y6527797D01*
X6413500Y6565897D01*
X6413500Y6667497D01*
X7086600Y6667502D02*
G01*
X7086600Y6565902D01*
X7200900Y6527802D01*
X7086600Y6477002D01*
X6972300Y6426202D01*
X7086600Y6375402D01*
X7200900Y6324602D01*
X7086600Y6273802D01*
X6972300Y6223002D01*
X7086600Y6172202D01*
X7200900Y6121402D01*
X7086600Y6070602D01*
X6972300Y6019802D01*
X7086600Y5981702D01*
X7086600Y5880102D01*
X5092700Y5283200D02*
G01*
X5092700Y5384800D01*
X4978400Y5422900D01*
X5092700Y5473700D01*
X5207000Y5524500D01*
X5092700Y5575300D01*
X4978400Y5626100D01*
X5092700Y5676900D01*
X5207000Y5727700D01*
X5092700Y5778500D01*
X4978400Y5829300D01*
X5092700Y5880100D01*
X5207000Y5930900D01*
X5092700Y5969000D01*
X5092700Y6070600D01*
M02*
