G04 Layer: TopLayer*
G04 EasyEDA v6.5.8, 2022-08-15 07:29:34*
G04 028e3914a6f949ed9ca799ef75e4ed4f,10*
G04 Gerber Generator version 0.2*
G04 Scale: 100 percent, Rotated: No, Reflected: No *
G04 Dimensions in millimeters *
G04 leading zeros omitted , absolute positions ,4 integer and 5 decimal *
%FSLAX45Y45*%
%MOMM*%

%ADD10C,0.6096*%
%ADD11C,1.2192*%
%ADD12C,1.8000*%
%ADD13R,1.8000X1.8000*%
%ADD14C,1.6510*%
%ADD15C,1.9812*%
%ADD16R,1.7000X1.7000*%
%ADD17C,1.7000*%
%ADD18C,2.0320*%
%ADD19C,2.2499*%
%ADD20C,1.5240*%
%ADD21C,3.5052*%
%ADD22C,1.7780*%
%ADD23C,0.6200*%

%LPD*%
D10*
X3657600Y7289800D02*
G01*
X3924300Y7289800D01*
X4064000Y7150100D01*
X7594600Y7150100D01*
X7594600Y5842000D01*
X5562600Y8801100D02*
G01*
X7378700Y8801100D01*
X7378700Y7518400D01*
X6415303Y5774867D02*
G01*
X5981700Y5774867D01*
X5981700Y6959600D01*
X5105400Y4584700D02*
G01*
X5105400Y3710939D01*
X5102859Y3708400D01*
D11*
X3657600Y5765800D02*
G01*
X4597400Y5765800D01*
X4597400Y6477000D01*
D12*
G01*
X4343400Y7543800D03*
G36*
X4507407Y7633792D02*
G01*
X4687392Y7633792D01*
X4687392Y7453807D01*
X4507407Y7453807D01*
G37*
G01*
X5105400Y4584700D03*
D13*
G01*
X5105400Y4838700D03*
G36*
X4260850Y6559550D02*
G01*
X4425950Y6559550D01*
X4425950Y6394450D01*
X4260850Y6394450D01*
G37*
D14*
G01*
X4597400Y6477000D03*
D15*
G01*
X6413500Y5422900D03*
G01*
X6413500Y4406900D03*
G01*
X7086600Y5422900D03*
G01*
X7086600Y4406900D03*
G01*
X7594600Y5842000D03*
G01*
X7594600Y4826000D03*
D16*
G01*
X3276600Y4254500D03*
D17*
G01*
X3022600Y4254500D03*
G01*
X2768600Y4254500D03*
G01*
X2514600Y4254500D03*
G01*
X2260600Y4254500D03*
G01*
X2006600Y4254500D03*
G36*
X4650740Y3810000D02*
G01*
X4853940Y3810000D01*
X4853940Y3606800D01*
X4650740Y3606800D01*
G37*
D18*
G01*
X5102859Y3708400D03*
G36*
X5946140Y3797300D02*
G01*
X6149340Y3797300D01*
X6149340Y3594100D01*
X5946140Y3594100D01*
G37*
G01*
X6398259Y3695700D03*
G36*
X6974840Y3784600D02*
G01*
X7178040Y3784600D01*
X7178040Y3581400D01*
X6974840Y3581400D01*
G37*
G01*
X7426959Y3683000D03*
G36*
X8740140Y3797300D02*
G01*
X8943340Y3797300D01*
X8943340Y3594100D01*
X8740140Y3594100D01*
G37*
G01*
X9192259Y3695700D03*
D19*
G01*
X8270900Y5248198D03*
G01*
X8470900Y4648200D03*
G01*
X9690887Y4648200D03*
G01*
X9690887Y5848197D03*
G01*
X8470900Y5848197D03*
D20*
G01*
X6413500Y6774865D03*
G01*
X6415303Y5774867D03*
G01*
X7086600Y5772734D03*
G01*
X7084796Y6772732D03*
G01*
X5094503Y5177967D03*
G01*
X5092700Y6177965D03*
D21*
G01*
X3657600Y8432800D03*
D22*
G01*
X3657600Y5765800D03*
G01*
X3657600Y6019800D03*
G01*
X3657600Y6273800D03*
G01*
X3657600Y6527800D03*
G01*
X3657600Y6781800D03*
G01*
X3657600Y7035800D03*
G01*
X3657600Y7289800D03*
G01*
X3657600Y7543800D03*
G01*
X3657600Y7797800D03*
G01*
X3657600Y8051800D03*
D21*
G01*
X3657600Y5130800D03*
D22*
G01*
X3276600Y5080000D03*
G01*
X2006600Y5080000D03*
G01*
X2260600Y5080000D03*
G01*
X2514600Y5080000D03*
G01*
X2768600Y5080000D03*
G01*
X3022600Y5080000D03*
D21*
G01*
X1625600Y5130800D03*
D22*
G01*
X1625600Y5765800D03*
G01*
X1625600Y8051800D03*
G01*
X1625600Y7797800D03*
G01*
X1625600Y7543800D03*
G01*
X1625600Y7289800D03*
G01*
X1625600Y7035800D03*
G01*
X1625600Y6781800D03*
G01*
X1625600Y6527800D03*
G01*
X1625600Y6273800D03*
G01*
X1625600Y6019800D03*
G01*
X1625600Y5765800D03*
D21*
G01*
X1625600Y8432800D03*
D23*
G01*
X5981700Y6959600D03*
G01*
X5562600Y8801100D03*
G01*
X7378700Y7518400D03*
M02*
