G04 Layer: TopSilkscreenLayer*
G04 EasyEDA v6.5.8, 2022-08-15 07:29:34*
G04 028e3914a6f949ed9ca799ef75e4ed4f,10*
G04 Gerber Generator version 0.2*
G04 Scale: 100 percent, Rotated: No, Reflected: No *
G04 Dimensions in millimeters *
G04 leading zeros omitted , absolute positions ,4 integer and 5 decimal *
%FSLAX45Y45*%
%MOMM*%

%ADD10C,0.2032*%
%ADD11C,0.1524*%
%ADD12C,0.1501*%
%ADD13C,0.2540*%

%LPD*%
G36*
X6355080Y6420104D02*
G01*
X6351219Y6416243D01*
X6347510Y6411925D01*
X6344056Y6407099D01*
X6341008Y6401612D01*
X6338468Y6395516D01*
X6336487Y6388760D01*
X6335217Y6381191D01*
X6334760Y6372860D01*
X6335064Y6366510D01*
X6336030Y6360414D01*
X6337655Y6354622D01*
X6339840Y6349238D01*
X6342583Y6344259D01*
X6345936Y6339789D01*
X6349847Y6335826D01*
X6354267Y6332474D01*
X6359194Y6329781D01*
X6364630Y6327800D01*
X6370523Y6326530D01*
X6376924Y6326124D01*
X6384290Y6326784D01*
X6390995Y6328613D01*
X6396939Y6331559D01*
X6402171Y6335420D01*
X6406591Y6340144D01*
X6410248Y6345529D01*
X6413042Y6351473D01*
X6415024Y6357874D01*
X6415786Y6357874D01*
X6418173Y6352184D01*
X6421170Y6347053D01*
X6424777Y6342532D01*
X6428943Y6338620D01*
X6433769Y6335471D01*
X6439204Y6333134D01*
X6445199Y6331712D01*
X6451854Y6331204D01*
X6457492Y6331559D01*
X6462674Y6332677D01*
X6467449Y6334404D01*
X6471767Y6336792D01*
X6475628Y6339738D01*
X6479032Y6343294D01*
X6481927Y6347307D01*
X6484315Y6351778D01*
X6486194Y6356705D01*
X6487566Y6361988D01*
X6488430Y6367678D01*
X6488684Y6373622D01*
X6488328Y6379819D01*
X6487363Y6385661D01*
X6485737Y6391148D01*
X6483654Y6396329D01*
X6481064Y6401257D01*
X6478066Y6405930D01*
X6474764Y6410299D01*
X6471158Y6414516D01*
X6460490Y6405372D01*
X6466281Y6398768D01*
X6470904Y6391300D01*
X6474002Y6383020D01*
X6475222Y6374130D01*
X6474714Y6368440D01*
X6473342Y6363309D01*
X6471208Y6358890D01*
X6468313Y6355181D01*
X6464808Y6352184D01*
X6460591Y6350000D01*
X6455867Y6348679D01*
X6450584Y6348222D01*
X6446520Y6348425D01*
X6442659Y6349136D01*
X6439001Y6350355D01*
X6435598Y6352133D01*
X6432499Y6354470D01*
X6429654Y6357467D01*
X6427165Y6361074D01*
X6425082Y6365392D01*
X6423406Y6370421D01*
X6422136Y6376162D01*
X6421374Y6382766D01*
X6421120Y6390132D01*
X6408166Y6390132D01*
X6407912Y6381953D01*
X6407150Y6374638D01*
X6405930Y6368186D01*
X6404254Y6362547D01*
X6402171Y6357670D01*
X6399631Y6353556D01*
X6396786Y6350152D01*
X6393535Y6347460D01*
X6389928Y6345428D01*
X6386068Y6344005D01*
X6381902Y6343142D01*
X6377432Y6342888D01*
X6371082Y6343497D01*
X6365392Y6345174D01*
X6360464Y6347917D01*
X6356299Y6351625D01*
X6352946Y6356146D01*
X6350508Y6361430D01*
X6348984Y6367373D01*
X6348476Y6373876D01*
X6348831Y6380226D01*
X6349949Y6386017D01*
X6351574Y6391300D01*
X6353759Y6396075D01*
X6356400Y6400444D01*
X6359296Y6404457D01*
X6362446Y6408115D01*
X6365748Y6411468D01*
G37*
G36*
X6355080Y6308598D02*
G01*
X6351219Y6304737D01*
X6347510Y6300419D01*
X6344056Y6295491D01*
X6341008Y6290005D01*
X6338468Y6283909D01*
X6336487Y6277152D01*
X6335217Y6269634D01*
X6334760Y6261354D01*
X6335064Y6255004D01*
X6336030Y6248908D01*
X6337655Y6243116D01*
X6339840Y6237732D01*
X6342583Y6232753D01*
X6345936Y6228283D01*
X6349847Y6224320D01*
X6354267Y6220968D01*
X6359194Y6218275D01*
X6364630Y6216294D01*
X6370523Y6215024D01*
X6376924Y6214618D01*
X6384290Y6215278D01*
X6390995Y6217107D01*
X6396939Y6220053D01*
X6402171Y6223914D01*
X6406591Y6228638D01*
X6410248Y6234023D01*
X6413042Y6239967D01*
X6415024Y6246368D01*
X6415786Y6246368D01*
X6418173Y6240678D01*
X6421170Y6235547D01*
X6424777Y6231026D01*
X6428943Y6227114D01*
X6433769Y6223965D01*
X6439204Y6221628D01*
X6445199Y6220206D01*
X6451854Y6219698D01*
X6457492Y6220053D01*
X6462674Y6221171D01*
X6467449Y6222898D01*
X6471767Y6225286D01*
X6475628Y6228232D01*
X6479032Y6231788D01*
X6481927Y6235801D01*
X6484315Y6240272D01*
X6486194Y6245199D01*
X6487566Y6250482D01*
X6488430Y6256172D01*
X6488684Y6262116D01*
X6488328Y6268313D01*
X6487363Y6274155D01*
X6485737Y6279642D01*
X6483654Y6284874D01*
X6481064Y6289751D01*
X6478066Y6294424D01*
X6474764Y6298793D01*
X6471158Y6303010D01*
X6460490Y6293866D01*
X6466281Y6287160D01*
X6470904Y6279692D01*
X6474002Y6271463D01*
X6475222Y6262624D01*
X6474714Y6256934D01*
X6473342Y6251803D01*
X6471208Y6247384D01*
X6468313Y6243675D01*
X6464808Y6240678D01*
X6460591Y6238494D01*
X6455867Y6237173D01*
X6450584Y6236716D01*
X6446520Y6236919D01*
X6442659Y6237630D01*
X6439001Y6238849D01*
X6435598Y6240627D01*
X6432499Y6242964D01*
X6429654Y6245910D01*
X6427165Y6249517D01*
X6425082Y6253784D01*
X6423406Y6258814D01*
X6422136Y6264503D01*
X6421374Y6271056D01*
X6421120Y6278372D01*
X6408166Y6278372D01*
X6407912Y6270193D01*
X6407150Y6262878D01*
X6405930Y6256477D01*
X6404254Y6250838D01*
X6402171Y6246012D01*
X6399631Y6241897D01*
X6396786Y6238544D01*
X6393535Y6235903D01*
X6389928Y6233871D01*
X6386068Y6232448D01*
X6381902Y6231636D01*
X6377432Y6231382D01*
X6371082Y6231991D01*
X6365392Y6233668D01*
X6360464Y6236411D01*
X6356299Y6240119D01*
X6352946Y6244640D01*
X6350508Y6249924D01*
X6348984Y6255867D01*
X6348476Y6262370D01*
X6348831Y6268720D01*
X6349949Y6274511D01*
X6351574Y6279794D01*
X6353759Y6284569D01*
X6356400Y6288938D01*
X6359296Y6292951D01*
X6362446Y6296609D01*
X6365748Y6299962D01*
G37*
G36*
X6412230Y6193028D02*
G01*
X6402781Y6192824D01*
X6393942Y6192215D01*
X6385763Y6191199D01*
X6378143Y6189827D01*
X6371183Y6188049D01*
X6364833Y6185916D01*
X6359093Y6183477D01*
X6353962Y6180632D01*
X6349441Y6177483D01*
X6345529Y6174028D01*
X6342227Y6170269D01*
X6339535Y6166256D01*
X6337452Y6161887D01*
X6335928Y6157315D01*
X6335064Y6152438D01*
X6334760Y6147308D01*
X6347968Y6147308D01*
X6348374Y6151575D01*
X6349644Y6155588D01*
X6351778Y6159296D01*
X6354826Y6162751D01*
X6358737Y6165850D01*
X6363512Y6168593D01*
X6369253Y6171031D01*
X6375908Y6173012D01*
X6383528Y6174638D01*
X6392113Y6175806D01*
X6401663Y6176518D01*
X6412230Y6176772D01*
X6422593Y6176518D01*
X6431991Y6175806D01*
X6440373Y6174638D01*
X6447840Y6173012D01*
X6454394Y6171031D01*
X6460032Y6168593D01*
X6464706Y6165850D01*
X6468567Y6162751D01*
X6471462Y6159296D01*
X6473596Y6155588D01*
X6474815Y6151575D01*
X6475222Y6147308D01*
X6474815Y6143040D01*
X6473596Y6139027D01*
X6471462Y6135319D01*
X6468567Y6131864D01*
X6464706Y6128766D01*
X6460032Y6126022D01*
X6454394Y6123584D01*
X6447840Y6121603D01*
X6440373Y6119977D01*
X6431991Y6118809D01*
X6422593Y6118098D01*
X6412230Y6117844D01*
X6401663Y6118098D01*
X6392113Y6118809D01*
X6383528Y6119977D01*
X6375908Y6121603D01*
X6369253Y6123584D01*
X6363512Y6126022D01*
X6358737Y6128766D01*
X6354826Y6131864D01*
X6351778Y6135319D01*
X6349644Y6139027D01*
X6348374Y6143040D01*
X6347968Y6147308D01*
X6334760Y6147308D01*
X6335064Y6142177D01*
X6335928Y6137351D01*
X6337452Y6132728D01*
X6339535Y6128410D01*
X6342227Y6124397D01*
X6345529Y6120638D01*
X6349441Y6117234D01*
X6353962Y6114084D01*
X6359093Y6111290D01*
X6364833Y6108852D01*
X6371183Y6106769D01*
X6378143Y6105042D01*
X6385763Y6103620D01*
X6393942Y6102654D01*
X6402781Y6102045D01*
X6412230Y6101842D01*
X6421577Y6102045D01*
X6430314Y6102654D01*
X6438442Y6103620D01*
X6445910Y6105042D01*
X6452819Y6106769D01*
X6459067Y6108852D01*
X6464757Y6111290D01*
X6469786Y6114084D01*
X6474256Y6117234D01*
X6478066Y6120638D01*
X6481318Y6124397D01*
X6484010Y6128410D01*
X6486042Y6132728D01*
X6487515Y6137351D01*
X6488379Y6142177D01*
X6488684Y6147308D01*
X6488379Y6152438D01*
X6487515Y6157315D01*
X6486042Y6161887D01*
X6484010Y6166256D01*
X6481318Y6170269D01*
X6478066Y6174028D01*
X6474256Y6177483D01*
X6469786Y6180632D01*
X6464757Y6183477D01*
X6459067Y6185916D01*
X6452819Y6188049D01*
X6445910Y6189827D01*
X6438442Y6191199D01*
X6430314Y6192215D01*
X6421577Y6192824D01*
G37*
G36*
X7028180Y6407404D02*
G01*
X7024319Y6403543D01*
X7020610Y6399225D01*
X7017156Y6394399D01*
X7014108Y6388912D01*
X7011568Y6382816D01*
X7009587Y6376060D01*
X7008317Y6368491D01*
X7007859Y6360160D01*
X7008164Y6353810D01*
X7009130Y6347714D01*
X7010755Y6341922D01*
X7012940Y6336538D01*
X7015683Y6331559D01*
X7019036Y6327089D01*
X7022947Y6323126D01*
X7027367Y6319774D01*
X7032294Y6317081D01*
X7037730Y6315100D01*
X7043623Y6313830D01*
X7050024Y6313424D01*
X7057390Y6314084D01*
X7064095Y6315913D01*
X7070039Y6318859D01*
X7075271Y6322720D01*
X7079691Y6327444D01*
X7083348Y6332829D01*
X7086142Y6338773D01*
X7088124Y6345174D01*
X7088886Y6345174D01*
X7091273Y6339484D01*
X7094270Y6334353D01*
X7097877Y6329832D01*
X7102043Y6325920D01*
X7106869Y6322771D01*
X7112304Y6320434D01*
X7118299Y6319012D01*
X7124953Y6318504D01*
X7130592Y6318859D01*
X7135774Y6319977D01*
X7140549Y6321704D01*
X7144867Y6324092D01*
X7148728Y6327038D01*
X7152131Y6330594D01*
X7155027Y6334607D01*
X7157415Y6339078D01*
X7159294Y6344005D01*
X7160666Y6349288D01*
X7161530Y6354978D01*
X7161784Y6360922D01*
X7161428Y6367119D01*
X7160463Y6372961D01*
X7158837Y6378448D01*
X7156754Y6383629D01*
X7154164Y6388557D01*
X7151166Y6393230D01*
X7147864Y6397599D01*
X7144258Y6401816D01*
X7133590Y6392672D01*
X7139381Y6386068D01*
X7144003Y6378600D01*
X7147102Y6370320D01*
X7148322Y6361430D01*
X7147814Y6355740D01*
X7146442Y6350609D01*
X7144308Y6346190D01*
X7141413Y6342481D01*
X7137908Y6339484D01*
X7133691Y6337300D01*
X7128967Y6335979D01*
X7123684Y6335522D01*
X7119620Y6335725D01*
X7115759Y6336436D01*
X7112101Y6337655D01*
X7108698Y6339433D01*
X7105599Y6341770D01*
X7102754Y6344767D01*
X7100265Y6348374D01*
X7098182Y6352692D01*
X7096506Y6357721D01*
X7095236Y6363462D01*
X7094474Y6370066D01*
X7094220Y6377432D01*
X7081266Y6377432D01*
X7081012Y6369253D01*
X7080250Y6361938D01*
X7079030Y6355486D01*
X7077354Y6349847D01*
X7075271Y6344970D01*
X7072731Y6340856D01*
X7069886Y6337452D01*
X7066635Y6334760D01*
X7063028Y6332728D01*
X7059168Y6331305D01*
X7055002Y6330442D01*
X7050531Y6330188D01*
X7044181Y6330797D01*
X7038492Y6332474D01*
X7033564Y6335217D01*
X7029399Y6338925D01*
X7026046Y6343446D01*
X7023608Y6348730D01*
X7022084Y6354673D01*
X7021575Y6361176D01*
X7021931Y6367526D01*
X7023049Y6373317D01*
X7024674Y6378600D01*
X7026859Y6383375D01*
X7029500Y6387744D01*
X7032396Y6391757D01*
X7035546Y6395415D01*
X7038848Y6398768D01*
G37*
G36*
X7028180Y6295898D02*
G01*
X7024319Y6292037D01*
X7020610Y6287719D01*
X7017156Y6282791D01*
X7014108Y6277305D01*
X7011568Y6271209D01*
X7009587Y6264452D01*
X7008317Y6256934D01*
X7007859Y6248654D01*
X7008164Y6242304D01*
X7009130Y6236208D01*
X7010755Y6230416D01*
X7012940Y6225032D01*
X7015683Y6220053D01*
X7019036Y6215583D01*
X7022947Y6211620D01*
X7027367Y6208268D01*
X7032294Y6205575D01*
X7037730Y6203594D01*
X7043623Y6202324D01*
X7050024Y6201918D01*
X7057390Y6202578D01*
X7064095Y6204407D01*
X7070039Y6207353D01*
X7075271Y6211214D01*
X7079691Y6215938D01*
X7083348Y6221323D01*
X7086142Y6227267D01*
X7088124Y6233668D01*
X7088886Y6233668D01*
X7091273Y6227978D01*
X7094270Y6222847D01*
X7097877Y6218326D01*
X7102043Y6214414D01*
X7106869Y6211265D01*
X7112304Y6208928D01*
X7118299Y6207506D01*
X7124953Y6206998D01*
X7130592Y6207353D01*
X7135774Y6208471D01*
X7140549Y6210198D01*
X7144867Y6212586D01*
X7148728Y6215532D01*
X7152131Y6219088D01*
X7155027Y6223101D01*
X7157415Y6227572D01*
X7159294Y6232499D01*
X7160666Y6237782D01*
X7161530Y6243472D01*
X7161784Y6249416D01*
X7161428Y6255613D01*
X7160463Y6261455D01*
X7158837Y6266942D01*
X7156754Y6272174D01*
X7154164Y6277051D01*
X7151166Y6281724D01*
X7147864Y6286093D01*
X7144258Y6290310D01*
X7133590Y6281166D01*
X7139381Y6274460D01*
X7144003Y6266992D01*
X7147102Y6258763D01*
X7148322Y6249924D01*
X7147814Y6244234D01*
X7146442Y6239103D01*
X7144308Y6234684D01*
X7141413Y6230975D01*
X7137908Y6227978D01*
X7133691Y6225794D01*
X7128967Y6224473D01*
X7123684Y6224016D01*
X7119620Y6224219D01*
X7115759Y6224930D01*
X7112101Y6226149D01*
X7108698Y6227927D01*
X7105599Y6230264D01*
X7102754Y6233210D01*
X7100265Y6236817D01*
X7098182Y6241084D01*
X7096506Y6246114D01*
X7095236Y6251803D01*
X7094474Y6258356D01*
X7094220Y6265672D01*
X7081266Y6265672D01*
X7081012Y6257493D01*
X7080250Y6250178D01*
X7079030Y6243777D01*
X7077354Y6238138D01*
X7075271Y6233312D01*
X7072731Y6229197D01*
X7069886Y6225844D01*
X7066635Y6223203D01*
X7063028Y6221171D01*
X7059168Y6219748D01*
X7055002Y6218936D01*
X7050531Y6218682D01*
X7044181Y6219291D01*
X7038492Y6220968D01*
X7033564Y6223711D01*
X7029399Y6227419D01*
X7026046Y6231940D01*
X7023608Y6237224D01*
X7022084Y6243167D01*
X7021575Y6249670D01*
X7021931Y6256020D01*
X7023049Y6261811D01*
X7024674Y6267094D01*
X7026859Y6271869D01*
X7029500Y6276238D01*
X7032396Y6280251D01*
X7035546Y6283909D01*
X7038848Y6287262D01*
G37*
G36*
X7085330Y6180328D02*
G01*
X7075881Y6180124D01*
X7067042Y6179515D01*
X7058863Y6178499D01*
X7051243Y6177127D01*
X7044283Y6175349D01*
X7037933Y6173216D01*
X7032193Y6170777D01*
X7027062Y6167932D01*
X7022541Y6164783D01*
X7018629Y6161328D01*
X7015327Y6157569D01*
X7012635Y6153556D01*
X7010552Y6149187D01*
X7009028Y6144615D01*
X7008164Y6139738D01*
X7007859Y6134608D01*
X7021068Y6134608D01*
X7021474Y6138875D01*
X7022744Y6142888D01*
X7024878Y6146596D01*
X7027925Y6150051D01*
X7031837Y6153150D01*
X7036612Y6155893D01*
X7042353Y6158331D01*
X7049008Y6160312D01*
X7056628Y6161938D01*
X7065213Y6163106D01*
X7074763Y6163818D01*
X7085330Y6164072D01*
X7095693Y6163818D01*
X7105091Y6163106D01*
X7113473Y6161938D01*
X7120940Y6160312D01*
X7127494Y6158331D01*
X7133132Y6155893D01*
X7137806Y6153150D01*
X7141667Y6150051D01*
X7144562Y6146596D01*
X7146696Y6142888D01*
X7147915Y6138875D01*
X7148322Y6134608D01*
X7147915Y6130340D01*
X7146696Y6126327D01*
X7144562Y6122619D01*
X7141667Y6119164D01*
X7137806Y6116066D01*
X7133132Y6113322D01*
X7127494Y6110884D01*
X7120940Y6108903D01*
X7113473Y6107277D01*
X7105091Y6106109D01*
X7095693Y6105398D01*
X7085330Y6105144D01*
X7074763Y6105398D01*
X7065213Y6106109D01*
X7056628Y6107277D01*
X7049008Y6108903D01*
X7042353Y6110884D01*
X7036612Y6113322D01*
X7031837Y6116066D01*
X7027925Y6119164D01*
X7024878Y6122619D01*
X7022744Y6126327D01*
X7021474Y6130340D01*
X7021068Y6134608D01*
X7007859Y6134608D01*
X7008164Y6129477D01*
X7009028Y6124651D01*
X7010552Y6120028D01*
X7012635Y6115710D01*
X7015327Y6111697D01*
X7018629Y6107938D01*
X7022541Y6104534D01*
X7027062Y6101384D01*
X7032193Y6098590D01*
X7037933Y6096152D01*
X7044283Y6094069D01*
X7051243Y6092342D01*
X7058863Y6090920D01*
X7067042Y6089954D01*
X7075881Y6089345D01*
X7085330Y6089142D01*
X7094677Y6089345D01*
X7103414Y6089954D01*
X7111542Y6090920D01*
X7119010Y6092342D01*
X7125919Y6094069D01*
X7132167Y6096152D01*
X7137857Y6098590D01*
X7142886Y6101384D01*
X7147356Y6104534D01*
X7151166Y6107938D01*
X7154418Y6111697D01*
X7157110Y6115710D01*
X7159142Y6120028D01*
X7160615Y6124651D01*
X7161479Y6129477D01*
X7161784Y6134608D01*
X7161479Y6139738D01*
X7160615Y6144615D01*
X7159142Y6149187D01*
X7157110Y6153556D01*
X7154418Y6157569D01*
X7151166Y6161328D01*
X7147356Y6164783D01*
X7142886Y6167932D01*
X7137857Y6170777D01*
X7132167Y6173216D01*
X7125919Y6175349D01*
X7119010Y6177127D01*
X7111542Y6178499D01*
X7103414Y6179515D01*
X7094677Y6180124D01*
G37*
G36*
X5016500Y5798566D02*
G01*
X5016500Y5718556D01*
X5030216Y5718556D01*
X5030216Y5748782D01*
X5165344Y5748782D01*
X5165344Y5761228D01*
X5161991Y5767476D01*
X5159197Y5774436D01*
X5156962Y5782360D01*
X5155184Y5791454D01*
X5144262Y5791454D01*
X5144262Y5765292D01*
X5030216Y5765292D01*
X5030216Y5798566D01*
G37*
G36*
X5033518Y5699252D02*
G01*
X5029809Y5695340D01*
X5026304Y5691022D01*
X5022951Y5686196D01*
X5020005Y5680811D01*
X5017516Y5674868D01*
X5015636Y5668162D01*
X5014417Y5660745D01*
X5013960Y5652516D01*
X5014315Y5646420D01*
X5015484Y5640425D01*
X5017312Y5634634D01*
X5019903Y5629097D01*
X5023205Y5623966D01*
X5027168Y5619292D01*
X5031841Y5615076D01*
X5037124Y5611469D01*
X5043119Y5608523D01*
X5049723Y5606338D01*
X5056936Y5604967D01*
X5064760Y5604510D01*
X5072583Y5604916D01*
X5079644Y5606084D01*
X5085994Y5608015D01*
X5091633Y5610555D01*
X5096560Y5613755D01*
X5100777Y5617514D01*
X5104333Y5621782D01*
X5107228Y5626506D01*
X5109464Y5631637D01*
X5111038Y5637123D01*
X5111953Y5642914D01*
X5112258Y5648960D01*
X5111800Y5655564D01*
X5110530Y5661456D01*
X5108498Y5666892D01*
X5105908Y5672074D01*
X5151120Y5668010D01*
X5151120Y5611622D01*
X5165344Y5611622D01*
X5165344Y5682742D01*
X5096256Y5687314D01*
X5090414Y5678170D01*
X5094274Y5672124D01*
X5097068Y5666282D01*
X5098745Y5660085D01*
X5099304Y5653024D01*
X5098694Y5646115D01*
X5096916Y5639866D01*
X5093970Y5634431D01*
X5089956Y5629757D01*
X5084927Y5626049D01*
X5078933Y5623306D01*
X5072024Y5621578D01*
X5064252Y5621020D01*
X5056276Y5621680D01*
X5049113Y5623661D01*
X5042865Y5626709D01*
X5037582Y5630722D01*
X5033365Y5635599D01*
X5030266Y5641187D01*
X5028336Y5647283D01*
X5027676Y5653786D01*
X5028031Y5660136D01*
X5029098Y5665927D01*
X5030724Y5671159D01*
X5032806Y5675884D01*
X5035346Y5680202D01*
X5038191Y5684164D01*
X5041239Y5687771D01*
X5044440Y5691124D01*
G37*
G36*
X5091430Y5583428D02*
G01*
X5081981Y5583224D01*
X5073142Y5582615D01*
X5064963Y5581599D01*
X5057343Y5580227D01*
X5050383Y5578449D01*
X5044033Y5576316D01*
X5038293Y5573877D01*
X5033162Y5571032D01*
X5028641Y5567883D01*
X5024729Y5564428D01*
X5021427Y5560669D01*
X5018735Y5556656D01*
X5016652Y5552287D01*
X5015128Y5547715D01*
X5014264Y5542838D01*
X5013960Y5537708D01*
X5027168Y5537708D01*
X5027574Y5541975D01*
X5028844Y5545988D01*
X5030978Y5549696D01*
X5034026Y5553151D01*
X5037937Y5556250D01*
X5042712Y5558993D01*
X5048453Y5561431D01*
X5055108Y5563412D01*
X5062728Y5565038D01*
X5071313Y5566206D01*
X5080863Y5566918D01*
X5091430Y5567172D01*
X5101793Y5566918D01*
X5111191Y5566206D01*
X5119573Y5565038D01*
X5127040Y5563412D01*
X5133594Y5561431D01*
X5139232Y5558993D01*
X5143906Y5556250D01*
X5147767Y5553151D01*
X5150662Y5549696D01*
X5152796Y5545988D01*
X5154015Y5541975D01*
X5154422Y5537708D01*
X5154015Y5533440D01*
X5152796Y5529427D01*
X5150662Y5525719D01*
X5147767Y5522264D01*
X5143906Y5519166D01*
X5139232Y5516422D01*
X5133594Y5513984D01*
X5127040Y5512003D01*
X5119573Y5510377D01*
X5111191Y5509209D01*
X5101793Y5508498D01*
X5091430Y5508244D01*
X5080863Y5508498D01*
X5071313Y5509209D01*
X5062728Y5510377D01*
X5055108Y5512003D01*
X5048453Y5513984D01*
X5042712Y5516422D01*
X5037937Y5519166D01*
X5034026Y5522264D01*
X5030978Y5525719D01*
X5028844Y5529427D01*
X5027574Y5533440D01*
X5027168Y5537708D01*
X5013960Y5537708D01*
X5014264Y5532577D01*
X5015128Y5527751D01*
X5016652Y5523128D01*
X5018735Y5518810D01*
X5021427Y5514797D01*
X5024729Y5511038D01*
X5028641Y5507634D01*
X5033162Y5504484D01*
X5038293Y5501690D01*
X5044033Y5499252D01*
X5050383Y5497169D01*
X5057343Y5495442D01*
X5064963Y5494020D01*
X5073142Y5493054D01*
X5081981Y5492445D01*
X5091430Y5492242D01*
X5100777Y5492445D01*
X5109514Y5493054D01*
X5117642Y5494020D01*
X5125110Y5495442D01*
X5132019Y5497169D01*
X5138267Y5499252D01*
X5143957Y5501690D01*
X5148986Y5504484D01*
X5153456Y5507634D01*
X5157266Y5511038D01*
X5160518Y5514797D01*
X5163210Y5518810D01*
X5165242Y5523128D01*
X5166715Y5527751D01*
X5167579Y5532577D01*
X5167884Y5537708D01*
X5167579Y5542838D01*
X5166715Y5547715D01*
X5165242Y5552287D01*
X5163210Y5556656D01*
X5160518Y5560669D01*
X5157266Y5564428D01*
X5153456Y5567883D01*
X5148986Y5571032D01*
X5143957Y5573877D01*
X5138267Y5576316D01*
X5132019Y5578449D01*
X5125110Y5580227D01*
X5117642Y5581599D01*
X5109514Y5582615D01*
X5100777Y5583224D01*
G37*
D10*
X6108700Y3245357D02*
G01*
X6108700Y3130804D01*
X6108700Y3245357D02*
G01*
X6146800Y3245357D01*
X6163309Y3239770D01*
X6174231Y3228847D01*
X6179565Y3217926D01*
X6185154Y3201670D01*
X6185154Y3174492D01*
X6179565Y3157981D01*
X6174231Y3147060D01*
X6163309Y3136137D01*
X6146800Y3130804D01*
X6108700Y3130804D01*
X6302756Y3217926D02*
G01*
X6297422Y3228847D01*
X6286500Y3239770D01*
X6275577Y3245357D01*
X6253734Y3245357D01*
X6242811Y3239770D01*
X6231890Y3228847D01*
X6226556Y3217926D01*
X6220968Y3201670D01*
X6220968Y3174492D01*
X6226556Y3157981D01*
X6231890Y3147060D01*
X6242811Y3136137D01*
X6253734Y3130804D01*
X6275577Y3130804D01*
X6286500Y3136137D01*
X6297422Y3147060D01*
X6302756Y3157981D01*
X6338824Y3223513D02*
G01*
X6349745Y3228847D01*
X6366256Y3245357D01*
X6366256Y3130804D01*
X7112000Y3232657D02*
G01*
X7112000Y3118104D01*
X7112000Y3232657D02*
G01*
X7150100Y3232657D01*
X7166609Y3227070D01*
X7177531Y3216147D01*
X7182865Y3205226D01*
X7188454Y3188970D01*
X7188454Y3161792D01*
X7182865Y3145281D01*
X7177531Y3134360D01*
X7166609Y3123437D01*
X7150100Y3118104D01*
X7112000Y3118104D01*
X7306056Y3205226D02*
G01*
X7300722Y3216147D01*
X7289800Y3227070D01*
X7278877Y3232657D01*
X7257034Y3232657D01*
X7246111Y3227070D01*
X7235190Y3216147D01*
X7229856Y3205226D01*
X7224268Y3188970D01*
X7224268Y3161792D01*
X7229856Y3145281D01*
X7235190Y3134360D01*
X7246111Y3123437D01*
X7257034Y3118104D01*
X7278877Y3118104D01*
X7289800Y3123437D01*
X7300722Y3134360D01*
X7306056Y3145281D01*
X7347711Y3205226D02*
G01*
X7347711Y3210813D01*
X7353045Y3221736D01*
X7358634Y3227070D01*
X7369556Y3232657D01*
X7391145Y3232657D01*
X7402068Y3227070D01*
X7407656Y3221736D01*
X7412990Y3210813D01*
X7412990Y3199892D01*
X7407656Y3188970D01*
X7396734Y3172713D01*
X7342124Y3118104D01*
X7418577Y3118104D01*
D11*
X2374900Y4636515D02*
G01*
X2374900Y4527550D01*
X2374900Y4636515D02*
G01*
X2421636Y4636515D01*
X2437129Y4631436D01*
X2442463Y4626102D01*
X2447543Y4615687D01*
X2447543Y4605273D01*
X2442463Y4594860D01*
X2437129Y4589779D01*
X2421636Y4584700D01*
X2374900Y4584700D01*
X2411222Y4584700D02*
G01*
X2447543Y4527550D01*
X2554731Y4621021D02*
G01*
X2544318Y4631436D01*
X2528570Y4636515D01*
X2507995Y4636515D01*
X2492247Y4631436D01*
X2481834Y4621021D01*
X2481834Y4610607D01*
X2487168Y4600194D01*
X2492247Y4594860D01*
X2502661Y4589779D01*
X2533904Y4579365D01*
X2544318Y4574286D01*
X2549397Y4568952D01*
X2554731Y4558537D01*
X2554731Y4543044D01*
X2544318Y4532629D01*
X2528570Y4527550D01*
X2507995Y4527550D01*
X2492247Y4532629D01*
X2481834Y4543044D01*
X2589022Y4574286D02*
G01*
X2682493Y4574286D01*
X2721863Y4610607D02*
G01*
X2721863Y4615687D01*
X2727197Y4626102D01*
X2732277Y4631436D01*
X2742691Y4636515D01*
X2763520Y4636515D01*
X2773934Y4631436D01*
X2779013Y4626102D01*
X2784347Y4615687D01*
X2784347Y4605273D01*
X2779013Y4594860D01*
X2768600Y4579365D01*
X2716784Y4527550D01*
X2789427Y4527550D01*
X2834131Y4636515D02*
G01*
X2891281Y4636515D01*
X2860040Y4594860D01*
X2875788Y4594860D01*
X2886202Y4589779D01*
X2891281Y4584700D01*
X2896615Y4568952D01*
X2896615Y4558537D01*
X2891281Y4543044D01*
X2880868Y4532629D01*
X2865374Y4527550D01*
X2849879Y4527550D01*
X2834131Y4532629D01*
X2829052Y4537710D01*
X2823718Y4548123D01*
X2935986Y4610607D02*
G01*
X2935986Y4615687D01*
X2941320Y4626102D01*
X2946400Y4631436D01*
X2956813Y4636515D01*
X2977641Y4636515D01*
X2988056Y4631436D01*
X2993136Y4626102D01*
X2998470Y4615687D01*
X2998470Y4605273D01*
X2993136Y4594860D01*
X2982722Y4579365D01*
X2930906Y4527550D01*
X3003550Y4527550D01*
D10*
X3319525Y3918712D02*
G01*
X3330447Y3924045D01*
X3341370Y3934968D01*
X3346958Y3945889D01*
X3346958Y3967734D01*
X3341370Y3978655D01*
X3330447Y3989578D01*
X3319525Y3995165D01*
X3303270Y4000500D01*
X3276091Y4000500D01*
X3259581Y3995165D01*
X3248659Y3989578D01*
X3237738Y3978655D01*
X3232404Y3967734D01*
X3232404Y3945889D01*
X3237738Y3934968D01*
X3248659Y3924045D01*
X3259581Y3918712D01*
X3276091Y3918712D01*
X3276091Y3945889D02*
G01*
X3276091Y3918712D01*
X3346958Y3882644D02*
G01*
X3232404Y3882644D01*
X3346958Y3882644D02*
G01*
X3232404Y3806444D01*
X3346958Y3806444D02*
G01*
X3232404Y3806444D01*
X3346958Y3770376D02*
G01*
X3232404Y3770376D01*
X3346958Y3770376D02*
G01*
X3346958Y3732021D01*
X3341370Y3715765D01*
X3330447Y3704844D01*
X3319525Y3699510D01*
X3303270Y3693921D01*
X3276091Y3693921D01*
X3259581Y3699510D01*
X3248659Y3704844D01*
X3237738Y3715765D01*
X3232404Y3732021D01*
X3232404Y3770376D01*
X3092958Y4000500D02*
G01*
X2978404Y4000500D01*
X3092958Y4000500D02*
G01*
X2978404Y3924045D01*
X3092958Y3924045D02*
G01*
X2978404Y3924045D01*
X3065525Y3806444D02*
G01*
X3076447Y3811778D01*
X3087370Y3822700D01*
X3092958Y3833621D01*
X3092958Y3855465D01*
X3087370Y3866387D01*
X3076447Y3877310D01*
X3065525Y3882644D01*
X3049270Y3888231D01*
X3022091Y3888231D01*
X3005581Y3882644D01*
X2994659Y3877310D01*
X2983738Y3866387D01*
X2978404Y3855465D01*
X2978404Y3833621D01*
X2983738Y3822700D01*
X2994659Y3811778D01*
X3005581Y3806444D01*
X2826258Y4000500D02*
G01*
X2711704Y3956812D01*
X2826258Y3913123D02*
G01*
X2711704Y3956812D01*
X2826258Y3877310D02*
G01*
X2711704Y3877310D01*
X2826258Y3841242D02*
G01*
X2711704Y3841242D01*
X2826258Y3841242D02*
G01*
X2711704Y3764787D01*
X2826258Y3764787D02*
G01*
X2711704Y3764787D01*
X2572258Y4000500D02*
G01*
X2457704Y4000500D01*
X2572258Y4000500D02*
G01*
X2572258Y3951478D01*
X2566670Y3934968D01*
X2561336Y3929634D01*
X2550413Y3924045D01*
X2539491Y3924045D01*
X2528570Y3929634D01*
X2522981Y3934968D01*
X2517647Y3951478D01*
X2517647Y4000500D01*
X2517647Y3962400D02*
G01*
X2457704Y3924045D01*
X2572258Y3888231D02*
G01*
X2457704Y3811778D01*
X2572258Y3811778D02*
G01*
X2457704Y3888231D01*
X2318258Y3975100D02*
G01*
X2203704Y3975100D01*
X2318258Y4013200D02*
G01*
X2318258Y3936745D01*
X2318258Y3900931D02*
G01*
X2203704Y3824478D01*
X2318258Y3824478D02*
G01*
X2203704Y3900931D01*
X2064258Y4000500D02*
G01*
X1949704Y4000500D01*
X2064258Y4000500D02*
G01*
X1949704Y3924045D01*
X2064258Y3924045D02*
G01*
X1949704Y3924045D01*
X2036825Y3806444D02*
G01*
X2047747Y3811778D01*
X2058670Y3822700D01*
X2064258Y3833621D01*
X2064258Y3855465D01*
X2058670Y3866387D01*
X2047747Y3877310D01*
X2036825Y3882644D01*
X2020570Y3888231D01*
X1993391Y3888231D01*
X1976881Y3882644D01*
X1965959Y3877310D01*
X1955038Y3866387D01*
X1949704Y3855465D01*
X1949704Y3833621D01*
X1955038Y3822700D01*
X1965959Y3811778D01*
X1976881Y3806444D01*
X4348988Y6115557D02*
G01*
X4305300Y6001004D01*
X4348988Y6115557D02*
G01*
X4392675Y6001004D01*
X4321556Y6039104D02*
G01*
X4376165Y6039104D01*
X4510277Y6088126D02*
G01*
X4504943Y6099047D01*
X4494022Y6109970D01*
X4483100Y6115557D01*
X4461256Y6115557D01*
X4450334Y6109970D01*
X4439411Y6099047D01*
X4434077Y6088126D01*
X4428490Y6071870D01*
X4428490Y6044692D01*
X4434077Y6028181D01*
X4439411Y6017260D01*
X4450334Y6006337D01*
X4461256Y6001004D01*
X4483100Y6001004D01*
X4494022Y6006337D01*
X4504943Y6017260D01*
X4510277Y6028181D01*
X4584445Y6115557D02*
G01*
X4584445Y6001004D01*
X4546345Y6115557D02*
G01*
X4622800Y6115557D01*
X4096765Y7156958D02*
G01*
X4085843Y7151370D01*
X4074922Y7140447D01*
X4069334Y7129526D01*
X4064000Y7113270D01*
X4064000Y7086092D01*
X4069334Y7069581D01*
X4074922Y7058660D01*
X4085843Y7047737D01*
X4096765Y7042404D01*
X4118609Y7042404D01*
X4129531Y7047737D01*
X4140454Y7058660D01*
X4145788Y7069581D01*
X4151375Y7086092D01*
X4151375Y7113270D01*
X4145788Y7129526D01*
X4140454Y7140447D01*
X4129531Y7151370D01*
X4118609Y7156958D01*
X4096765Y7156958D01*
X4187190Y7156958D02*
G01*
X4187190Y7042404D01*
X4187190Y7156958D02*
G01*
X4236465Y7156958D01*
X4252722Y7151370D01*
X4258056Y7146036D01*
X4263643Y7135113D01*
X4263643Y7118604D01*
X4258056Y7107681D01*
X4252722Y7102347D01*
X4236465Y7097013D01*
X4187190Y7097013D01*
X4299711Y7156958D02*
G01*
X4299711Y7042404D01*
X4299711Y7156958D02*
G01*
X4370577Y7156958D01*
X4299711Y7102347D02*
G01*
X4343145Y7102347D01*
X4299711Y7042404D02*
G01*
X4370577Y7042404D01*
X4406645Y7156958D02*
G01*
X4406645Y7042404D01*
X4406645Y7156958D02*
G01*
X4482845Y7042404D01*
X4482845Y7156958D02*
G01*
X4482845Y7042404D01*
X4617211Y7178802D02*
G01*
X4518913Y7004050D01*
X4696713Y7156958D02*
G01*
X4653025Y7042404D01*
X4696713Y7156958D02*
G01*
X4740402Y7042404D01*
X4669536Y7080504D02*
G01*
X4723891Y7080504D01*
X4830825Y7156958D02*
G01*
X4830825Y7069581D01*
X4825491Y7053326D01*
X4819904Y7047737D01*
X4808981Y7042404D01*
X4798059Y7042404D01*
X4787391Y7047737D01*
X4781804Y7053326D01*
X4776470Y7069581D01*
X4776470Y7080504D01*
X4910581Y7156958D02*
G01*
X4866893Y7042404D01*
X4910581Y7156958D02*
G01*
X4954270Y7042404D01*
X4883150Y7080504D02*
G01*
X4937759Y7080504D01*
X4990084Y7156958D02*
G01*
X4990084Y7042404D01*
X4990084Y7156958D02*
G01*
X5039359Y7156958D01*
X5055615Y7151370D01*
X5061204Y7146036D01*
X5066538Y7135113D01*
X5066538Y7124192D01*
X5061204Y7113270D01*
X5055615Y7107681D01*
X5039359Y7102347D01*
X4990084Y7102347D01*
X5028438Y7102347D02*
G01*
X5066538Y7042404D01*
X4586731Y3232657D02*
G01*
X4532122Y3232657D01*
X4526534Y3183381D01*
X4532122Y3188970D01*
X4548377Y3194304D01*
X4564888Y3194304D01*
X4581143Y3188970D01*
X4592065Y3178047D01*
X4597654Y3161792D01*
X4597654Y3150870D01*
X4592065Y3134360D01*
X4581143Y3123437D01*
X4564888Y3118104D01*
X4548377Y3118104D01*
X4532122Y3123437D01*
X4526534Y3129026D01*
X4521200Y3139947D01*
X4633468Y3232657D02*
G01*
X4677156Y3118104D01*
X4720843Y3232657D02*
G01*
X4677156Y3118104D01*
X4756911Y3232657D02*
G01*
X4756911Y3118104D01*
X4756911Y3232657D02*
G01*
X4795011Y3232657D01*
X4811268Y3227070D01*
X4822190Y3216147D01*
X4827777Y3205226D01*
X4833111Y3188970D01*
X4833111Y3161792D01*
X4827777Y3145281D01*
X4822190Y3134360D01*
X4811268Y3123437D01*
X4795011Y3118104D01*
X4756911Y3118104D01*
X4950968Y3205226D02*
G01*
X4945634Y3216147D01*
X4934711Y3227070D01*
X4923790Y3232657D01*
X4901945Y3232657D01*
X4891024Y3227070D01*
X4880102Y3216147D01*
X4874768Y3205226D01*
X4869179Y3188970D01*
X4869179Y3161792D01*
X4874768Y3145281D01*
X4880102Y3134360D01*
X4891024Y3123437D01*
X4901945Y3118104D01*
X4923790Y3118104D01*
X4934711Y3123437D01*
X4945634Y3134360D01*
X4950968Y3145281D01*
X5071109Y3210813D02*
G01*
X5082031Y3216147D01*
X5098288Y3232657D01*
X5098288Y3118104D01*
X5139690Y3145281D02*
G01*
X5134356Y3139947D01*
X5139690Y3134360D01*
X5145277Y3139947D01*
X5139690Y3145281D01*
X5213858Y3232657D02*
G01*
X5197602Y3227070D01*
X5186679Y3210813D01*
X5181091Y3183381D01*
X5181091Y3167126D01*
X5186679Y3139947D01*
X5197602Y3123437D01*
X5213858Y3118104D01*
X5224779Y3118104D01*
X5241290Y3123437D01*
X5252211Y3139947D01*
X5257545Y3167126D01*
X5257545Y3183381D01*
X5252211Y3210813D01*
X5241290Y3227070D01*
X5224779Y3232657D01*
X5213858Y3232657D01*
X5337302Y3232657D02*
G01*
X5293613Y3118104D01*
X5337302Y3232657D02*
G01*
X5380736Y3118104D01*
X5309870Y3156204D02*
G01*
X5364479Y3156204D01*
X5459222Y3762247D02*
G01*
X5459222Y3664204D01*
X5410200Y3713226D02*
G01*
X5508497Y3713226D01*
X4356100Y3713226D02*
G01*
X4454397Y3713226D01*
X938784Y7315200D02*
G01*
X795528Y7315200D01*
X938784Y7315200D02*
G01*
X938784Y7226554D01*
X870457Y7315200D02*
G01*
X870457Y7260589D01*
X938784Y7126986D02*
G01*
X795528Y7181595D01*
X938784Y7126986D02*
G01*
X795528Y7072376D01*
X843279Y7161021D02*
G01*
X843279Y7092950D01*
X938784Y7027418D02*
G01*
X795528Y7027418D01*
X938784Y7027418D02*
G01*
X938784Y6966204D01*
X931926Y6945629D01*
X925068Y6938771D01*
X911605Y6931913D01*
X897889Y6931913D01*
X884173Y6938771D01*
X877315Y6945629D01*
X870457Y6966204D01*
X870457Y7027418D02*
G01*
X870457Y6966204D01*
X863854Y6945629D01*
X856995Y6938771D01*
X843279Y6931913D01*
X822960Y6931913D01*
X809244Y6938771D01*
X802386Y6945629D01*
X795528Y6966204D01*
X795528Y7027418D01*
X938784Y6741160D02*
G01*
X931926Y6761479D01*
X911605Y6775195D01*
X877315Y6782054D01*
X856995Y6782054D01*
X822960Y6775195D01*
X802386Y6761479D01*
X795528Y6741160D01*
X795528Y6727444D01*
X802386Y6707123D01*
X822960Y6693408D01*
X856995Y6686550D01*
X877315Y6686550D01*
X911605Y6693408D01*
X931926Y6707123D01*
X938784Y6727444D01*
X938784Y6741160D01*
X938784Y6600697D02*
G01*
X931926Y6621018D01*
X911605Y6634734D01*
X877315Y6641592D01*
X856995Y6641592D01*
X822960Y6634734D01*
X802386Y6621018D01*
X795528Y6600697D01*
X795528Y6586981D01*
X802386Y6566662D01*
X822960Y6552945D01*
X856995Y6546087D01*
X877315Y6546087D01*
X911605Y6552945D01*
X931926Y6566662D01*
X938784Y6586981D01*
X938784Y6600697D01*
X911605Y6501129D02*
G01*
X918210Y6487413D01*
X938784Y6467094D01*
X795528Y6467094D01*
X938784Y6380987D02*
G01*
X931926Y6401562D01*
X911605Y6415278D01*
X877315Y6422136D01*
X856995Y6422136D01*
X822960Y6415278D01*
X802386Y6401562D01*
X795528Y6380987D01*
X795528Y6367526D01*
X802386Y6346952D01*
X822960Y6333489D01*
X856995Y6326631D01*
X877315Y6326631D01*
X911605Y6333489D01*
X931926Y6346952D01*
X938784Y6367526D01*
X938784Y6380987D01*
X938784Y6240779D02*
G01*
X931926Y6261100D01*
X911605Y6274815D01*
X877315Y6281673D01*
X856995Y6281673D01*
X822960Y6274815D01*
X802386Y6261100D01*
X795528Y6240779D01*
X795528Y6227063D01*
X802386Y6206489D01*
X822960Y6193028D01*
X856995Y6186170D01*
X877315Y6186170D01*
X911605Y6193028D01*
X931926Y6206489D01*
X938784Y6227063D01*
X938784Y6240779D01*
X904747Y6134354D02*
G01*
X911605Y6134354D01*
X925068Y6127495D01*
X931926Y6120637D01*
X938784Y6106921D01*
X938784Y6079744D01*
X931926Y6066028D01*
X925068Y6059170D01*
X911605Y6052565D01*
X897889Y6052565D01*
X884173Y6059170D01*
X863854Y6072886D01*
X795528Y6141212D01*
X795528Y6045707D01*
X938784Y5841237D02*
G01*
X795528Y5895594D01*
X938784Y5841237D02*
G01*
X795528Y5786628D01*
X843279Y5875273D02*
G01*
X843279Y5806947D01*
X918210Y5646165D02*
G01*
X931926Y5659628D01*
X938784Y5680202D01*
X938784Y5707379D01*
X931926Y5727954D01*
X918210Y5741670D01*
X904747Y5741670D01*
X891031Y5734812D01*
X884173Y5727954D01*
X877315Y5714237D01*
X863854Y5673344D01*
X856995Y5659628D01*
X850137Y5653023D01*
X836421Y5646165D01*
X816102Y5646165D01*
X802386Y5659628D01*
X795528Y5680202D01*
X795528Y5707379D01*
X802386Y5727954D01*
X816102Y5741670D01*
X918210Y5505704D02*
G01*
X931926Y5519420D01*
X938784Y5539739D01*
X938784Y5566918D01*
X931926Y5587492D01*
X918210Y5601207D01*
X904747Y5601207D01*
X891031Y5594350D01*
X884173Y5587492D01*
X877315Y5573776D01*
X863854Y5532881D01*
X856995Y5519420D01*
X850137Y5512562D01*
X836421Y5505704D01*
X816102Y5505704D01*
X802386Y5519420D01*
X795528Y5539739D01*
X795528Y5566918D01*
X802386Y5587492D01*
X816102Y5601207D01*
X938784Y5460745D02*
G01*
X870457Y5406136D01*
X795528Y5406136D01*
X938784Y5351526D02*
G01*
X870457Y5406136D01*
X938784Y5160771D02*
G01*
X931926Y5181092D01*
X911605Y5194807D01*
X877315Y5201665D01*
X856995Y5201665D01*
X822960Y5194807D01*
X802386Y5181092D01*
X795528Y5160771D01*
X795528Y5147055D01*
X802386Y5126481D01*
X822960Y5113020D01*
X856995Y5106162D01*
X877315Y5106162D01*
X911605Y5113020D01*
X931926Y5126481D01*
X938784Y5147055D01*
X938784Y5160771D01*
X938784Y5020310D02*
G01*
X931926Y5040629D01*
X911605Y5054345D01*
X877315Y5061204D01*
X856995Y5061204D01*
X822960Y5054345D01*
X802386Y5040629D01*
X795528Y5020310D01*
X795528Y5006594D01*
X802386Y4986020D01*
X822960Y4972557D01*
X856995Y4965700D01*
X877315Y4965700D01*
X911605Y4972557D01*
X931926Y4986020D01*
X938784Y5006594D01*
X938784Y5020310D01*
X911605Y4920742D02*
G01*
X918210Y4907026D01*
X938784Y4886452D01*
X795528Y4886452D01*
X938784Y4800600D02*
G01*
X931926Y4821173D01*
X911605Y4834636D01*
X877315Y4841494D01*
X856995Y4841494D01*
X822960Y4834636D01*
X802386Y4821173D01*
X795528Y4800600D01*
X795528Y4787137D01*
X802386Y4766563D01*
X822960Y4752847D01*
X856995Y4745989D01*
X877315Y4745989D01*
X911605Y4752847D01*
X931926Y4766563D01*
X938784Y4787137D01*
X938784Y4800600D01*
X938784Y4660137D02*
G01*
X931926Y4680712D01*
X911605Y4694173D01*
X877315Y4701031D01*
X856995Y4701031D01*
X822960Y4694173D01*
X802386Y4680712D01*
X795528Y4660137D01*
X795528Y4646676D01*
X802386Y4626102D01*
X822960Y4612386D01*
X856995Y4605781D01*
X877315Y4605781D01*
X911605Y4612386D01*
X931926Y4626102D01*
X938784Y4646676D01*
X938784Y4660137D01*
X938784Y4492497D02*
G01*
X843279Y4560570D01*
X843279Y4458462D01*
X938784Y4492497D02*
G01*
X795528Y4492497D01*
X4394200Y4743957D02*
G01*
X4394200Y4629404D01*
X4394200Y4743957D02*
G01*
X4443222Y4743957D01*
X4459731Y4738370D01*
X4465065Y4733036D01*
X4470654Y4722113D01*
X4470654Y4705604D01*
X4465065Y4694681D01*
X4459731Y4689347D01*
X4443222Y4684013D01*
X4394200Y4684013D01*
X4506468Y4743957D02*
G01*
X4533900Y4629404D01*
X4561077Y4743957D02*
G01*
X4533900Y4629404D01*
X4561077Y4743957D02*
G01*
X4588256Y4629404D01*
X4615688Y4743957D02*
G01*
X4588256Y4629404D01*
X4651756Y4743957D02*
G01*
X4651756Y4629404D01*
X4651756Y4743957D02*
G01*
X4700777Y4743957D01*
X4717034Y4738370D01*
X4722622Y4733036D01*
X4727956Y4722113D01*
X4727956Y4711192D01*
X4722622Y4700270D01*
X4717034Y4694681D01*
X4700777Y4689347D01*
X4651756Y4689347D01*
X4689856Y4689347D02*
G01*
X4727956Y4629404D01*
X7527797Y7306563D02*
G01*
X7518654Y7324597D01*
X7500365Y7342886D01*
X7482331Y7352029D01*
X7446009Y7352029D01*
X7427722Y7342886D01*
X7409688Y7324597D01*
X7400543Y7306563D01*
X7391400Y7279131D01*
X7391400Y7233665D01*
X7400543Y7206487D01*
X7409688Y7188200D01*
X7427722Y7170165D01*
X7446009Y7161021D01*
X7482331Y7161021D01*
X7500365Y7170165D01*
X7518654Y7188200D01*
X7527797Y7206487D01*
X7596886Y7288276D02*
G01*
X7651495Y7161021D01*
X7705852Y7288276D02*
G01*
X7651495Y7161021D01*
X7633208Y7124700D01*
X7614920Y7106412D01*
X7596886Y7097268D01*
X7587741Y7097268D01*
X7902193Y7306563D02*
G01*
X7893304Y7324597D01*
X7875015Y7342886D01*
X7856727Y7352029D01*
X7820406Y7352029D01*
X7802372Y7342886D01*
X7784084Y7324597D01*
X7774940Y7306563D01*
X7766050Y7279131D01*
X7766050Y7233665D01*
X7774940Y7206487D01*
X7784084Y7188200D01*
X7802372Y7170165D01*
X7820406Y7161021D01*
X7856727Y7161021D01*
X7875015Y7170165D01*
X7893304Y7188200D01*
X7902193Y7206487D01*
X7902193Y7233665D01*
X7856727Y7233665D02*
G01*
X7902193Y7233665D01*
X8071358Y7288276D02*
G01*
X8071358Y7161021D01*
X8071358Y7261097D02*
G01*
X8053324Y7279131D01*
X8035036Y7288276D01*
X8007858Y7288276D01*
X7989570Y7279131D01*
X7971281Y7261097D01*
X7962391Y7233665D01*
X7962391Y7215631D01*
X7971281Y7188200D01*
X7989570Y7170165D01*
X8007858Y7161021D01*
X8035036Y7161021D01*
X8053324Y7170165D01*
X8071358Y7188200D01*
X8131302Y7288276D02*
G01*
X8131302Y7161021D01*
X8131302Y7233665D02*
G01*
X8140445Y7261097D01*
X8158734Y7279131D01*
X8176768Y7288276D01*
X8204200Y7288276D01*
X8373109Y7288276D02*
G01*
X8373109Y7161021D01*
X8373109Y7261097D02*
G01*
X8355075Y7279131D01*
X8336788Y7288276D01*
X8309609Y7288276D01*
X8291322Y7279131D01*
X8273288Y7261097D01*
X8264143Y7233665D01*
X8264143Y7215631D01*
X8273288Y7188200D01*
X8291322Y7170165D01*
X8309609Y7161021D01*
X8336788Y7161021D01*
X8355075Y7170165D01*
X8373109Y7188200D01*
X8542274Y7288276D02*
G01*
X8542274Y7142734D01*
X8533129Y7115555D01*
X8524240Y7106412D01*
X8505952Y7097268D01*
X8478774Y7097268D01*
X8460486Y7106412D01*
X8542274Y7261097D02*
G01*
X8524240Y7279131D01*
X8505952Y7288276D01*
X8478774Y7288276D01*
X8460486Y7279131D01*
X8442197Y7261097D01*
X8433308Y7233665D01*
X8433308Y7215631D01*
X8442197Y7188200D01*
X8460486Y7170165D01*
X8478774Y7161021D01*
X8505952Y7161021D01*
X8524240Y7170165D01*
X8542274Y7188200D01*
X8602218Y7233665D02*
G01*
X8711438Y7233665D01*
X8711438Y7251954D01*
X8702293Y7269987D01*
X8693150Y7279131D01*
X8675115Y7288276D01*
X8647684Y7288276D01*
X8629650Y7279131D01*
X8611361Y7261097D01*
X8602218Y7233665D01*
X8602218Y7215631D01*
X8611361Y7188200D01*
X8629650Y7170165D01*
X8647684Y7161021D01*
X8675115Y7161021D01*
X8693150Y7170165D01*
X8711438Y7188200D01*
X8911336Y7352029D02*
G01*
X8911336Y7161021D01*
X8911336Y7352029D02*
G01*
X8993124Y7352029D01*
X9020556Y7342886D01*
X9029700Y7333742D01*
X9038590Y7315454D01*
X9038590Y7297420D01*
X9029700Y7279131D01*
X9020556Y7269987D01*
X8993124Y7261097D01*
X8911336Y7261097D01*
X8975090Y7261097D02*
G01*
X9038590Y7161021D01*
X9098788Y7233665D02*
G01*
X9207754Y7233665D01*
X9207754Y7251954D01*
X9198609Y7269987D01*
X9189465Y7279131D01*
X9171431Y7288276D01*
X9144000Y7288276D01*
X9125965Y7279131D01*
X9107677Y7261097D01*
X9098788Y7233665D01*
X9098788Y7215631D01*
X9107677Y7188200D01*
X9125965Y7170165D01*
X9144000Y7161021D01*
X9171431Y7161021D01*
X9189465Y7170165D01*
X9207754Y7188200D01*
X9267697Y7288276D02*
G01*
X9322308Y7161021D01*
X9376918Y7288276D02*
G01*
X9322308Y7161021D01*
X9576815Y7315454D02*
G01*
X9595104Y7324597D01*
X9622281Y7352029D01*
X9622281Y7161021D01*
X9691370Y7206487D02*
G01*
X9682225Y7197344D01*
X9691370Y7188200D01*
X9700513Y7197344D01*
X9691370Y7206487D01*
X9851390Y7352029D02*
G01*
X9760458Y7224521D01*
X9896856Y7224521D01*
X9851390Y7352029D02*
G01*
X9851390Y7161021D01*
X7282774Y7002526D02*
G01*
X7277186Y7013447D01*
X7266264Y7024370D01*
X7255342Y7029958D01*
X7233752Y7029958D01*
X7222830Y7024370D01*
X7211908Y7013447D01*
X7206320Y7002526D01*
X7200986Y6986270D01*
X7200986Y6959092D01*
X7206320Y6942581D01*
X7211908Y6931660D01*
X7222830Y6920737D01*
X7233752Y6915404D01*
X7255342Y6915404D01*
X7266264Y6920737D01*
X7277186Y6931660D01*
X7282774Y6942581D01*
X7346020Y6991604D02*
G01*
X7335098Y6986270D01*
X7324176Y6975347D01*
X7318842Y6959092D01*
X7318842Y6948170D01*
X7324176Y6931660D01*
X7335098Y6920737D01*
X7346020Y6915404D01*
X7362276Y6915404D01*
X7373198Y6920737D01*
X7384120Y6931660D01*
X7389708Y6948170D01*
X7389708Y6959092D01*
X7384120Y6975347D01*
X7373198Y6986270D01*
X7362276Y6991604D01*
X7346020Y6991604D01*
X7425522Y6991604D02*
G01*
X7425522Y6877050D01*
X7425522Y6975347D02*
G01*
X7436444Y6986270D01*
X7447366Y6991604D01*
X7463876Y6991604D01*
X7474798Y6986270D01*
X7485720Y6975347D01*
X7491054Y6959092D01*
X7491054Y6948170D01*
X7485720Y6931660D01*
X7474798Y6920737D01*
X7463876Y6915404D01*
X7447366Y6915404D01*
X7436444Y6920737D01*
X7425522Y6931660D01*
X7532456Y6991604D02*
G01*
X7565222Y6915404D01*
X7597988Y6991604D02*
G01*
X7565222Y6915404D01*
X7554300Y6893560D01*
X7543378Y6882637D01*
X7532456Y6877050D01*
X7527122Y6877050D01*
X7634056Y6991604D02*
G01*
X7634056Y6915404D01*
X7634056Y6959092D02*
G01*
X7639390Y6975347D01*
X7650312Y6986270D01*
X7661234Y6991604D01*
X7677744Y6991604D01*
X7713558Y7029958D02*
G01*
X7719146Y7024370D01*
X7724480Y7029958D01*
X7719146Y7035292D01*
X7713558Y7029958D01*
X7719146Y6991604D02*
G01*
X7719146Y6915404D01*
X7826080Y6991604D02*
G01*
X7826080Y6904481D01*
X7820492Y6887971D01*
X7815158Y6882637D01*
X7804236Y6877050D01*
X7787726Y6877050D01*
X7776804Y6882637D01*
X7826080Y6975347D02*
G01*
X7815158Y6986270D01*
X7804236Y6991604D01*
X7787726Y6991604D01*
X7776804Y6986270D01*
X7765882Y6975347D01*
X7760548Y6959092D01*
X7760548Y6948170D01*
X7765882Y6931660D01*
X7776804Y6920737D01*
X7787726Y6915404D01*
X7804236Y6915404D01*
X7815158Y6920737D01*
X7826080Y6931660D01*
X7861894Y7029958D02*
G01*
X7861894Y6915404D01*
X7861894Y6970013D02*
G01*
X7878404Y6986270D01*
X7889326Y6991604D01*
X7905582Y6991604D01*
X7916504Y6986270D01*
X7922092Y6970013D01*
X7922092Y6915404D01*
X7974416Y7029958D02*
G01*
X7974416Y6937247D01*
X7979750Y6920737D01*
X7990672Y6915404D01*
X8001594Y6915404D01*
X7957906Y6991604D02*
G01*
X7996260Y6991604D01*
X8159836Y7051802D02*
G01*
X8148914Y7040879D01*
X8137992Y7024370D01*
X8127070Y7002526D01*
X8121736Y6975347D01*
X8121736Y6953504D01*
X8127070Y6926326D01*
X8137992Y6904481D01*
X8148914Y6887971D01*
X8159836Y6877050D01*
X8261182Y6975347D02*
G01*
X8250260Y6986270D01*
X8239338Y6991604D01*
X8223082Y6991604D01*
X8212160Y6986270D01*
X8201238Y6975347D01*
X8195904Y6959092D01*
X8195904Y6948170D01*
X8201238Y6931660D01*
X8212160Y6920737D01*
X8223082Y6915404D01*
X8239338Y6915404D01*
X8250260Y6920737D01*
X8261182Y6931660D01*
X8297250Y7051802D02*
G01*
X8308172Y7040879D01*
X8319094Y7024370D01*
X8330016Y7002526D01*
X8335350Y6975347D01*
X8335350Y6953504D01*
X8330016Y6926326D01*
X8319094Y6904481D01*
X8308172Y6887971D01*
X8297250Y6877050D01*
X8460826Y7002526D02*
G01*
X8460826Y7008113D01*
X8466414Y7019036D01*
X8471748Y7024370D01*
X8482670Y7029958D01*
X8504514Y7029958D01*
X8515436Y7024370D01*
X8521024Y7019036D01*
X8526358Y7008113D01*
X8526358Y6997192D01*
X8521024Y6986270D01*
X8510102Y6970013D01*
X8455492Y6915404D01*
X8531692Y6915404D01*
X8600526Y7029958D02*
G01*
X8584270Y7024370D01*
X8573348Y7008113D01*
X8567760Y6980681D01*
X8567760Y6964426D01*
X8573348Y6937247D01*
X8584270Y6920737D01*
X8600526Y6915404D01*
X8611448Y6915404D01*
X8627704Y6920737D01*
X8638626Y6937247D01*
X8644214Y6964426D01*
X8644214Y6980681D01*
X8638626Y7008113D01*
X8627704Y7024370D01*
X8611448Y7029958D01*
X8600526Y7029958D01*
X8685616Y7002526D02*
G01*
X8685616Y7008113D01*
X8691204Y7019036D01*
X8696538Y7024370D01*
X8707460Y7029958D01*
X8729304Y7029958D01*
X8740226Y7024370D01*
X8745560Y7019036D01*
X8751148Y7008113D01*
X8751148Y6997192D01*
X8745560Y6986270D01*
X8734638Y6970013D01*
X8680282Y6915404D01*
X8756482Y6915404D01*
X8797884Y7002526D02*
G01*
X8797884Y7008113D01*
X8803472Y7019036D01*
X8808806Y7024370D01*
X8819728Y7029958D01*
X8841572Y7029958D01*
X8852494Y7024370D01*
X8858082Y7019036D01*
X8863416Y7008113D01*
X8863416Y6997192D01*
X8858082Y6986270D01*
X8847160Y6970013D01*
X8792550Y6915404D01*
X8869004Y6915404D01*
X9070680Y7002526D02*
G01*
X9065346Y7013447D01*
X9054424Y7024370D01*
X9043502Y7029958D01*
X9021658Y7029958D01*
X9010736Y7024370D01*
X8999814Y7013447D01*
X8994226Y7002526D01*
X8988892Y6986270D01*
X8988892Y6959092D01*
X8994226Y6942581D01*
X8999814Y6931660D01*
X9010736Y6920737D01*
X9021658Y6915404D01*
X9043502Y6915404D01*
X9054424Y6920737D01*
X9065346Y6931660D01*
X9070680Y6942581D01*
X9112082Y6991604D02*
G01*
X9144848Y6915404D01*
X9177614Y6991604D02*
G01*
X9144848Y6915404D01*
X9133926Y6893560D01*
X9123004Y6882637D01*
X9112082Y6877050D01*
X9106748Y6877050D01*
X9213682Y6991604D02*
G01*
X9213682Y6915404D01*
X9213682Y6959092D02*
G01*
X9219016Y6975347D01*
X9229938Y6986270D01*
X9240860Y6991604D01*
X9257370Y6991604D01*
X9293184Y6991604D02*
G01*
X9293184Y6937247D01*
X9298772Y6920737D01*
X9309694Y6915404D01*
X9325950Y6915404D01*
X9336872Y6920737D01*
X9353382Y6937247D01*
X9353382Y6991604D02*
G01*
X9353382Y6915404D01*
X9449140Y6975347D02*
G01*
X9443806Y6986270D01*
X9427550Y6991604D01*
X9411040Y6991604D01*
X9394784Y6986270D01*
X9389196Y6975347D01*
X9394784Y6964426D01*
X9405706Y6959092D01*
X9432884Y6953504D01*
X9443806Y6948170D01*
X9449140Y6937247D01*
X9449140Y6931660D01*
X9443806Y6920737D01*
X9427550Y6915404D01*
X9411040Y6915404D01*
X9394784Y6920737D01*
X9389196Y6931660D01*
X9569282Y7029958D02*
G01*
X9569282Y6915404D01*
X9569282Y7029958D02*
G01*
X9618304Y7029958D01*
X9634814Y7024370D01*
X9640148Y7019036D01*
X9645736Y7008113D01*
X9645736Y6997192D01*
X9640148Y6986270D01*
X9634814Y6980681D01*
X9618304Y6975347D01*
X9569282Y6975347D02*
G01*
X9618304Y6975347D01*
X9634814Y6970013D01*
X9640148Y6964426D01*
X9645736Y6953504D01*
X9645736Y6937247D01*
X9640148Y6926326D01*
X9634814Y6920737D01*
X9618304Y6915404D01*
X9569282Y6915404D01*
X9681550Y6991604D02*
G01*
X9681550Y6915404D01*
X9681550Y6959092D02*
G01*
X9687138Y6975347D01*
X9698060Y6986270D01*
X9708982Y6991604D01*
X9725238Y6991604D01*
X9761306Y6991604D02*
G01*
X9761306Y6937247D01*
X9766640Y6920737D01*
X9777562Y6915404D01*
X9794072Y6915404D01*
X9804994Y6920737D01*
X9821250Y6937247D01*
X9821250Y6991604D02*
G01*
X9821250Y6915404D01*
X9857318Y6991604D02*
G01*
X9857318Y6915404D01*
X9857318Y6970013D02*
G01*
X9873574Y6986270D01*
X9884496Y6991604D01*
X9901006Y6991604D01*
X9911928Y6986270D01*
X9917262Y6970013D01*
X9917262Y6915404D01*
X9953330Y6991604D02*
G01*
X9953330Y6915404D01*
X9953330Y6970013D02*
G01*
X9969586Y6986270D01*
X9980508Y6991604D01*
X9997018Y6991604D01*
X10007686Y6986270D01*
X10013274Y6970013D01*
X10013274Y6915404D01*
X10049342Y6959092D02*
G01*
X10114620Y6959092D01*
X10114620Y6970013D01*
X10109286Y6980681D01*
X10103698Y6986270D01*
X10092776Y6991604D01*
X10076520Y6991604D01*
X10065598Y6986270D01*
X10054676Y6975347D01*
X10049342Y6959092D01*
X10049342Y6948170D01*
X10054676Y6931660D01*
X10065598Y6920737D01*
X10076520Y6915404D01*
X10092776Y6915404D01*
X10103698Y6920737D01*
X10114620Y6931660D01*
X10150688Y6991604D02*
G01*
X10150688Y6915404D01*
X10150688Y6959092D02*
G01*
X10156276Y6975347D01*
X10167198Y6986270D01*
X10177866Y6991604D01*
X10194376Y6991604D01*
X7954009Y6735571D02*
G01*
X7944865Y6744715D01*
X7935722Y6749287D01*
X7922006Y6749287D01*
X7913115Y6744715D01*
X7903972Y6735571D01*
X7899400Y6722110D01*
X7899400Y6712965D01*
X7903972Y6699250D01*
X7913115Y6690105D01*
X7922006Y6685534D01*
X7935722Y6685534D01*
X7944865Y6690105D01*
X7954009Y6699250D01*
X7988554Y6749287D02*
G01*
X8015731Y6685534D01*
X8042909Y6749287D02*
G01*
X8015731Y6685534D01*
X8006588Y6667500D01*
X7997697Y6658355D01*
X7988554Y6653784D01*
X7983981Y6653784D01*
X8073136Y6749287D02*
G01*
X8073136Y6685534D01*
X8073136Y6722110D02*
G01*
X8077708Y6735571D01*
X8086597Y6744715D01*
X8095741Y6749287D01*
X8109458Y6749287D01*
X8139429Y6749287D02*
G01*
X8139429Y6703821D01*
X8144002Y6690105D01*
X8153145Y6685534D01*
X8166608Y6685534D01*
X8175752Y6690105D01*
X8189468Y6703821D01*
X8189468Y6749287D02*
G01*
X8189468Y6685534D01*
X8269477Y6735571D02*
G01*
X8264906Y6744715D01*
X8251190Y6749287D01*
X8237474Y6749287D01*
X8224011Y6744715D01*
X8219440Y6735571D01*
X8224011Y6726681D01*
X8233156Y6722110D01*
X8255761Y6717537D01*
X8264906Y6712965D01*
X8269477Y6703821D01*
X8269477Y6699250D01*
X8264906Y6690105D01*
X8251190Y6685534D01*
X8237474Y6685534D01*
X8224011Y6690105D01*
X8219440Y6699250D01*
X8299450Y6781037D02*
G01*
X8299450Y6685534D01*
X8299450Y6735571D02*
G01*
X8308593Y6744715D01*
X8317484Y6749287D01*
X8331200Y6749287D01*
X8340343Y6744715D01*
X8349488Y6735571D01*
X8354059Y6722110D01*
X8354059Y6712965D01*
X8349488Y6699250D01*
X8340343Y6690105D01*
X8331200Y6685534D01*
X8317484Y6685534D01*
X8308593Y6690105D01*
X8299450Y6699250D01*
X8384031Y6749287D02*
G01*
X8384031Y6703821D01*
X8388604Y6690105D01*
X8397493Y6685534D01*
X8411209Y6685534D01*
X8420354Y6690105D01*
X8434070Y6703821D01*
X8434070Y6749287D02*
G01*
X8434070Y6685534D01*
X8464041Y6781037D02*
G01*
X8468613Y6776465D01*
X8472931Y6781037D01*
X8468613Y6785610D01*
X8464041Y6781037D01*
X8468613Y6749287D02*
G01*
X8468613Y6685534D01*
X8503158Y6781037D02*
G01*
X8503158Y6685534D01*
X8546591Y6781037D02*
G01*
X8546591Y6703821D01*
X8551163Y6690105D01*
X8560308Y6685534D01*
X8569452Y6685534D01*
X8533129Y6749287D02*
G01*
X8564879Y6749287D01*
X8667495Y6744715D02*
G01*
X8662924Y6753860D01*
X8654034Y6758431D01*
X8640318Y6758431D01*
X8631174Y6753860D01*
X8626602Y6749287D01*
X8622029Y6735571D01*
X8622029Y6722110D01*
X8626602Y6712965D01*
X8635745Y6708394D01*
X8649461Y6708394D01*
X8658606Y6712965D01*
X8662924Y6722110D01*
X8640318Y6758431D02*
G01*
X8631174Y6749287D01*
X8626602Y6735571D01*
X8626602Y6722110D01*
X8631174Y6712965D01*
X8635745Y6708394D01*
X8667495Y6758431D02*
G01*
X8662924Y6722110D01*
X8662924Y6712965D01*
X8672068Y6708394D01*
X8681211Y6708394D01*
X8690356Y6717537D01*
X8694927Y6731000D01*
X8694927Y6740144D01*
X8690356Y6753860D01*
X8685784Y6763004D01*
X8676640Y6771894D01*
X8667495Y6776465D01*
X8654034Y6781037D01*
X8640318Y6781037D01*
X8626602Y6776465D01*
X8617458Y6771894D01*
X8608568Y6763004D01*
X8603995Y6753860D01*
X8599424Y6740144D01*
X8599424Y6726681D01*
X8603995Y6712965D01*
X8608568Y6703821D01*
X8617458Y6694678D01*
X8626602Y6690105D01*
X8640318Y6685534D01*
X8654034Y6685534D01*
X8667495Y6690105D01*
X8676640Y6694678D01*
X8681211Y6699250D01*
X8672068Y6758431D02*
G01*
X8667495Y6722110D01*
X8667495Y6712965D01*
X8672068Y6708394D01*
X8779509Y6749287D02*
G01*
X8779509Y6676644D01*
X8774938Y6662928D01*
X8770365Y6658355D01*
X8761222Y6653784D01*
X8747506Y6653784D01*
X8738615Y6658355D01*
X8779509Y6735571D02*
G01*
X8770365Y6744715D01*
X8761222Y6749287D01*
X8747506Y6749287D01*
X8738615Y6744715D01*
X8729472Y6735571D01*
X8724900Y6722110D01*
X8724900Y6712965D01*
X8729472Y6699250D01*
X8738615Y6690105D01*
X8747506Y6685534D01*
X8761222Y6685534D01*
X8770365Y6690105D01*
X8779509Y6699250D01*
X8809481Y6749287D02*
G01*
X8809481Y6685534D01*
X8809481Y6731000D02*
G01*
X8822943Y6744715D01*
X8832088Y6749287D01*
X8845804Y6749287D01*
X8854947Y6744715D01*
X8859520Y6731000D01*
X8859520Y6685534D01*
X8859520Y6731000D02*
G01*
X8872981Y6744715D01*
X8882125Y6749287D01*
X8895841Y6749287D01*
X8904731Y6744715D01*
X8909304Y6731000D01*
X8909304Y6685534D01*
X8993886Y6749287D02*
G01*
X8993886Y6685534D01*
X8993886Y6735571D02*
G01*
X8984741Y6744715D01*
X8975852Y6749287D01*
X8962136Y6749287D01*
X8952991Y6744715D01*
X8943847Y6735571D01*
X8939275Y6722110D01*
X8939275Y6712965D01*
X8943847Y6699250D01*
X8952991Y6690105D01*
X8962136Y6685534D01*
X8975852Y6685534D01*
X8984741Y6690105D01*
X8993886Y6699250D01*
X9023858Y6781037D02*
G01*
X9028429Y6776465D01*
X9033002Y6781037D01*
X9028429Y6785610D01*
X9023858Y6781037D01*
X9028429Y6749287D02*
G01*
X9028429Y6685534D01*
X9062974Y6781037D02*
G01*
X9062974Y6685534D01*
X9097518Y6708394D02*
G01*
X9092945Y6703821D01*
X9097518Y6699250D01*
X9102090Y6703821D01*
X9097518Y6708394D01*
X9186672Y6735571D02*
G01*
X9177527Y6744715D01*
X9168384Y6749287D01*
X9154922Y6749287D01*
X9145777Y6744715D01*
X9136634Y6735571D01*
X9132061Y6722110D01*
X9132061Y6712965D01*
X9136634Y6699250D01*
X9145777Y6690105D01*
X9154922Y6685534D01*
X9168384Y6685534D01*
X9177527Y6690105D01*
X9186672Y6699250D01*
X9239504Y6749287D02*
G01*
X9230359Y6744715D01*
X9221215Y6735571D01*
X9216643Y6722110D01*
X9216643Y6712965D01*
X9221215Y6699250D01*
X9230359Y6690105D01*
X9239504Y6685534D01*
X9252965Y6685534D01*
X9262109Y6690105D01*
X9271254Y6699250D01*
X9275825Y6712965D01*
X9275825Y6722110D01*
X9271254Y6735571D01*
X9262109Y6744715D01*
X9252965Y6749287D01*
X9239504Y6749287D01*
X9305797Y6749287D02*
G01*
X9305797Y6685534D01*
X9305797Y6731000D02*
G01*
X9319513Y6744715D01*
X9328404Y6749287D01*
X9342120Y6749287D01*
X9351263Y6744715D01*
X9355836Y6731000D01*
X9355836Y6685534D01*
X9355836Y6731000D02*
G01*
X9369297Y6744715D01*
X9378441Y6749287D01*
X9392158Y6749287D01*
X9401302Y6744715D01*
X9405874Y6731000D01*
X9405874Y6685534D01*
X8719565Y3245357D02*
G01*
X8708643Y3239770D01*
X8697722Y3228847D01*
X8692134Y3217926D01*
X8686800Y3201670D01*
X8686800Y3174492D01*
X8692134Y3157981D01*
X8697722Y3147060D01*
X8708643Y3136137D01*
X8719565Y3130804D01*
X8741409Y3130804D01*
X8752331Y3136137D01*
X8763254Y3147060D01*
X8768588Y3157981D01*
X8774175Y3174492D01*
X8774175Y3201670D01*
X8768588Y3217926D01*
X8763254Y3228847D01*
X8752331Y3239770D01*
X8741409Y3245357D01*
X8719565Y3245357D01*
X8809990Y3245357D02*
G01*
X8809990Y3130804D01*
X8809990Y3245357D02*
G01*
X8859265Y3245357D01*
X8875522Y3239770D01*
X8880856Y3234436D01*
X8886443Y3223513D01*
X8886443Y3207004D01*
X8880856Y3196081D01*
X8875522Y3190747D01*
X8859265Y3185413D01*
X8809990Y3185413D01*
X8922511Y3245357D02*
G01*
X8922511Y3130804D01*
X8922511Y3245357D02*
G01*
X8993377Y3245357D01*
X8922511Y3190747D02*
G01*
X8965945Y3190747D01*
X8922511Y3130804D02*
G01*
X8993377Y3130804D01*
X9029445Y3245357D02*
G01*
X9029445Y3130804D01*
X9029445Y3245357D02*
G01*
X9105645Y3130804D01*
X9105645Y3245357D02*
G01*
X9105645Y3130804D01*
X9141713Y3245357D02*
G01*
X9141713Y3130804D01*
X9141713Y3245357D02*
G01*
X9212579Y3245357D01*
X9141713Y3190747D02*
G01*
X9185402Y3190747D01*
X9141713Y3130804D02*
G01*
X9212579Y3130804D01*
X9248647Y3245357D02*
G01*
X9248647Y3130804D01*
X9248647Y3245357D02*
G01*
X9297670Y3245357D01*
X9314179Y3239770D01*
X9319513Y3234436D01*
X9325102Y3223513D01*
X9325102Y3212592D01*
X9319513Y3201670D01*
X9314179Y3196081D01*
X9297670Y3190747D01*
X9248647Y3190747D01*
X9286747Y3190747D02*
G01*
X9325102Y3130804D01*
X8692388Y5262626D02*
G01*
X8687054Y5273547D01*
X8676131Y5284470D01*
X8665209Y5290057D01*
X8643365Y5290057D01*
X8632443Y5284470D01*
X8621522Y5273547D01*
X8615934Y5262626D01*
X8610600Y5246370D01*
X8610600Y5219192D01*
X8615934Y5202681D01*
X8621522Y5191760D01*
X8632443Y5180837D01*
X8643365Y5175504D01*
X8665209Y5175504D01*
X8676131Y5180837D01*
X8687054Y5191760D01*
X8692388Y5202681D01*
X8692388Y5219192D01*
X8665209Y5219192D02*
G01*
X8692388Y5219192D01*
X8793988Y5290057D02*
G01*
X8739377Y5290057D01*
X8733790Y5240781D01*
X8739377Y5246370D01*
X8755634Y5251704D01*
X8772143Y5251704D01*
X8788400Y5246370D01*
X8799322Y5235447D01*
X8804656Y5219192D01*
X8804656Y5208270D01*
X8799322Y5191760D01*
X8788400Y5180837D01*
X8772143Y5175504D01*
X8755634Y5175504D01*
X8739377Y5180837D01*
X8733790Y5186426D01*
X8728456Y5197347D01*
X8840724Y5290057D02*
G01*
X8840724Y5175504D01*
X8840724Y5175504D02*
G01*
X8906256Y5175504D01*
X8942324Y5290057D02*
G01*
X8942324Y5175504D01*
X8942324Y5290057D02*
G01*
X9013190Y5290057D01*
X8942324Y5235447D02*
G01*
X8985758Y5235447D01*
X8942324Y5175504D02*
G01*
X9013190Y5175504D01*
X9049258Y5224526D02*
G01*
X9147302Y5224526D01*
X9183370Y5268213D02*
G01*
X9194291Y5273547D01*
X9210547Y5290057D01*
X9210547Y5175504D01*
X9301225Y5290057D02*
G01*
X9246615Y5213604D01*
X9328404Y5213604D01*
X9301225Y5290057D02*
G01*
X9301225Y5175504D01*
X9364472Y5224526D02*
G01*
X9462515Y5224526D01*
X9498584Y5290057D02*
G01*
X9498584Y5175504D01*
X9498584Y5290057D02*
G01*
X9536684Y5290057D01*
X9553193Y5284470D01*
X9564115Y5273547D01*
X9569450Y5262626D01*
X9575038Y5246370D01*
X9575038Y5219192D01*
X9569450Y5202681D01*
X9564115Y5191760D01*
X9553193Y5180837D01*
X9536684Y5175504D01*
X9498584Y5175504D01*
X9692893Y5262626D02*
G01*
X9687306Y5273547D01*
X9676384Y5284470D01*
X9665461Y5290057D01*
X9643618Y5290057D01*
X9632695Y5284470D01*
X9621774Y5273547D01*
X9616440Y5262626D01*
X9610852Y5246370D01*
X9610852Y5219192D01*
X9616440Y5202681D01*
X9621774Y5191760D01*
X9632695Y5180837D01*
X9643618Y5175504D01*
X9665461Y5175504D01*
X9676384Y5180837D01*
X9687306Y5191760D01*
X9692893Y5202681D01*
X9739629Y5290057D02*
G01*
X9799574Y5290057D01*
X9767061Y5246370D01*
X9783318Y5246370D01*
X9794240Y5240781D01*
X9799574Y5235447D01*
X9805161Y5219192D01*
X9805161Y5208270D01*
X9799574Y5191760D01*
X9788906Y5180837D01*
X9772395Y5175504D01*
X9756140Y5175504D01*
X9739629Y5180837D01*
X9734295Y5186426D01*
X9728708Y5197347D01*
X8407400Y9023858D02*
G01*
X8407400Y8909304D01*
X8407400Y9023858D02*
G01*
X8451088Y8909304D01*
X8494775Y9023858D02*
G01*
X8451088Y8909304D01*
X8494775Y9023858D02*
G01*
X8494775Y8909304D01*
X8558022Y8985504D02*
G01*
X8547100Y8980170D01*
X8536177Y8969247D01*
X8530590Y8952992D01*
X8530590Y8942070D01*
X8536177Y8925560D01*
X8547100Y8914637D01*
X8558022Y8909304D01*
X8574277Y8909304D01*
X8585200Y8914637D01*
X8596122Y8925560D01*
X8601456Y8942070D01*
X8601456Y8952992D01*
X8596122Y8969247D01*
X8585200Y8980170D01*
X8574277Y8985504D01*
X8558022Y8985504D01*
X8703056Y9023858D02*
G01*
X8703056Y8909304D01*
X8703056Y8969247D02*
G01*
X8692134Y8980170D01*
X8681211Y8985504D01*
X8664956Y8985504D01*
X8654034Y8980170D01*
X8643111Y8969247D01*
X8637524Y8952992D01*
X8637524Y8942070D01*
X8643111Y8925560D01*
X8654034Y8914637D01*
X8664956Y8909304D01*
X8681211Y8909304D01*
X8692134Y8914637D01*
X8703056Y8925560D01*
X8739124Y8952992D02*
G01*
X8804402Y8952992D01*
X8804402Y8963913D01*
X8799068Y8974581D01*
X8793479Y8980170D01*
X8782558Y8985504D01*
X8766302Y8985504D01*
X8755379Y8980170D01*
X8744458Y8969247D01*
X8739124Y8952992D01*
X8739124Y8942070D01*
X8744458Y8925560D01*
X8755379Y8914637D01*
X8766302Y8909304D01*
X8782558Y8909304D01*
X8793479Y8914637D01*
X8804402Y8925560D01*
X8840470Y9023858D02*
G01*
X8840470Y8909304D01*
X8960611Y9002013D02*
G01*
X8971279Y9007347D01*
X8987790Y9023858D01*
X8987790Y8909304D01*
D11*
X7943341Y7976615D02*
G01*
X7932927Y7971536D01*
X7922513Y7961121D01*
X7917179Y7950708D01*
X7912100Y7934960D01*
X7912100Y7909052D01*
X7917179Y7893558D01*
X7922513Y7883144D01*
X7932927Y7872729D01*
X7943341Y7867650D01*
X7964170Y7867650D01*
X7974329Y7872729D01*
X7984743Y7883144D01*
X7990077Y7893558D01*
X7995158Y7909052D01*
X7995158Y7934960D01*
X7990077Y7950708D01*
X7984743Y7961121D01*
X7974329Y7971536D01*
X7964170Y7976615D01*
X7943341Y7976615D01*
X8029447Y7976615D02*
G01*
X8029447Y7867650D01*
X8029447Y7976615D02*
G01*
X8076184Y7976615D01*
X8091931Y7971536D01*
X8097011Y7966202D01*
X8102345Y7955787D01*
X8102345Y7940294D01*
X8097011Y7929879D01*
X8091931Y7924800D01*
X8076184Y7919465D01*
X8029447Y7919465D01*
X8136636Y7976615D02*
G01*
X8136636Y7867650D01*
X8136636Y7976615D02*
G01*
X8204200Y7976615D01*
X8136636Y7924800D02*
G01*
X8178038Y7924800D01*
X8136636Y7867650D02*
G01*
X8204200Y7867650D01*
X8238490Y7976615D02*
G01*
X8238490Y7867650D01*
X8238490Y7976615D02*
G01*
X8311134Y7867650D01*
X8311134Y7976615D02*
G01*
X8311134Y7867650D01*
X8345424Y7914386D02*
G01*
X8438895Y7914386D01*
X8473186Y7976615D02*
G01*
X8473186Y7867650D01*
X8545829Y7976615D02*
G01*
X8545829Y7867650D01*
X8473186Y7924800D02*
G01*
X8545829Y7924800D01*
X8621775Y7976615D02*
G01*
X8580120Y7867650D01*
X8621775Y7976615D02*
G01*
X8663431Y7867650D01*
X8595868Y7903971D02*
G01*
X8647684Y7903971D01*
X8697722Y7976615D02*
G01*
X8697722Y7867650D01*
X8697722Y7976615D02*
G01*
X8744458Y7976615D01*
X8759952Y7971536D01*
X8765286Y7966202D01*
X8770365Y7955787D01*
X8770365Y7945373D01*
X8765286Y7934960D01*
X8759952Y7929879D01*
X8744458Y7924800D01*
X8697722Y7924800D01*
X8734043Y7924800D02*
G01*
X8770365Y7867650D01*
X8804656Y7976615D02*
G01*
X8804656Y7867650D01*
X8804656Y7976615D02*
G01*
X8840977Y7976615D01*
X8856725Y7971536D01*
X8867140Y7961121D01*
X8872220Y7950708D01*
X8877300Y7934960D01*
X8877300Y7909052D01*
X8872220Y7893558D01*
X8867140Y7883144D01*
X8856725Y7872729D01*
X8840977Y7867650D01*
X8804656Y7867650D01*
X8911590Y7976615D02*
G01*
X8937752Y7867650D01*
X8963659Y7976615D02*
G01*
X8937752Y7867650D01*
X8963659Y7976615D02*
G01*
X8989568Y7867650D01*
X9015729Y7976615D02*
G01*
X8989568Y7867650D01*
X9091422Y7976615D02*
G01*
X9050020Y7867650D01*
X9091422Y7976615D02*
G01*
X9133077Y7867650D01*
X9065513Y7903971D02*
G01*
X9117329Y7903971D01*
X9167368Y7976615D02*
G01*
X9167368Y7867650D01*
X9167368Y7976615D02*
G01*
X9214104Y7976615D01*
X9229597Y7971536D01*
X9234931Y7966202D01*
X9240011Y7955787D01*
X9240011Y7945373D01*
X9234931Y7934960D01*
X9229597Y7929879D01*
X9214104Y7924800D01*
X9167368Y7924800D01*
X9203690Y7924800D02*
G01*
X9240011Y7867650D01*
X9274302Y7976615D02*
G01*
X9274302Y7867650D01*
X9274302Y7976615D02*
G01*
X9341865Y7976615D01*
X9274302Y7924800D02*
G01*
X9315958Y7924800D01*
X9274302Y7867650D02*
G01*
X9341865Y7867650D01*
X4419600Y8014715D02*
G01*
X4419600Y7905750D01*
X4419600Y8014715D02*
G01*
X4455922Y8014715D01*
X4471670Y8009636D01*
X4481829Y7999221D01*
X4487163Y7988808D01*
X4492243Y7973060D01*
X4492243Y7947152D01*
X4487163Y7931658D01*
X4481829Y7921244D01*
X4471670Y7910829D01*
X4455922Y7905750D01*
X4419600Y7905750D01*
X4526534Y7993887D02*
G01*
X4536947Y7999221D01*
X4552695Y8014715D01*
X4552695Y7905750D01*
X5576315Y4800600D02*
G01*
X5467350Y4800600D01*
X5576315Y4800600D02*
G01*
X5576315Y4764278D01*
X5571236Y4748529D01*
X5560822Y4738370D01*
X5550408Y4733036D01*
X5534659Y4727955D01*
X5508752Y4727955D01*
X5493258Y4733036D01*
X5482843Y4738370D01*
X5472429Y4748529D01*
X5467350Y4764278D01*
X5467350Y4800600D01*
X5560822Y4631181D02*
G01*
X5571236Y4636515D01*
X5576315Y4652010D01*
X5576315Y4662423D01*
X5571236Y4677918D01*
X5555488Y4688331D01*
X5529579Y4693665D01*
X5503672Y4693665D01*
X5482843Y4688331D01*
X5472429Y4677918D01*
X5467350Y4662423D01*
X5467350Y4657089D01*
X5472429Y4641595D01*
X5482843Y4631181D01*
X5498338Y4626102D01*
X5503672Y4626102D01*
X5519165Y4631181D01*
X5529579Y4641595D01*
X5534659Y4657089D01*
X5534659Y4662423D01*
X5529579Y4677918D01*
X5519165Y4688331D01*
X5503672Y4693665D01*
X4445000Y6897115D02*
G01*
X4445000Y6788150D01*
X4445000Y6897115D02*
G01*
X4481322Y6897115D01*
X4497070Y6892036D01*
X4507229Y6881621D01*
X4512563Y6871208D01*
X4517643Y6855460D01*
X4517643Y6829552D01*
X4512563Y6814058D01*
X4507229Y6803644D01*
X4497070Y6793229D01*
X4481322Y6788150D01*
X4445000Y6788150D01*
X4557268Y6871208D02*
G01*
X4557268Y6876287D01*
X4562347Y6886702D01*
X4567681Y6892036D01*
X4578095Y6897115D01*
X4598670Y6897115D01*
X4609084Y6892036D01*
X4614418Y6886702D01*
X4619497Y6876287D01*
X4619497Y6865873D01*
X4614418Y6855460D01*
X4604004Y6839965D01*
X4551934Y6788150D01*
X4624831Y6788150D01*
X4346229Y6647827D02*
G01*
X4346229Y6606171D01*
X4325401Y6626999D02*
G01*
X4367057Y6626999D01*
X4560399Y6621998D02*
G01*
X4602055Y6621998D01*
X6681215Y4914900D02*
G01*
X6572250Y4914900D01*
X6681215Y4914900D02*
G01*
X6681215Y4878578D01*
X6676136Y4862829D01*
X6665722Y4852670D01*
X6655308Y4847336D01*
X6639559Y4842255D01*
X6613652Y4842255D01*
X6598158Y4847336D01*
X6587743Y4852670D01*
X6577329Y4862829D01*
X6572250Y4878578D01*
X6572250Y4914900D01*
X6681215Y4797552D02*
G01*
X6681215Y4740402D01*
X6639559Y4771389D01*
X6639559Y4755895D01*
X6634479Y4745481D01*
X6629400Y4740402D01*
X6613652Y4735068D01*
X6603238Y4735068D01*
X6587743Y4740402D01*
X6577329Y4750815D01*
X6572250Y4766310D01*
X6572250Y4781804D01*
X6577329Y4797552D01*
X6582409Y4802631D01*
X6592824Y4807965D01*
X7354315Y4914900D02*
G01*
X7245350Y4914900D01*
X7354315Y4914900D02*
G01*
X7354315Y4878578D01*
X7349236Y4862829D01*
X7338822Y4852670D01*
X7328408Y4847336D01*
X7312659Y4842255D01*
X7286752Y4842255D01*
X7271258Y4847336D01*
X7260843Y4852670D01*
X7250429Y4862829D01*
X7245350Y4878578D01*
X7245350Y4914900D01*
X7354315Y4755895D02*
G01*
X7281672Y4807965D01*
X7281672Y4729987D01*
X7354315Y4755895D02*
G01*
X7245350Y4755895D01*
X7887715Y5651500D02*
G01*
X7778750Y5651500D01*
X7887715Y5651500D02*
G01*
X7887715Y5615178D01*
X7882636Y5599429D01*
X7872222Y5589270D01*
X7861808Y5583936D01*
X7846059Y5578855D01*
X7820152Y5578855D01*
X7804658Y5583936D01*
X7794243Y5589270D01*
X7783829Y5599429D01*
X7778750Y5615178D01*
X7778750Y5651500D01*
X7887715Y5482081D02*
G01*
X7887715Y5534152D01*
X7840979Y5539231D01*
X7846059Y5534152D01*
X7851393Y5518404D01*
X7851393Y5502910D01*
X7846059Y5487415D01*
X7835900Y5477002D01*
X7820152Y5471668D01*
X7809738Y5471668D01*
X7794243Y5477002D01*
X7783829Y5487415D01*
X7778750Y5502910D01*
X7778750Y5518404D01*
X7783829Y5534152D01*
X7788909Y5539231D01*
X7799324Y5544565D01*
X3569715Y4254500D02*
G01*
X3460750Y4254500D01*
X3569715Y4181855D02*
G01*
X3460750Y4181855D01*
X3517900Y4254500D02*
G01*
X3517900Y4181855D01*
X3548888Y4147565D02*
G01*
X3554222Y4137152D01*
X3569715Y4121404D01*
X3460750Y4121404D01*
X4956809Y4204715D02*
G01*
X4956809Y4121657D01*
X4951475Y4105910D01*
X4946395Y4100829D01*
X4935981Y4095750D01*
X4925568Y4095750D01*
X4915154Y4100829D01*
X4909820Y4105910D01*
X4904740Y4121657D01*
X4904740Y4132071D01*
X4991100Y4204715D02*
G01*
X4991100Y4095750D01*
X4991100Y4204715D02*
G01*
X5037836Y4204715D01*
X5053329Y4199636D01*
X5058409Y4194302D01*
X5063743Y4183887D01*
X5063743Y4168394D01*
X5058409Y4157979D01*
X5053329Y4152900D01*
X5037836Y4147565D01*
X4991100Y4147565D01*
X5098034Y4183887D02*
G01*
X5108447Y4189221D01*
X5123941Y4204715D01*
X5123941Y4095750D01*
X6252209Y4192015D02*
G01*
X6252209Y4108957D01*
X6246875Y4093210D01*
X6241795Y4088129D01*
X6231381Y4083050D01*
X6220968Y4083050D01*
X6210554Y4088129D01*
X6205220Y4093210D01*
X6200140Y4108957D01*
X6200140Y4119371D01*
X6286500Y4192015D02*
G01*
X6286500Y4083050D01*
X6286500Y4192015D02*
G01*
X6333236Y4192015D01*
X6348729Y4186936D01*
X6353809Y4181602D01*
X6359143Y4171187D01*
X6359143Y4155694D01*
X6353809Y4145279D01*
X6348729Y4140200D01*
X6333236Y4134865D01*
X6286500Y4134865D01*
X6398513Y4166107D02*
G01*
X6398513Y4171187D01*
X6403847Y4181602D01*
X6408927Y4186936D01*
X6419341Y4192015D01*
X6440170Y4192015D01*
X6450584Y4186936D01*
X6455663Y4181602D01*
X6460997Y4171187D01*
X6460997Y4160773D01*
X6455663Y4150360D01*
X6445250Y4134865D01*
X6393434Y4083050D01*
X6466077Y4083050D01*
X7280909Y4179315D02*
G01*
X7280909Y4096257D01*
X7275575Y4080510D01*
X7270495Y4075429D01*
X7260081Y4070350D01*
X7249668Y4070350D01*
X7239254Y4075429D01*
X7233920Y4080510D01*
X7228840Y4096257D01*
X7228840Y4106671D01*
X7315200Y4179315D02*
G01*
X7315200Y4070350D01*
X7315200Y4179315D02*
G01*
X7361936Y4179315D01*
X7377429Y4174236D01*
X7382509Y4168902D01*
X7387843Y4158487D01*
X7387843Y4142994D01*
X7382509Y4132579D01*
X7377429Y4127500D01*
X7361936Y4122165D01*
X7315200Y4122165D01*
X7432547Y4179315D02*
G01*
X7489697Y4179315D01*
X7458456Y4137660D01*
X7473950Y4137660D01*
X7484363Y4132579D01*
X7489697Y4127500D01*
X7494777Y4111752D01*
X7494777Y4101337D01*
X7489697Y4085844D01*
X7479284Y4075429D01*
X7463790Y4070350D01*
X7448041Y4070350D01*
X7432547Y4075429D01*
X7427213Y4080510D01*
X7422134Y4090923D01*
X9046209Y4192015D02*
G01*
X9046209Y4108957D01*
X9040875Y4093210D01*
X9035795Y4088129D01*
X9025381Y4083050D01*
X9014968Y4083050D01*
X9004554Y4088129D01*
X8999220Y4093210D01*
X8994140Y4108957D01*
X8994140Y4119371D01*
X9080500Y4192015D02*
G01*
X9080500Y4083050D01*
X9080500Y4192015D02*
G01*
X9127236Y4192015D01*
X9142729Y4186936D01*
X9147809Y4181602D01*
X9153143Y4171187D01*
X9153143Y4155694D01*
X9147809Y4145279D01*
X9142729Y4140200D01*
X9127236Y4134865D01*
X9080500Y4134865D01*
X9239250Y4192015D02*
G01*
X9187434Y4119371D01*
X9265411Y4119371D01*
X9239250Y4192015D02*
G01*
X9239250Y4083050D01*
X8978900Y6236715D02*
G01*
X8978900Y6127750D01*
X9051543Y6236715D02*
G01*
X8978900Y6164071D01*
X9004808Y6189979D02*
G01*
X9051543Y6127750D01*
X9085834Y6215887D02*
G01*
X9096247Y6221221D01*
X9111995Y6236715D01*
X9111995Y6127750D01*
X6668515Y6273800D02*
G01*
X6559550Y6273800D01*
X6668515Y6273800D02*
G01*
X6668515Y6227063D01*
X6663436Y6211570D01*
X6658102Y6206236D01*
X6647688Y6201155D01*
X6637274Y6201155D01*
X6626859Y6206236D01*
X6621779Y6211570D01*
X6616700Y6227063D01*
X6616700Y6273800D01*
X6616700Y6237478D02*
G01*
X6559550Y6201155D01*
X6647688Y6166865D02*
G01*
X6653022Y6156452D01*
X6668515Y6140704D01*
X6559550Y6140704D01*
X7354315Y6273800D02*
G01*
X7245350Y6273800D01*
X7354315Y6273800D02*
G01*
X7354315Y6227063D01*
X7349236Y6211570D01*
X7343902Y6206236D01*
X7333488Y6201155D01*
X7323074Y6201155D01*
X7312659Y6206236D01*
X7307579Y6211570D01*
X7302500Y6227063D01*
X7302500Y6273800D01*
X7302500Y6237478D02*
G01*
X7245350Y6201155D01*
X7328408Y6161531D02*
G01*
X7333488Y6161531D01*
X7343902Y6156452D01*
X7349236Y6151118D01*
X7354315Y6140704D01*
X7354315Y6120129D01*
X7349236Y6109715D01*
X7343902Y6104381D01*
X7333488Y6099302D01*
X7323074Y6099302D01*
X7312659Y6104381D01*
X7297165Y6114795D01*
X7245350Y6166865D01*
X7245350Y6093968D01*
X5347715Y5740400D02*
G01*
X5238750Y5740400D01*
X5347715Y5740400D02*
G01*
X5347715Y5693663D01*
X5342636Y5678170D01*
X5337302Y5672836D01*
X5326888Y5667755D01*
X5316474Y5667755D01*
X5306059Y5672836D01*
X5300979Y5678170D01*
X5295900Y5693663D01*
X5295900Y5740400D01*
X5295900Y5704078D02*
G01*
X5238750Y5667755D01*
X5347715Y5623052D02*
G01*
X5347715Y5565902D01*
X5306059Y5596889D01*
X5306059Y5581395D01*
X5300979Y5570981D01*
X5295900Y5565902D01*
X5280152Y5560568D01*
X5269738Y5560568D01*
X5254243Y5565902D01*
X5243829Y5576315D01*
X5238750Y5591810D01*
X5238750Y5607304D01*
X5243829Y5623052D01*
X5248909Y5628131D01*
X5259324Y5633465D01*
X2540000Y8802115D02*
G01*
X2540000Y8724137D01*
X2545079Y8708644D01*
X2555493Y8698229D01*
X2571241Y8693150D01*
X2581656Y8693150D01*
X2597150Y8698229D01*
X2607563Y8708644D01*
X2612643Y8724137D01*
X2612643Y8802115D01*
X2646934Y8781287D02*
G01*
X2657347Y8786621D01*
X2673095Y8802115D01*
X2673095Y8693150D01*
D10*
X2770377Y8102600D02*
G01*
X2576575Y8102600D01*
X2770377Y7973313D02*
G01*
X2576575Y7973313D01*
X2678175Y8102600D02*
G01*
X2678175Y7973313D01*
X2705861Y7912354D02*
G01*
X2613406Y7912354D01*
X2585720Y7903210D01*
X2576575Y7884668D01*
X2576575Y7856981D01*
X2585720Y7838439D01*
X2613406Y7810754D01*
X2705861Y7810754D02*
G01*
X2576575Y7810754D01*
X2705861Y7648194D02*
G01*
X2576575Y7749794D01*
X2705861Y7749794D02*
G01*
X2705861Y7648194D01*
X2576575Y7749794D02*
G01*
X2576575Y7648194D01*
X2705861Y7485634D02*
G01*
X2576575Y7587234D01*
X2705861Y7587234D02*
G01*
X2705861Y7485634D01*
X2576575Y7587234D02*
G01*
X2576575Y7485634D01*
X2705861Y7313929D02*
G01*
X2576575Y7313929D01*
X2678175Y7313929D02*
G01*
X2696463Y7332218D01*
X2705861Y7350760D01*
X2705861Y7378445D01*
X2696463Y7396987D01*
X2678175Y7415529D01*
X2650490Y7424673D01*
X2631947Y7424673D01*
X2604261Y7415529D01*
X2585720Y7396987D01*
X2576575Y7378445D01*
X2576575Y7350760D01*
X2585720Y7332218D01*
X2604261Y7313929D01*
X2770377Y7252970D02*
G01*
X2576575Y7252970D01*
X2668777Y7252970D02*
G01*
X2696463Y7225029D01*
X2705861Y7206742D01*
X2705861Y7179055D01*
X2696463Y7160513D01*
X2668777Y7151370D01*
X2576575Y7151370D01*
X2770377Y6948170D02*
G01*
X2576575Y6948170D01*
X2770377Y6948170D02*
G01*
X2770377Y6828028D01*
X2678175Y6948170D02*
G01*
X2678175Y6874255D01*
X2576575Y6948170D02*
G01*
X2576575Y6828028D01*
X2742691Y6637781D02*
G01*
X2761234Y6656070D01*
X2770377Y6684010D01*
X2770377Y6720839D01*
X2761234Y6748526D01*
X2742691Y6767068D01*
X2724150Y6767068D01*
X2705861Y6757670D01*
X2696463Y6748526D01*
X2687320Y6729984D01*
X2668777Y6674612D01*
X2659634Y6656070D01*
X2650490Y6646926D01*
X2631947Y6637781D01*
X2604261Y6637781D01*
X2585720Y6656070D01*
X2576575Y6684010D01*
X2576575Y6720839D01*
X2585720Y6748526D01*
X2604261Y6767068D01*
X2770377Y6576821D02*
G01*
X2576575Y6576821D01*
X2770377Y6576821D02*
G01*
X2770377Y6493510D01*
X2761234Y6465823D01*
X2752090Y6456679D01*
X2733547Y6447536D01*
X2705861Y6447536D01*
X2687320Y6456679D01*
X2678175Y6465823D01*
X2668777Y6493510D01*
X2668777Y6576821D01*
X2770377Y6340347D02*
G01*
X2761234Y6368034D01*
X2742691Y6377178D01*
X2724150Y6377178D01*
X2705861Y6368034D01*
X2696463Y6349492D01*
X2687320Y6312662D01*
X2678175Y6284976D01*
X2659634Y6266434D01*
X2641091Y6257289D01*
X2613406Y6257289D01*
X2594863Y6266434D01*
X2585720Y6275578D01*
X2576575Y6303263D01*
X2576575Y6340347D01*
X2585720Y6368034D01*
X2594863Y6377178D01*
X2613406Y6386576D01*
X2641091Y6386576D01*
X2659634Y6377178D01*
X2678175Y6358889D01*
X2687320Y6330950D01*
X2696463Y6294120D01*
X2705861Y6275578D01*
X2724150Y6266434D01*
X2742691Y6266434D01*
X2761234Y6275578D01*
X2770377Y6303263D01*
X2770377Y6340347D01*
X2724150Y6186931D02*
G01*
X2733547Y6186931D01*
X2752090Y6177787D01*
X2761234Y6168389D01*
X2770377Y6150102D01*
X2770377Y6113018D01*
X2761234Y6094729D01*
X2752090Y6085331D01*
X2733547Y6076187D01*
X2715006Y6076187D01*
X2696463Y6085331D01*
X2668777Y6103873D01*
X2576575Y6196329D01*
X2576575Y6066789D01*
X2742691Y5895086D02*
G01*
X2761234Y5904229D01*
X2770377Y5932170D01*
X2770377Y5950457D01*
X2761234Y5978144D01*
X2733547Y5996686D01*
X2687320Y6005829D01*
X2641091Y6005829D01*
X2604261Y5996686D01*
X2585720Y5978144D01*
X2576575Y5950457D01*
X2576575Y5941313D01*
X2585720Y5913628D01*
X2604261Y5895086D01*
X2631947Y5885942D01*
X2641091Y5885942D01*
X2668777Y5895086D01*
X2687320Y5913628D01*
X2696463Y5941313D01*
X2696463Y5950457D01*
X2687320Y5978144D01*
X2668777Y5996686D01*
X2641091Y6005829D01*
X2742691Y5713984D02*
G01*
X2761234Y5723381D01*
X2770377Y5751068D01*
X2770377Y5769610D01*
X2761234Y5797295D01*
X2733547Y5815584D01*
X2687320Y5824981D01*
X2641091Y5824981D01*
X2604261Y5815584D01*
X2585720Y5797295D01*
X2576575Y5769610D01*
X2576575Y5760212D01*
X2585720Y5732526D01*
X2604261Y5713984D01*
X2631947Y5704839D01*
X2641091Y5704839D01*
X2668777Y5713984D01*
X2687320Y5732526D01*
X2696463Y5760212D01*
X2696463Y5769610D01*
X2687320Y5797295D01*
X2668777Y5815584D01*
X2641091Y5824981D01*
G36*
X8567928Y8665921D02*
G01*
X8556447Y8552992D01*
X8530945Y8545525D01*
X8506358Y8535416D01*
X8483092Y8522563D01*
X8395106Y8594293D01*
X8334806Y8533993D01*
X8406536Y8446008D01*
X8393734Y8422741D01*
X8383524Y8398154D01*
X8376158Y8372602D01*
X8263229Y8361172D01*
X8263229Y8275828D01*
X8376158Y8264398D01*
X8383524Y8238845D01*
X8393734Y8214258D01*
X8406536Y8190992D01*
X8334806Y8103006D01*
X8395106Y8042706D01*
X8483092Y8114436D01*
X8500414Y8104581D01*
X8518499Y8096199D01*
X8568740Y8217458D01*
X8557158Y8223046D01*
X8546338Y8230006D01*
X8536381Y8238185D01*
X8527440Y8247481D01*
X8519617Y8257743D01*
X8513114Y8268868D01*
X8507984Y8280653D01*
X8504275Y8292947D01*
X8501989Y8305647D01*
X8501227Y8318500D01*
X8502040Y8331962D01*
X8504529Y8345220D01*
X8508644Y8358073D01*
X8514283Y8370366D01*
X8521395Y8381796D01*
X8529828Y8392312D01*
X8539581Y8401659D01*
X8550351Y8409787D01*
X8562035Y8416493D01*
X8574481Y8421776D01*
X8587435Y8425383D01*
X8600795Y8427466D01*
X8614308Y8427821D01*
X8627668Y8426551D01*
X8640876Y8423605D01*
X8653576Y8419084D01*
X8665667Y8413038D01*
X8676843Y8405520D01*
X8687054Y8396732D01*
X8696147Y8386673D01*
X8703868Y8375650D01*
X8710218Y8363712D01*
X8714994Y8351113D01*
X8718245Y8338007D01*
X8719820Y8324646D01*
X8719718Y8311134D01*
X8717991Y8297773D01*
X8714638Y8284667D01*
X8709660Y8272170D01*
X8703208Y8260283D01*
X8695334Y8249361D01*
X8686190Y8239455D01*
X8675878Y8230768D01*
X8664600Y8223402D01*
X8652459Y8217458D01*
X8702700Y8096199D01*
X8720785Y8104581D01*
X8738108Y8114436D01*
X8826093Y8042706D01*
X8886393Y8103006D01*
X8814663Y8190992D01*
X8827465Y8214258D01*
X8837676Y8238845D01*
X8845042Y8264398D01*
X8957970Y8275828D01*
X8957970Y8361172D01*
X8845042Y8372602D01*
X8837676Y8398154D01*
X8827465Y8422741D01*
X8814663Y8446008D01*
X8886393Y8533993D01*
X8826093Y8594293D01*
X8738108Y8522563D01*
X8714841Y8535416D01*
X8690254Y8545525D01*
X8664752Y8552992D01*
X8653272Y8665921D01*
G37*
D12*
X8738108Y8114436D02*
G01*
X8826068Y8042706D01*
X8886393Y8103031D01*
X8814663Y8190992D01*
X8845067Y8264372D02*
G01*
X8957995Y8275853D01*
X8957995Y8361146D01*
X8845067Y8372627D01*
X8814663Y8446008D02*
G01*
X8886393Y8533968D01*
X8826068Y8594293D01*
X8738108Y8522563D01*
X8664727Y8552967D02*
G01*
X8653246Y8665895D01*
X8567953Y8665895D01*
X8556472Y8552967D01*
X8483091Y8522563D02*
G01*
X8395131Y8594293D01*
X8334806Y8533968D01*
X8406536Y8446008D01*
X8376132Y8372627D02*
G01*
X8263204Y8361146D01*
X8263204Y8275853D01*
X8376132Y8264372D01*
X8406536Y8190992D02*
G01*
X8334806Y8103031D01*
X8395131Y8042706D01*
X8483091Y8114436D01*
X8518499Y8096199D02*
G01*
X8568740Y8217458D01*
X8652459Y8217458D02*
G01*
X8702700Y8096199D01*
D13*
X4724400Y7353300D02*
G01*
X4724400Y7734300D01*
X5295900Y4965700D02*
G01*
X4914900Y4965700D01*
X4660900Y6667500D02*
G01*
X4660900Y6548120D01*
X4660900Y6286500D02*
G01*
X4660900Y6398260D01*
X6540500Y4597400D02*
G01*
X6540500Y4724400D01*
X6540500Y4724400D02*
G01*
X6540500Y5232400D01*
X6540500Y5232400D02*
G01*
X6413500Y5232400D01*
X6413500Y5232400D02*
G01*
X6286500Y5232400D01*
X6286500Y5232400D02*
G01*
X6286500Y4724400D01*
X6286500Y4724400D02*
G01*
X6286500Y4597400D01*
X6286500Y4597400D02*
G01*
X6413500Y4597400D01*
X6413500Y4597400D02*
G01*
X6540500Y4597400D01*
X6540500Y4724400D02*
G01*
X6286500Y4724400D01*
X6413500Y5232400D02*
G01*
X6413500Y5295900D01*
X6413500Y4597400D02*
G01*
X6413500Y4533900D01*
X7213600Y4597400D02*
G01*
X7213600Y4724400D01*
X7213600Y4724400D02*
G01*
X7213600Y5232400D01*
X7213600Y5232400D02*
G01*
X7086600Y5232400D01*
X7086600Y5232400D02*
G01*
X6959600Y5232400D01*
X6959600Y5232400D02*
G01*
X6959600Y4724400D01*
X6959600Y4724400D02*
G01*
X6959600Y4597400D01*
X6959600Y4597400D02*
G01*
X7086600Y4597400D01*
X7086600Y4597400D02*
G01*
X7213600Y4597400D01*
X7213600Y4724400D02*
G01*
X6959600Y4724400D01*
X7086600Y5232400D02*
G01*
X7086600Y5295900D01*
X7086600Y4597400D02*
G01*
X7086600Y4533900D01*
X7721600Y5016500D02*
G01*
X7721600Y5143500D01*
X7721600Y5143500D02*
G01*
X7721600Y5651500D01*
X7721600Y5651500D02*
G01*
X7594600Y5651500D01*
X7594600Y5651500D02*
G01*
X7467600Y5651500D01*
X7467600Y5651500D02*
G01*
X7467600Y5143500D01*
X7467600Y5143500D02*
G01*
X7467600Y5016500D01*
X7467600Y5016500D02*
G01*
X7594600Y5016500D01*
X7594600Y5016500D02*
G01*
X7721600Y5016500D01*
X7721600Y5143500D02*
G01*
X7467600Y5143500D01*
X7594600Y5651500D02*
G01*
X7594600Y5715000D01*
X7594600Y5016500D02*
G01*
X7594600Y4953000D01*
X3429000Y4102100D02*
G01*
X1854200Y4102100D01*
X1854200Y4406900D01*
X3429000Y4406900D01*
X3429000Y4102100D01*
X3149600Y4102100D02*
G01*
X3149600Y4406900D01*
X4577079Y4048760D02*
G01*
X5278120Y4048760D01*
X5278120Y4048760D02*
G01*
X5278120Y3429000D01*
X5278120Y3429000D02*
G01*
X5278120Y3347720D01*
X5278120Y3347720D02*
G01*
X4577079Y3347720D01*
X4577079Y3347720D02*
G01*
X4577079Y3429000D01*
X4577079Y3429000D02*
G01*
X4577079Y4048760D01*
X5278120Y3429000D02*
G01*
X4577079Y3429000D01*
X5872479Y4036060D02*
G01*
X6573520Y4036060D01*
X6573520Y4036060D02*
G01*
X6573520Y3416300D01*
X6573520Y3416300D02*
G01*
X6573520Y3335020D01*
X6573520Y3335020D02*
G01*
X5872479Y3335020D01*
X5872479Y3335020D02*
G01*
X5872479Y3416300D01*
X5872479Y3416300D02*
G01*
X5872479Y4036060D01*
X6573520Y3416300D02*
G01*
X5872479Y3416300D01*
X6901179Y4023360D02*
G01*
X7602220Y4023360D01*
X7602220Y4023360D02*
G01*
X7602220Y3403600D01*
X7602220Y3403600D02*
G01*
X7602220Y3322320D01*
X7602220Y3322320D02*
G01*
X6901179Y3322320D01*
X6901179Y3322320D02*
G01*
X6901179Y3403600D01*
X6901179Y3403600D02*
G01*
X6901179Y4023360D01*
X7602220Y3403600D02*
G01*
X6901179Y3403600D01*
X8666479Y4036060D02*
G01*
X9367520Y4036060D01*
X9367520Y4036060D02*
G01*
X9367520Y3416300D01*
X9367520Y3416300D02*
G01*
X9367520Y3335020D01*
X9367520Y3335020D02*
G01*
X8666479Y3335020D01*
X8666479Y3335020D02*
G01*
X8666479Y3416300D01*
X8666479Y3416300D02*
G01*
X8666479Y4036060D01*
X9367520Y3416300D02*
G01*
X8666479Y3416300D01*
X8015909Y6073190D02*
G01*
X8015909Y4423206D01*
X10175900Y4423206D01*
X10175900Y6073190D01*
X8015909Y6073190D01*
X6313500Y5983808D02*
G01*
X6313500Y6563817D01*
X6513499Y6563817D01*
X6513499Y5983808D01*
X6313500Y5983808D01*
X7186599Y6563791D02*
G01*
X7186599Y5983782D01*
X6986600Y5983782D01*
X6986600Y6563791D01*
X7186599Y6563791D01*
X4992700Y5386908D02*
G01*
X4992700Y5966917D01*
X5192699Y5966917D01*
X5192699Y5386908D01*
X4992700Y5386908D01*
X1409700Y8661400D02*
G01*
X3886200Y8661400D01*
X3886200Y4889500D01*
X1409700Y4889500D01*
X1409700Y8661400D01*
D12*
G75*
G01*
X8702700Y8096199D02*
G03*
X8738108Y8114436I-92094J222292D01*
G75*
G01*
X8814664Y8190992D02*
G03*
X8845067Y8264373I-204039J127528D01*
G75*
G01*
X8845067Y8372627D02*
G03*
X8814664Y8446008I-234442J-54147D01*
G75*
G01*
X8738108Y8522564D02*
G03*
X8664727Y8552967I-127528J-204039D01*
G75*
G01*
X8556473Y8552967D02*
G03*
X8483092Y8522564I54147J-234442D01*
G75*
G01*
X8406536Y8446008D02*
G03*
X8376133Y8372627I204039J-127528D01*
G75*
G01*
X8376133Y8264373D02*
G03*
X8406536Y8190992I234442J54147D01*
G75*
G01*
X8483092Y8114436D02*
G03*
X8518500Y8096199I127502J204055D01*
G75*
G01*
X8568741Y8217459D02*
G02*
X8501228Y8318500I41859J101045D01*
G75*
G01*
X8501228Y8318500D02*
G02*
X8652459Y8217459I109372J4D01*
D13*
G75*
G01*
X4724400Y7353300D02*
G02*
X4724400Y7734300I-254000J190500D01*
G75*
G01*
X5295900Y4965700D02*
G02*
X4914900Y4965700I-190500J-254000D01*
G75*
G01*
X4660890Y6667490D02*
G03*
X4660890Y6286510I-187046J-190490D01*
G75*
G01
X4724400Y7543800D02*
G03X4724400Y7543800I-254000J0D01*
G75*
G01
X5359400Y4711700D02*
G03X5359400Y4711700I-254000J0D01*
M02*
