G04 Layer: BottomLayer*
G04 EasyEDA v6.5.8, 2022-08-15 07:29:34*
G04 028e3914a6f949ed9ca799ef75e4ed4f,10*
G04 Gerber Generator version 0.2*
G04 Scale: 100 percent, Rotated: No, Reflected: No *
G04 Dimensions in millimeters *
G04 leading zeros omitted , absolute positions ,4 integer and 5 decimal *
%FSLAX45Y45*%
%MOMM*%

%ADD10C,1.2192*%
%ADD11C,0.6096*%
%ADD12C,1.8000*%
%ADD13R,1.8000X1.8000*%
%ADD14C,1.6510*%
%ADD15C,1.9812*%
%ADD16R,1.7000X1.7000*%
%ADD17C,1.7000*%
%ADD18C,2.0320*%
%ADD19C,2.2499*%
%ADD20C,1.5240*%
%ADD21C,3.5052*%
%ADD22C,1.7780*%
%ADD23C,0.6200*%

%LPD*%
D10*
X4752340Y3708400D02*
G01*
X4330700Y3708400D01*
X4330700Y5765800D01*
X3657600Y5765800D01*
D11*
X5094503Y5177967D02*
G01*
X5105400Y5167071D01*
X5105400Y4838700D01*
X3657600Y7543800D02*
G01*
X4343400Y7543800D01*
X7378700Y7518400D02*
G01*
X7378700Y5778500D01*
X7092365Y5778500D01*
X7086600Y5772734D01*
X1625600Y6527800D02*
G01*
X2654300Y6527800D01*
X2654300Y8801100D01*
X5562600Y8801100D01*
X5981700Y6959600D02*
G01*
X5981700Y8991600D01*
X2514600Y8991600D01*
X2425700Y8902700D01*
X2425700Y6781800D01*
X1625600Y6781800D01*
X3276600Y5080000D02*
G01*
X3276600Y4254500D01*
X3022600Y5080000D02*
G01*
X3022600Y4254500D01*
X2768600Y5080000D02*
G01*
X2768600Y4254500D01*
X2514600Y5080000D02*
G01*
X2514600Y4254500D01*
X2260600Y5080000D02*
G01*
X2260600Y4254500D01*
X2006600Y5080000D02*
G01*
X2006600Y4254500D01*
X3657600Y6781800D02*
G01*
X3962400Y6477000D01*
X4343400Y6477000D01*
X6413500Y6774865D02*
G01*
X5600700Y6774865D01*
X5600700Y4584700D01*
X5105400Y4584700D01*
X6413500Y4406900D02*
G01*
X6413500Y3710939D01*
X6398259Y3695700D01*
X7086600Y4406900D02*
G01*
X7076440Y4396739D01*
X7076440Y3683000D01*
X7086600Y5772734D02*
G01*
X7086600Y5422900D01*
X6415277Y5774944D02*
G01*
X6413500Y5422900D01*
X7084822Y6772655D02*
G01*
X6413500Y6774942D01*
D10*
X5092700Y6177965D02*
G01*
X5092700Y6477000D01*
X4597400Y6477000D01*
X3657600Y5765800D02*
G01*
X1625600Y5765800D01*
X4597400Y6477000D02*
G01*
X4597400Y7543800D01*
X6047740Y3695700D02*
G01*
X6047740Y4064000D01*
X4762500Y4064000D01*
X4752340Y4053839D01*
X4752340Y3708400D01*
X7426959Y3683000D02*
G01*
X7426959Y3429000D01*
X6045200Y3429000D01*
X6047740Y3431539D01*
X6047740Y3695700D01*
X7594600Y4826000D02*
G01*
X7429500Y4826000D01*
X7429500Y3685539D01*
X7426959Y3683000D01*
X8470900Y4648200D02*
G01*
X8470900Y4813300D01*
X7607300Y4813300D01*
X7594600Y4826000D01*
D11*
X8470900Y5848197D02*
G01*
X7600797Y5848197D01*
X7594600Y5842000D01*
D10*
X9192259Y3695700D02*
G01*
X9192259Y4648200D01*
X9690887Y4648200D01*
X8841740Y3695700D02*
G01*
X8841740Y5257800D01*
X8280501Y5257800D01*
X8270900Y5248198D01*
D12*
G01*
X4343400Y7543800D03*
G36*
X4507407Y7633792D02*
G01*
X4687392Y7633792D01*
X4687392Y7453807D01*
X4507407Y7453807D01*
G37*
G01*
X5105400Y4584700D03*
D13*
G01*
X5105400Y4838700D03*
G36*
X4260850Y6559550D02*
G01*
X4425950Y6559550D01*
X4425950Y6394450D01*
X4260850Y6394450D01*
G37*
D14*
G01*
X4597400Y6477000D03*
D15*
G01*
X6413500Y5422900D03*
G01*
X6413500Y4406900D03*
G01*
X7086600Y5422900D03*
G01*
X7086600Y4406900D03*
G01*
X7594600Y5842000D03*
G01*
X7594600Y4826000D03*
D16*
G01*
X3276600Y4254500D03*
D17*
G01*
X3022600Y4254500D03*
G01*
X2768600Y4254500D03*
G01*
X2514600Y4254500D03*
G01*
X2260600Y4254500D03*
G01*
X2006600Y4254500D03*
G36*
X4650740Y3810000D02*
G01*
X4853940Y3810000D01*
X4853940Y3606800D01*
X4650740Y3606800D01*
G37*
D18*
G01*
X5102859Y3708400D03*
G36*
X5946140Y3797300D02*
G01*
X6149340Y3797300D01*
X6149340Y3594100D01*
X5946140Y3594100D01*
G37*
G01*
X6398259Y3695700D03*
G36*
X6974840Y3784600D02*
G01*
X7178040Y3784600D01*
X7178040Y3581400D01*
X6974840Y3581400D01*
G37*
G01*
X7426959Y3683000D03*
G36*
X8740140Y3797300D02*
G01*
X8943340Y3797300D01*
X8943340Y3594100D01*
X8740140Y3594100D01*
G37*
G01*
X9192259Y3695700D03*
D19*
G01*
X8270900Y5248198D03*
G01*
X8470900Y4648200D03*
G01*
X9690887Y4648200D03*
G01*
X9690887Y5848197D03*
G01*
X8470900Y5848197D03*
D20*
G01*
X6413500Y6774865D03*
G01*
X6415303Y5774867D03*
G01*
X7086600Y5772734D03*
G01*
X7084796Y6772732D03*
G01*
X5094503Y5177967D03*
G01*
X5092700Y6177965D03*
D21*
G01*
X3657600Y8432800D03*
D22*
G01*
X3657600Y5765800D03*
G01*
X3657600Y6019800D03*
G01*
X3657600Y6273800D03*
G01*
X3657600Y6527800D03*
G01*
X3657600Y6781800D03*
G01*
X3657600Y7035800D03*
G01*
X3657600Y7289800D03*
G01*
X3657600Y7543800D03*
G01*
X3657600Y7797800D03*
G01*
X3657600Y8051800D03*
D21*
G01*
X3657600Y5130800D03*
D22*
G01*
X3276600Y5080000D03*
G01*
X2006600Y5080000D03*
G01*
X2260600Y5080000D03*
G01*
X2514600Y5080000D03*
G01*
X2768600Y5080000D03*
G01*
X3022600Y5080000D03*
D21*
G01*
X1625600Y5130800D03*
D22*
G01*
X1625600Y5765800D03*
G01*
X1625600Y8051800D03*
G01*
X1625600Y7797800D03*
G01*
X1625600Y7543800D03*
G01*
X1625600Y7289800D03*
G01*
X1625600Y7035800D03*
G01*
X1625600Y6781800D03*
G01*
X1625600Y6527800D03*
G01*
X1625600Y6273800D03*
G01*
X1625600Y6019800D03*
G01*
X1625600Y5765800D03*
D21*
G01*
X1625600Y8432800D03*
D23*
G01*
X5981700Y6959600D03*
G01*
X5562600Y8801100D03*
G01*
X7378700Y7518400D03*
M02*
