G04 MADE WITH FRITZING*
G04 WWW.FRITZING.ORG*
G04 DOUBLE SIDED*
G04 HOLES PLATED*
G04 CONTOUR ON CENTER OF CONTOUR VECTOR*
%ASAXBY*%
%FSLAX23Y23*%
%MOIN*%
%OFA0B0*%
%SFA1.0B1.0*%
%ADD10C,0.148425*%
%ADD11C,0.080000*%
%ADD12C,0.108425*%
%ADD13C,0.160000*%
%ADD14C,0.110000*%
%ADD15C,0.076000*%
%ADD16C,0.085000*%
%ADD17C,0.092000*%
%ADD18C,0.090000*%
%ADD19C,0.072992*%
%ADD20C,0.096614*%
%ADD21C,0.049370*%
%ADD22R,0.092000X0.092000*%
%ADD23R,0.090000X0.090000*%
%ADD24R,0.072992X0.072992*%
%ADD25R,0.001000X0.001000*%
%LNMASK0*%
G90*
G70*
G54D10*
X2639Y2266D03*
X2639Y966D03*
G54D11*
X2489Y2286D03*
X2389Y2286D03*
X2289Y2286D03*
X2189Y2286D03*
X2089Y2286D03*
X1989Y2286D03*
X2639Y1116D03*
X2639Y1216D03*
X2639Y1316D03*
X2639Y1416D03*
X2639Y1516D03*
X2639Y1616D03*
X2639Y1716D03*
X2639Y1816D03*
X2639Y1916D03*
G54D10*
X1839Y966D03*
G54D11*
X2639Y2016D03*
G54D10*
X1839Y2266D03*
G54D11*
X1839Y2016D03*
X1839Y1916D03*
X1839Y1816D03*
X1839Y1716D03*
X1839Y1616D03*
X1839Y1516D03*
X1839Y1416D03*
X1839Y1316D03*
X1839Y1216D03*
X1839Y1116D03*
X3139Y1316D03*
G54D12*
X3339Y2331D03*
G54D13*
X3889Y566D03*
G54D12*
X3537Y2331D03*
G54D14*
X3739Y2331D03*
G54D15*
X3799Y876D03*
G54D11*
X3139Y1516D03*
X3939Y716D03*
X3139Y1116D03*
X3939Y816D03*
X3939Y916D03*
X3939Y1016D03*
X3939Y1116D03*
X3939Y1216D03*
X3939Y1316D03*
X3139Y1616D03*
X3939Y1416D03*
X3139Y1416D03*
X3939Y1516D03*
X3139Y1216D03*
X3939Y1616D03*
G54D13*
X3189Y566D03*
G54D11*
X3939Y1716D03*
X3939Y1816D03*
X3939Y1916D03*
X3939Y2016D03*
X3939Y2116D03*
X3939Y2216D03*
X3139Y2216D03*
X3139Y2116D03*
X3139Y2016D03*
X3139Y1916D03*
X3139Y1816D03*
X3139Y1716D03*
X4139Y1316D03*
G54D12*
X4339Y2331D03*
G54D13*
X4889Y566D03*
G54D12*
X4537Y2331D03*
G54D14*
X4739Y2331D03*
G54D15*
X4799Y876D03*
G54D11*
X4139Y1516D03*
X4939Y716D03*
X4139Y1116D03*
X4939Y816D03*
X4939Y916D03*
X4939Y1016D03*
X4939Y1116D03*
X4939Y1216D03*
X4939Y1316D03*
X4139Y1616D03*
X4939Y1416D03*
X4139Y1416D03*
X4939Y1516D03*
X4139Y1216D03*
X4939Y1616D03*
G54D13*
X4189Y566D03*
G54D11*
X4939Y1716D03*
X4939Y1816D03*
X4939Y1916D03*
X4939Y2016D03*
X4939Y2116D03*
X4939Y2216D03*
X4139Y2216D03*
X4139Y2116D03*
X4139Y2016D03*
X4139Y1916D03*
X4139Y1816D03*
X4139Y1716D03*
G54D16*
X1339Y2516D03*
X1339Y2116D03*
X1339Y1816D03*
X1339Y1416D03*
X1339Y1216D03*
X1339Y816D03*
X1339Y216D03*
X1339Y616D03*
G54D17*
X539Y2116D03*
X837Y2116D03*
X539Y1716D03*
X837Y1716D03*
X539Y1416D03*
X837Y1416D03*
X539Y1016D03*
X837Y1016D03*
G54D18*
X139Y1916D03*
X139Y2054D03*
X139Y1616D03*
X139Y1754D03*
X139Y1316D03*
X139Y1454D03*
X139Y1016D03*
X139Y1154D03*
X139Y716D03*
X139Y854D03*
G54D19*
X1939Y418D03*
X1939Y516D03*
X2539Y418D03*
X2539Y516D03*
G54D20*
X5139Y116D03*
X5139Y2616D03*
X139Y2616D03*
X139Y116D03*
X2739Y116D03*
X2739Y2616D03*
G54D21*
X2239Y214D03*
X2341Y418D03*
X2341Y1617D03*
X2239Y1418D03*
X2438Y617D03*
X2438Y1515D03*
X2938Y316D03*
X2137Y316D03*
X3540Y214D03*
G54D22*
X538Y2116D03*
X538Y1716D03*
X538Y1416D03*
X538Y1016D03*
G54D23*
X139Y1916D03*
X139Y1616D03*
X139Y1316D03*
X139Y1016D03*
X139Y716D03*
G54D24*
X1939Y418D03*
X2539Y418D03*
G54D25*
X3696Y2423D02*
X3780Y2423D01*
X4696Y2423D02*
X4780Y2423D01*
X3296Y2422D02*
X3380Y2422D01*
X3494Y2422D02*
X3578Y2422D01*
X3696Y2422D02*
X3780Y2422D01*
X4296Y2422D02*
X4380Y2422D01*
X4494Y2422D02*
X4578Y2422D01*
X4696Y2422D02*
X4780Y2422D01*
X3296Y2421D02*
X3380Y2421D01*
X3494Y2421D02*
X3578Y2421D01*
X3696Y2421D02*
X3780Y2421D01*
X4296Y2421D02*
X4380Y2421D01*
X4494Y2421D02*
X4578Y2421D01*
X4696Y2421D02*
X4780Y2421D01*
X3296Y2420D02*
X3380Y2420D01*
X3494Y2420D02*
X3578Y2420D01*
X3696Y2420D02*
X3780Y2420D01*
X4296Y2420D02*
X4380Y2420D01*
X4494Y2420D02*
X4578Y2420D01*
X4696Y2420D02*
X4780Y2420D01*
X3296Y2419D02*
X3380Y2419D01*
X3494Y2419D02*
X3578Y2419D01*
X3696Y2419D02*
X3780Y2419D01*
X4296Y2419D02*
X4380Y2419D01*
X4494Y2419D02*
X4578Y2419D01*
X4696Y2419D02*
X4780Y2419D01*
X3296Y2418D02*
X3380Y2418D01*
X3494Y2418D02*
X3578Y2418D01*
X3696Y2418D02*
X3780Y2418D01*
X4296Y2418D02*
X4380Y2418D01*
X4494Y2418D02*
X4578Y2418D01*
X4696Y2418D02*
X4780Y2418D01*
X3296Y2417D02*
X3380Y2417D01*
X3494Y2417D02*
X3578Y2417D01*
X3696Y2417D02*
X3780Y2417D01*
X4296Y2417D02*
X4380Y2417D01*
X4494Y2417D02*
X4578Y2417D01*
X4696Y2417D02*
X4780Y2417D01*
X3296Y2416D02*
X3380Y2416D01*
X3494Y2416D02*
X3578Y2416D01*
X3696Y2416D02*
X3780Y2416D01*
X4296Y2416D02*
X4380Y2416D01*
X4494Y2416D02*
X4578Y2416D01*
X4696Y2416D02*
X4780Y2416D01*
X3296Y2415D02*
X3380Y2415D01*
X3494Y2415D02*
X3578Y2415D01*
X3696Y2415D02*
X3780Y2415D01*
X4296Y2415D02*
X4380Y2415D01*
X4494Y2415D02*
X4578Y2415D01*
X4696Y2415D02*
X4780Y2415D01*
X3296Y2414D02*
X3380Y2414D01*
X3494Y2414D02*
X3578Y2414D01*
X3696Y2414D02*
X3780Y2414D01*
X4296Y2414D02*
X4380Y2414D01*
X4494Y2414D02*
X4578Y2414D01*
X4696Y2414D02*
X4780Y2414D01*
X3296Y2413D02*
X3380Y2413D01*
X3494Y2413D02*
X3578Y2413D01*
X3696Y2413D02*
X3780Y2413D01*
X4296Y2413D02*
X4380Y2413D01*
X4494Y2413D02*
X4578Y2413D01*
X4696Y2413D02*
X4780Y2413D01*
X3296Y2412D02*
X3380Y2412D01*
X3494Y2412D02*
X3578Y2412D01*
X3696Y2412D02*
X3780Y2412D01*
X4296Y2412D02*
X4380Y2412D01*
X4494Y2412D02*
X4578Y2412D01*
X4696Y2412D02*
X4780Y2412D01*
X3296Y2411D02*
X3380Y2411D01*
X3494Y2411D02*
X3578Y2411D01*
X3696Y2411D02*
X3780Y2411D01*
X4296Y2411D02*
X4380Y2411D01*
X4494Y2411D02*
X4578Y2411D01*
X4696Y2411D02*
X4780Y2411D01*
X3296Y2410D02*
X3380Y2410D01*
X3494Y2410D02*
X3578Y2410D01*
X3696Y2410D02*
X3780Y2410D01*
X4296Y2410D02*
X4380Y2410D01*
X4494Y2410D02*
X4578Y2410D01*
X4696Y2410D02*
X4780Y2410D01*
X3296Y2409D02*
X3380Y2409D01*
X3494Y2409D02*
X3578Y2409D01*
X3696Y2409D02*
X3780Y2409D01*
X4296Y2409D02*
X4380Y2409D01*
X4494Y2409D02*
X4578Y2409D01*
X4696Y2409D02*
X4780Y2409D01*
X3296Y2408D02*
X3380Y2408D01*
X3494Y2408D02*
X3578Y2408D01*
X3696Y2408D02*
X3780Y2408D01*
X4296Y2408D02*
X4380Y2408D01*
X4494Y2408D02*
X4578Y2408D01*
X4696Y2408D02*
X4780Y2408D01*
X3296Y2407D02*
X3380Y2407D01*
X3494Y2407D02*
X3578Y2407D01*
X3696Y2407D02*
X3780Y2407D01*
X4296Y2407D02*
X4380Y2407D01*
X4494Y2407D02*
X4578Y2407D01*
X4696Y2407D02*
X4780Y2407D01*
X3296Y2406D02*
X3380Y2406D01*
X3494Y2406D02*
X3578Y2406D01*
X3696Y2406D02*
X3780Y2406D01*
X4296Y2406D02*
X4380Y2406D01*
X4494Y2406D02*
X4578Y2406D01*
X4696Y2406D02*
X4780Y2406D01*
X3296Y2405D02*
X3380Y2405D01*
X3494Y2405D02*
X3578Y2405D01*
X3696Y2405D02*
X3780Y2405D01*
X4296Y2405D02*
X4380Y2405D01*
X4494Y2405D02*
X4578Y2405D01*
X4696Y2405D02*
X4780Y2405D01*
X3296Y2404D02*
X3380Y2404D01*
X3494Y2404D02*
X3578Y2404D01*
X3696Y2404D02*
X3780Y2404D01*
X4296Y2404D02*
X4380Y2404D01*
X4494Y2404D02*
X4578Y2404D01*
X4696Y2404D02*
X4780Y2404D01*
X3296Y2403D02*
X3380Y2403D01*
X3494Y2403D02*
X3578Y2403D01*
X3696Y2403D02*
X3780Y2403D01*
X4296Y2403D02*
X4380Y2403D01*
X4494Y2403D02*
X4578Y2403D01*
X4696Y2403D02*
X4780Y2403D01*
X3296Y2402D02*
X3380Y2402D01*
X3494Y2402D02*
X3578Y2402D01*
X3696Y2402D02*
X3780Y2402D01*
X4296Y2402D02*
X4380Y2402D01*
X4494Y2402D02*
X4578Y2402D01*
X4696Y2402D02*
X4780Y2402D01*
X3296Y2401D02*
X3380Y2401D01*
X3494Y2401D02*
X3578Y2401D01*
X3696Y2401D02*
X3780Y2401D01*
X4296Y2401D02*
X4380Y2401D01*
X4494Y2401D02*
X4578Y2401D01*
X4696Y2401D02*
X4780Y2401D01*
X3296Y2400D02*
X3380Y2400D01*
X3494Y2400D02*
X3578Y2400D01*
X3696Y2400D02*
X3780Y2400D01*
X4296Y2400D02*
X4380Y2400D01*
X4494Y2400D02*
X4578Y2400D01*
X4696Y2400D02*
X4780Y2400D01*
X3296Y2399D02*
X3380Y2399D01*
X3494Y2399D02*
X3578Y2399D01*
X3696Y2399D02*
X3780Y2399D01*
X4296Y2399D02*
X4380Y2399D01*
X4494Y2399D02*
X4578Y2399D01*
X4696Y2399D02*
X4780Y2399D01*
X3296Y2398D02*
X3380Y2398D01*
X3494Y2398D02*
X3578Y2398D01*
X3696Y2398D02*
X3780Y2398D01*
X4296Y2398D02*
X4380Y2398D01*
X4494Y2398D02*
X4578Y2398D01*
X4696Y2398D02*
X4780Y2398D01*
X3296Y2397D02*
X3380Y2397D01*
X3494Y2397D02*
X3578Y2397D01*
X3696Y2397D02*
X3780Y2397D01*
X4296Y2397D02*
X4380Y2397D01*
X4494Y2397D02*
X4578Y2397D01*
X4696Y2397D02*
X4780Y2397D01*
X3296Y2396D02*
X3380Y2396D01*
X3494Y2396D02*
X3578Y2396D01*
X3696Y2396D02*
X3780Y2396D01*
X4296Y2396D02*
X4380Y2396D01*
X4494Y2396D02*
X4578Y2396D01*
X4696Y2396D02*
X4780Y2396D01*
X3296Y2395D02*
X3380Y2395D01*
X3494Y2395D02*
X3578Y2395D01*
X3696Y2395D02*
X3780Y2395D01*
X4296Y2395D02*
X4380Y2395D01*
X4494Y2395D02*
X4578Y2395D01*
X4696Y2395D02*
X4780Y2395D01*
X3296Y2394D02*
X3380Y2394D01*
X3494Y2394D02*
X3578Y2394D01*
X3696Y2394D02*
X3780Y2394D01*
X4296Y2394D02*
X4380Y2394D01*
X4494Y2394D02*
X4578Y2394D01*
X4696Y2394D02*
X4780Y2394D01*
X3296Y2393D02*
X3380Y2393D01*
X3494Y2393D02*
X3578Y2393D01*
X3696Y2393D02*
X3780Y2393D01*
X4296Y2393D02*
X4380Y2393D01*
X4494Y2393D02*
X4578Y2393D01*
X4696Y2393D02*
X4780Y2393D01*
X3296Y2392D02*
X3380Y2392D01*
X3494Y2392D02*
X3578Y2392D01*
X3696Y2392D02*
X3780Y2392D01*
X4296Y2392D02*
X4380Y2392D01*
X4494Y2392D02*
X4578Y2392D01*
X4696Y2392D02*
X4780Y2392D01*
X3296Y2391D02*
X3380Y2391D01*
X3494Y2391D02*
X3578Y2391D01*
X3696Y2391D02*
X3780Y2391D01*
X4296Y2391D02*
X4380Y2391D01*
X4494Y2391D02*
X4578Y2391D01*
X4696Y2391D02*
X4780Y2391D01*
X3296Y2390D02*
X3380Y2390D01*
X3494Y2390D02*
X3578Y2390D01*
X3696Y2390D02*
X3780Y2390D01*
X4296Y2390D02*
X4380Y2390D01*
X4494Y2390D02*
X4578Y2390D01*
X4696Y2390D02*
X4780Y2390D01*
X3296Y2389D02*
X3380Y2389D01*
X3494Y2389D02*
X3578Y2389D01*
X3696Y2389D02*
X3780Y2389D01*
X4296Y2389D02*
X4380Y2389D01*
X4494Y2389D02*
X4578Y2389D01*
X4696Y2389D02*
X4780Y2389D01*
X3296Y2388D02*
X3380Y2388D01*
X3494Y2388D02*
X3578Y2388D01*
X3696Y2388D02*
X3780Y2388D01*
X4296Y2388D02*
X4380Y2388D01*
X4494Y2388D02*
X4578Y2388D01*
X4696Y2388D02*
X4780Y2388D01*
X3296Y2387D02*
X3380Y2387D01*
X3494Y2387D02*
X3578Y2387D01*
X3696Y2387D02*
X3780Y2387D01*
X4296Y2387D02*
X4380Y2387D01*
X4494Y2387D02*
X4578Y2387D01*
X4696Y2387D02*
X4780Y2387D01*
X3296Y2386D02*
X3380Y2386D01*
X3494Y2386D02*
X3578Y2386D01*
X3696Y2386D02*
X3780Y2386D01*
X4296Y2386D02*
X4380Y2386D01*
X4494Y2386D02*
X4578Y2386D01*
X4696Y2386D02*
X4780Y2386D01*
X3296Y2385D02*
X3380Y2385D01*
X3494Y2385D02*
X3578Y2385D01*
X3696Y2385D02*
X3780Y2385D01*
X4296Y2385D02*
X4380Y2385D01*
X4494Y2385D02*
X4578Y2385D01*
X4696Y2385D02*
X4780Y2385D01*
X3296Y2384D02*
X3380Y2384D01*
X3494Y2384D02*
X3578Y2384D01*
X3696Y2384D02*
X3780Y2384D01*
X4296Y2384D02*
X4380Y2384D01*
X4494Y2384D02*
X4578Y2384D01*
X4696Y2384D02*
X4780Y2384D01*
X3296Y2383D02*
X3380Y2383D01*
X3494Y2383D02*
X3578Y2383D01*
X3696Y2383D02*
X3780Y2383D01*
X4296Y2383D02*
X4380Y2383D01*
X4494Y2383D02*
X4578Y2383D01*
X4696Y2383D02*
X4780Y2383D01*
X3296Y2382D02*
X3380Y2382D01*
X3494Y2382D02*
X3578Y2382D01*
X3696Y2382D02*
X3780Y2382D01*
X4296Y2382D02*
X4380Y2382D01*
X4494Y2382D02*
X4578Y2382D01*
X4696Y2382D02*
X4780Y2382D01*
X3296Y2381D02*
X3380Y2381D01*
X3494Y2381D02*
X3578Y2381D01*
X3696Y2381D02*
X3780Y2381D01*
X4296Y2381D02*
X4380Y2381D01*
X4494Y2381D02*
X4578Y2381D01*
X4696Y2381D02*
X4780Y2381D01*
X3296Y2380D02*
X3380Y2380D01*
X3494Y2380D02*
X3578Y2380D01*
X3696Y2380D02*
X3780Y2380D01*
X4296Y2380D02*
X4380Y2380D01*
X4494Y2380D02*
X4578Y2380D01*
X4696Y2380D02*
X4780Y2380D01*
X3296Y2379D02*
X3380Y2379D01*
X3494Y2379D02*
X3578Y2379D01*
X3696Y2379D02*
X3780Y2379D01*
X4296Y2379D02*
X4380Y2379D01*
X4494Y2379D02*
X4578Y2379D01*
X4696Y2379D02*
X4780Y2379D01*
X3296Y2378D02*
X3380Y2378D01*
X3494Y2378D02*
X3578Y2378D01*
X3696Y2378D02*
X3780Y2378D01*
X4296Y2378D02*
X4380Y2378D01*
X4494Y2378D02*
X4578Y2378D01*
X4696Y2378D02*
X4780Y2378D01*
X3296Y2377D02*
X3380Y2377D01*
X3494Y2377D02*
X3578Y2377D01*
X3696Y2377D02*
X3780Y2377D01*
X4296Y2377D02*
X4380Y2377D01*
X4494Y2377D02*
X4578Y2377D01*
X4696Y2377D02*
X4780Y2377D01*
X3296Y2376D02*
X3380Y2376D01*
X3494Y2376D02*
X3578Y2376D01*
X3696Y2376D02*
X3780Y2376D01*
X4296Y2376D02*
X4380Y2376D01*
X4494Y2376D02*
X4578Y2376D01*
X4696Y2376D02*
X4780Y2376D01*
X3296Y2375D02*
X3380Y2375D01*
X3494Y2375D02*
X3578Y2375D01*
X3696Y2375D02*
X3780Y2375D01*
X4296Y2375D02*
X4380Y2375D01*
X4494Y2375D02*
X4578Y2375D01*
X4696Y2375D02*
X4780Y2375D01*
X3296Y2374D02*
X3380Y2374D01*
X3494Y2374D02*
X3578Y2374D01*
X3696Y2374D02*
X3780Y2374D01*
X4296Y2374D02*
X4380Y2374D01*
X4494Y2374D02*
X4578Y2374D01*
X4696Y2374D02*
X4780Y2374D01*
X3296Y2373D02*
X3380Y2373D01*
X3494Y2373D02*
X3578Y2373D01*
X3696Y2373D02*
X3780Y2373D01*
X4296Y2373D02*
X4380Y2373D01*
X4494Y2373D02*
X4578Y2373D01*
X4696Y2373D02*
X4780Y2373D01*
X3296Y2372D02*
X3380Y2372D01*
X3494Y2372D02*
X3578Y2372D01*
X3696Y2372D02*
X3780Y2372D01*
X4296Y2372D02*
X4380Y2372D01*
X4494Y2372D02*
X4578Y2372D01*
X4696Y2372D02*
X4780Y2372D01*
X3296Y2371D02*
X3380Y2371D01*
X3494Y2371D02*
X3578Y2371D01*
X3696Y2371D02*
X3780Y2371D01*
X4296Y2371D02*
X4380Y2371D01*
X4494Y2371D02*
X4578Y2371D01*
X4696Y2371D02*
X4780Y2371D01*
X3296Y2370D02*
X3380Y2370D01*
X3494Y2370D02*
X3578Y2370D01*
X3696Y2370D02*
X3780Y2370D01*
X4296Y2370D02*
X4380Y2370D01*
X4494Y2370D02*
X4578Y2370D01*
X4696Y2370D02*
X4780Y2370D01*
X3296Y2369D02*
X3380Y2369D01*
X3494Y2369D02*
X3578Y2369D01*
X3696Y2369D02*
X3780Y2369D01*
X4296Y2369D02*
X4380Y2369D01*
X4494Y2369D02*
X4578Y2369D01*
X4696Y2369D02*
X4780Y2369D01*
X3296Y2368D02*
X3380Y2368D01*
X3494Y2368D02*
X3578Y2368D01*
X3696Y2368D02*
X3780Y2368D01*
X4296Y2368D02*
X4380Y2368D01*
X4494Y2368D02*
X4578Y2368D01*
X4696Y2368D02*
X4780Y2368D01*
X3296Y2367D02*
X3380Y2367D01*
X3494Y2367D02*
X3578Y2367D01*
X3696Y2367D02*
X3780Y2367D01*
X4296Y2367D02*
X4380Y2367D01*
X4494Y2367D02*
X4578Y2367D01*
X4696Y2367D02*
X4780Y2367D01*
X3296Y2366D02*
X3380Y2366D01*
X3494Y2366D02*
X3578Y2366D01*
X3696Y2366D02*
X3780Y2366D01*
X4296Y2366D02*
X4380Y2366D01*
X4494Y2366D02*
X4578Y2366D01*
X4696Y2366D02*
X4780Y2366D01*
X3296Y2365D02*
X3380Y2365D01*
X3494Y2365D02*
X3578Y2365D01*
X3696Y2365D02*
X3780Y2365D01*
X4296Y2365D02*
X4380Y2365D01*
X4494Y2365D02*
X4578Y2365D01*
X4696Y2365D02*
X4780Y2365D01*
X3296Y2364D02*
X3380Y2364D01*
X3494Y2364D02*
X3578Y2364D01*
X3696Y2364D02*
X3733Y2364D01*
X3743Y2364D02*
X3780Y2364D01*
X4296Y2364D02*
X4380Y2364D01*
X4494Y2364D02*
X4578Y2364D01*
X4696Y2364D02*
X4733Y2364D01*
X4743Y2364D02*
X4780Y2364D01*
X3296Y2363D02*
X3330Y2363D01*
X3347Y2363D02*
X3380Y2363D01*
X3494Y2363D02*
X3528Y2363D01*
X3545Y2363D02*
X3578Y2363D01*
X3696Y2363D02*
X3728Y2363D01*
X3748Y2363D02*
X3780Y2363D01*
X4296Y2363D02*
X4329Y2363D01*
X4347Y2363D02*
X4380Y2363D01*
X4494Y2363D02*
X4527Y2363D01*
X4545Y2363D02*
X4578Y2363D01*
X4696Y2363D02*
X4728Y2363D01*
X4748Y2363D02*
X4780Y2363D01*
X3296Y2362D02*
X3326Y2362D01*
X3350Y2362D02*
X3380Y2362D01*
X3494Y2362D02*
X3524Y2362D01*
X3548Y2362D02*
X3578Y2362D01*
X3696Y2362D02*
X3725Y2362D01*
X3751Y2362D02*
X3780Y2362D01*
X4296Y2362D02*
X4326Y2362D01*
X4350Y2362D02*
X4380Y2362D01*
X4494Y2362D02*
X4524Y2362D01*
X4548Y2362D02*
X4578Y2362D01*
X4696Y2362D02*
X4725Y2362D01*
X4751Y2362D02*
X4780Y2362D01*
X3296Y2361D02*
X3324Y2361D01*
X3352Y2361D02*
X3380Y2361D01*
X3494Y2361D02*
X3522Y2361D01*
X3550Y2361D02*
X3578Y2361D01*
X3696Y2361D02*
X3723Y2361D01*
X3753Y2361D02*
X3780Y2361D01*
X4296Y2361D02*
X4324Y2361D01*
X4352Y2361D02*
X4380Y2361D01*
X4494Y2361D02*
X4522Y2361D01*
X4550Y2361D02*
X4578Y2361D01*
X4696Y2361D02*
X4723Y2361D01*
X4753Y2361D02*
X4780Y2361D01*
X3296Y2360D02*
X3322Y2360D01*
X3354Y2360D02*
X3380Y2360D01*
X3494Y2360D02*
X3520Y2360D01*
X3552Y2360D02*
X3578Y2360D01*
X3696Y2360D02*
X3721Y2360D01*
X3755Y2360D02*
X3780Y2360D01*
X4296Y2360D02*
X4322Y2360D01*
X4354Y2360D02*
X4380Y2360D01*
X4494Y2360D02*
X4520Y2360D01*
X4552Y2360D02*
X4578Y2360D01*
X4696Y2360D02*
X4721Y2360D01*
X4755Y2360D02*
X4780Y2360D01*
X3296Y2359D02*
X3320Y2359D01*
X3356Y2359D02*
X3380Y2359D01*
X3494Y2359D02*
X3518Y2359D01*
X3554Y2359D02*
X3578Y2359D01*
X3696Y2359D02*
X3720Y2359D01*
X3757Y2359D02*
X3780Y2359D01*
X4296Y2359D02*
X4320Y2359D01*
X4356Y2359D02*
X4380Y2359D01*
X4494Y2359D02*
X4518Y2359D01*
X4554Y2359D02*
X4578Y2359D01*
X4696Y2359D02*
X4720Y2359D01*
X4756Y2359D02*
X4780Y2359D01*
X3296Y2358D02*
X3319Y2358D01*
X3358Y2358D02*
X3380Y2358D01*
X3494Y2358D02*
X3517Y2358D01*
X3556Y2358D02*
X3578Y2358D01*
X3696Y2358D02*
X3718Y2358D01*
X3758Y2358D02*
X3780Y2358D01*
X4296Y2358D02*
X4319Y2358D01*
X4357Y2358D02*
X4380Y2358D01*
X4494Y2358D02*
X4517Y2358D01*
X4555Y2358D02*
X4578Y2358D01*
X4696Y2358D02*
X4718Y2358D01*
X4758Y2358D02*
X4780Y2358D01*
X3296Y2357D02*
X3317Y2357D01*
X3359Y2357D02*
X3380Y2357D01*
X3494Y2357D02*
X3515Y2357D01*
X3557Y2357D02*
X3578Y2357D01*
X3696Y2357D02*
X3717Y2357D01*
X3759Y2357D02*
X3780Y2357D01*
X4296Y2357D02*
X4317Y2357D01*
X4359Y2357D02*
X4380Y2357D01*
X4494Y2357D02*
X4515Y2357D01*
X4557Y2357D02*
X4578Y2357D01*
X4696Y2357D02*
X4717Y2357D01*
X4759Y2357D02*
X4780Y2357D01*
X3296Y2356D02*
X3316Y2356D01*
X3360Y2356D02*
X3380Y2356D01*
X3494Y2356D02*
X3514Y2356D01*
X3558Y2356D02*
X3578Y2356D01*
X3696Y2356D02*
X3716Y2356D01*
X3760Y2356D02*
X3780Y2356D01*
X4296Y2356D02*
X4316Y2356D01*
X4360Y2356D02*
X4380Y2356D01*
X4494Y2356D02*
X4514Y2356D01*
X4558Y2356D02*
X4578Y2356D01*
X4696Y2356D02*
X4716Y2356D01*
X4760Y2356D02*
X4780Y2356D01*
X3296Y2355D02*
X3315Y2355D01*
X3361Y2355D02*
X3380Y2355D01*
X3494Y2355D02*
X3513Y2355D01*
X3559Y2355D02*
X3578Y2355D01*
X3696Y2355D02*
X3715Y2355D01*
X3761Y2355D02*
X3780Y2355D01*
X4296Y2355D02*
X4315Y2355D01*
X4361Y2355D02*
X4380Y2355D01*
X4494Y2355D02*
X4513Y2355D01*
X4559Y2355D02*
X4578Y2355D01*
X4696Y2355D02*
X4715Y2355D01*
X4761Y2355D02*
X4780Y2355D01*
X3296Y2354D02*
X3314Y2354D01*
X3362Y2354D02*
X3380Y2354D01*
X3494Y2354D02*
X3512Y2354D01*
X3560Y2354D02*
X3578Y2354D01*
X3696Y2354D02*
X3714Y2354D01*
X3762Y2354D02*
X3780Y2354D01*
X4296Y2354D02*
X4314Y2354D01*
X4362Y2354D02*
X4380Y2354D01*
X4494Y2354D02*
X4512Y2354D01*
X4560Y2354D02*
X4578Y2354D01*
X4696Y2354D02*
X4714Y2354D01*
X4762Y2354D02*
X4780Y2354D01*
X3296Y2353D02*
X3313Y2353D01*
X3363Y2353D02*
X3380Y2353D01*
X3494Y2353D02*
X3511Y2353D01*
X3561Y2353D02*
X3578Y2353D01*
X3696Y2353D02*
X3713Y2353D01*
X3763Y2353D02*
X3780Y2353D01*
X4296Y2353D02*
X4313Y2353D01*
X4363Y2353D02*
X4380Y2353D01*
X4494Y2353D02*
X4511Y2353D01*
X4561Y2353D02*
X4578Y2353D01*
X4696Y2353D02*
X4713Y2353D01*
X4763Y2353D02*
X4780Y2353D01*
X3296Y2352D02*
X3312Y2352D01*
X3364Y2352D02*
X3380Y2352D01*
X3494Y2352D02*
X3510Y2352D01*
X3562Y2352D02*
X3578Y2352D01*
X3696Y2352D02*
X3712Y2352D01*
X3764Y2352D02*
X3780Y2352D01*
X4296Y2352D02*
X4312Y2352D01*
X4364Y2352D02*
X4380Y2352D01*
X4494Y2352D02*
X4510Y2352D01*
X4562Y2352D02*
X4578Y2352D01*
X4696Y2352D02*
X4712Y2352D01*
X4764Y2352D02*
X4780Y2352D01*
X3296Y2351D02*
X3312Y2351D01*
X3365Y2351D02*
X3380Y2351D01*
X3494Y2351D02*
X3510Y2351D01*
X3563Y2351D02*
X3578Y2351D01*
X3696Y2351D02*
X3711Y2351D01*
X3765Y2351D02*
X3780Y2351D01*
X4296Y2351D02*
X4312Y2351D01*
X4364Y2351D02*
X4380Y2351D01*
X4494Y2351D02*
X4510Y2351D01*
X4563Y2351D02*
X4578Y2351D01*
X4696Y2351D02*
X4711Y2351D01*
X4765Y2351D02*
X4780Y2351D01*
X3296Y2350D02*
X3311Y2350D01*
X3365Y2350D02*
X3380Y2350D01*
X3494Y2350D02*
X3509Y2350D01*
X3563Y2350D02*
X3578Y2350D01*
X3696Y2350D02*
X3710Y2350D01*
X3766Y2350D02*
X3780Y2350D01*
X4296Y2350D02*
X4311Y2350D01*
X4365Y2350D02*
X4380Y2350D01*
X4494Y2350D02*
X4509Y2350D01*
X4563Y2350D02*
X4578Y2350D01*
X4696Y2350D02*
X4710Y2350D01*
X4766Y2350D02*
X4780Y2350D01*
X3296Y2349D02*
X3310Y2349D01*
X3366Y2349D02*
X3380Y2349D01*
X3494Y2349D02*
X3508Y2349D01*
X3564Y2349D02*
X3578Y2349D01*
X3696Y2349D02*
X3710Y2349D01*
X3766Y2349D02*
X3780Y2349D01*
X4296Y2349D02*
X4310Y2349D01*
X4366Y2349D02*
X4380Y2349D01*
X4494Y2349D02*
X4508Y2349D01*
X4564Y2349D02*
X4578Y2349D01*
X4696Y2349D02*
X4710Y2349D01*
X4766Y2349D02*
X4780Y2349D01*
X3296Y2348D02*
X3310Y2348D01*
X3367Y2348D02*
X3380Y2348D01*
X3494Y2348D02*
X3508Y2348D01*
X3565Y2348D02*
X3578Y2348D01*
X3696Y2348D02*
X3709Y2348D01*
X3767Y2348D02*
X3780Y2348D01*
X4296Y2348D02*
X4310Y2348D01*
X4366Y2348D02*
X4380Y2348D01*
X4494Y2348D02*
X4508Y2348D01*
X4565Y2348D02*
X4578Y2348D01*
X4696Y2348D02*
X4709Y2348D01*
X4767Y2348D02*
X4780Y2348D01*
X3296Y2347D02*
X3309Y2347D01*
X3367Y2347D02*
X3380Y2347D01*
X3494Y2347D02*
X3507Y2347D01*
X3565Y2347D02*
X3578Y2347D01*
X3696Y2347D02*
X3709Y2347D01*
X3768Y2347D02*
X3780Y2347D01*
X4296Y2347D02*
X4309Y2347D01*
X4367Y2347D02*
X4380Y2347D01*
X4494Y2347D02*
X4507Y2347D01*
X4565Y2347D02*
X4578Y2347D01*
X4696Y2347D02*
X4708Y2347D01*
X4767Y2347D02*
X4780Y2347D01*
X3296Y2346D02*
X3309Y2346D01*
X3368Y2346D02*
X3380Y2346D01*
X3494Y2346D02*
X3507Y2346D01*
X3566Y2346D02*
X3578Y2346D01*
X3696Y2346D02*
X3708Y2346D01*
X3768Y2346D02*
X3780Y2346D01*
X4296Y2346D02*
X4308Y2346D01*
X4368Y2346D02*
X4380Y2346D01*
X4494Y2346D02*
X4506Y2346D01*
X4566Y2346D02*
X4578Y2346D01*
X4696Y2346D02*
X4708Y2346D01*
X4768Y2346D02*
X4780Y2346D01*
X3296Y2345D02*
X3308Y2345D01*
X3368Y2345D02*
X3380Y2345D01*
X3494Y2345D02*
X3506Y2345D01*
X3566Y2345D02*
X3578Y2345D01*
X3696Y2345D02*
X3708Y2345D01*
X3769Y2345D02*
X3780Y2345D01*
X4296Y2345D02*
X4308Y2345D01*
X4368Y2345D02*
X4380Y2345D01*
X4494Y2345D02*
X4506Y2345D01*
X4566Y2345D02*
X4578Y2345D01*
X4696Y2345D02*
X4708Y2345D01*
X4768Y2345D02*
X4780Y2345D01*
X3296Y2344D02*
X3308Y2344D01*
X3369Y2344D02*
X3380Y2344D01*
X3494Y2344D02*
X3506Y2344D01*
X3567Y2344D02*
X3578Y2344D01*
X3696Y2344D02*
X3707Y2344D01*
X3769Y2344D02*
X3780Y2344D01*
X4296Y2344D02*
X4307Y2344D01*
X4369Y2344D02*
X4380Y2344D01*
X4494Y2344D02*
X4506Y2344D01*
X4567Y2344D02*
X4578Y2344D01*
X4696Y2344D02*
X4707Y2344D01*
X4769Y2344D02*
X4780Y2344D01*
X3296Y2343D02*
X3307Y2343D01*
X3369Y2343D02*
X3380Y2343D01*
X3494Y2343D02*
X3505Y2343D01*
X3567Y2343D02*
X3578Y2343D01*
X3696Y2343D02*
X3707Y2343D01*
X3769Y2343D02*
X3780Y2343D01*
X4296Y2343D02*
X4307Y2343D01*
X4369Y2343D02*
X4380Y2343D01*
X4494Y2343D02*
X4505Y2343D01*
X4567Y2343D02*
X4578Y2343D01*
X4696Y2343D02*
X4707Y2343D01*
X4769Y2343D02*
X4780Y2343D01*
X3296Y2342D02*
X3307Y2342D01*
X3369Y2342D02*
X3380Y2342D01*
X3494Y2342D02*
X3505Y2342D01*
X3567Y2342D02*
X3578Y2342D01*
X3696Y2342D02*
X3706Y2342D01*
X3770Y2342D02*
X3780Y2342D01*
X4296Y2342D02*
X4307Y2342D01*
X4369Y2342D02*
X4380Y2342D01*
X4494Y2342D02*
X4505Y2342D01*
X4567Y2342D02*
X4578Y2342D01*
X4696Y2342D02*
X4706Y2342D01*
X4770Y2342D02*
X4780Y2342D01*
X3296Y2341D02*
X3306Y2341D01*
X3370Y2341D02*
X3380Y2341D01*
X3494Y2341D02*
X3504Y2341D01*
X3568Y2341D02*
X3578Y2341D01*
X3696Y2341D02*
X3706Y2341D01*
X3770Y2341D02*
X3780Y2341D01*
X4296Y2341D02*
X4306Y2341D01*
X4370Y2341D02*
X4380Y2341D01*
X4494Y2341D02*
X4504Y2341D01*
X4568Y2341D02*
X4578Y2341D01*
X4696Y2341D02*
X4706Y2341D01*
X4770Y2341D02*
X4780Y2341D01*
X3296Y2340D02*
X3306Y2340D01*
X3370Y2340D02*
X3380Y2340D01*
X3494Y2340D02*
X3504Y2340D01*
X3568Y2340D02*
X3578Y2340D01*
X3696Y2340D02*
X3706Y2340D01*
X3770Y2340D02*
X3780Y2340D01*
X4296Y2340D02*
X4306Y2340D01*
X4370Y2340D02*
X4380Y2340D01*
X4494Y2340D02*
X4504Y2340D01*
X4568Y2340D02*
X4578Y2340D01*
X4696Y2340D02*
X4706Y2340D01*
X4770Y2340D02*
X4780Y2340D01*
X3296Y2339D02*
X3306Y2339D01*
X3370Y2339D02*
X3380Y2339D01*
X3494Y2339D02*
X3504Y2339D01*
X3568Y2339D02*
X3578Y2339D01*
X3696Y2339D02*
X3706Y2339D01*
X3771Y2339D02*
X3780Y2339D01*
X4296Y2339D02*
X4306Y2339D01*
X4370Y2339D02*
X4380Y2339D01*
X4494Y2339D02*
X4504Y2339D01*
X4568Y2339D02*
X4578Y2339D01*
X4696Y2339D02*
X4706Y2339D01*
X4770Y2339D02*
X4780Y2339D01*
X3296Y2338D02*
X3306Y2338D01*
X3370Y2338D02*
X3380Y2338D01*
X3494Y2338D02*
X3504Y2338D01*
X3568Y2338D02*
X3578Y2338D01*
X3696Y2338D02*
X3705Y2338D01*
X3771Y2338D02*
X3780Y2338D01*
X4296Y2338D02*
X4306Y2338D01*
X4370Y2338D02*
X4380Y2338D01*
X4494Y2338D02*
X4504Y2338D01*
X4568Y2338D02*
X4578Y2338D01*
X4696Y2338D02*
X4705Y2338D01*
X4771Y2338D02*
X4780Y2338D01*
X3296Y2337D02*
X3306Y2337D01*
X3371Y2337D02*
X3380Y2337D01*
X3494Y2337D02*
X3504Y2337D01*
X3569Y2337D02*
X3578Y2337D01*
X3696Y2337D02*
X3705Y2337D01*
X3771Y2337D02*
X3780Y2337D01*
X4296Y2337D02*
X4305Y2337D01*
X4371Y2337D02*
X4380Y2337D01*
X4494Y2337D02*
X4504Y2337D01*
X4569Y2337D02*
X4578Y2337D01*
X4696Y2337D02*
X4705Y2337D01*
X4771Y2337D02*
X4780Y2337D01*
X3296Y2336D02*
X3305Y2336D01*
X3371Y2336D02*
X3380Y2336D01*
X3494Y2336D02*
X3503Y2336D01*
X3569Y2336D02*
X3578Y2336D01*
X3696Y2336D02*
X3705Y2336D01*
X3771Y2336D02*
X3780Y2336D01*
X4296Y2336D02*
X4305Y2336D01*
X4371Y2336D02*
X4380Y2336D01*
X4494Y2336D02*
X4503Y2336D01*
X4569Y2336D02*
X4578Y2336D01*
X4696Y2336D02*
X4705Y2336D01*
X4771Y2336D02*
X4780Y2336D01*
X3296Y2335D02*
X3305Y2335D01*
X3371Y2335D02*
X3380Y2335D01*
X3494Y2335D02*
X3503Y2335D01*
X3569Y2335D02*
X3578Y2335D01*
X3696Y2335D02*
X3705Y2335D01*
X3771Y2335D02*
X3780Y2335D01*
X4296Y2335D02*
X4305Y2335D01*
X4371Y2335D02*
X4380Y2335D01*
X4494Y2335D02*
X4503Y2335D01*
X4569Y2335D02*
X4578Y2335D01*
X4696Y2335D02*
X4705Y2335D01*
X4771Y2335D02*
X4780Y2335D01*
X3296Y2334D02*
X3305Y2334D01*
X3371Y2334D02*
X3380Y2334D01*
X3494Y2334D02*
X3503Y2334D01*
X3569Y2334D02*
X3578Y2334D01*
X3696Y2334D02*
X3705Y2334D01*
X3771Y2334D02*
X3781Y2334D01*
X4296Y2334D02*
X4305Y2334D01*
X4371Y2334D02*
X4380Y2334D01*
X4494Y2334D02*
X4503Y2334D01*
X4569Y2334D02*
X4578Y2334D01*
X4696Y2334D02*
X4705Y2334D01*
X4771Y2334D02*
X4780Y2334D01*
X3296Y2333D02*
X3305Y2333D01*
X3371Y2333D02*
X3380Y2333D01*
X3494Y2333D02*
X3503Y2333D01*
X3569Y2333D02*
X3578Y2333D01*
X3696Y2333D02*
X3705Y2333D01*
X3771Y2333D02*
X3781Y2333D01*
X4296Y2333D02*
X4305Y2333D01*
X4371Y2333D02*
X4380Y2333D01*
X4494Y2333D02*
X4503Y2333D01*
X4569Y2333D02*
X4578Y2333D01*
X4695Y2333D02*
X4705Y2333D01*
X4771Y2333D02*
X4780Y2333D01*
X3296Y2332D02*
X3305Y2332D01*
X3371Y2332D02*
X3380Y2332D01*
X3494Y2332D02*
X3503Y2332D01*
X3569Y2332D02*
X3578Y2332D01*
X3696Y2332D02*
X3705Y2332D01*
X3771Y2332D02*
X3781Y2332D01*
X4296Y2332D02*
X4305Y2332D01*
X4371Y2332D02*
X4380Y2332D01*
X4494Y2332D02*
X4503Y2332D01*
X4569Y2332D02*
X4578Y2332D01*
X4695Y2332D02*
X4705Y2332D01*
X4771Y2332D02*
X4781Y2332D01*
X3296Y2331D02*
X3305Y2331D01*
X3371Y2331D02*
X3380Y2331D01*
X3494Y2331D02*
X3503Y2331D01*
X3569Y2331D02*
X3578Y2331D01*
X3696Y2331D02*
X3705Y2331D01*
X3771Y2331D02*
X3781Y2331D01*
X4296Y2331D02*
X4305Y2331D01*
X4371Y2331D02*
X4380Y2331D01*
X4494Y2331D02*
X4503Y2331D01*
X4569Y2331D02*
X4578Y2331D01*
X4695Y2331D02*
X4705Y2331D01*
X4771Y2331D02*
X4781Y2331D01*
X3296Y2330D02*
X3305Y2330D01*
X3371Y2330D02*
X3380Y2330D01*
X3494Y2330D02*
X3503Y2330D01*
X3569Y2330D02*
X3578Y2330D01*
X3696Y2330D02*
X3705Y2330D01*
X3771Y2330D02*
X3781Y2330D01*
X4296Y2330D02*
X4305Y2330D01*
X4371Y2330D02*
X4380Y2330D01*
X4494Y2330D02*
X4503Y2330D01*
X4569Y2330D02*
X4578Y2330D01*
X4695Y2330D02*
X4705Y2330D01*
X4771Y2330D02*
X4780Y2330D01*
X3296Y2329D02*
X3305Y2329D01*
X3371Y2329D02*
X3380Y2329D01*
X3494Y2329D02*
X3503Y2329D01*
X3569Y2329D02*
X3578Y2329D01*
X3696Y2329D02*
X3705Y2329D01*
X3771Y2329D02*
X3781Y2329D01*
X4296Y2329D02*
X4305Y2329D01*
X4371Y2329D02*
X4380Y2329D01*
X4494Y2329D02*
X4503Y2329D01*
X4569Y2329D02*
X4578Y2329D01*
X4696Y2329D02*
X4705Y2329D01*
X4771Y2329D02*
X4780Y2329D01*
X3296Y2328D02*
X3305Y2328D01*
X3371Y2328D02*
X3380Y2328D01*
X3494Y2328D02*
X3503Y2328D01*
X3569Y2328D02*
X3578Y2328D01*
X3696Y2328D02*
X3705Y2328D01*
X3771Y2328D02*
X3780Y2328D01*
X4296Y2328D02*
X4305Y2328D01*
X4371Y2328D02*
X4380Y2328D01*
X4494Y2328D02*
X4503Y2328D01*
X4569Y2328D02*
X4578Y2328D01*
X4696Y2328D02*
X4705Y2328D01*
X4771Y2328D02*
X4780Y2328D01*
X3296Y2327D02*
X3305Y2327D01*
X3371Y2327D02*
X3380Y2327D01*
X3494Y2327D02*
X3503Y2327D01*
X3569Y2327D02*
X3578Y2327D01*
X3696Y2327D02*
X3705Y2327D01*
X3771Y2327D02*
X3780Y2327D01*
X4296Y2327D02*
X4305Y2327D01*
X4371Y2327D02*
X4380Y2327D01*
X4494Y2327D02*
X4503Y2327D01*
X4569Y2327D02*
X4578Y2327D01*
X4696Y2327D02*
X4705Y2327D01*
X4771Y2327D02*
X4780Y2327D01*
X3296Y2326D02*
X3306Y2326D01*
X3371Y2326D02*
X3380Y2326D01*
X3494Y2326D02*
X3504Y2326D01*
X3569Y2326D02*
X3578Y2326D01*
X3696Y2326D02*
X3705Y2326D01*
X3771Y2326D02*
X3780Y2326D01*
X4296Y2326D02*
X4306Y2326D01*
X4371Y2326D02*
X4380Y2326D01*
X4494Y2326D02*
X4504Y2326D01*
X4569Y2326D02*
X4578Y2326D01*
X4696Y2326D02*
X4705Y2326D01*
X4771Y2326D02*
X4780Y2326D01*
X3296Y2325D02*
X3306Y2325D01*
X3370Y2325D02*
X3380Y2325D01*
X3494Y2325D02*
X3504Y2325D01*
X3568Y2325D02*
X3578Y2325D01*
X3696Y2325D02*
X3705Y2325D01*
X3771Y2325D02*
X3780Y2325D01*
X4296Y2325D02*
X4306Y2325D01*
X4370Y2325D02*
X4380Y2325D01*
X4494Y2325D02*
X4504Y2325D01*
X4568Y2325D02*
X4578Y2325D01*
X4696Y2325D02*
X4705Y2325D01*
X4771Y2325D02*
X4780Y2325D01*
X3296Y2324D02*
X3306Y2324D01*
X3370Y2324D02*
X3380Y2324D01*
X3494Y2324D02*
X3504Y2324D01*
X3568Y2324D02*
X3578Y2324D01*
X3696Y2324D02*
X3706Y2324D01*
X3770Y2324D02*
X3780Y2324D01*
X4296Y2324D02*
X4306Y2324D01*
X4370Y2324D02*
X4380Y2324D01*
X4494Y2324D02*
X4504Y2324D01*
X4568Y2324D02*
X4578Y2324D01*
X4696Y2324D02*
X4706Y2324D01*
X4770Y2324D02*
X4780Y2324D01*
X3296Y2323D02*
X3306Y2323D01*
X3370Y2323D02*
X3380Y2323D01*
X3494Y2323D02*
X3504Y2323D01*
X3568Y2323D02*
X3578Y2323D01*
X3696Y2323D02*
X3706Y2323D01*
X3770Y2323D02*
X3780Y2323D01*
X4296Y2323D02*
X4306Y2323D01*
X4370Y2323D02*
X4380Y2323D01*
X4494Y2323D02*
X4504Y2323D01*
X4568Y2323D02*
X4578Y2323D01*
X4696Y2323D02*
X4706Y2323D01*
X4770Y2323D02*
X4780Y2323D01*
X3296Y2322D02*
X3306Y2322D01*
X3370Y2322D02*
X3380Y2322D01*
X3494Y2322D02*
X3504Y2322D01*
X3568Y2322D02*
X3578Y2322D01*
X3696Y2322D02*
X3706Y2322D01*
X3770Y2322D02*
X3780Y2322D01*
X4296Y2322D02*
X4306Y2322D01*
X4370Y2322D02*
X4380Y2322D01*
X4494Y2322D02*
X4504Y2322D01*
X4568Y2322D02*
X4578Y2322D01*
X4696Y2322D02*
X4706Y2322D01*
X4770Y2322D02*
X4780Y2322D01*
X3296Y2321D02*
X3307Y2321D01*
X3369Y2321D02*
X3380Y2321D01*
X3494Y2321D02*
X3505Y2321D01*
X3567Y2321D02*
X3578Y2321D01*
X3696Y2321D02*
X3706Y2321D01*
X3770Y2321D02*
X3780Y2321D01*
X4296Y2321D02*
X4307Y2321D01*
X4369Y2321D02*
X4380Y2321D01*
X4494Y2321D02*
X4505Y2321D01*
X4567Y2321D02*
X4578Y2321D01*
X4696Y2321D02*
X4706Y2321D01*
X4770Y2321D02*
X4780Y2321D01*
X3296Y2320D02*
X3307Y2320D01*
X3369Y2320D02*
X3380Y2320D01*
X3494Y2320D02*
X3505Y2320D01*
X3567Y2320D02*
X3578Y2320D01*
X3696Y2320D02*
X3707Y2320D01*
X3769Y2320D02*
X3780Y2320D01*
X4296Y2320D02*
X4307Y2320D01*
X4369Y2320D02*
X4380Y2320D01*
X4494Y2320D02*
X4505Y2320D01*
X4567Y2320D02*
X4578Y2320D01*
X4696Y2320D02*
X4707Y2320D01*
X4769Y2320D02*
X4780Y2320D01*
X3296Y2319D02*
X3308Y2319D01*
X3369Y2319D02*
X3380Y2319D01*
X3494Y2319D02*
X3506Y2319D01*
X3567Y2319D02*
X3578Y2319D01*
X3696Y2319D02*
X3707Y2319D01*
X3769Y2319D02*
X3780Y2319D01*
X4296Y2319D02*
X4308Y2319D01*
X4368Y2319D02*
X4380Y2319D01*
X4494Y2319D02*
X4506Y2319D01*
X4567Y2319D02*
X4578Y2319D01*
X4696Y2319D02*
X4707Y2319D01*
X4769Y2319D02*
X4780Y2319D01*
X3296Y2318D02*
X3308Y2318D01*
X3368Y2318D02*
X3380Y2318D01*
X3494Y2318D02*
X3506Y2318D01*
X3566Y2318D02*
X3578Y2318D01*
X3696Y2318D02*
X3708Y2318D01*
X3768Y2318D02*
X3780Y2318D01*
X4296Y2318D02*
X4308Y2318D01*
X4368Y2318D02*
X4380Y2318D01*
X4494Y2318D02*
X4506Y2318D01*
X4566Y2318D02*
X4578Y2318D01*
X4696Y2318D02*
X4708Y2318D01*
X4768Y2318D02*
X4780Y2318D01*
X3296Y2317D02*
X3309Y2317D01*
X3368Y2317D02*
X3380Y2317D01*
X3494Y2317D02*
X3507Y2317D01*
X3566Y2317D02*
X3578Y2317D01*
X3696Y2317D02*
X3708Y2317D01*
X3768Y2317D02*
X3780Y2317D01*
X4296Y2317D02*
X4309Y2317D01*
X4367Y2317D02*
X4380Y2317D01*
X4494Y2317D02*
X4507Y2317D01*
X4566Y2317D02*
X4578Y2317D01*
X4696Y2317D02*
X4708Y2317D01*
X4768Y2317D02*
X4780Y2317D01*
X3296Y2316D02*
X3309Y2316D01*
X3367Y2316D02*
X3380Y2316D01*
X3494Y2316D02*
X3507Y2316D01*
X3565Y2316D02*
X3578Y2316D01*
X3696Y2316D02*
X3709Y2316D01*
X3768Y2316D02*
X3780Y2316D01*
X4296Y2316D02*
X4309Y2316D01*
X4367Y2316D02*
X4380Y2316D01*
X4494Y2316D02*
X4507Y2316D01*
X4565Y2316D02*
X4578Y2316D01*
X4696Y2316D02*
X4709Y2316D01*
X4767Y2316D02*
X4780Y2316D01*
X3296Y2315D02*
X3310Y2315D01*
X3366Y2315D02*
X3380Y2315D01*
X3494Y2315D02*
X3508Y2315D01*
X3565Y2315D02*
X3578Y2315D01*
X3696Y2315D02*
X3709Y2315D01*
X3767Y2315D02*
X3780Y2315D01*
X4296Y2315D02*
X4310Y2315D01*
X4366Y2315D02*
X4380Y2315D01*
X4494Y2315D02*
X4508Y2315D01*
X4564Y2315D02*
X4578Y2315D01*
X4696Y2315D02*
X4709Y2315D01*
X4767Y2315D02*
X4780Y2315D01*
X3296Y2314D02*
X3310Y2314D01*
X3366Y2314D02*
X3380Y2314D01*
X3494Y2314D02*
X3508Y2314D01*
X3564Y2314D02*
X3578Y2314D01*
X3696Y2314D02*
X3710Y2314D01*
X3766Y2314D02*
X3780Y2314D01*
X4296Y2314D02*
X4310Y2314D01*
X4366Y2314D02*
X4380Y2314D01*
X4494Y2314D02*
X4508Y2314D01*
X4564Y2314D02*
X4578Y2314D01*
X4696Y2314D02*
X4710Y2314D01*
X4766Y2314D02*
X4780Y2314D01*
X3296Y2313D02*
X3311Y2313D01*
X3365Y2313D02*
X3380Y2313D01*
X3494Y2313D02*
X3509Y2313D01*
X3563Y2313D02*
X3578Y2313D01*
X3696Y2313D02*
X3710Y2313D01*
X3766Y2313D02*
X3780Y2313D01*
X4296Y2313D02*
X4311Y2313D01*
X4365Y2313D02*
X4380Y2313D01*
X4494Y2313D02*
X4509Y2313D01*
X4563Y2313D02*
X4578Y2313D01*
X4696Y2313D02*
X4710Y2313D01*
X4766Y2313D02*
X4780Y2313D01*
X3296Y2312D02*
X3312Y2312D01*
X3365Y2312D02*
X3380Y2312D01*
X3494Y2312D02*
X3510Y2312D01*
X3563Y2312D02*
X3578Y2312D01*
X3696Y2312D02*
X3711Y2312D01*
X3765Y2312D02*
X3780Y2312D01*
X4296Y2312D02*
X4312Y2312D01*
X4364Y2312D02*
X4380Y2312D01*
X4494Y2312D02*
X4510Y2312D01*
X4562Y2312D02*
X4578Y2312D01*
X4696Y2312D02*
X4711Y2312D01*
X4765Y2312D02*
X4780Y2312D01*
X3296Y2311D02*
X3312Y2311D01*
X3364Y2311D02*
X3380Y2311D01*
X3494Y2311D02*
X3510Y2311D01*
X3562Y2311D02*
X3578Y2311D01*
X3696Y2311D02*
X3712Y2311D01*
X3764Y2311D02*
X3780Y2311D01*
X4296Y2311D02*
X4312Y2311D01*
X4364Y2311D02*
X4380Y2311D01*
X4494Y2311D02*
X4510Y2311D01*
X4562Y2311D02*
X4578Y2311D01*
X4696Y2311D02*
X4712Y2311D01*
X4764Y2311D02*
X4780Y2311D01*
X3296Y2310D02*
X3313Y2310D01*
X3363Y2310D02*
X3380Y2310D01*
X3494Y2310D02*
X3511Y2310D01*
X3561Y2310D02*
X3578Y2310D01*
X3696Y2310D02*
X3713Y2310D01*
X3763Y2310D02*
X3780Y2310D01*
X4296Y2310D02*
X4313Y2310D01*
X4363Y2310D02*
X4380Y2310D01*
X4494Y2310D02*
X4511Y2310D01*
X4561Y2310D02*
X4578Y2310D01*
X4696Y2310D02*
X4713Y2310D01*
X4763Y2310D02*
X4780Y2310D01*
X3296Y2309D02*
X3314Y2309D01*
X3362Y2309D02*
X3380Y2309D01*
X3494Y2309D02*
X3512Y2309D01*
X3560Y2309D02*
X3578Y2309D01*
X3696Y2309D02*
X3714Y2309D01*
X3762Y2309D02*
X3780Y2309D01*
X4296Y2309D02*
X4314Y2309D01*
X4362Y2309D02*
X4380Y2309D01*
X4494Y2309D02*
X4512Y2309D01*
X4560Y2309D02*
X4578Y2309D01*
X4696Y2309D02*
X4714Y2309D01*
X4762Y2309D02*
X4780Y2309D01*
X3296Y2308D02*
X3315Y2308D01*
X3361Y2308D02*
X3380Y2308D01*
X3494Y2308D02*
X3513Y2308D01*
X3559Y2308D02*
X3578Y2308D01*
X3696Y2308D02*
X3715Y2308D01*
X3761Y2308D02*
X3780Y2308D01*
X4296Y2308D02*
X4315Y2308D01*
X4361Y2308D02*
X4380Y2308D01*
X4494Y2308D02*
X4513Y2308D01*
X4559Y2308D02*
X4578Y2308D01*
X4696Y2308D02*
X4715Y2308D01*
X4761Y2308D02*
X4780Y2308D01*
X3296Y2307D02*
X3316Y2307D01*
X3360Y2307D02*
X3380Y2307D01*
X3494Y2307D02*
X3514Y2307D01*
X3558Y2307D02*
X3578Y2307D01*
X3696Y2307D02*
X3716Y2307D01*
X3760Y2307D02*
X3780Y2307D01*
X4296Y2307D02*
X4316Y2307D01*
X4360Y2307D02*
X4380Y2307D01*
X4494Y2307D02*
X4514Y2307D01*
X4558Y2307D02*
X4578Y2307D01*
X4696Y2307D02*
X4716Y2307D01*
X4760Y2307D02*
X4780Y2307D01*
X3296Y2306D02*
X3317Y2306D01*
X3359Y2306D02*
X3380Y2306D01*
X3494Y2306D02*
X3515Y2306D01*
X3557Y2306D02*
X3578Y2306D01*
X3696Y2306D02*
X3717Y2306D01*
X3759Y2306D02*
X3780Y2306D01*
X4296Y2306D02*
X4317Y2306D01*
X4359Y2306D02*
X4380Y2306D01*
X4494Y2306D02*
X4515Y2306D01*
X4557Y2306D02*
X4578Y2306D01*
X4696Y2306D02*
X4717Y2306D01*
X4759Y2306D02*
X4780Y2306D01*
X3296Y2305D02*
X3319Y2305D01*
X3357Y2305D02*
X3380Y2305D01*
X3494Y2305D02*
X3517Y2305D01*
X3555Y2305D02*
X3578Y2305D01*
X3696Y2305D02*
X3718Y2305D01*
X3758Y2305D02*
X3780Y2305D01*
X4296Y2305D02*
X4319Y2305D01*
X4357Y2305D02*
X4380Y2305D01*
X4494Y2305D02*
X4517Y2305D01*
X4555Y2305D02*
X4578Y2305D01*
X4696Y2305D02*
X4718Y2305D01*
X4758Y2305D02*
X4780Y2305D01*
X3296Y2304D02*
X3320Y2304D01*
X3356Y2304D02*
X3380Y2304D01*
X3494Y2304D02*
X3518Y2304D01*
X3554Y2304D02*
X3578Y2304D01*
X3696Y2304D02*
X3720Y2304D01*
X3756Y2304D02*
X3780Y2304D01*
X4296Y2304D02*
X4320Y2304D01*
X4356Y2304D02*
X4380Y2304D01*
X4494Y2304D02*
X4518Y2304D01*
X4554Y2304D02*
X4578Y2304D01*
X4696Y2304D02*
X4720Y2304D01*
X4756Y2304D02*
X4780Y2304D01*
X3296Y2303D02*
X3322Y2303D01*
X3354Y2303D02*
X3380Y2303D01*
X3494Y2303D02*
X3520Y2303D01*
X3552Y2303D02*
X3578Y2303D01*
X3696Y2303D02*
X3721Y2303D01*
X3755Y2303D02*
X3780Y2303D01*
X4296Y2303D02*
X4322Y2303D01*
X4354Y2303D02*
X4380Y2303D01*
X4494Y2303D02*
X4520Y2303D01*
X4552Y2303D02*
X4578Y2303D01*
X4696Y2303D02*
X4721Y2303D01*
X4755Y2303D02*
X4780Y2303D01*
X3296Y2302D02*
X3324Y2302D01*
X3352Y2302D02*
X3380Y2302D01*
X3494Y2302D02*
X3522Y2302D01*
X3550Y2302D02*
X3578Y2302D01*
X3696Y2302D02*
X3723Y2302D01*
X3753Y2302D02*
X3780Y2302D01*
X4296Y2302D02*
X4324Y2302D01*
X4352Y2302D02*
X4380Y2302D01*
X4494Y2302D02*
X4522Y2302D01*
X4550Y2302D02*
X4578Y2302D01*
X4696Y2302D02*
X4723Y2302D01*
X4753Y2302D02*
X4780Y2302D01*
X3296Y2301D02*
X3326Y2301D01*
X3350Y2301D02*
X3380Y2301D01*
X3494Y2301D02*
X3524Y2301D01*
X3548Y2301D02*
X3578Y2301D01*
X3696Y2301D02*
X3725Y2301D01*
X3751Y2301D02*
X3780Y2301D01*
X4296Y2301D02*
X4326Y2301D01*
X4350Y2301D02*
X4380Y2301D01*
X4494Y2301D02*
X4524Y2301D01*
X4548Y2301D02*
X4578Y2301D01*
X4696Y2301D02*
X4725Y2301D01*
X4751Y2301D02*
X4780Y2301D01*
X3296Y2300D02*
X3330Y2300D01*
X3346Y2300D02*
X3380Y2300D01*
X3494Y2300D02*
X3528Y2300D01*
X3544Y2300D02*
X3578Y2300D01*
X3696Y2300D02*
X3728Y2300D01*
X3748Y2300D02*
X3780Y2300D01*
X4296Y2300D02*
X4330Y2300D01*
X4346Y2300D02*
X4380Y2300D01*
X4494Y2300D02*
X4528Y2300D01*
X4544Y2300D02*
X4578Y2300D01*
X4696Y2300D02*
X4728Y2300D01*
X4748Y2300D02*
X4780Y2300D01*
X3296Y2299D02*
X3380Y2299D01*
X3494Y2299D02*
X3578Y2299D01*
X3696Y2299D02*
X3733Y2299D01*
X3743Y2299D02*
X3780Y2299D01*
X4296Y2299D02*
X4380Y2299D01*
X4494Y2299D02*
X4578Y2299D01*
X4696Y2299D02*
X4733Y2299D01*
X4743Y2299D02*
X4780Y2299D01*
X3296Y2298D02*
X3380Y2298D01*
X3494Y2298D02*
X3578Y2298D01*
X3696Y2298D02*
X3780Y2298D01*
X4296Y2298D02*
X4380Y2298D01*
X4494Y2298D02*
X4578Y2298D01*
X4696Y2298D02*
X4780Y2298D01*
X3296Y2297D02*
X3380Y2297D01*
X3494Y2297D02*
X3578Y2297D01*
X3696Y2297D02*
X3780Y2297D01*
X4296Y2297D02*
X4380Y2297D01*
X4494Y2297D02*
X4578Y2297D01*
X4696Y2297D02*
X4780Y2297D01*
X3296Y2296D02*
X3380Y2296D01*
X3494Y2296D02*
X3578Y2296D01*
X3696Y2296D02*
X3780Y2296D01*
X4296Y2296D02*
X4380Y2296D01*
X4494Y2296D02*
X4578Y2296D01*
X4696Y2296D02*
X4780Y2296D01*
X3296Y2295D02*
X3380Y2295D01*
X3494Y2295D02*
X3578Y2295D01*
X3696Y2295D02*
X3780Y2295D01*
X4296Y2295D02*
X4380Y2295D01*
X4494Y2295D02*
X4578Y2295D01*
X4696Y2295D02*
X4780Y2295D01*
X3296Y2294D02*
X3380Y2294D01*
X3494Y2294D02*
X3578Y2294D01*
X3696Y2294D02*
X3780Y2294D01*
X4296Y2294D02*
X4380Y2294D01*
X4494Y2294D02*
X4578Y2294D01*
X4696Y2294D02*
X4780Y2294D01*
X3296Y2293D02*
X3380Y2293D01*
X3494Y2293D02*
X3578Y2293D01*
X3696Y2293D02*
X3780Y2293D01*
X4296Y2293D02*
X4380Y2293D01*
X4494Y2293D02*
X4578Y2293D01*
X4696Y2293D02*
X4780Y2293D01*
X3296Y2292D02*
X3380Y2292D01*
X3494Y2292D02*
X3578Y2292D01*
X3696Y2292D02*
X3780Y2292D01*
X4296Y2292D02*
X4380Y2292D01*
X4494Y2292D02*
X4578Y2292D01*
X4696Y2292D02*
X4780Y2292D01*
X3296Y2291D02*
X3380Y2291D01*
X3494Y2291D02*
X3578Y2291D01*
X3696Y2291D02*
X3780Y2291D01*
X4296Y2291D02*
X4380Y2291D01*
X4494Y2291D02*
X4578Y2291D01*
X4696Y2291D02*
X4780Y2291D01*
X3296Y2290D02*
X3380Y2290D01*
X3494Y2290D02*
X3578Y2290D01*
X3696Y2290D02*
X3780Y2290D01*
X4296Y2290D02*
X4380Y2290D01*
X4494Y2290D02*
X4578Y2290D01*
X4696Y2290D02*
X4780Y2290D01*
X3296Y2289D02*
X3380Y2289D01*
X3494Y2289D02*
X3578Y2289D01*
X3696Y2289D02*
X3780Y2289D01*
X4296Y2289D02*
X4380Y2289D01*
X4494Y2289D02*
X4578Y2289D01*
X4696Y2289D02*
X4780Y2289D01*
X3296Y2288D02*
X3380Y2288D01*
X3494Y2288D02*
X3578Y2288D01*
X3696Y2288D02*
X3780Y2288D01*
X4296Y2288D02*
X4380Y2288D01*
X4494Y2288D02*
X4578Y2288D01*
X4696Y2288D02*
X4780Y2288D01*
X3296Y2287D02*
X3380Y2287D01*
X3494Y2287D02*
X3578Y2287D01*
X3696Y2287D02*
X3780Y2287D01*
X4296Y2287D02*
X4380Y2287D01*
X4494Y2287D02*
X4578Y2287D01*
X4696Y2287D02*
X4780Y2287D01*
X3296Y2286D02*
X3380Y2286D01*
X3494Y2286D02*
X3578Y2286D01*
X3696Y2286D02*
X3780Y2286D01*
X4296Y2286D02*
X4380Y2286D01*
X4494Y2286D02*
X4578Y2286D01*
X4696Y2286D02*
X4780Y2286D01*
X3296Y2285D02*
X3380Y2285D01*
X3494Y2285D02*
X3578Y2285D01*
X3696Y2285D02*
X3780Y2285D01*
X4296Y2285D02*
X4380Y2285D01*
X4494Y2285D02*
X4578Y2285D01*
X4696Y2285D02*
X4780Y2285D01*
X3296Y2284D02*
X3380Y2284D01*
X3494Y2284D02*
X3578Y2284D01*
X3696Y2284D02*
X3780Y2284D01*
X4296Y2284D02*
X4380Y2284D01*
X4494Y2284D02*
X4578Y2284D01*
X4696Y2284D02*
X4780Y2284D01*
X3296Y2283D02*
X3380Y2283D01*
X3494Y2283D02*
X3578Y2283D01*
X3696Y2283D02*
X3780Y2283D01*
X4296Y2283D02*
X4380Y2283D01*
X4494Y2283D02*
X4578Y2283D01*
X4696Y2283D02*
X4780Y2283D01*
X3296Y2282D02*
X3380Y2282D01*
X3494Y2282D02*
X3578Y2282D01*
X3696Y2282D02*
X3780Y2282D01*
X4296Y2282D02*
X4380Y2282D01*
X4494Y2282D02*
X4578Y2282D01*
X4696Y2282D02*
X4780Y2282D01*
X3296Y2281D02*
X3380Y2281D01*
X3494Y2281D02*
X3578Y2281D01*
X3696Y2281D02*
X3780Y2281D01*
X4296Y2281D02*
X4380Y2281D01*
X4494Y2281D02*
X4578Y2281D01*
X4696Y2281D02*
X4780Y2281D01*
X3296Y2280D02*
X3380Y2280D01*
X3494Y2280D02*
X3578Y2280D01*
X3696Y2280D02*
X3780Y2280D01*
X4296Y2280D02*
X4380Y2280D01*
X4494Y2280D02*
X4578Y2280D01*
X4696Y2280D02*
X4780Y2280D01*
X3296Y2279D02*
X3380Y2279D01*
X3494Y2279D02*
X3578Y2279D01*
X3696Y2279D02*
X3780Y2279D01*
X4296Y2279D02*
X4380Y2279D01*
X4494Y2279D02*
X4578Y2279D01*
X4696Y2279D02*
X4780Y2279D01*
X3296Y2278D02*
X3380Y2278D01*
X3494Y2278D02*
X3578Y2278D01*
X3696Y2278D02*
X3780Y2278D01*
X4296Y2278D02*
X4380Y2278D01*
X4494Y2278D02*
X4578Y2278D01*
X4696Y2278D02*
X4780Y2278D01*
X3296Y2277D02*
X3380Y2277D01*
X3494Y2277D02*
X3578Y2277D01*
X3696Y2277D02*
X3780Y2277D01*
X4296Y2277D02*
X4380Y2277D01*
X4494Y2277D02*
X4578Y2277D01*
X4696Y2277D02*
X4780Y2277D01*
X3296Y2276D02*
X3380Y2276D01*
X3494Y2276D02*
X3578Y2276D01*
X3696Y2276D02*
X3780Y2276D01*
X4296Y2276D02*
X4380Y2276D01*
X4494Y2276D02*
X4578Y2276D01*
X4696Y2276D02*
X4780Y2276D01*
X3296Y2275D02*
X3380Y2275D01*
X3494Y2275D02*
X3578Y2275D01*
X3696Y2275D02*
X3780Y2275D01*
X4296Y2275D02*
X4380Y2275D01*
X4494Y2275D02*
X4578Y2275D01*
X4696Y2275D02*
X4780Y2275D01*
X3296Y2274D02*
X3380Y2274D01*
X3494Y2274D02*
X3578Y2274D01*
X3696Y2274D02*
X3780Y2274D01*
X4296Y2274D02*
X4380Y2274D01*
X4494Y2274D02*
X4578Y2274D01*
X4696Y2274D02*
X4780Y2274D01*
X3296Y2273D02*
X3380Y2273D01*
X3494Y2273D02*
X3578Y2273D01*
X3696Y2273D02*
X3780Y2273D01*
X4296Y2273D02*
X4380Y2273D01*
X4494Y2273D02*
X4578Y2273D01*
X4696Y2273D02*
X4780Y2273D01*
X3296Y2272D02*
X3380Y2272D01*
X3494Y2272D02*
X3578Y2272D01*
X3696Y2272D02*
X3780Y2272D01*
X4296Y2272D02*
X4380Y2272D01*
X4494Y2272D02*
X4578Y2272D01*
X4696Y2272D02*
X4780Y2272D01*
X3296Y2271D02*
X3380Y2271D01*
X3494Y2271D02*
X3578Y2271D01*
X3696Y2271D02*
X3780Y2271D01*
X4296Y2271D02*
X4380Y2271D01*
X4494Y2271D02*
X4578Y2271D01*
X4696Y2271D02*
X4780Y2271D01*
X3296Y2270D02*
X3380Y2270D01*
X3494Y2270D02*
X3578Y2270D01*
X3696Y2270D02*
X3780Y2270D01*
X4296Y2270D02*
X4380Y2270D01*
X4494Y2270D02*
X4578Y2270D01*
X4696Y2270D02*
X4780Y2270D01*
X3296Y2269D02*
X3380Y2269D01*
X3494Y2269D02*
X3578Y2269D01*
X3696Y2269D02*
X3780Y2269D01*
X4296Y2269D02*
X4380Y2269D01*
X4494Y2269D02*
X4578Y2269D01*
X4696Y2269D02*
X4780Y2269D01*
X3296Y2268D02*
X3380Y2268D01*
X3494Y2268D02*
X3578Y2268D01*
X3696Y2268D02*
X3780Y2268D01*
X4296Y2268D02*
X4380Y2268D01*
X4494Y2268D02*
X4578Y2268D01*
X4696Y2268D02*
X4780Y2268D01*
X3296Y2267D02*
X3380Y2267D01*
X3494Y2267D02*
X3578Y2267D01*
X3696Y2267D02*
X3780Y2267D01*
X4296Y2267D02*
X4380Y2267D01*
X4494Y2267D02*
X4578Y2267D01*
X4696Y2267D02*
X4780Y2267D01*
X3296Y2266D02*
X3380Y2266D01*
X3494Y2266D02*
X3578Y2266D01*
X3696Y2266D02*
X3780Y2266D01*
X4296Y2266D02*
X4380Y2266D01*
X4494Y2266D02*
X4578Y2266D01*
X4696Y2266D02*
X4780Y2266D01*
X3296Y2265D02*
X3380Y2265D01*
X3494Y2265D02*
X3578Y2265D01*
X3696Y2265D02*
X3780Y2265D01*
X4296Y2265D02*
X4380Y2265D01*
X4494Y2265D02*
X4578Y2265D01*
X4696Y2265D02*
X4780Y2265D01*
X3296Y2264D02*
X3380Y2264D01*
X3494Y2264D02*
X3578Y2264D01*
X3696Y2264D02*
X3780Y2264D01*
X4296Y2264D02*
X4380Y2264D01*
X4494Y2264D02*
X4578Y2264D01*
X4696Y2264D02*
X4780Y2264D01*
X3296Y2263D02*
X3380Y2263D01*
X3494Y2263D02*
X3578Y2263D01*
X3696Y2263D02*
X3780Y2263D01*
X4296Y2263D02*
X4380Y2263D01*
X4494Y2263D02*
X4578Y2263D01*
X4696Y2263D02*
X4780Y2263D01*
X3296Y2262D02*
X3380Y2262D01*
X3494Y2262D02*
X3578Y2262D01*
X3696Y2262D02*
X3780Y2262D01*
X4296Y2262D02*
X4380Y2262D01*
X4494Y2262D02*
X4578Y2262D01*
X4696Y2262D02*
X4780Y2262D01*
X3296Y2261D02*
X3380Y2261D01*
X3494Y2261D02*
X3578Y2261D01*
X3696Y2261D02*
X3780Y2261D01*
X4296Y2261D02*
X4380Y2261D01*
X4494Y2261D02*
X4578Y2261D01*
X4696Y2261D02*
X4780Y2261D01*
X3296Y2260D02*
X3380Y2260D01*
X3494Y2260D02*
X3578Y2260D01*
X3696Y2260D02*
X3780Y2260D01*
X4296Y2260D02*
X4380Y2260D01*
X4494Y2260D02*
X4578Y2260D01*
X4696Y2260D02*
X4780Y2260D01*
X3296Y2259D02*
X3380Y2259D01*
X3494Y2259D02*
X3578Y2259D01*
X3696Y2259D02*
X3780Y2259D01*
X4296Y2259D02*
X4380Y2259D01*
X4494Y2259D02*
X4578Y2259D01*
X4696Y2259D02*
X4780Y2259D01*
X3296Y2258D02*
X3380Y2258D01*
X3494Y2258D02*
X3578Y2258D01*
X3696Y2258D02*
X3780Y2258D01*
X4296Y2258D02*
X4380Y2258D01*
X4494Y2258D02*
X4578Y2258D01*
X4696Y2258D02*
X4780Y2258D01*
X3296Y2257D02*
X3380Y2257D01*
X3494Y2257D02*
X3578Y2257D01*
X3696Y2257D02*
X3780Y2257D01*
X4296Y2257D02*
X4380Y2257D01*
X4494Y2257D02*
X4578Y2257D01*
X4696Y2257D02*
X4780Y2257D01*
X3296Y2256D02*
X3380Y2256D01*
X3494Y2256D02*
X3578Y2256D01*
X3696Y2256D02*
X3780Y2256D01*
X4296Y2256D02*
X4380Y2256D01*
X4494Y2256D02*
X4578Y2256D01*
X4696Y2256D02*
X4780Y2256D01*
X3296Y2255D02*
X3380Y2255D01*
X3494Y2255D02*
X3578Y2255D01*
X3696Y2255D02*
X3780Y2255D01*
X4296Y2255D02*
X4380Y2255D01*
X4494Y2255D02*
X4578Y2255D01*
X4696Y2255D02*
X4780Y2255D01*
X3296Y2254D02*
X3380Y2254D01*
X3494Y2254D02*
X3578Y2254D01*
X3696Y2254D02*
X3780Y2254D01*
X4296Y2254D02*
X4380Y2254D01*
X4494Y2254D02*
X4578Y2254D01*
X4696Y2254D02*
X4780Y2254D01*
X3296Y2253D02*
X3380Y2253D01*
X3494Y2253D02*
X3578Y2253D01*
X3696Y2253D02*
X3780Y2253D01*
X4296Y2253D02*
X4380Y2253D01*
X4494Y2253D02*
X4578Y2253D01*
X4696Y2253D02*
X4780Y2253D01*
X3296Y2252D02*
X3380Y2252D01*
X3494Y2252D02*
X3578Y2252D01*
X3696Y2252D02*
X3780Y2252D01*
X4296Y2252D02*
X4380Y2252D01*
X4494Y2252D02*
X4578Y2252D01*
X4696Y2252D02*
X4780Y2252D01*
X3296Y2251D02*
X3380Y2251D01*
X3494Y2251D02*
X3578Y2251D01*
X3696Y2251D02*
X3780Y2251D01*
X4296Y2251D02*
X4380Y2251D01*
X4494Y2251D02*
X4578Y2251D01*
X4696Y2251D02*
X4780Y2251D01*
X3296Y2250D02*
X3380Y2250D01*
X3494Y2250D02*
X3578Y2250D01*
X3696Y2250D02*
X3780Y2250D01*
X4296Y2250D02*
X4380Y2250D01*
X4494Y2250D02*
X4578Y2250D01*
X4696Y2250D02*
X4780Y2250D01*
X3296Y2249D02*
X3380Y2249D01*
X3494Y2249D02*
X3578Y2249D01*
X3696Y2249D02*
X3780Y2249D01*
X4296Y2249D02*
X4380Y2249D01*
X4494Y2249D02*
X4578Y2249D01*
X4696Y2249D02*
X4780Y2249D01*
X3296Y2248D02*
X3380Y2248D01*
X3494Y2248D02*
X3578Y2248D01*
X3696Y2248D02*
X3780Y2248D01*
X4296Y2248D02*
X4380Y2248D01*
X4494Y2248D02*
X4578Y2248D01*
X4696Y2248D02*
X4780Y2248D01*
X3296Y2247D02*
X3380Y2247D01*
X3494Y2247D02*
X3578Y2247D01*
X3696Y2247D02*
X3780Y2247D01*
X4296Y2247D02*
X4380Y2247D01*
X4494Y2247D02*
X4578Y2247D01*
X4696Y2247D02*
X4780Y2247D01*
X3296Y2246D02*
X3380Y2246D01*
X3494Y2246D02*
X3578Y2246D01*
X3696Y2246D02*
X3780Y2246D01*
X4296Y2246D02*
X4380Y2246D01*
X4494Y2246D02*
X4578Y2246D01*
X4696Y2246D02*
X4780Y2246D01*
X3296Y2245D02*
X3380Y2245D01*
X3494Y2245D02*
X3578Y2245D01*
X3696Y2245D02*
X3780Y2245D01*
X4296Y2245D02*
X4380Y2245D01*
X4494Y2245D02*
X4578Y2245D01*
X4696Y2245D02*
X4780Y2245D01*
X3296Y2244D02*
X3380Y2244D01*
X3494Y2244D02*
X3578Y2244D01*
X3696Y2244D02*
X3780Y2244D01*
X4296Y2244D02*
X4380Y2244D01*
X4494Y2244D02*
X4578Y2244D01*
X4696Y2244D02*
X4780Y2244D01*
X3296Y2243D02*
X3380Y2243D01*
X3494Y2243D02*
X3578Y2243D01*
X3696Y2243D02*
X3780Y2243D01*
X4296Y2243D02*
X4380Y2243D01*
X4494Y2243D02*
X4578Y2243D01*
X4696Y2243D02*
X4780Y2243D01*
X3296Y2242D02*
X3380Y2242D01*
X3494Y2242D02*
X3578Y2242D01*
X3696Y2242D02*
X3780Y2242D01*
X4296Y2242D02*
X4380Y2242D01*
X4494Y2242D02*
X4578Y2242D01*
X4696Y2242D02*
X4780Y2242D01*
X3296Y2241D02*
X3380Y2241D01*
X3494Y2241D02*
X3578Y2241D01*
X3696Y2241D02*
X3780Y2241D01*
X4296Y2241D02*
X4380Y2241D01*
X4494Y2241D02*
X4578Y2241D01*
X4696Y2241D02*
X4780Y2241D01*
X3696Y2240D02*
X3780Y2240D01*
X4696Y2240D02*
X4780Y2240D01*
D02*
G04 End of Mask0*
M02*