G04 MADE WITH FRITZING*
G04 WWW.FRITZING.ORG*
G04 DOUBLE SIDED*
G04 HOLES PLATED*
G04 CONTOUR ON CENTER OF CONTOUR VECTOR*
%ASAXBY*%
%FSLAX23Y23*%
%MOIN*%
%OFA0B0*%
%SFA1.0B1.0*%
%ADD10C,0.138425*%
%ADD11C,0.070000*%
%ADD12C,0.098425*%
%ADD13C,0.150000*%
%ADD14C,0.100000*%
%ADD15C,0.066000*%
%ADD16C,0.075000*%
%ADD17C,0.082000*%
%ADD18C,0.080000*%
%ADD19C,0.062992*%
%ADD20C,0.039370*%
%ADD21R,0.082000X0.082000*%
%ADD22R,0.080000X0.080000*%
%ADD23R,0.062992X0.062992*%
%ADD24C,0.024000*%
%ADD25R,0.001000X0.001000*%
%LNCOPPER1*%
G90*
G70*
G54D10*
X2639Y2266D03*
X2639Y966D03*
G54D11*
X2489Y2286D03*
X2389Y2286D03*
X2289Y2286D03*
X2189Y2286D03*
X2089Y2286D03*
X1989Y2286D03*
X2639Y1116D03*
X2639Y1216D03*
X2639Y1316D03*
X2639Y1416D03*
X2639Y1516D03*
X2639Y1616D03*
X2639Y1716D03*
X2639Y1816D03*
X2639Y1916D03*
G54D10*
X1839Y966D03*
G54D11*
X2639Y2016D03*
G54D10*
X1839Y2266D03*
G54D11*
X1839Y2016D03*
X1839Y1916D03*
X1839Y1816D03*
X1839Y1716D03*
X1839Y1616D03*
X1839Y1516D03*
X1839Y1416D03*
X1839Y1316D03*
X1839Y1216D03*
X1839Y1116D03*
X3139Y1316D03*
G54D12*
X3339Y2331D03*
G54D13*
X3889Y566D03*
G54D12*
X3537Y2331D03*
G54D14*
X3739Y2331D03*
G54D15*
X3799Y876D03*
G54D11*
X3139Y1516D03*
X3939Y716D03*
X3139Y1116D03*
X3939Y816D03*
X3939Y916D03*
X3939Y1016D03*
X3939Y1116D03*
X3939Y1216D03*
X3939Y1316D03*
X3139Y1616D03*
X3939Y1416D03*
X3139Y1416D03*
X3939Y1516D03*
X3139Y1216D03*
X3939Y1616D03*
G54D13*
X3189Y566D03*
G54D11*
X3939Y1716D03*
X3939Y1816D03*
X3939Y1916D03*
X3939Y2016D03*
X3939Y2116D03*
X3939Y2216D03*
X3139Y2216D03*
X3139Y2116D03*
X3139Y2016D03*
X3139Y1916D03*
X3139Y1816D03*
X3139Y1716D03*
X4139Y1316D03*
G54D12*
X4339Y2331D03*
G54D13*
X4889Y566D03*
G54D12*
X4537Y2331D03*
G54D14*
X4739Y2331D03*
G54D15*
X4799Y876D03*
G54D11*
X4139Y1516D03*
X4939Y716D03*
X4139Y1116D03*
X4939Y816D03*
X4939Y916D03*
X4939Y1016D03*
X4939Y1116D03*
X4939Y1216D03*
X4939Y1316D03*
X4139Y1616D03*
X4939Y1416D03*
X4139Y1416D03*
X4939Y1516D03*
X4139Y1216D03*
X4939Y1616D03*
G54D13*
X4189Y566D03*
G54D11*
X4939Y1716D03*
X4939Y1816D03*
X4939Y1916D03*
X4939Y2016D03*
X4939Y2116D03*
X4939Y2216D03*
X4139Y2216D03*
X4139Y2116D03*
X4139Y2016D03*
X4139Y1916D03*
X4139Y1816D03*
X4139Y1716D03*
G54D16*
X1339Y2516D03*
X1339Y2116D03*
X1339Y1816D03*
X1339Y1416D03*
X1339Y1216D03*
X1339Y816D03*
X1339Y216D03*
X1339Y616D03*
G54D17*
X539Y2116D03*
X837Y2116D03*
X539Y1716D03*
X837Y1716D03*
X539Y1416D03*
X837Y1416D03*
X539Y1016D03*
X837Y1016D03*
G54D18*
X139Y1916D03*
X139Y2054D03*
X139Y1616D03*
X139Y1754D03*
X139Y1316D03*
X139Y1454D03*
X139Y1016D03*
X139Y1154D03*
X139Y716D03*
X139Y854D03*
G54D19*
X1939Y418D03*
X1939Y516D03*
X2539Y418D03*
X2539Y516D03*
G54D20*
X2116Y616D03*
X1972Y1144D03*
X2572Y856D03*
X2860Y760D03*
X2212Y520D03*
X2476Y1312D03*
X2524Y952D03*
X1708Y1984D03*
G54D21*
X538Y2116D03*
X538Y1716D03*
X538Y1416D03*
X538Y1016D03*
G54D22*
X139Y1916D03*
X139Y1616D03*
X139Y1316D03*
X139Y1016D03*
X139Y716D03*
G54D23*
X1939Y418D03*
X2539Y418D03*
G54D24*
X170Y1451D02*
X507Y1419D01*
D02*
X169Y2059D02*
X507Y2111D01*
D02*
X1963Y430D02*
X1996Y448D01*
D02*
X1996Y448D02*
X1996Y568D01*
D02*
X1996Y568D02*
X1948Y568D01*
D02*
X1948Y568D02*
X1948Y1000D01*
D02*
X1948Y1000D02*
X1924Y1000D01*
D02*
X1924Y1000D02*
X1888Y1672D01*
D02*
X1888Y1672D02*
X1862Y1696D01*
D02*
X1813Y1434D02*
X1780Y1456D01*
D02*
X1780Y1456D02*
X1780Y2080D01*
D02*
X1780Y2080D02*
X1972Y2080D01*
D02*
X1972Y2080D02*
X1972Y1264D01*
D02*
X1972Y1264D02*
X2557Y867D01*
D02*
X1975Y1125D02*
X2044Y616D01*
D02*
X2044Y616D02*
X2044Y376D01*
D02*
X2044Y376D02*
X1876Y352D01*
D02*
X1876Y352D02*
X1360Y798D01*
D02*
X2663Y1397D02*
X2740Y1336D01*
D02*
X2740Y1336D02*
X2740Y904D01*
D02*
X2740Y904D02*
X2620Y808D01*
D02*
X2620Y808D02*
X2134Y623D01*
D02*
X3970Y816D02*
X4908Y816D01*
D02*
X1712Y2003D02*
X1732Y2128D01*
D02*
X1732Y2128D02*
X2020Y2128D01*
D02*
X2020Y2128D02*
X2517Y970D01*
D02*
X139Y1185D02*
X139Y1285D01*
D02*
X122Y880D02*
X76Y952D01*
D02*
X76Y952D02*
X76Y1096D01*
D02*
X76Y1096D02*
X116Y1133D01*
D02*
X1973Y2260D02*
X1924Y2176D01*
D02*
X1924Y2176D02*
X1684Y2176D01*
D02*
X1684Y2176D02*
X1684Y2056D01*
D02*
X1684Y2056D02*
X170Y1919D01*
D02*
X2479Y1331D02*
X2572Y1984D01*
D02*
X2572Y1984D02*
X2611Y2003D01*
D02*
X2231Y520D02*
X2512Y517D01*
D02*
X3909Y1009D02*
X2879Y765D01*
D02*
X4908Y1016D02*
X3970Y1016D01*
G54D25*
X3701Y2418D02*
X3775Y2418D01*
X4701Y2418D02*
X4775Y2418D01*
X3301Y2417D02*
X3375Y2417D01*
X3499Y2417D02*
X3573Y2417D01*
X3701Y2417D02*
X3775Y2417D01*
X4301Y2417D02*
X4375Y2417D01*
X4499Y2417D02*
X4573Y2417D01*
X4701Y2417D02*
X4775Y2417D01*
X3301Y2416D02*
X3375Y2416D01*
X3499Y2416D02*
X3573Y2416D01*
X3701Y2416D02*
X3775Y2416D01*
X4301Y2416D02*
X4375Y2416D01*
X4499Y2416D02*
X4573Y2416D01*
X4701Y2416D02*
X4775Y2416D01*
X3301Y2415D02*
X3375Y2415D01*
X3499Y2415D02*
X3573Y2415D01*
X3701Y2415D02*
X3775Y2415D01*
X4301Y2415D02*
X4375Y2415D01*
X4499Y2415D02*
X4573Y2415D01*
X4701Y2415D02*
X4775Y2415D01*
X3301Y2414D02*
X3375Y2414D01*
X3499Y2414D02*
X3573Y2414D01*
X3701Y2414D02*
X3775Y2414D01*
X4301Y2414D02*
X4375Y2414D01*
X4499Y2414D02*
X4573Y2414D01*
X4701Y2414D02*
X4775Y2414D01*
X3301Y2413D02*
X3375Y2413D01*
X3499Y2413D02*
X3573Y2413D01*
X3701Y2413D02*
X3775Y2413D01*
X4301Y2413D02*
X4375Y2413D01*
X4499Y2413D02*
X4573Y2413D01*
X4701Y2413D02*
X4775Y2413D01*
X3301Y2412D02*
X3375Y2412D01*
X3499Y2412D02*
X3573Y2412D01*
X3701Y2412D02*
X3775Y2412D01*
X4301Y2412D02*
X4375Y2412D01*
X4499Y2412D02*
X4573Y2412D01*
X4701Y2412D02*
X4775Y2412D01*
X3301Y2411D02*
X3375Y2411D01*
X3499Y2411D02*
X3573Y2411D01*
X3701Y2411D02*
X3775Y2411D01*
X4301Y2411D02*
X4375Y2411D01*
X4499Y2411D02*
X4573Y2411D01*
X4701Y2411D02*
X4775Y2411D01*
X3301Y2410D02*
X3375Y2410D01*
X3499Y2410D02*
X3573Y2410D01*
X3701Y2410D02*
X3775Y2410D01*
X4301Y2410D02*
X4375Y2410D01*
X4499Y2410D02*
X4573Y2410D01*
X4701Y2410D02*
X4775Y2410D01*
X3301Y2409D02*
X3375Y2409D01*
X3499Y2409D02*
X3573Y2409D01*
X3701Y2409D02*
X3775Y2409D01*
X4301Y2409D02*
X4375Y2409D01*
X4499Y2409D02*
X4573Y2409D01*
X4701Y2409D02*
X4775Y2409D01*
X3301Y2408D02*
X3375Y2408D01*
X3499Y2408D02*
X3573Y2408D01*
X3701Y2408D02*
X3775Y2408D01*
X4301Y2408D02*
X4375Y2408D01*
X4499Y2408D02*
X4573Y2408D01*
X4701Y2408D02*
X4775Y2408D01*
X3301Y2407D02*
X3375Y2407D01*
X3499Y2407D02*
X3573Y2407D01*
X3701Y2407D02*
X3775Y2407D01*
X4301Y2407D02*
X4375Y2407D01*
X4499Y2407D02*
X4573Y2407D01*
X4701Y2407D02*
X4775Y2407D01*
X3301Y2406D02*
X3375Y2406D01*
X3499Y2406D02*
X3573Y2406D01*
X3701Y2406D02*
X3775Y2406D01*
X4301Y2406D02*
X4375Y2406D01*
X4499Y2406D02*
X4573Y2406D01*
X4701Y2406D02*
X4775Y2406D01*
X3301Y2405D02*
X3375Y2405D01*
X3499Y2405D02*
X3573Y2405D01*
X3701Y2405D02*
X3775Y2405D01*
X4301Y2405D02*
X4375Y2405D01*
X4499Y2405D02*
X4573Y2405D01*
X4701Y2405D02*
X4775Y2405D01*
X3301Y2404D02*
X3375Y2404D01*
X3499Y2404D02*
X3573Y2404D01*
X3701Y2404D02*
X3775Y2404D01*
X4301Y2404D02*
X4375Y2404D01*
X4499Y2404D02*
X4573Y2404D01*
X4701Y2404D02*
X4775Y2404D01*
X3301Y2403D02*
X3375Y2403D01*
X3499Y2403D02*
X3573Y2403D01*
X3701Y2403D02*
X3775Y2403D01*
X4301Y2403D02*
X4375Y2403D01*
X4499Y2403D02*
X4573Y2403D01*
X4701Y2403D02*
X4775Y2403D01*
X3301Y2402D02*
X3375Y2402D01*
X3499Y2402D02*
X3573Y2402D01*
X3701Y2402D02*
X3775Y2402D01*
X4301Y2402D02*
X4375Y2402D01*
X4499Y2402D02*
X4573Y2402D01*
X4701Y2402D02*
X4775Y2402D01*
X3301Y2401D02*
X3375Y2401D01*
X3499Y2401D02*
X3573Y2401D01*
X3701Y2401D02*
X3775Y2401D01*
X4301Y2401D02*
X4375Y2401D01*
X4499Y2401D02*
X4573Y2401D01*
X4701Y2401D02*
X4775Y2401D01*
X3301Y2400D02*
X3375Y2400D01*
X3499Y2400D02*
X3573Y2400D01*
X3701Y2400D02*
X3775Y2400D01*
X4301Y2400D02*
X4375Y2400D01*
X4499Y2400D02*
X4573Y2400D01*
X4701Y2400D02*
X4775Y2400D01*
X3301Y2399D02*
X3375Y2399D01*
X3499Y2399D02*
X3573Y2399D01*
X3701Y2399D02*
X3775Y2399D01*
X4301Y2399D02*
X4375Y2399D01*
X4499Y2399D02*
X4573Y2399D01*
X4701Y2399D02*
X4775Y2399D01*
X3301Y2398D02*
X3375Y2398D01*
X3499Y2398D02*
X3573Y2398D01*
X3701Y2398D02*
X3775Y2398D01*
X4301Y2398D02*
X4375Y2398D01*
X4499Y2398D02*
X4573Y2398D01*
X4701Y2398D02*
X4775Y2398D01*
X3301Y2397D02*
X3375Y2397D01*
X3499Y2397D02*
X3573Y2397D01*
X3701Y2397D02*
X3775Y2397D01*
X4301Y2397D02*
X4375Y2397D01*
X4499Y2397D02*
X4573Y2397D01*
X4701Y2397D02*
X4775Y2397D01*
X3301Y2396D02*
X3375Y2396D01*
X3499Y2396D02*
X3573Y2396D01*
X3701Y2396D02*
X3775Y2396D01*
X4301Y2396D02*
X4375Y2396D01*
X4499Y2396D02*
X4573Y2396D01*
X4701Y2396D02*
X4775Y2396D01*
X3301Y2395D02*
X3375Y2395D01*
X3499Y2395D02*
X3573Y2395D01*
X3701Y2395D02*
X3775Y2395D01*
X4301Y2395D02*
X4375Y2395D01*
X4499Y2395D02*
X4573Y2395D01*
X4701Y2395D02*
X4775Y2395D01*
X3301Y2394D02*
X3375Y2394D01*
X3499Y2394D02*
X3573Y2394D01*
X3701Y2394D02*
X3775Y2394D01*
X4301Y2394D02*
X4375Y2394D01*
X4499Y2394D02*
X4573Y2394D01*
X4701Y2394D02*
X4775Y2394D01*
X3301Y2393D02*
X3375Y2393D01*
X3499Y2393D02*
X3573Y2393D01*
X3701Y2393D02*
X3775Y2393D01*
X4301Y2393D02*
X4375Y2393D01*
X4499Y2393D02*
X4573Y2393D01*
X4701Y2393D02*
X4775Y2393D01*
X3301Y2392D02*
X3375Y2392D01*
X3499Y2392D02*
X3573Y2392D01*
X3701Y2392D02*
X3775Y2392D01*
X4301Y2392D02*
X4375Y2392D01*
X4499Y2392D02*
X4573Y2392D01*
X4701Y2392D02*
X4775Y2392D01*
X3301Y2391D02*
X3375Y2391D01*
X3499Y2391D02*
X3573Y2391D01*
X3701Y2391D02*
X3775Y2391D01*
X4301Y2391D02*
X4375Y2391D01*
X4499Y2391D02*
X4573Y2391D01*
X4701Y2391D02*
X4775Y2391D01*
X3301Y2390D02*
X3375Y2390D01*
X3499Y2390D02*
X3573Y2390D01*
X3701Y2390D02*
X3775Y2390D01*
X4301Y2390D02*
X4375Y2390D01*
X4499Y2390D02*
X4573Y2390D01*
X4701Y2390D02*
X4775Y2390D01*
X3301Y2389D02*
X3375Y2389D01*
X3499Y2389D02*
X3573Y2389D01*
X3701Y2389D02*
X3775Y2389D01*
X4301Y2389D02*
X4375Y2389D01*
X4499Y2389D02*
X4573Y2389D01*
X4701Y2389D02*
X4775Y2389D01*
X3301Y2388D02*
X3375Y2388D01*
X3499Y2388D02*
X3573Y2388D01*
X3701Y2388D02*
X3775Y2388D01*
X4301Y2388D02*
X4375Y2388D01*
X4499Y2388D02*
X4573Y2388D01*
X4701Y2388D02*
X4775Y2388D01*
X3301Y2387D02*
X3375Y2387D01*
X3499Y2387D02*
X3573Y2387D01*
X3701Y2387D02*
X3775Y2387D01*
X4301Y2387D02*
X4375Y2387D01*
X4499Y2387D02*
X4573Y2387D01*
X4701Y2387D02*
X4775Y2387D01*
X3301Y2386D02*
X3375Y2386D01*
X3499Y2386D02*
X3573Y2386D01*
X3701Y2386D02*
X3775Y2386D01*
X4301Y2386D02*
X4375Y2386D01*
X4499Y2386D02*
X4573Y2386D01*
X4701Y2386D02*
X4775Y2386D01*
X3301Y2385D02*
X3375Y2385D01*
X3499Y2385D02*
X3573Y2385D01*
X3701Y2385D02*
X3775Y2385D01*
X4301Y2385D02*
X4375Y2385D01*
X4499Y2385D02*
X4573Y2385D01*
X4701Y2385D02*
X4775Y2385D01*
X3301Y2384D02*
X3375Y2384D01*
X3499Y2384D02*
X3573Y2384D01*
X3701Y2384D02*
X3775Y2384D01*
X4301Y2384D02*
X4375Y2384D01*
X4499Y2384D02*
X4573Y2384D01*
X4701Y2384D02*
X4775Y2384D01*
X3301Y2383D02*
X3375Y2383D01*
X3499Y2383D02*
X3573Y2383D01*
X3701Y2383D02*
X3775Y2383D01*
X4301Y2383D02*
X4375Y2383D01*
X4499Y2383D02*
X4573Y2383D01*
X4701Y2383D02*
X4775Y2383D01*
X3301Y2382D02*
X3375Y2382D01*
X3499Y2382D02*
X3573Y2382D01*
X3701Y2382D02*
X3775Y2382D01*
X4301Y2382D02*
X4375Y2382D01*
X4499Y2382D02*
X4573Y2382D01*
X4701Y2382D02*
X4775Y2382D01*
X3301Y2381D02*
X3375Y2381D01*
X3499Y2381D02*
X3573Y2381D01*
X3701Y2381D02*
X3775Y2381D01*
X4301Y2381D02*
X4375Y2381D01*
X4499Y2381D02*
X4573Y2381D01*
X4701Y2381D02*
X4775Y2381D01*
X3301Y2380D02*
X3375Y2380D01*
X3499Y2380D02*
X3573Y2380D01*
X3701Y2380D02*
X3775Y2380D01*
X4301Y2380D02*
X4375Y2380D01*
X4499Y2380D02*
X4573Y2380D01*
X4701Y2380D02*
X4775Y2380D01*
X3301Y2379D02*
X3375Y2379D01*
X3499Y2379D02*
X3573Y2379D01*
X3701Y2379D02*
X3775Y2379D01*
X4301Y2379D02*
X4375Y2379D01*
X4499Y2379D02*
X4573Y2379D01*
X4701Y2379D02*
X4775Y2379D01*
X3301Y2378D02*
X3375Y2378D01*
X3499Y2378D02*
X3573Y2378D01*
X3701Y2378D02*
X3775Y2378D01*
X4301Y2378D02*
X4375Y2378D01*
X4499Y2378D02*
X4573Y2378D01*
X4701Y2378D02*
X4775Y2378D01*
X3301Y2377D02*
X3375Y2377D01*
X3499Y2377D02*
X3573Y2377D01*
X3701Y2377D02*
X3775Y2377D01*
X4301Y2377D02*
X4375Y2377D01*
X4499Y2377D02*
X4573Y2377D01*
X4701Y2377D02*
X4775Y2377D01*
X3301Y2376D02*
X3375Y2376D01*
X3499Y2376D02*
X3573Y2376D01*
X3701Y2376D02*
X3775Y2376D01*
X4301Y2376D02*
X4375Y2376D01*
X4499Y2376D02*
X4573Y2376D01*
X4701Y2376D02*
X4775Y2376D01*
X3301Y2375D02*
X3375Y2375D01*
X3499Y2375D02*
X3573Y2375D01*
X3701Y2375D02*
X3775Y2375D01*
X4301Y2375D02*
X4375Y2375D01*
X4499Y2375D02*
X4573Y2375D01*
X4701Y2375D02*
X4775Y2375D01*
X3301Y2374D02*
X3375Y2374D01*
X3499Y2374D02*
X3573Y2374D01*
X3701Y2374D02*
X3775Y2374D01*
X4301Y2374D02*
X4375Y2374D01*
X4499Y2374D02*
X4573Y2374D01*
X4701Y2374D02*
X4775Y2374D01*
X3301Y2373D02*
X3375Y2373D01*
X3499Y2373D02*
X3573Y2373D01*
X3701Y2373D02*
X3775Y2373D01*
X4301Y2373D02*
X4375Y2373D01*
X4499Y2373D02*
X4573Y2373D01*
X4701Y2373D02*
X4775Y2373D01*
X3301Y2372D02*
X3375Y2372D01*
X3499Y2372D02*
X3573Y2372D01*
X3701Y2372D02*
X3775Y2372D01*
X4301Y2372D02*
X4375Y2372D01*
X4499Y2372D02*
X4573Y2372D01*
X4701Y2372D02*
X4775Y2372D01*
X3301Y2371D02*
X3375Y2371D01*
X3499Y2371D02*
X3573Y2371D01*
X3701Y2371D02*
X3775Y2371D01*
X4301Y2371D02*
X4375Y2371D01*
X4499Y2371D02*
X4573Y2371D01*
X4701Y2371D02*
X4775Y2371D01*
X3301Y2370D02*
X3375Y2370D01*
X3499Y2370D02*
X3573Y2370D01*
X3701Y2370D02*
X3775Y2370D01*
X4301Y2370D02*
X4375Y2370D01*
X4499Y2370D02*
X4573Y2370D01*
X4701Y2370D02*
X4775Y2370D01*
X3301Y2369D02*
X3375Y2369D01*
X3499Y2369D02*
X3573Y2369D01*
X3701Y2369D02*
X3733Y2369D01*
X3743Y2369D02*
X3775Y2369D01*
X4301Y2369D02*
X4375Y2369D01*
X4499Y2369D02*
X4573Y2369D01*
X4701Y2369D02*
X4733Y2369D01*
X4743Y2369D02*
X4775Y2369D01*
X3301Y2368D02*
X3329Y2368D01*
X3347Y2368D02*
X3375Y2368D01*
X3499Y2368D02*
X3528Y2368D01*
X3545Y2368D02*
X3573Y2368D01*
X3701Y2368D02*
X3728Y2368D01*
X3748Y2368D02*
X3775Y2368D01*
X4301Y2368D02*
X4329Y2368D01*
X4347Y2368D02*
X4375Y2368D01*
X4499Y2368D02*
X4527Y2368D01*
X4545Y2368D02*
X4573Y2368D01*
X4701Y2368D02*
X4728Y2368D01*
X4748Y2368D02*
X4775Y2368D01*
X3301Y2367D02*
X3326Y2367D01*
X3350Y2367D02*
X3375Y2367D01*
X3499Y2367D02*
X3524Y2367D01*
X3548Y2367D02*
X3573Y2367D01*
X3701Y2367D02*
X3725Y2367D01*
X3751Y2367D02*
X3775Y2367D01*
X4301Y2367D02*
X4326Y2367D01*
X4350Y2367D02*
X4375Y2367D01*
X4499Y2367D02*
X4524Y2367D01*
X4548Y2367D02*
X4573Y2367D01*
X4701Y2367D02*
X4725Y2367D01*
X4751Y2367D02*
X4775Y2367D01*
X3301Y2366D02*
X3323Y2366D01*
X3353Y2366D02*
X3375Y2366D01*
X3499Y2366D02*
X3521Y2366D01*
X3551Y2366D02*
X3573Y2366D01*
X3701Y2366D02*
X3722Y2366D01*
X3754Y2366D02*
X3775Y2366D01*
X4301Y2366D02*
X4323Y2366D01*
X4353Y2366D02*
X4375Y2366D01*
X4499Y2366D02*
X4521Y2366D01*
X4551Y2366D02*
X4573Y2366D01*
X4701Y2366D02*
X4722Y2366D01*
X4754Y2366D02*
X4775Y2366D01*
X3301Y2365D02*
X3321Y2365D01*
X3355Y2365D02*
X3375Y2365D01*
X3499Y2365D02*
X3519Y2365D01*
X3553Y2365D02*
X3573Y2365D01*
X3701Y2365D02*
X3720Y2365D01*
X3756Y2365D02*
X3775Y2365D01*
X4301Y2365D02*
X4321Y2365D01*
X4355Y2365D02*
X4375Y2365D01*
X4499Y2365D02*
X4519Y2365D01*
X4553Y2365D02*
X4573Y2365D01*
X4701Y2365D02*
X4720Y2365D01*
X4756Y2365D02*
X4775Y2365D01*
X3301Y2364D02*
X3319Y2364D01*
X3357Y2364D02*
X3375Y2364D01*
X3499Y2364D02*
X3517Y2364D01*
X3555Y2364D02*
X3573Y2364D01*
X3701Y2364D02*
X3718Y2364D01*
X3758Y2364D02*
X3775Y2364D01*
X4301Y2364D02*
X4319Y2364D01*
X4357Y2364D02*
X4375Y2364D01*
X4499Y2364D02*
X4517Y2364D01*
X4555Y2364D02*
X4573Y2364D01*
X4701Y2364D02*
X4718Y2364D01*
X4758Y2364D02*
X4775Y2364D01*
X3301Y2363D02*
X3317Y2363D01*
X3359Y2363D02*
X3375Y2363D01*
X3499Y2363D02*
X3515Y2363D01*
X3557Y2363D02*
X3573Y2363D01*
X3701Y2363D02*
X3717Y2363D01*
X3759Y2363D02*
X3775Y2363D01*
X4301Y2363D02*
X4317Y2363D01*
X4359Y2363D02*
X4375Y2363D01*
X4499Y2363D02*
X4515Y2363D01*
X4557Y2363D02*
X4573Y2363D01*
X4701Y2363D02*
X4717Y2363D01*
X4759Y2363D02*
X4775Y2363D01*
X3301Y2362D02*
X3316Y2362D01*
X3360Y2362D02*
X3375Y2362D01*
X3499Y2362D02*
X3514Y2362D01*
X3558Y2362D02*
X3573Y2362D01*
X3701Y2362D02*
X3715Y2362D01*
X3761Y2362D02*
X3775Y2362D01*
X4301Y2362D02*
X4316Y2362D01*
X4360Y2362D02*
X4375Y2362D01*
X4499Y2362D02*
X4514Y2362D01*
X4558Y2362D02*
X4573Y2362D01*
X4701Y2362D02*
X4715Y2362D01*
X4761Y2362D02*
X4775Y2362D01*
X3301Y2361D02*
X3314Y2361D01*
X3362Y2361D02*
X3375Y2361D01*
X3499Y2361D02*
X3512Y2361D01*
X3560Y2361D02*
X3573Y2361D01*
X3701Y2361D02*
X3714Y2361D01*
X3762Y2361D02*
X3775Y2361D01*
X4301Y2361D02*
X4314Y2361D01*
X4362Y2361D02*
X4375Y2361D01*
X4499Y2361D02*
X4512Y2361D01*
X4560Y2361D02*
X4573Y2361D01*
X4701Y2361D02*
X4714Y2361D01*
X4762Y2361D02*
X4775Y2361D01*
X3301Y2360D02*
X3313Y2360D01*
X3363Y2360D02*
X3375Y2360D01*
X3499Y2360D02*
X3511Y2360D01*
X3561Y2360D02*
X3573Y2360D01*
X3701Y2360D02*
X3713Y2360D01*
X3763Y2360D02*
X3775Y2360D01*
X4301Y2360D02*
X4313Y2360D01*
X4363Y2360D02*
X4375Y2360D01*
X4499Y2360D02*
X4511Y2360D01*
X4561Y2360D02*
X4573Y2360D01*
X4701Y2360D02*
X4713Y2360D01*
X4763Y2360D02*
X4775Y2360D01*
X3301Y2359D02*
X3312Y2359D01*
X3364Y2359D02*
X3375Y2359D01*
X3499Y2359D02*
X3510Y2359D01*
X3562Y2359D02*
X3573Y2359D01*
X3701Y2359D02*
X3712Y2359D01*
X3764Y2359D02*
X3775Y2359D01*
X4301Y2359D02*
X4312Y2359D01*
X4364Y2359D02*
X4375Y2359D01*
X4499Y2359D02*
X4510Y2359D01*
X4562Y2359D02*
X4573Y2359D01*
X4701Y2359D02*
X4712Y2359D01*
X4764Y2359D02*
X4775Y2359D01*
X3301Y2358D02*
X3311Y2358D01*
X3365Y2358D02*
X3375Y2358D01*
X3499Y2358D02*
X3509Y2358D01*
X3563Y2358D02*
X3573Y2358D01*
X3701Y2358D02*
X3711Y2358D01*
X3765Y2358D02*
X3775Y2358D01*
X4301Y2358D02*
X4311Y2358D01*
X4365Y2358D02*
X4375Y2358D01*
X4499Y2358D02*
X4509Y2358D01*
X4563Y2358D02*
X4573Y2358D01*
X4701Y2358D02*
X4711Y2358D01*
X4765Y2358D02*
X4775Y2358D01*
X3301Y2357D02*
X3310Y2357D01*
X3366Y2357D02*
X3375Y2357D01*
X3499Y2357D02*
X3508Y2357D01*
X3564Y2357D02*
X3573Y2357D01*
X3701Y2357D02*
X3710Y2357D01*
X3766Y2357D02*
X3775Y2357D01*
X4301Y2357D02*
X4310Y2357D01*
X4366Y2357D02*
X4375Y2357D01*
X4499Y2357D02*
X4508Y2357D01*
X4564Y2357D02*
X4573Y2357D01*
X4701Y2357D02*
X4710Y2357D01*
X4766Y2357D02*
X4775Y2357D01*
X3301Y2356D02*
X3309Y2356D01*
X3367Y2356D02*
X3375Y2356D01*
X3499Y2356D02*
X3507Y2356D01*
X3565Y2356D02*
X3573Y2356D01*
X3701Y2356D02*
X3709Y2356D01*
X3767Y2356D02*
X3775Y2356D01*
X4301Y2356D02*
X4309Y2356D01*
X4367Y2356D02*
X4375Y2356D01*
X4499Y2356D02*
X4507Y2356D01*
X4565Y2356D02*
X4573Y2356D01*
X4701Y2356D02*
X4709Y2356D01*
X4767Y2356D02*
X4775Y2356D01*
X3301Y2355D02*
X3308Y2355D01*
X3368Y2355D02*
X3375Y2355D01*
X3499Y2355D02*
X3506Y2355D01*
X3566Y2355D02*
X3573Y2355D01*
X3701Y2355D02*
X3708Y2355D01*
X3768Y2355D02*
X3775Y2355D01*
X4301Y2355D02*
X4308Y2355D01*
X4368Y2355D02*
X4375Y2355D01*
X4499Y2355D02*
X4506Y2355D01*
X4566Y2355D02*
X4573Y2355D01*
X4701Y2355D02*
X4708Y2355D01*
X4768Y2355D02*
X4775Y2355D01*
X3301Y2354D02*
X3308Y2354D01*
X3369Y2354D02*
X3375Y2354D01*
X3499Y2354D02*
X3506Y2354D01*
X3567Y2354D02*
X3573Y2354D01*
X3701Y2354D02*
X3707Y2354D01*
X3769Y2354D02*
X3775Y2354D01*
X4301Y2354D02*
X4308Y2354D01*
X4368Y2354D02*
X4375Y2354D01*
X4499Y2354D02*
X4506Y2354D01*
X4566Y2354D02*
X4573Y2354D01*
X4701Y2354D02*
X4707Y2354D01*
X4769Y2354D02*
X4775Y2354D01*
X3301Y2353D02*
X3307Y2353D01*
X3369Y2353D02*
X3375Y2353D01*
X3499Y2353D02*
X3505Y2353D01*
X3567Y2353D02*
X3573Y2353D01*
X3701Y2353D02*
X3706Y2353D01*
X3770Y2353D02*
X3775Y2353D01*
X4301Y2353D02*
X4307Y2353D01*
X4369Y2353D02*
X4375Y2353D01*
X4499Y2353D02*
X4505Y2353D01*
X4567Y2353D02*
X4573Y2353D01*
X4701Y2353D02*
X4706Y2353D01*
X4770Y2353D02*
X4775Y2353D01*
X3301Y2352D02*
X3306Y2352D01*
X3370Y2352D02*
X3375Y2352D01*
X3499Y2352D02*
X3504Y2352D01*
X3568Y2352D02*
X3573Y2352D01*
X3701Y2352D02*
X3706Y2352D01*
X3770Y2352D02*
X3775Y2352D01*
X4301Y2352D02*
X4306Y2352D01*
X4370Y2352D02*
X4375Y2352D01*
X4499Y2352D02*
X4504Y2352D01*
X4568Y2352D02*
X4573Y2352D01*
X4701Y2352D02*
X4706Y2352D01*
X4770Y2352D02*
X4775Y2352D01*
X3301Y2351D02*
X3306Y2351D01*
X3371Y2351D02*
X3375Y2351D01*
X3499Y2351D02*
X3504Y2351D01*
X3569Y2351D02*
X3573Y2351D01*
X3701Y2351D02*
X3705Y2351D01*
X3771Y2351D02*
X3775Y2351D01*
X4301Y2351D02*
X4306Y2351D01*
X4370Y2351D02*
X4375Y2351D01*
X4499Y2351D02*
X4504Y2351D01*
X4569Y2351D02*
X4573Y2351D01*
X4701Y2351D02*
X4705Y2351D01*
X4771Y2351D02*
X4775Y2351D01*
X3301Y2350D02*
X3305Y2350D01*
X3371Y2350D02*
X3375Y2350D01*
X3499Y2350D02*
X3503Y2350D01*
X3569Y2350D02*
X3573Y2350D01*
X3701Y2350D02*
X3705Y2350D01*
X3771Y2350D02*
X3775Y2350D01*
X4301Y2350D02*
X4305Y2350D01*
X4371Y2350D02*
X4375Y2350D01*
X4499Y2350D02*
X4503Y2350D01*
X4569Y2350D02*
X4573Y2350D01*
X4701Y2350D02*
X4705Y2350D01*
X4771Y2350D02*
X4775Y2350D01*
X3301Y2349D02*
X3304Y2349D01*
X3372Y2349D02*
X3375Y2349D01*
X3499Y2349D02*
X3502Y2349D01*
X3570Y2349D02*
X3573Y2349D01*
X3701Y2349D02*
X3704Y2349D01*
X3772Y2349D02*
X3775Y2349D01*
X4301Y2349D02*
X4304Y2349D01*
X4372Y2349D02*
X4375Y2349D01*
X4499Y2349D02*
X4502Y2349D01*
X4570Y2349D02*
X4573Y2349D01*
X4701Y2349D02*
X4704Y2349D01*
X4772Y2349D02*
X4775Y2349D01*
X3301Y2348D02*
X3304Y2348D01*
X3372Y2348D02*
X3375Y2348D01*
X3499Y2348D02*
X3502Y2348D01*
X3570Y2348D02*
X3573Y2348D01*
X3701Y2348D02*
X3704Y2348D01*
X3773Y2348D02*
X3775Y2348D01*
X4301Y2348D02*
X4304Y2348D01*
X4372Y2348D02*
X4375Y2348D01*
X4499Y2348D02*
X4502Y2348D01*
X4570Y2348D02*
X4573Y2348D01*
X4701Y2348D02*
X4704Y2348D01*
X4772Y2348D02*
X4775Y2348D01*
X3301Y2347D02*
X3303Y2347D01*
X3373Y2347D02*
X3375Y2347D01*
X3499Y2347D02*
X3501Y2347D01*
X3571Y2347D02*
X3573Y2347D01*
X3701Y2347D02*
X3703Y2347D01*
X3773Y2347D02*
X3775Y2347D01*
X4301Y2347D02*
X4303Y2347D01*
X4373Y2347D02*
X4375Y2347D01*
X4499Y2347D02*
X4501Y2347D01*
X4571Y2347D02*
X4573Y2347D01*
X4701Y2347D02*
X4703Y2347D01*
X4773Y2347D02*
X4775Y2347D01*
X3301Y2346D02*
X3303Y2346D01*
X3373Y2346D02*
X3375Y2346D01*
X3499Y2346D02*
X3501Y2346D01*
X3571Y2346D02*
X3573Y2346D01*
X3701Y2346D02*
X3703Y2346D01*
X3773Y2346D02*
X3775Y2346D01*
X4301Y2346D02*
X4303Y2346D01*
X4373Y2346D02*
X4375Y2346D01*
X4499Y2346D02*
X4501Y2346D01*
X4571Y2346D02*
X4573Y2346D01*
X4701Y2346D02*
X4703Y2346D01*
X4773Y2346D02*
X4775Y2346D01*
X3301Y2345D02*
X3303Y2345D01*
X3373Y2345D02*
X3375Y2345D01*
X3499Y2345D02*
X3501Y2345D01*
X3572Y2345D02*
X3573Y2345D01*
X3701Y2345D02*
X3702Y2345D01*
X3774Y2345D02*
X3775Y2345D01*
X4301Y2345D02*
X4303Y2345D01*
X4373Y2345D02*
X4375Y2345D01*
X4499Y2345D02*
X4501Y2345D01*
X4571Y2345D02*
X4573Y2345D01*
X4701Y2345D02*
X4702Y2345D01*
X4774Y2345D02*
X4775Y2345D01*
X3301Y2344D02*
X3302Y2344D01*
X3374Y2344D02*
X3375Y2344D01*
X3499Y2344D02*
X3500Y2344D01*
X3572Y2344D02*
X3573Y2344D01*
X3701Y2344D02*
X3702Y2344D01*
X3774Y2344D02*
X3775Y2344D01*
X4301Y2344D02*
X4302Y2344D01*
X4374Y2344D02*
X4375Y2344D01*
X4499Y2344D02*
X4500Y2344D01*
X4572Y2344D02*
X4573Y2344D01*
X4701Y2344D02*
X4702Y2344D01*
X4774Y2344D02*
X4775Y2344D01*
X3301Y2343D02*
X3302Y2343D01*
X3374Y2343D02*
X3375Y2343D01*
X3499Y2343D02*
X3500Y2343D01*
X3572Y2343D02*
X3573Y2343D01*
X3701Y2343D02*
X3702Y2343D01*
X3775Y2343D02*
X3775Y2343D01*
X4301Y2343D02*
X4302Y2343D01*
X4374Y2343D02*
X4375Y2343D01*
X4499Y2343D02*
X4500Y2343D01*
X4572Y2343D02*
X4573Y2343D01*
X4701Y2343D02*
X4701Y2343D01*
X4774Y2343D02*
X4775Y2343D01*
X3301Y2342D02*
X3302Y2342D01*
X3375Y2342D02*
X3375Y2342D01*
X3499Y2342D02*
X3500Y2342D01*
X3573Y2342D02*
X3573Y2342D01*
X3701Y2342D02*
X3701Y2342D01*
X3775Y2342D02*
X3775Y2342D01*
X4301Y2342D02*
X4302Y2342D01*
X4374Y2342D02*
X4375Y2342D01*
X4499Y2342D02*
X4500Y2342D01*
X4572Y2342D02*
X4573Y2342D01*
X4701Y2342D02*
X4701Y2342D01*
X4775Y2342D02*
X4775Y2342D01*
X3301Y2341D02*
X3301Y2341D01*
X3375Y2341D02*
X3375Y2341D01*
X3499Y2341D02*
X3499Y2341D01*
X3573Y2341D02*
X3573Y2341D01*
X3701Y2341D02*
X3701Y2341D01*
X3775Y2341D02*
X3775Y2341D01*
X4301Y2341D02*
X4301Y2341D01*
X4375Y2341D02*
X4375Y2341D01*
X4499Y2341D02*
X4499Y2341D01*
X4573Y2341D02*
X4573Y2341D01*
X4701Y2341D02*
X4701Y2341D01*
X4775Y2341D02*
X4775Y2341D01*
X3301Y2340D02*
X3301Y2340D01*
X3375Y2340D02*
X3375Y2340D01*
X3499Y2340D02*
X3499Y2340D01*
X3573Y2340D02*
X3573Y2340D01*
X3701Y2340D02*
X3701Y2340D01*
X3775Y2340D02*
X3775Y2340D01*
X4301Y2340D02*
X4301Y2340D01*
X4375Y2340D02*
X4375Y2340D01*
X4499Y2340D02*
X4499Y2340D01*
X4573Y2340D02*
X4573Y2340D01*
X4701Y2340D02*
X4701Y2340D01*
X4775Y2340D02*
X4775Y2340D01*
X3301Y2339D02*
X3301Y2339D01*
X3375Y2339D02*
X3375Y2339D01*
X3499Y2339D02*
X3499Y2339D01*
X3573Y2339D02*
X3573Y2339D01*
X3701Y2339D02*
X3701Y2339D01*
X4301Y2339D02*
X4301Y2339D01*
X4375Y2339D02*
X4375Y2339D01*
X4499Y2339D02*
X4499Y2339D01*
X4573Y2339D02*
X4573Y2339D01*
X3301Y2338D02*
X3301Y2338D01*
X3375Y2338D02*
X3375Y2338D01*
X3499Y2338D02*
X3499Y2338D01*
X3573Y2338D02*
X3573Y2338D01*
X4301Y2338D02*
X4301Y2338D01*
X4375Y2338D02*
X4375Y2338D01*
X4499Y2338D02*
X4499Y2338D01*
X4573Y2338D02*
X4573Y2338D01*
X3301Y2325D02*
X3301Y2325D01*
X3375Y2325D02*
X3375Y2325D01*
X3499Y2325D02*
X3499Y2325D01*
X3573Y2325D02*
X3573Y2325D01*
X4301Y2325D02*
X4301Y2325D01*
X4375Y2325D02*
X4375Y2325D01*
X4499Y2325D02*
X4499Y2325D01*
X4573Y2325D02*
X4573Y2325D01*
X3301Y2324D02*
X3301Y2324D01*
X3375Y2324D02*
X3375Y2324D01*
X3499Y2324D02*
X3499Y2324D01*
X3573Y2324D02*
X3573Y2324D01*
X3701Y2324D02*
X3701Y2324D01*
X4301Y2324D02*
X4301Y2324D01*
X4375Y2324D02*
X4375Y2324D01*
X4499Y2324D02*
X4499Y2324D01*
X4573Y2324D02*
X4573Y2324D01*
X3301Y2323D02*
X3301Y2323D01*
X3375Y2323D02*
X3375Y2323D01*
X3499Y2323D02*
X3499Y2323D01*
X3573Y2323D02*
X3573Y2323D01*
X3701Y2323D02*
X3701Y2323D01*
X3775Y2323D02*
X3775Y2323D01*
X4301Y2323D02*
X4301Y2323D01*
X4375Y2323D02*
X4375Y2323D01*
X4499Y2323D02*
X4499Y2323D01*
X4573Y2323D02*
X4573Y2323D01*
X4701Y2323D02*
X4701Y2323D01*
X4775Y2323D02*
X4775Y2323D01*
X3301Y2322D02*
X3301Y2322D01*
X3375Y2322D02*
X3375Y2322D01*
X3499Y2322D02*
X3499Y2322D01*
X3573Y2322D02*
X3573Y2322D01*
X3701Y2322D02*
X3701Y2322D01*
X3775Y2322D02*
X3775Y2322D01*
X4301Y2322D02*
X4301Y2322D01*
X4375Y2322D02*
X4375Y2322D01*
X4499Y2322D02*
X4499Y2322D01*
X4573Y2322D02*
X4573Y2322D01*
X4701Y2322D02*
X4701Y2322D01*
X4775Y2322D02*
X4775Y2322D01*
X3301Y2321D02*
X3302Y2321D01*
X3374Y2321D02*
X3375Y2321D01*
X3499Y2321D02*
X3500Y2321D01*
X3573Y2321D02*
X3573Y2321D01*
X3701Y2321D02*
X3701Y2321D01*
X3775Y2321D02*
X3775Y2321D01*
X4301Y2321D02*
X4302Y2321D01*
X4374Y2321D02*
X4375Y2321D01*
X4499Y2321D02*
X4500Y2321D01*
X4572Y2321D02*
X4573Y2321D01*
X4701Y2321D02*
X4701Y2321D01*
X4775Y2321D02*
X4775Y2321D01*
X3301Y2320D02*
X3302Y2320D01*
X3374Y2320D02*
X3375Y2320D01*
X3499Y2320D02*
X3500Y2320D01*
X3572Y2320D02*
X3573Y2320D01*
X3701Y2320D02*
X3702Y2320D01*
X3775Y2320D02*
X3775Y2320D01*
X4301Y2320D02*
X4302Y2320D01*
X4374Y2320D02*
X4375Y2320D01*
X4499Y2320D02*
X4500Y2320D01*
X4572Y2320D02*
X4573Y2320D01*
X4701Y2320D02*
X4701Y2320D01*
X4774Y2320D02*
X4775Y2320D01*
X3301Y2319D02*
X3302Y2319D01*
X3374Y2319D02*
X3375Y2319D01*
X3499Y2319D02*
X3500Y2319D01*
X3572Y2319D02*
X3573Y2319D01*
X3701Y2319D02*
X3702Y2319D01*
X3774Y2319D02*
X3775Y2319D01*
X4301Y2319D02*
X4302Y2319D01*
X4374Y2319D02*
X4375Y2319D01*
X4499Y2319D02*
X4500Y2319D01*
X4572Y2319D02*
X4573Y2319D01*
X4701Y2319D02*
X4702Y2319D01*
X4774Y2319D02*
X4775Y2319D01*
X3301Y2318D02*
X3303Y2318D01*
X3373Y2318D02*
X3375Y2318D01*
X3499Y2318D02*
X3501Y2318D01*
X3571Y2318D02*
X3573Y2318D01*
X3701Y2318D02*
X3702Y2318D01*
X3774Y2318D02*
X3775Y2318D01*
X4301Y2318D02*
X4303Y2318D01*
X4373Y2318D02*
X4375Y2318D01*
X4499Y2318D02*
X4501Y2318D01*
X4571Y2318D02*
X4573Y2318D01*
X4701Y2318D02*
X4702Y2318D01*
X4774Y2318D02*
X4775Y2318D01*
X3301Y2317D02*
X3303Y2317D01*
X3373Y2317D02*
X3375Y2317D01*
X3499Y2317D02*
X3501Y2317D01*
X3571Y2317D02*
X3573Y2317D01*
X3701Y2317D02*
X3703Y2317D01*
X3773Y2317D02*
X3775Y2317D01*
X4301Y2317D02*
X4303Y2317D01*
X4373Y2317D02*
X4375Y2317D01*
X4499Y2317D02*
X4501Y2317D01*
X4571Y2317D02*
X4573Y2317D01*
X4701Y2317D02*
X4703Y2317D01*
X4773Y2317D02*
X4775Y2317D01*
X3301Y2316D02*
X3304Y2316D01*
X3373Y2316D02*
X3375Y2316D01*
X3499Y2316D02*
X3502Y2316D01*
X3571Y2316D02*
X3573Y2316D01*
X3701Y2316D02*
X3703Y2316D01*
X3773Y2316D02*
X3775Y2316D01*
X4301Y2316D02*
X4303Y2316D01*
X4373Y2316D02*
X4375Y2316D01*
X4499Y2316D02*
X4501Y2316D01*
X4571Y2316D02*
X4573Y2316D01*
X4701Y2316D02*
X4703Y2316D01*
X4773Y2316D02*
X4775Y2316D01*
X3301Y2315D02*
X3304Y2315D01*
X3372Y2315D02*
X3375Y2315D01*
X3499Y2315D02*
X3502Y2315D01*
X3570Y2315D02*
X3573Y2315D01*
X3701Y2315D02*
X3704Y2315D01*
X3772Y2315D02*
X3775Y2315D01*
X4301Y2315D02*
X4304Y2315D01*
X4372Y2315D02*
X4375Y2315D01*
X4499Y2315D02*
X4502Y2315D01*
X4570Y2315D02*
X4573Y2315D01*
X4701Y2315D02*
X4704Y2315D01*
X4772Y2315D02*
X4775Y2315D01*
X3301Y2314D02*
X3304Y2314D01*
X3372Y2314D02*
X3375Y2314D01*
X3499Y2314D02*
X3503Y2314D01*
X3570Y2314D02*
X3573Y2314D01*
X3701Y2314D02*
X3704Y2314D01*
X3772Y2314D02*
X3775Y2314D01*
X4301Y2314D02*
X4304Y2314D01*
X4372Y2314D02*
X4375Y2314D01*
X4499Y2314D02*
X4502Y2314D01*
X4570Y2314D02*
X4573Y2314D01*
X4701Y2314D02*
X4704Y2314D01*
X4772Y2314D02*
X4775Y2314D01*
X3301Y2313D02*
X3305Y2313D01*
X3371Y2313D02*
X3375Y2313D01*
X3499Y2313D02*
X3503Y2313D01*
X3569Y2313D02*
X3573Y2313D01*
X3701Y2313D02*
X3705Y2313D01*
X3771Y2313D02*
X3775Y2313D01*
X4301Y2313D02*
X4305Y2313D01*
X4371Y2313D02*
X4375Y2313D01*
X4499Y2313D02*
X4503Y2313D01*
X4569Y2313D02*
X4573Y2313D01*
X4701Y2313D02*
X4705Y2313D01*
X4771Y2313D02*
X4775Y2313D01*
X3301Y2312D02*
X3306Y2312D01*
X3370Y2312D02*
X3375Y2312D01*
X3499Y2312D02*
X3504Y2312D01*
X3569Y2312D02*
X3573Y2312D01*
X3701Y2312D02*
X3705Y2312D01*
X3771Y2312D02*
X3775Y2312D01*
X4301Y2312D02*
X4306Y2312D01*
X4370Y2312D02*
X4375Y2312D01*
X4499Y2312D02*
X4504Y2312D01*
X4568Y2312D02*
X4573Y2312D01*
X4701Y2312D02*
X4705Y2312D01*
X4771Y2312D02*
X4775Y2312D01*
X3301Y2311D02*
X3306Y2311D01*
X3370Y2311D02*
X3375Y2311D01*
X3499Y2311D02*
X3504Y2311D01*
X3568Y2311D02*
X3573Y2311D01*
X3701Y2311D02*
X3706Y2311D01*
X3770Y2311D02*
X3775Y2311D01*
X4301Y2311D02*
X4306Y2311D01*
X4370Y2311D02*
X4375Y2311D01*
X4499Y2311D02*
X4504Y2311D01*
X4568Y2311D02*
X4573Y2311D01*
X4701Y2311D02*
X4706Y2311D01*
X4770Y2311D02*
X4775Y2311D01*
X3301Y2310D02*
X3307Y2310D01*
X3369Y2310D02*
X3375Y2310D01*
X3499Y2310D02*
X3505Y2310D01*
X3567Y2310D02*
X3573Y2310D01*
X3701Y2310D02*
X3706Y2310D01*
X3770Y2310D02*
X3775Y2310D01*
X4301Y2310D02*
X4307Y2310D01*
X4369Y2310D02*
X4375Y2310D01*
X4499Y2310D02*
X4505Y2310D01*
X4567Y2310D02*
X4573Y2310D01*
X4701Y2310D02*
X4706Y2310D01*
X4770Y2310D02*
X4775Y2310D01*
X3301Y2309D02*
X3308Y2309D01*
X3368Y2309D02*
X3375Y2309D01*
X3499Y2309D02*
X3506Y2309D01*
X3566Y2309D02*
X3573Y2309D01*
X3701Y2309D02*
X3707Y2309D01*
X3769Y2309D02*
X3775Y2309D01*
X4301Y2309D02*
X4308Y2309D01*
X4368Y2309D02*
X4375Y2309D01*
X4499Y2309D02*
X4506Y2309D01*
X4566Y2309D02*
X4573Y2309D01*
X4701Y2309D02*
X4707Y2309D01*
X4769Y2309D02*
X4775Y2309D01*
X3301Y2308D02*
X3308Y2308D01*
X3368Y2308D02*
X3375Y2308D01*
X3499Y2308D02*
X3506Y2308D01*
X3566Y2308D02*
X3573Y2308D01*
X3701Y2308D02*
X3708Y2308D01*
X3768Y2308D02*
X3775Y2308D01*
X4301Y2308D02*
X4308Y2308D01*
X4368Y2308D02*
X4375Y2308D01*
X4499Y2308D02*
X4506Y2308D01*
X4566Y2308D02*
X4573Y2308D01*
X4701Y2308D02*
X4708Y2308D01*
X4768Y2308D02*
X4775Y2308D01*
X3301Y2307D02*
X3309Y2307D01*
X3367Y2307D02*
X3375Y2307D01*
X3499Y2307D02*
X3507Y2307D01*
X3565Y2307D02*
X3573Y2307D01*
X3701Y2307D02*
X3709Y2307D01*
X3767Y2307D02*
X3775Y2307D01*
X4301Y2307D02*
X4309Y2307D01*
X4367Y2307D02*
X4375Y2307D01*
X4499Y2307D02*
X4507Y2307D01*
X4565Y2307D02*
X4573Y2307D01*
X4701Y2307D02*
X4709Y2307D01*
X4767Y2307D02*
X4775Y2307D01*
X3301Y2306D02*
X3310Y2306D01*
X3366Y2306D02*
X3375Y2306D01*
X3499Y2306D02*
X3508Y2306D01*
X3564Y2306D02*
X3573Y2306D01*
X3701Y2306D02*
X3710Y2306D01*
X3766Y2306D02*
X3775Y2306D01*
X4301Y2306D02*
X4310Y2306D01*
X4366Y2306D02*
X4375Y2306D01*
X4499Y2306D02*
X4508Y2306D01*
X4564Y2306D02*
X4573Y2306D01*
X4701Y2306D02*
X4710Y2306D01*
X4766Y2306D02*
X4775Y2306D01*
X3301Y2305D02*
X3311Y2305D01*
X3365Y2305D02*
X3375Y2305D01*
X3499Y2305D02*
X3509Y2305D01*
X3563Y2305D02*
X3573Y2305D01*
X3701Y2305D02*
X3711Y2305D01*
X3765Y2305D02*
X3775Y2305D01*
X4301Y2305D02*
X4311Y2305D01*
X4365Y2305D02*
X4375Y2305D01*
X4499Y2305D02*
X4509Y2305D01*
X4563Y2305D02*
X4573Y2305D01*
X4701Y2305D02*
X4711Y2305D01*
X4765Y2305D02*
X4775Y2305D01*
X3301Y2304D02*
X3312Y2304D01*
X3364Y2304D02*
X3375Y2304D01*
X3499Y2304D02*
X3510Y2304D01*
X3562Y2304D02*
X3573Y2304D01*
X3701Y2304D02*
X3712Y2304D01*
X3764Y2304D02*
X3775Y2304D01*
X4301Y2304D02*
X4312Y2304D01*
X4364Y2304D02*
X4375Y2304D01*
X4499Y2304D02*
X4510Y2304D01*
X4562Y2304D02*
X4573Y2304D01*
X4701Y2304D02*
X4712Y2304D01*
X4764Y2304D02*
X4775Y2304D01*
X3301Y2303D02*
X3313Y2303D01*
X3363Y2303D02*
X3375Y2303D01*
X3499Y2303D02*
X3511Y2303D01*
X3561Y2303D02*
X3573Y2303D01*
X3701Y2303D02*
X3713Y2303D01*
X3763Y2303D02*
X3775Y2303D01*
X4301Y2303D02*
X4313Y2303D01*
X4363Y2303D02*
X4375Y2303D01*
X4499Y2303D02*
X4511Y2303D01*
X4561Y2303D02*
X4573Y2303D01*
X4701Y2303D02*
X4713Y2303D01*
X4763Y2303D02*
X4775Y2303D01*
X3301Y2302D02*
X3315Y2302D01*
X3362Y2302D02*
X3375Y2302D01*
X3499Y2302D02*
X3513Y2302D01*
X3560Y2302D02*
X3573Y2302D01*
X3701Y2302D02*
X3714Y2302D01*
X3762Y2302D02*
X3775Y2302D01*
X4301Y2302D02*
X4314Y2302D01*
X4361Y2302D02*
X4375Y2302D01*
X4499Y2302D02*
X4513Y2302D01*
X4560Y2302D02*
X4573Y2302D01*
X4701Y2302D02*
X4714Y2302D01*
X4762Y2302D02*
X4775Y2302D01*
X3301Y2301D02*
X3316Y2301D01*
X3360Y2301D02*
X3375Y2301D01*
X3499Y2301D02*
X3514Y2301D01*
X3558Y2301D02*
X3573Y2301D01*
X3701Y2301D02*
X3715Y2301D01*
X3761Y2301D02*
X3775Y2301D01*
X4301Y2301D02*
X4316Y2301D01*
X4360Y2301D02*
X4375Y2301D01*
X4499Y2301D02*
X4514Y2301D01*
X4558Y2301D02*
X4573Y2301D01*
X4701Y2301D02*
X4715Y2301D01*
X4761Y2301D02*
X4775Y2301D01*
X3301Y2300D02*
X3317Y2300D01*
X3359Y2300D02*
X3375Y2300D01*
X3499Y2300D02*
X3515Y2300D01*
X3557Y2300D02*
X3573Y2300D01*
X3701Y2300D02*
X3717Y2300D01*
X3759Y2300D02*
X3775Y2300D01*
X4301Y2300D02*
X4317Y2300D01*
X4359Y2300D02*
X4375Y2300D01*
X4499Y2300D02*
X4515Y2300D01*
X4557Y2300D02*
X4573Y2300D01*
X4701Y2300D02*
X4717Y2300D01*
X4759Y2300D02*
X4775Y2300D01*
X3301Y2299D02*
X3319Y2299D01*
X3357Y2299D02*
X3375Y2299D01*
X3499Y2299D02*
X3517Y2299D01*
X3555Y2299D02*
X3573Y2299D01*
X3701Y2299D02*
X3718Y2299D01*
X3758Y2299D02*
X3775Y2299D01*
X4301Y2299D02*
X4319Y2299D01*
X4357Y2299D02*
X4375Y2299D01*
X4499Y2299D02*
X4517Y2299D01*
X4555Y2299D02*
X4573Y2299D01*
X4701Y2299D02*
X4718Y2299D01*
X4758Y2299D02*
X4775Y2299D01*
X3301Y2298D02*
X3321Y2298D01*
X3355Y2298D02*
X3375Y2298D01*
X3499Y2298D02*
X3519Y2298D01*
X3553Y2298D02*
X3573Y2298D01*
X3701Y2298D02*
X3720Y2298D01*
X3756Y2298D02*
X3775Y2298D01*
X4301Y2298D02*
X4321Y2298D01*
X4355Y2298D02*
X4375Y2298D01*
X4499Y2298D02*
X4519Y2298D01*
X4553Y2298D02*
X4573Y2298D01*
X4701Y2298D02*
X4720Y2298D01*
X4756Y2298D02*
X4775Y2298D01*
X3301Y2297D02*
X3323Y2297D01*
X3353Y2297D02*
X3375Y2297D01*
X3499Y2297D02*
X3521Y2297D01*
X3551Y2297D02*
X3573Y2297D01*
X3701Y2297D02*
X3722Y2297D01*
X3754Y2297D02*
X3775Y2297D01*
X4301Y2297D02*
X4323Y2297D01*
X4353Y2297D02*
X4375Y2297D01*
X4499Y2297D02*
X4521Y2297D01*
X4551Y2297D02*
X4573Y2297D01*
X4701Y2297D02*
X4722Y2297D01*
X4754Y2297D02*
X4775Y2297D01*
X3301Y2296D02*
X3326Y2296D01*
X3350Y2296D02*
X3375Y2296D01*
X3499Y2296D02*
X3524Y2296D01*
X3548Y2296D02*
X3573Y2296D01*
X3701Y2296D02*
X3725Y2296D01*
X3751Y2296D02*
X3775Y2296D01*
X4301Y2296D02*
X4326Y2296D01*
X4350Y2296D02*
X4375Y2296D01*
X4499Y2296D02*
X4524Y2296D01*
X4548Y2296D02*
X4573Y2296D01*
X4701Y2296D02*
X4725Y2296D01*
X4751Y2296D02*
X4775Y2296D01*
X3301Y2295D02*
X3330Y2295D01*
X3346Y2295D02*
X3375Y2295D01*
X3499Y2295D02*
X3528Y2295D01*
X3544Y2295D02*
X3573Y2295D01*
X3701Y2295D02*
X3728Y2295D01*
X3748Y2295D02*
X3775Y2295D01*
X4301Y2295D02*
X4330Y2295D01*
X4346Y2295D02*
X4375Y2295D01*
X4499Y2295D02*
X4528Y2295D01*
X4544Y2295D02*
X4573Y2295D01*
X4701Y2295D02*
X4728Y2295D01*
X4748Y2295D02*
X4775Y2295D01*
X3301Y2294D02*
X3375Y2294D01*
X3499Y2294D02*
X3573Y2294D01*
X3701Y2294D02*
X3733Y2294D01*
X3743Y2294D02*
X3775Y2294D01*
X4301Y2294D02*
X4375Y2294D01*
X4499Y2294D02*
X4573Y2294D01*
X4701Y2294D02*
X4733Y2294D01*
X4743Y2294D02*
X4775Y2294D01*
X3301Y2293D02*
X3375Y2293D01*
X3499Y2293D02*
X3573Y2293D01*
X3701Y2293D02*
X3775Y2293D01*
X4301Y2293D02*
X4375Y2293D01*
X4499Y2293D02*
X4573Y2293D01*
X4701Y2293D02*
X4775Y2293D01*
X3301Y2292D02*
X3375Y2292D01*
X3499Y2292D02*
X3573Y2292D01*
X3701Y2292D02*
X3775Y2292D01*
X4301Y2292D02*
X4375Y2292D01*
X4499Y2292D02*
X4573Y2292D01*
X4701Y2292D02*
X4775Y2292D01*
X3301Y2291D02*
X3375Y2291D01*
X3499Y2291D02*
X3573Y2291D01*
X3701Y2291D02*
X3775Y2291D01*
X4301Y2291D02*
X4375Y2291D01*
X4499Y2291D02*
X4573Y2291D01*
X4701Y2291D02*
X4775Y2291D01*
X3301Y2290D02*
X3375Y2290D01*
X3499Y2290D02*
X3573Y2290D01*
X3701Y2290D02*
X3775Y2290D01*
X4301Y2290D02*
X4375Y2290D01*
X4499Y2290D02*
X4573Y2290D01*
X4701Y2290D02*
X4775Y2290D01*
X3301Y2289D02*
X3375Y2289D01*
X3499Y2289D02*
X3573Y2289D01*
X3701Y2289D02*
X3775Y2289D01*
X4301Y2289D02*
X4375Y2289D01*
X4499Y2289D02*
X4573Y2289D01*
X4701Y2289D02*
X4775Y2289D01*
X3301Y2288D02*
X3375Y2288D01*
X3499Y2288D02*
X3573Y2288D01*
X3701Y2288D02*
X3775Y2288D01*
X4301Y2288D02*
X4375Y2288D01*
X4499Y2288D02*
X4573Y2288D01*
X4701Y2288D02*
X4775Y2288D01*
X3301Y2287D02*
X3375Y2287D01*
X3499Y2287D02*
X3573Y2287D01*
X3701Y2287D02*
X3775Y2287D01*
X4301Y2287D02*
X4375Y2287D01*
X4499Y2287D02*
X4573Y2287D01*
X4701Y2287D02*
X4775Y2287D01*
X3301Y2286D02*
X3375Y2286D01*
X3499Y2286D02*
X3573Y2286D01*
X3701Y2286D02*
X3775Y2286D01*
X4301Y2286D02*
X4375Y2286D01*
X4499Y2286D02*
X4573Y2286D01*
X4701Y2286D02*
X4775Y2286D01*
X3301Y2285D02*
X3375Y2285D01*
X3499Y2285D02*
X3573Y2285D01*
X3701Y2285D02*
X3775Y2285D01*
X4301Y2285D02*
X4375Y2285D01*
X4499Y2285D02*
X4573Y2285D01*
X4701Y2285D02*
X4775Y2285D01*
X3301Y2284D02*
X3375Y2284D01*
X3499Y2284D02*
X3573Y2284D01*
X3701Y2284D02*
X3775Y2284D01*
X4301Y2284D02*
X4375Y2284D01*
X4499Y2284D02*
X4573Y2284D01*
X4701Y2284D02*
X4775Y2284D01*
X3301Y2283D02*
X3375Y2283D01*
X3499Y2283D02*
X3573Y2283D01*
X3701Y2283D02*
X3775Y2283D01*
X4301Y2283D02*
X4375Y2283D01*
X4499Y2283D02*
X4573Y2283D01*
X4701Y2283D02*
X4775Y2283D01*
X3301Y2282D02*
X3375Y2282D01*
X3499Y2282D02*
X3573Y2282D01*
X3701Y2282D02*
X3775Y2282D01*
X4301Y2282D02*
X4375Y2282D01*
X4499Y2282D02*
X4573Y2282D01*
X4701Y2282D02*
X4775Y2282D01*
X3301Y2281D02*
X3375Y2281D01*
X3499Y2281D02*
X3573Y2281D01*
X3701Y2281D02*
X3775Y2281D01*
X4301Y2281D02*
X4375Y2281D01*
X4499Y2281D02*
X4573Y2281D01*
X4701Y2281D02*
X4775Y2281D01*
X3301Y2280D02*
X3375Y2280D01*
X3499Y2280D02*
X3573Y2280D01*
X3701Y2280D02*
X3775Y2280D01*
X4301Y2280D02*
X4375Y2280D01*
X4499Y2280D02*
X4573Y2280D01*
X4701Y2280D02*
X4775Y2280D01*
X3301Y2279D02*
X3375Y2279D01*
X3499Y2279D02*
X3573Y2279D01*
X3701Y2279D02*
X3775Y2279D01*
X4301Y2279D02*
X4375Y2279D01*
X4499Y2279D02*
X4573Y2279D01*
X4701Y2279D02*
X4775Y2279D01*
X3301Y2278D02*
X3375Y2278D01*
X3499Y2278D02*
X3573Y2278D01*
X3701Y2278D02*
X3775Y2278D01*
X4301Y2278D02*
X4375Y2278D01*
X4499Y2278D02*
X4573Y2278D01*
X4701Y2278D02*
X4775Y2278D01*
X3301Y2277D02*
X3375Y2277D01*
X3499Y2277D02*
X3573Y2277D01*
X3701Y2277D02*
X3775Y2277D01*
X4301Y2277D02*
X4375Y2277D01*
X4499Y2277D02*
X4573Y2277D01*
X4701Y2277D02*
X4775Y2277D01*
X3301Y2276D02*
X3375Y2276D01*
X3499Y2276D02*
X3573Y2276D01*
X3701Y2276D02*
X3775Y2276D01*
X4301Y2276D02*
X4375Y2276D01*
X4499Y2276D02*
X4573Y2276D01*
X4701Y2276D02*
X4775Y2276D01*
X3301Y2275D02*
X3375Y2275D01*
X3499Y2275D02*
X3573Y2275D01*
X3701Y2275D02*
X3775Y2275D01*
X4301Y2275D02*
X4375Y2275D01*
X4499Y2275D02*
X4573Y2275D01*
X4701Y2275D02*
X4775Y2275D01*
X3301Y2274D02*
X3375Y2274D01*
X3499Y2274D02*
X3573Y2274D01*
X3701Y2274D02*
X3775Y2274D01*
X4301Y2274D02*
X4375Y2274D01*
X4499Y2274D02*
X4573Y2274D01*
X4701Y2274D02*
X4775Y2274D01*
X3301Y2273D02*
X3375Y2273D01*
X3499Y2273D02*
X3573Y2273D01*
X3701Y2273D02*
X3775Y2273D01*
X4301Y2273D02*
X4375Y2273D01*
X4499Y2273D02*
X4573Y2273D01*
X4701Y2273D02*
X4775Y2273D01*
X3301Y2272D02*
X3375Y2272D01*
X3499Y2272D02*
X3573Y2272D01*
X3701Y2272D02*
X3775Y2272D01*
X4301Y2272D02*
X4375Y2272D01*
X4499Y2272D02*
X4573Y2272D01*
X4701Y2272D02*
X4775Y2272D01*
X3301Y2271D02*
X3375Y2271D01*
X3499Y2271D02*
X3573Y2271D01*
X3701Y2271D02*
X3775Y2271D01*
X4301Y2271D02*
X4375Y2271D01*
X4499Y2271D02*
X4573Y2271D01*
X4701Y2271D02*
X4775Y2271D01*
X3301Y2270D02*
X3375Y2270D01*
X3499Y2270D02*
X3573Y2270D01*
X3701Y2270D02*
X3775Y2270D01*
X4301Y2270D02*
X4375Y2270D01*
X4499Y2270D02*
X4573Y2270D01*
X4701Y2270D02*
X4775Y2270D01*
X3301Y2269D02*
X3375Y2269D01*
X3499Y2269D02*
X3573Y2269D01*
X3701Y2269D02*
X3775Y2269D01*
X4301Y2269D02*
X4375Y2269D01*
X4499Y2269D02*
X4573Y2269D01*
X4701Y2269D02*
X4775Y2269D01*
X3301Y2268D02*
X3375Y2268D01*
X3499Y2268D02*
X3573Y2268D01*
X3701Y2268D02*
X3775Y2268D01*
X4301Y2268D02*
X4375Y2268D01*
X4499Y2268D02*
X4573Y2268D01*
X4701Y2268D02*
X4775Y2268D01*
X3301Y2267D02*
X3375Y2267D01*
X3499Y2267D02*
X3573Y2267D01*
X3701Y2267D02*
X3775Y2267D01*
X4301Y2267D02*
X4375Y2267D01*
X4499Y2267D02*
X4573Y2267D01*
X4701Y2267D02*
X4775Y2267D01*
X3301Y2266D02*
X3375Y2266D01*
X3499Y2266D02*
X3573Y2266D01*
X3701Y2266D02*
X3775Y2266D01*
X4301Y2266D02*
X4375Y2266D01*
X4499Y2266D02*
X4573Y2266D01*
X4701Y2266D02*
X4775Y2266D01*
X3301Y2265D02*
X3375Y2265D01*
X3499Y2265D02*
X3573Y2265D01*
X3701Y2265D02*
X3775Y2265D01*
X4301Y2265D02*
X4375Y2265D01*
X4499Y2265D02*
X4573Y2265D01*
X4701Y2265D02*
X4775Y2265D01*
X3301Y2264D02*
X3375Y2264D01*
X3499Y2264D02*
X3573Y2264D01*
X3701Y2264D02*
X3775Y2264D01*
X4301Y2264D02*
X4375Y2264D01*
X4499Y2264D02*
X4573Y2264D01*
X4701Y2264D02*
X4775Y2264D01*
X3301Y2263D02*
X3375Y2263D01*
X3499Y2263D02*
X3573Y2263D01*
X3701Y2263D02*
X3775Y2263D01*
X4301Y2263D02*
X4375Y2263D01*
X4499Y2263D02*
X4573Y2263D01*
X4701Y2263D02*
X4775Y2263D01*
X3301Y2262D02*
X3375Y2262D01*
X3499Y2262D02*
X3573Y2262D01*
X3701Y2262D02*
X3775Y2262D01*
X4301Y2262D02*
X4375Y2262D01*
X4499Y2262D02*
X4573Y2262D01*
X4701Y2262D02*
X4775Y2262D01*
X3301Y2261D02*
X3375Y2261D01*
X3499Y2261D02*
X3573Y2261D01*
X3701Y2261D02*
X3775Y2261D01*
X4301Y2261D02*
X4375Y2261D01*
X4499Y2261D02*
X4573Y2261D01*
X4701Y2261D02*
X4775Y2261D01*
X3301Y2260D02*
X3375Y2260D01*
X3499Y2260D02*
X3573Y2260D01*
X3701Y2260D02*
X3775Y2260D01*
X4301Y2260D02*
X4375Y2260D01*
X4499Y2260D02*
X4573Y2260D01*
X4701Y2260D02*
X4775Y2260D01*
X3301Y2259D02*
X3375Y2259D01*
X3499Y2259D02*
X3573Y2259D01*
X3701Y2259D02*
X3775Y2259D01*
X4301Y2259D02*
X4375Y2259D01*
X4499Y2259D02*
X4573Y2259D01*
X4701Y2259D02*
X4775Y2259D01*
X3301Y2258D02*
X3375Y2258D01*
X3499Y2258D02*
X3573Y2258D01*
X3701Y2258D02*
X3775Y2258D01*
X4301Y2258D02*
X4375Y2258D01*
X4499Y2258D02*
X4573Y2258D01*
X4701Y2258D02*
X4775Y2258D01*
X3301Y2257D02*
X3375Y2257D01*
X3499Y2257D02*
X3573Y2257D01*
X3701Y2257D02*
X3775Y2257D01*
X4301Y2257D02*
X4375Y2257D01*
X4499Y2257D02*
X4573Y2257D01*
X4701Y2257D02*
X4775Y2257D01*
X3301Y2256D02*
X3375Y2256D01*
X3499Y2256D02*
X3573Y2256D01*
X3701Y2256D02*
X3775Y2256D01*
X4301Y2256D02*
X4375Y2256D01*
X4499Y2256D02*
X4573Y2256D01*
X4701Y2256D02*
X4775Y2256D01*
X3301Y2255D02*
X3375Y2255D01*
X3499Y2255D02*
X3573Y2255D01*
X3701Y2255D02*
X3775Y2255D01*
X4301Y2255D02*
X4375Y2255D01*
X4499Y2255D02*
X4573Y2255D01*
X4701Y2255D02*
X4775Y2255D01*
X3301Y2254D02*
X3375Y2254D01*
X3499Y2254D02*
X3573Y2254D01*
X3701Y2254D02*
X3775Y2254D01*
X4301Y2254D02*
X4375Y2254D01*
X4499Y2254D02*
X4573Y2254D01*
X4701Y2254D02*
X4775Y2254D01*
X3301Y2253D02*
X3375Y2253D01*
X3499Y2253D02*
X3573Y2253D01*
X3701Y2253D02*
X3775Y2253D01*
X4301Y2253D02*
X4375Y2253D01*
X4499Y2253D02*
X4573Y2253D01*
X4701Y2253D02*
X4775Y2253D01*
X3301Y2252D02*
X3375Y2252D01*
X3499Y2252D02*
X3573Y2252D01*
X3701Y2252D02*
X3775Y2252D01*
X4301Y2252D02*
X4375Y2252D01*
X4499Y2252D02*
X4573Y2252D01*
X4701Y2252D02*
X4775Y2252D01*
X3301Y2251D02*
X3375Y2251D01*
X3499Y2251D02*
X3573Y2251D01*
X3701Y2251D02*
X3775Y2251D01*
X4301Y2251D02*
X4375Y2251D01*
X4499Y2251D02*
X4573Y2251D01*
X4701Y2251D02*
X4775Y2251D01*
X3301Y2250D02*
X3375Y2250D01*
X3499Y2250D02*
X3573Y2250D01*
X3701Y2250D02*
X3775Y2250D01*
X4301Y2250D02*
X4375Y2250D01*
X4499Y2250D02*
X4573Y2250D01*
X4701Y2250D02*
X4775Y2250D01*
X3301Y2249D02*
X3375Y2249D01*
X3499Y2249D02*
X3573Y2249D01*
X3701Y2249D02*
X3775Y2249D01*
X4301Y2249D02*
X4375Y2249D01*
X4499Y2249D02*
X4573Y2249D01*
X4701Y2249D02*
X4775Y2249D01*
X3301Y2248D02*
X3375Y2248D01*
X3499Y2248D02*
X3573Y2248D01*
X3701Y2248D02*
X3775Y2248D01*
X4301Y2248D02*
X4375Y2248D01*
X4499Y2248D02*
X4573Y2248D01*
X4701Y2248D02*
X4775Y2248D01*
X3301Y2247D02*
X3375Y2247D01*
X3499Y2247D02*
X3573Y2247D01*
X3701Y2247D02*
X3775Y2247D01*
X4301Y2247D02*
X4375Y2247D01*
X4499Y2247D02*
X4573Y2247D01*
X4701Y2247D02*
X4775Y2247D01*
X3301Y2246D02*
X3375Y2246D01*
X3499Y2246D02*
X3573Y2246D01*
X3701Y2246D02*
X3775Y2246D01*
X4301Y2246D02*
X4375Y2246D01*
X4499Y2246D02*
X4573Y2246D01*
X4701Y2246D02*
X4775Y2246D01*
X3701Y2245D02*
X3775Y2245D01*
X4701Y2245D02*
X4775Y2245D01*
D02*
G04 End of Copper1*
M02*