; NON-PLATED HOLES START AT T1
; THROUGH (PLATED) HOLES START AT T100
M48
INCH
T1C0.086614
T100C0.042000
T101C0.031497
T102C0.098425
T103C0.039370
T104C0.040000
T105C0.051181
T106C0.015748
T107C0.035000
%
T1
X027387Y001162
X001387Y001162
X051387Y026162
X027387Y026162
X001387Y026162
X051387Y001162
T100
X008367Y014162
X005387Y017162
X005387Y010162
X008367Y017162
X005387Y021162
X008367Y010162
X008367Y021162
X005387Y014162
T101
X019387Y004178
X019387Y005162
X025387Y004178
X025387Y005162
T102
X026387Y009662
X031887Y005662
X041887Y005662
X018387Y022662
X038887Y005662
X026387Y022662
X048887Y005662
X018387Y009662
T103
X039387Y014162
X049387Y022162
X018387Y012162
X041387Y019162
X049387Y018162
X031387Y014162
X041387Y022162
X039387Y013162
X019887Y022862
X049387Y021162
X018387Y011162
X026387Y019162
X041387Y018162
X039387Y009162
X049387Y017162
X031387Y013162
X041387Y021162
X039387Y012162
X020887Y022862
X049387Y020162
X026387Y018162
X041387Y017162
X039387Y008162
X049387Y016162
X031387Y012162
X041387Y020162
X039387Y011162
X026387Y017162
X023887Y022862
X041387Y016162
X039387Y007162
X026387Y020162
X049387Y015162
X031387Y011162
X039387Y010162
X026387Y016162
X047987Y008762
X041387Y015162
X049387Y014162
X026387Y015162
X018387Y019162
X041387Y014162
X049387Y013162
X026387Y014162
X049387Y009162
X018387Y018162
X041387Y013162
X021887Y022862
X049387Y012162
X039387Y019162
X026387Y013162
X049387Y008162
X018387Y017162
X041387Y012162
X039387Y022162
X049387Y011162
X024887Y022862
X018387Y020162
X031387Y019162
X039387Y018162
X026387Y012162
X049387Y007162
X031387Y022162
X018387Y016162
X041387Y011162
X039387Y021162
X049387Y010162
X031387Y018162
X039387Y017162
X026387Y011162
X031387Y021162
X018387Y015162
X039387Y020162
X031387Y017162
X039387Y016162
X031387Y020162
X018387Y014162
X031387Y016162
X022887Y022862
X039387Y015162
X018387Y013162
X037987Y008762
X049387Y019162
X031387Y015162
T104
X001387Y017540
X001387Y011540
X001387Y008540
X001387Y019162
X001387Y013162
X001387Y014540
X001387Y016162
X001387Y010162
X001387Y007162
X001387Y020540
T105
X035367Y023312
X045367Y023312
X037387Y023312
X047387Y023312
X033387Y023312
X043387Y023312
T106
X021164Y006162
X022124Y005202
X019724Y011442
X025244Y009522
X028604Y007602
X024764Y013122
X017084Y019842
X025724Y008562
T107
X013387Y008162
X013387Y014162
X013387Y006162
X013387Y012162
X013387Y025162
X013387Y002162
X013387Y021162
X013387Y018162
T00
M30
