M48
METRIC,LZ,000.000
;FILE_FORMAT=3:3
;TYPE=PLATED
;Layer: PTH_Through
;EasyEDA v6.5.8, 2022-08-15 07:29:34
;028e3914a6f949ed9ca799ef75e4ed4f,10
;Gerber Generator version 0.2
;Holesize 1 = 0.316 mm
T01C0.316
;Holesize 2 = 0.800 mm
T02C0.800
;Holesize 3 = 0.889 mm
T03C0.889
;Holesize 4 = 0.915 mm
T04C0.915
;Holesize 5 = 1.000 mm
T05C1.000
;Holesize 6 = 1.001 mm
T06C1.001
;Holesize 7 = 1.101 mm
T07C1.101
;Holesize 8 = 1.199 mm
T08C1.199
;Holesize 9 = 1.501 mm
T09C1.501
;Holesize 10 = 2.500 mm
T10C2.500
%
G05
G90
T01
X116205Y075692
X080010Y086487
T02
X056642Y082169
X059182Y082169
X059182Y041529
X059182Y044069
T03
X056642Y070612
X059182Y070612
T04
X076581Y061780
X076599Y051780
X083439Y051631
X083421Y061631
X101473Y061399
X101491Y051399
X108331Y051377
X108313Y061377
X059200Y048986
X059182Y058986
T05
X038100Y057277
X038100Y059817
X038100Y062357
X038100Y064897
X038100Y067437
X038100Y069977
X038100Y072517
X038100Y075057
X038100Y077597
X038100Y080137
X034290Y050419
X021590Y050419
X024130Y050419
X026670Y050419
X029210Y050419
X031750Y050419
X017780Y057277G85X017780Y057277
X017780Y080137
X017780Y077597
X017780Y075057
X017780Y072517
X017780Y069977
X017780Y067437
X017780Y064897
X017780Y062357
X017780Y059817
X017780Y057277
T06
X076708Y047498
X076708Y037338
X083439Y047498
X083439Y037338
X126238Y031750
X136398Y031750
X101600Y047498
X101600Y037338
X108585Y047625
X108585Y037465
X126238Y061722
X136398Y061722
T07
X034163Y042926
X031623Y042926
X029083Y042926
X026543Y042926
X024003Y042926
X021463Y042926
T08
X055651Y029718
X059157Y029718
X073177Y029718
X076683Y029718
X083464Y029718
X086970Y029718
X145669Y048920
X145669Y052426
X098323Y029591
X101829Y029591
X108610Y029591
X112116Y029591
X145542Y079654
X145542Y083160
T09
X130398Y038259G85X130398Y038259
X136398Y040259G85X136398Y040259
X136398Y052459G85X136398Y052459
X124398Y052459G85X124398Y052459
X124398Y040259G85X124398Y040259
X130398Y068866G85X130398Y068866
X136398Y070866G85X136398Y070866
X136398Y083066G85X136398Y083066
X124398Y083066G85X124398Y083066
X124398Y070866G85X124398Y070866
T10
X038100Y083947
X038100Y050927
X017780Y050927
X017780Y083947
M30
