G04 Layer: TopSilkscreenLayer*
G04 EasyEDA v6.5.8, 2022-08-15 07:29:34*
G04 028e3914a6f949ed9ca799ef75e4ed4f,10*
G04 Gerber Generator version 0.2*
G04 Scale: 100 percent, Rotated: No, Reflected: No *
G04 Dimensions in millimeters *
G04 leading zeros omitted , absolute positions ,4 integer and 5 decimal *
%FSLAX45Y45*%
%MOMM*%

%ADD10C,0.1524*%
%ADD11C,0.2032*%
%ADD12C,0.1501*%
%ADD13C,0.2540*%

%LPD*%
G36*
X7599680Y5848604D02*
G01*
X7595819Y5844743D01*
X7592110Y5840425D01*
X7588656Y5835599D01*
X7585608Y5830112D01*
X7583068Y5824016D01*
X7581087Y5817260D01*
X7579817Y5809691D01*
X7579359Y5801360D01*
X7579664Y5795010D01*
X7580630Y5788914D01*
X7582255Y5783122D01*
X7584440Y5777738D01*
X7587183Y5772759D01*
X7590536Y5768289D01*
X7594447Y5764326D01*
X7598867Y5760974D01*
X7603794Y5758281D01*
X7609230Y5756300D01*
X7615123Y5755030D01*
X7621524Y5754624D01*
X7628890Y5755284D01*
X7635595Y5757113D01*
X7641539Y5760059D01*
X7646771Y5763920D01*
X7651191Y5768644D01*
X7654848Y5774029D01*
X7657642Y5779973D01*
X7659624Y5786374D01*
X7660386Y5786374D01*
X7662773Y5780684D01*
X7665770Y5775553D01*
X7669377Y5771032D01*
X7673543Y5767120D01*
X7678369Y5763971D01*
X7683804Y5761634D01*
X7689799Y5760212D01*
X7696453Y5759704D01*
X7702092Y5760059D01*
X7707274Y5761177D01*
X7712049Y5762904D01*
X7716367Y5765292D01*
X7720228Y5768238D01*
X7723631Y5771794D01*
X7726527Y5775807D01*
X7728915Y5780278D01*
X7730794Y5785205D01*
X7732166Y5790488D01*
X7733030Y5796178D01*
X7733284Y5802122D01*
X7732928Y5808319D01*
X7731963Y5814161D01*
X7730337Y5819648D01*
X7728254Y5824829D01*
X7725664Y5829757D01*
X7722666Y5834430D01*
X7719364Y5838799D01*
X7715758Y5843016D01*
X7705090Y5833872D01*
X7710881Y5827268D01*
X7715503Y5819800D01*
X7718602Y5811520D01*
X7719822Y5802630D01*
X7719314Y5796940D01*
X7717942Y5791809D01*
X7715808Y5787390D01*
X7712913Y5783681D01*
X7709408Y5780684D01*
X7705191Y5778500D01*
X7700467Y5777179D01*
X7695184Y5776722D01*
X7691120Y5776925D01*
X7687259Y5777636D01*
X7683601Y5778855D01*
X7680198Y5780633D01*
X7677099Y5782970D01*
X7674254Y5785967D01*
X7671765Y5789574D01*
X7669682Y5793892D01*
X7668006Y5798921D01*
X7666736Y5804662D01*
X7665974Y5811266D01*
X7665720Y5818632D01*
X7652766Y5818632D01*
X7652512Y5810453D01*
X7651750Y5803138D01*
X7650530Y5796686D01*
X7648854Y5791047D01*
X7646771Y5786170D01*
X7644231Y5782056D01*
X7641386Y5778652D01*
X7638135Y5775960D01*
X7634528Y5773928D01*
X7630668Y5772505D01*
X7626502Y5771642D01*
X7622031Y5771388D01*
X7615681Y5771997D01*
X7609992Y5773674D01*
X7605064Y5776417D01*
X7600899Y5780125D01*
X7597546Y5784646D01*
X7595108Y5789930D01*
X7593584Y5795873D01*
X7593075Y5802376D01*
X7593431Y5808726D01*
X7594549Y5814517D01*
X7596174Y5819800D01*
X7598359Y5824575D01*
X7601000Y5828944D01*
X7603896Y5832957D01*
X7607046Y5836615D01*
X7610348Y5839968D01*
G37*
G36*
X7599680Y5737098D02*
G01*
X7595819Y5733237D01*
X7592110Y5728919D01*
X7588656Y5723991D01*
X7585608Y5718505D01*
X7583068Y5712409D01*
X7581087Y5705652D01*
X7579817Y5698134D01*
X7579359Y5689854D01*
X7579664Y5683504D01*
X7580630Y5677408D01*
X7582255Y5671616D01*
X7584440Y5666232D01*
X7587183Y5661253D01*
X7590536Y5656783D01*
X7594447Y5652820D01*
X7598867Y5649468D01*
X7603794Y5646775D01*
X7609230Y5644794D01*
X7615123Y5643524D01*
X7621524Y5643118D01*
X7628890Y5643778D01*
X7635595Y5645607D01*
X7641539Y5648553D01*
X7646771Y5652414D01*
X7651191Y5657138D01*
X7654848Y5662523D01*
X7657642Y5668467D01*
X7659624Y5674868D01*
X7660386Y5674868D01*
X7662773Y5669178D01*
X7665770Y5664047D01*
X7669377Y5659526D01*
X7673543Y5655614D01*
X7678369Y5652465D01*
X7683804Y5650128D01*
X7689799Y5648706D01*
X7696453Y5648198D01*
X7702092Y5648553D01*
X7707274Y5649671D01*
X7712049Y5651398D01*
X7716367Y5653786D01*
X7720228Y5656732D01*
X7723631Y5660288D01*
X7726527Y5664301D01*
X7728915Y5668772D01*
X7730794Y5673699D01*
X7732166Y5678982D01*
X7733030Y5684672D01*
X7733284Y5690616D01*
X7732928Y5696813D01*
X7731963Y5702655D01*
X7730337Y5708142D01*
X7728254Y5713374D01*
X7725664Y5718251D01*
X7722666Y5722924D01*
X7719364Y5727293D01*
X7715758Y5731510D01*
X7705090Y5722366D01*
X7710881Y5715660D01*
X7715503Y5708192D01*
X7718602Y5699963D01*
X7719822Y5691124D01*
X7719314Y5685434D01*
X7717942Y5680303D01*
X7715808Y5675884D01*
X7712913Y5672175D01*
X7709408Y5669178D01*
X7705191Y5666994D01*
X7700467Y5665673D01*
X7695184Y5665216D01*
X7691120Y5665419D01*
X7687259Y5666130D01*
X7683601Y5667349D01*
X7680198Y5669127D01*
X7677099Y5671464D01*
X7674254Y5674410D01*
X7671765Y5678017D01*
X7669682Y5682284D01*
X7668006Y5687314D01*
X7666736Y5693003D01*
X7665974Y5699556D01*
X7665720Y5706872D01*
X7652766Y5706872D01*
X7652512Y5698693D01*
X7651750Y5691378D01*
X7650530Y5684977D01*
X7648854Y5679338D01*
X7646771Y5674512D01*
X7644231Y5670397D01*
X7641386Y5667044D01*
X7638135Y5664403D01*
X7634528Y5662371D01*
X7630668Y5660948D01*
X7626502Y5660136D01*
X7622031Y5659882D01*
X7615681Y5660491D01*
X7609992Y5662168D01*
X7605064Y5664911D01*
X7600899Y5668619D01*
X7597546Y5673140D01*
X7595108Y5678424D01*
X7593584Y5684367D01*
X7593075Y5690870D01*
X7593431Y5697220D01*
X7594549Y5703011D01*
X7596174Y5708294D01*
X7598359Y5713069D01*
X7601000Y5717438D01*
X7603896Y5721451D01*
X7607046Y5725109D01*
X7610348Y5728462D01*
G37*
G36*
X7656830Y5621528D02*
G01*
X7647381Y5621324D01*
X7638542Y5620715D01*
X7630363Y5619699D01*
X7622743Y5618327D01*
X7615783Y5616549D01*
X7609433Y5614416D01*
X7603693Y5611977D01*
X7598562Y5609132D01*
X7594041Y5605983D01*
X7590129Y5602528D01*
X7586827Y5598769D01*
X7584135Y5594756D01*
X7582052Y5590387D01*
X7580528Y5585815D01*
X7579664Y5580938D01*
X7579359Y5575808D01*
X7592568Y5575808D01*
X7592974Y5580075D01*
X7594244Y5584088D01*
X7596378Y5587796D01*
X7599425Y5591251D01*
X7603337Y5594350D01*
X7608112Y5597093D01*
X7613853Y5599531D01*
X7620508Y5601512D01*
X7628128Y5603138D01*
X7636713Y5604306D01*
X7646263Y5605018D01*
X7656830Y5605272D01*
X7667193Y5605018D01*
X7676591Y5604306D01*
X7684973Y5603138D01*
X7692440Y5601512D01*
X7698994Y5599531D01*
X7704632Y5597093D01*
X7709306Y5594350D01*
X7713167Y5591251D01*
X7716062Y5587796D01*
X7718196Y5584088D01*
X7719415Y5580075D01*
X7719822Y5575808D01*
X7719415Y5571540D01*
X7718196Y5567527D01*
X7716062Y5563819D01*
X7713167Y5560364D01*
X7709306Y5557266D01*
X7704632Y5554522D01*
X7698994Y5552084D01*
X7692440Y5550103D01*
X7684973Y5548477D01*
X7676591Y5547309D01*
X7667193Y5546598D01*
X7656830Y5546344D01*
X7646263Y5546598D01*
X7636713Y5547309D01*
X7628128Y5548477D01*
X7620508Y5550103D01*
X7613853Y5552084D01*
X7608112Y5554522D01*
X7603337Y5557266D01*
X7599425Y5560364D01*
X7596378Y5563819D01*
X7594244Y5567527D01*
X7592974Y5571540D01*
X7592568Y5575808D01*
X7579359Y5575808D01*
X7579664Y5570677D01*
X7580528Y5565851D01*
X7582052Y5561228D01*
X7584135Y5556910D01*
X7586827Y5552897D01*
X7590129Y5549138D01*
X7594041Y5545734D01*
X7598562Y5542584D01*
X7603693Y5539790D01*
X7609433Y5537352D01*
X7615783Y5535269D01*
X7622743Y5533542D01*
X7630363Y5532120D01*
X7638542Y5531154D01*
X7647381Y5530545D01*
X7656830Y5530342D01*
X7666177Y5530545D01*
X7674914Y5531154D01*
X7683042Y5532120D01*
X7690510Y5533542D01*
X7697419Y5535269D01*
X7703667Y5537352D01*
X7709357Y5539790D01*
X7714386Y5542584D01*
X7718856Y5545734D01*
X7722666Y5549138D01*
X7725918Y5552897D01*
X7728610Y5556910D01*
X7730642Y5561228D01*
X7732115Y5565851D01*
X7732979Y5570677D01*
X7733284Y5575808D01*
X7732979Y5580938D01*
X7732115Y5585815D01*
X7730642Y5590387D01*
X7728610Y5594756D01*
X7725918Y5598769D01*
X7722666Y5602528D01*
X7718856Y5605983D01*
X7714386Y5609132D01*
X7709357Y5611977D01*
X7703667Y5614416D01*
X7697419Y5616549D01*
X7690510Y5618327D01*
X7683042Y5619699D01*
X7674914Y5620715D01*
X7666177Y5621324D01*
G37*
G36*
X8285480Y5811672D02*
G01*
X8281619Y5807811D01*
X8277910Y5803493D01*
X8274456Y5798667D01*
X8271408Y5793181D01*
X8268868Y5787085D01*
X8266887Y5780328D01*
X8265617Y5772759D01*
X8265159Y5764428D01*
X8265464Y5758078D01*
X8266430Y5751982D01*
X8268055Y5746191D01*
X8270240Y5740806D01*
X8272983Y5735828D01*
X8276336Y5731357D01*
X8280247Y5727395D01*
X8284667Y5724042D01*
X8289594Y5721350D01*
X8295030Y5719368D01*
X8300923Y5718098D01*
X8307324Y5717692D01*
X8314690Y5718352D01*
X8321395Y5720181D01*
X8327339Y5723128D01*
X8332571Y5726988D01*
X8336991Y5731713D01*
X8340648Y5737098D01*
X8343442Y5743041D01*
X8345424Y5749442D01*
X8346186Y5749442D01*
X8348573Y5743752D01*
X8351570Y5738622D01*
X8355177Y5734100D01*
X8359343Y5730189D01*
X8364169Y5727039D01*
X8369604Y5724702D01*
X8375599Y5723280D01*
X8382253Y5722772D01*
X8387892Y5723128D01*
X8393074Y5724245D01*
X8397849Y5725972D01*
X8402167Y5728360D01*
X8406028Y5731306D01*
X8409432Y5734812D01*
X8412327Y5738876D01*
X8414715Y5743346D01*
X8416594Y5748274D01*
X8417966Y5753557D01*
X8418830Y5759246D01*
X8419084Y5765190D01*
X8418728Y5771388D01*
X8417763Y5777230D01*
X8416137Y5782716D01*
X8414054Y5787948D01*
X8411464Y5792825D01*
X8408466Y5797499D01*
X8405164Y5801868D01*
X8401558Y5806084D01*
X8390890Y5796940D01*
X8396681Y5790336D01*
X8401304Y5782868D01*
X8404402Y5774588D01*
X8405622Y5765698D01*
X8405114Y5760008D01*
X8403742Y5754878D01*
X8401608Y5750458D01*
X8398713Y5746750D01*
X8395208Y5743752D01*
X8390991Y5741568D01*
X8386267Y5740247D01*
X8380984Y5739790D01*
X8376920Y5739993D01*
X8373059Y5740704D01*
X8369401Y5741924D01*
X8365998Y5743702D01*
X8362899Y5746038D01*
X8360054Y5749036D01*
X8357565Y5752642D01*
X8355482Y5756960D01*
X8353806Y5761990D01*
X8352536Y5767730D01*
X8351774Y5774334D01*
X8351520Y5781700D01*
X8338566Y5781700D01*
X8338312Y5773521D01*
X8337550Y5766206D01*
X8336330Y5759754D01*
X8334654Y5754116D01*
X8332571Y5749239D01*
X8330031Y5745124D01*
X8327186Y5741720D01*
X8323935Y5739028D01*
X8320328Y5736996D01*
X8316468Y5735574D01*
X8312302Y5734710D01*
X8307831Y5734456D01*
X8301481Y5735066D01*
X8295792Y5736742D01*
X8290864Y5739485D01*
X8286699Y5743194D01*
X8283346Y5747715D01*
X8280908Y5752998D01*
X8279384Y5758942D01*
X8278875Y5765444D01*
X8279231Y5771794D01*
X8280349Y5777585D01*
X8281974Y5782868D01*
X8284159Y5787694D01*
X8286800Y5792012D01*
X8289696Y5796026D01*
X8292846Y5799683D01*
X8296148Y5803036D01*
G37*
G36*
X8285480Y5700166D02*
G01*
X8281619Y5696305D01*
X8277910Y5691987D01*
X8274456Y5687060D01*
X8271408Y5681573D01*
X8268868Y5675477D01*
X8266887Y5668721D01*
X8265617Y5661202D01*
X8265159Y5652922D01*
X8265464Y5646572D01*
X8266430Y5640476D01*
X8268055Y5634685D01*
X8270240Y5629300D01*
X8272983Y5624322D01*
X8276336Y5619851D01*
X8280247Y5615889D01*
X8284667Y5612536D01*
X8289594Y5609844D01*
X8295030Y5607862D01*
X8300923Y5606592D01*
X8307324Y5606186D01*
X8314690Y5606846D01*
X8321395Y5608675D01*
X8327339Y5611622D01*
X8332571Y5615482D01*
X8336991Y5620207D01*
X8340648Y5625592D01*
X8343442Y5631535D01*
X8345424Y5637936D01*
X8346186Y5637936D01*
X8348573Y5632246D01*
X8351570Y5627116D01*
X8355177Y5622594D01*
X8359343Y5618683D01*
X8364169Y5615533D01*
X8369604Y5613196D01*
X8375599Y5611774D01*
X8382253Y5611266D01*
X8387892Y5611622D01*
X8393074Y5612739D01*
X8397849Y5614466D01*
X8402167Y5616854D01*
X8406028Y5619800D01*
X8409432Y5623356D01*
X8412327Y5627370D01*
X8414715Y5631840D01*
X8416594Y5636768D01*
X8417966Y5642051D01*
X8418830Y5647740D01*
X8419084Y5653684D01*
X8418728Y5659882D01*
X8417763Y5665724D01*
X8416137Y5671210D01*
X8414054Y5676442D01*
X8411464Y5681319D01*
X8408466Y5685993D01*
X8405164Y5690362D01*
X8401558Y5694578D01*
X8390890Y5685434D01*
X8396681Y5678728D01*
X8401304Y5671261D01*
X8404402Y5663031D01*
X8405622Y5654192D01*
X8405114Y5648502D01*
X8403742Y5643372D01*
X8401608Y5638952D01*
X8398713Y5635244D01*
X8395208Y5632246D01*
X8390991Y5630062D01*
X8386267Y5628741D01*
X8380984Y5628284D01*
X8376920Y5628487D01*
X8373059Y5629198D01*
X8369401Y5630418D01*
X8365998Y5632196D01*
X8362899Y5634532D01*
X8360054Y5637479D01*
X8357565Y5641086D01*
X8355482Y5645353D01*
X8353806Y5650382D01*
X8352536Y5656072D01*
X8351774Y5662625D01*
X8351520Y5669940D01*
X8338566Y5669940D01*
X8338312Y5661761D01*
X8337550Y5654446D01*
X8336330Y5648045D01*
X8334654Y5642406D01*
X8332571Y5637580D01*
X8330031Y5633516D01*
X8327186Y5630113D01*
X8323935Y5627471D01*
X8320328Y5625439D01*
X8316468Y5624017D01*
X8312302Y5623204D01*
X8307831Y5622950D01*
X8301481Y5623560D01*
X8295792Y5625236D01*
X8290864Y5627979D01*
X8286699Y5631688D01*
X8283346Y5636209D01*
X8280908Y5641492D01*
X8279384Y5647436D01*
X8278875Y5653938D01*
X8279231Y5660288D01*
X8280349Y5666079D01*
X8281974Y5671362D01*
X8284159Y5676138D01*
X8286800Y5680506D01*
X8289696Y5684520D01*
X8292846Y5688177D01*
X8296148Y5691530D01*
G37*
G36*
X8342630Y5584596D02*
G01*
X8333181Y5584393D01*
X8324342Y5583783D01*
X8316163Y5582767D01*
X8308543Y5581396D01*
X8301583Y5579618D01*
X8295233Y5577484D01*
X8289493Y5575046D01*
X8284362Y5572201D01*
X8279841Y5569051D01*
X8275929Y5565597D01*
X8272627Y5561838D01*
X8269935Y5557824D01*
X8267852Y5553456D01*
X8266328Y5548884D01*
X8265464Y5544007D01*
X8265159Y5538876D01*
X8278368Y5538876D01*
X8278774Y5543143D01*
X8280044Y5547156D01*
X8282178Y5550865D01*
X8285225Y5554319D01*
X8289137Y5557418D01*
X8293912Y5560161D01*
X8299653Y5562600D01*
X8306308Y5564581D01*
X8313928Y5566206D01*
X8322513Y5567375D01*
X8332063Y5568086D01*
X8342630Y5568340D01*
X8352993Y5568086D01*
X8362391Y5567375D01*
X8370773Y5566206D01*
X8378240Y5564581D01*
X8384794Y5562600D01*
X8390432Y5560161D01*
X8395106Y5557418D01*
X8398967Y5554319D01*
X8401862Y5550865D01*
X8403996Y5547156D01*
X8405215Y5543143D01*
X8405622Y5538876D01*
X8405215Y5534609D01*
X8403996Y5530596D01*
X8401862Y5526887D01*
X8398967Y5523433D01*
X8395106Y5520334D01*
X8390432Y5517591D01*
X8384794Y5515152D01*
X8378240Y5513171D01*
X8370773Y5511546D01*
X8362391Y5510377D01*
X8352993Y5509666D01*
X8342630Y5509412D01*
X8332063Y5509666D01*
X8322513Y5510377D01*
X8313928Y5511546D01*
X8306308Y5513171D01*
X8299653Y5515152D01*
X8293912Y5517591D01*
X8289137Y5520334D01*
X8285225Y5523433D01*
X8282178Y5526887D01*
X8280044Y5530596D01*
X8278774Y5534609D01*
X8278368Y5538876D01*
X8265159Y5538876D01*
X8265464Y5533745D01*
X8266328Y5528919D01*
X8267852Y5524296D01*
X8269935Y5519978D01*
X8272627Y5515965D01*
X8275929Y5512206D01*
X8279841Y5508802D01*
X8284362Y5505653D01*
X8289493Y5502859D01*
X8295233Y5500420D01*
X8301583Y5498338D01*
X8308543Y5496560D01*
X8316163Y5495188D01*
X8324342Y5494223D01*
X8333181Y5493613D01*
X8342630Y5493410D01*
X8351977Y5493613D01*
X8360714Y5494223D01*
X8368842Y5495188D01*
X8376310Y5496560D01*
X8383219Y5498338D01*
X8389467Y5500420D01*
X8395157Y5502859D01*
X8400186Y5505653D01*
X8404656Y5508802D01*
X8408466Y5512206D01*
X8411718Y5515965D01*
X8414410Y5519978D01*
X8416442Y5524296D01*
X8417915Y5528919D01*
X8418779Y5533745D01*
X8419084Y5538876D01*
X8418779Y5544007D01*
X8417915Y5548884D01*
X8416442Y5553456D01*
X8414410Y5557824D01*
X8411718Y5561838D01*
X8408466Y5565597D01*
X8404656Y5569051D01*
X8400186Y5572201D01*
X8395157Y5575046D01*
X8389467Y5577484D01*
X8383219Y5579618D01*
X8376310Y5581396D01*
X8368842Y5582767D01*
X8360714Y5583783D01*
X8351977Y5584393D01*
G37*
G36*
X10088880Y5785104D02*
G01*
X10085019Y5781243D01*
X10081310Y5776925D01*
X10077856Y5772099D01*
X10074808Y5766612D01*
X10072268Y5760516D01*
X10070287Y5753760D01*
X10069017Y5746191D01*
X10068560Y5737860D01*
X10068864Y5731510D01*
X10069830Y5725414D01*
X10071455Y5719622D01*
X10073640Y5714238D01*
X10076383Y5709259D01*
X10079736Y5704789D01*
X10083647Y5700826D01*
X10088067Y5697474D01*
X10092994Y5694781D01*
X10098430Y5692800D01*
X10104323Y5691530D01*
X10110724Y5691124D01*
X10118090Y5691784D01*
X10124795Y5693613D01*
X10130739Y5696559D01*
X10135971Y5700420D01*
X10140391Y5705144D01*
X10144048Y5710529D01*
X10146842Y5716473D01*
X10148824Y5722874D01*
X10149586Y5722874D01*
X10151973Y5717184D01*
X10154970Y5712053D01*
X10158577Y5707532D01*
X10162743Y5703620D01*
X10167569Y5700471D01*
X10173004Y5698134D01*
X10178999Y5696712D01*
X10185654Y5696204D01*
X10191292Y5696559D01*
X10196474Y5697677D01*
X10201249Y5699404D01*
X10205567Y5701792D01*
X10209428Y5704738D01*
X10212832Y5708294D01*
X10215727Y5712307D01*
X10218115Y5716778D01*
X10219994Y5721705D01*
X10221366Y5726988D01*
X10222230Y5732678D01*
X10222484Y5738622D01*
X10222128Y5744819D01*
X10221163Y5750661D01*
X10219537Y5756148D01*
X10217454Y5761329D01*
X10214864Y5766257D01*
X10211866Y5770930D01*
X10208564Y5775299D01*
X10204958Y5779516D01*
X10194290Y5770372D01*
X10200081Y5763768D01*
X10204704Y5756300D01*
X10207802Y5748020D01*
X10209022Y5739130D01*
X10208514Y5733440D01*
X10207142Y5728309D01*
X10205008Y5723890D01*
X10202113Y5720181D01*
X10198608Y5717184D01*
X10194391Y5715000D01*
X10189667Y5713679D01*
X10184384Y5713222D01*
X10180320Y5713425D01*
X10176459Y5714136D01*
X10172801Y5715355D01*
X10169398Y5717133D01*
X10166299Y5719470D01*
X10163454Y5722467D01*
X10160965Y5726074D01*
X10158882Y5730392D01*
X10157206Y5735421D01*
X10155936Y5741162D01*
X10155174Y5747766D01*
X10154920Y5755132D01*
X10141966Y5755132D01*
X10141712Y5746953D01*
X10140950Y5739638D01*
X10139730Y5733186D01*
X10138054Y5727547D01*
X10135971Y5722670D01*
X10133431Y5718556D01*
X10130586Y5715152D01*
X10127335Y5712460D01*
X10123728Y5710428D01*
X10119868Y5709005D01*
X10115702Y5708142D01*
X10111232Y5707888D01*
X10104882Y5708497D01*
X10099192Y5710174D01*
X10094264Y5712917D01*
X10090099Y5716625D01*
X10086746Y5721146D01*
X10084308Y5726430D01*
X10082784Y5732373D01*
X10082276Y5738876D01*
X10082631Y5745226D01*
X10083749Y5751017D01*
X10085374Y5756300D01*
X10087559Y5761075D01*
X10090200Y5765444D01*
X10093096Y5769457D01*
X10096246Y5773115D01*
X10099548Y5776468D01*
G37*
G36*
X10088880Y5673598D02*
G01*
X10085019Y5669737D01*
X10081310Y5665419D01*
X10077856Y5660491D01*
X10074808Y5655005D01*
X10072268Y5648909D01*
X10070287Y5642152D01*
X10069017Y5634634D01*
X10068560Y5626354D01*
X10068864Y5620004D01*
X10069830Y5613908D01*
X10071455Y5608116D01*
X10073640Y5602732D01*
X10076383Y5597753D01*
X10079736Y5593283D01*
X10083647Y5589320D01*
X10088067Y5585968D01*
X10092994Y5583275D01*
X10098430Y5581294D01*
X10104323Y5580024D01*
X10110724Y5579618D01*
X10118090Y5580278D01*
X10124795Y5582107D01*
X10130739Y5585053D01*
X10135971Y5588914D01*
X10140391Y5593638D01*
X10144048Y5599023D01*
X10146842Y5604967D01*
X10148824Y5611368D01*
X10149586Y5611368D01*
X10151973Y5605678D01*
X10154970Y5600547D01*
X10158577Y5596026D01*
X10162743Y5592114D01*
X10167569Y5588965D01*
X10173004Y5586628D01*
X10178999Y5585206D01*
X10185654Y5584698D01*
X10191292Y5585053D01*
X10196474Y5586171D01*
X10201249Y5587898D01*
X10205567Y5590286D01*
X10209428Y5593232D01*
X10212832Y5596788D01*
X10215727Y5600801D01*
X10218115Y5605272D01*
X10219994Y5610199D01*
X10221366Y5615482D01*
X10222230Y5621172D01*
X10222484Y5627116D01*
X10222128Y5633313D01*
X10221163Y5639155D01*
X10219537Y5644642D01*
X10217454Y5649874D01*
X10214864Y5654751D01*
X10211866Y5659424D01*
X10208564Y5663793D01*
X10204958Y5668010D01*
X10194290Y5658866D01*
X10200081Y5652160D01*
X10204704Y5644692D01*
X10207802Y5636463D01*
X10209022Y5627624D01*
X10208514Y5621934D01*
X10207142Y5616803D01*
X10205008Y5612384D01*
X10202113Y5608675D01*
X10198608Y5605678D01*
X10194391Y5603494D01*
X10189667Y5602173D01*
X10184384Y5601716D01*
X10180320Y5601919D01*
X10176459Y5602630D01*
X10172801Y5603849D01*
X10169398Y5605627D01*
X10166299Y5607964D01*
X10163454Y5610910D01*
X10160965Y5614517D01*
X10158882Y5618784D01*
X10157206Y5623814D01*
X10155936Y5629503D01*
X10155174Y5636056D01*
X10154920Y5643372D01*
X10141966Y5643372D01*
X10141712Y5635193D01*
X10140950Y5627878D01*
X10139730Y5621477D01*
X10138054Y5615838D01*
X10135971Y5611012D01*
X10133431Y5606897D01*
X10130586Y5603544D01*
X10127335Y5600903D01*
X10123728Y5598871D01*
X10119868Y5597448D01*
X10115702Y5596636D01*
X10111232Y5596382D01*
X10104882Y5596991D01*
X10099192Y5598668D01*
X10094264Y5601411D01*
X10090099Y5605119D01*
X10086746Y5609640D01*
X10084308Y5614924D01*
X10082784Y5620867D01*
X10082276Y5627370D01*
X10082631Y5633720D01*
X10083749Y5639511D01*
X10085374Y5644794D01*
X10087559Y5649569D01*
X10090200Y5653938D01*
X10093096Y5657951D01*
X10096246Y5661609D01*
X10099548Y5664962D01*
G37*
G36*
X10146030Y5558028D02*
G01*
X10136581Y5557824D01*
X10127742Y5557215D01*
X10119563Y5556199D01*
X10111943Y5554827D01*
X10104983Y5553049D01*
X10098633Y5550916D01*
X10092893Y5548477D01*
X10087762Y5545632D01*
X10083241Y5542483D01*
X10079329Y5539028D01*
X10076027Y5535269D01*
X10073335Y5531256D01*
X10071252Y5526887D01*
X10069728Y5522315D01*
X10068864Y5517438D01*
X10068560Y5512308D01*
X10081768Y5512308D01*
X10082174Y5516575D01*
X10083444Y5520588D01*
X10085578Y5524296D01*
X10088626Y5527751D01*
X10092537Y5530850D01*
X10097312Y5533593D01*
X10103053Y5536031D01*
X10109708Y5538012D01*
X10117328Y5539638D01*
X10125913Y5540806D01*
X10135463Y5541518D01*
X10146030Y5541772D01*
X10156393Y5541518D01*
X10165791Y5540806D01*
X10174173Y5539638D01*
X10181640Y5538012D01*
X10188194Y5536031D01*
X10193832Y5533593D01*
X10198506Y5530850D01*
X10202367Y5527751D01*
X10205262Y5524296D01*
X10207396Y5520588D01*
X10208615Y5516575D01*
X10209022Y5512308D01*
X10208615Y5508040D01*
X10207396Y5504027D01*
X10205262Y5500319D01*
X10202367Y5496864D01*
X10198506Y5493766D01*
X10193832Y5491022D01*
X10188194Y5488584D01*
X10181640Y5486603D01*
X10174173Y5484977D01*
X10165791Y5483809D01*
X10156393Y5483098D01*
X10146030Y5482844D01*
X10135463Y5483098D01*
X10125913Y5483809D01*
X10117328Y5484977D01*
X10109708Y5486603D01*
X10103053Y5488584D01*
X10097312Y5491022D01*
X10092537Y5493766D01*
X10088626Y5496864D01*
X10085578Y5500319D01*
X10083444Y5504027D01*
X10082174Y5508040D01*
X10081768Y5512308D01*
X10068560Y5512308D01*
X10068864Y5507177D01*
X10069728Y5502351D01*
X10071252Y5497728D01*
X10073335Y5493410D01*
X10076027Y5489397D01*
X10079329Y5485638D01*
X10083241Y5482234D01*
X10087762Y5479084D01*
X10092893Y5476290D01*
X10098633Y5473852D01*
X10104983Y5471769D01*
X10111943Y5470042D01*
X10119563Y5468620D01*
X10127742Y5467654D01*
X10136581Y5467045D01*
X10146030Y5466842D01*
X10155377Y5467045D01*
X10164114Y5467654D01*
X10172242Y5468620D01*
X10179710Y5470042D01*
X10186619Y5471769D01*
X10192867Y5473852D01*
X10198557Y5476290D01*
X10203586Y5479084D01*
X10208056Y5482234D01*
X10211866Y5485638D01*
X10215118Y5489397D01*
X10217810Y5493410D01*
X10219842Y5497728D01*
X10221315Y5502351D01*
X10222179Y5507177D01*
X10222484Y5512308D01*
X10222179Y5517438D01*
X10221315Y5522315D01*
X10219842Y5526887D01*
X10217810Y5531256D01*
X10215118Y5535269D01*
X10211866Y5539028D01*
X10208056Y5542483D01*
X10203586Y5545632D01*
X10198557Y5548477D01*
X10192867Y5550916D01*
X10186619Y5553049D01*
X10179710Y5554827D01*
X10172242Y5556199D01*
X10164114Y5557215D01*
X10155377Y5557824D01*
G37*
G36*
X10774680Y5786272D02*
G01*
X10770819Y5782411D01*
X10767110Y5778093D01*
X10763656Y5773267D01*
X10760608Y5767781D01*
X10758068Y5761685D01*
X10756087Y5754928D01*
X10754817Y5747359D01*
X10754360Y5739028D01*
X10754664Y5732678D01*
X10755630Y5726582D01*
X10757255Y5720791D01*
X10759440Y5715406D01*
X10762183Y5710428D01*
X10765536Y5705957D01*
X10769447Y5701995D01*
X10773867Y5698642D01*
X10778794Y5695950D01*
X10784230Y5693968D01*
X10790123Y5692698D01*
X10796524Y5692292D01*
X10803890Y5692952D01*
X10810595Y5694781D01*
X10816539Y5697728D01*
X10821771Y5701588D01*
X10826191Y5706313D01*
X10829848Y5711698D01*
X10832642Y5717641D01*
X10834624Y5724042D01*
X10835386Y5724042D01*
X10837773Y5718352D01*
X10840770Y5713222D01*
X10844377Y5708700D01*
X10848543Y5704789D01*
X10853369Y5701639D01*
X10858804Y5699302D01*
X10864799Y5697880D01*
X10871454Y5697372D01*
X10877092Y5697728D01*
X10882274Y5698845D01*
X10887049Y5700572D01*
X10891367Y5702960D01*
X10895228Y5705906D01*
X10898632Y5709412D01*
X10901527Y5713476D01*
X10903915Y5717946D01*
X10905794Y5722874D01*
X10907166Y5728157D01*
X10908030Y5733846D01*
X10908284Y5739790D01*
X10907928Y5745988D01*
X10906963Y5751830D01*
X10905337Y5757316D01*
X10903254Y5762548D01*
X10900664Y5767425D01*
X10897666Y5772099D01*
X10894364Y5776468D01*
X10890758Y5780684D01*
X10880090Y5771540D01*
X10885881Y5764936D01*
X10890504Y5757468D01*
X10893602Y5749188D01*
X10894822Y5740298D01*
X10894314Y5734608D01*
X10892942Y5729478D01*
X10890808Y5725058D01*
X10887913Y5721350D01*
X10884408Y5718352D01*
X10880191Y5716168D01*
X10875467Y5714847D01*
X10870184Y5714390D01*
X10866120Y5714593D01*
X10862259Y5715304D01*
X10858601Y5716524D01*
X10855198Y5718302D01*
X10852099Y5720638D01*
X10849254Y5723636D01*
X10846765Y5727242D01*
X10844682Y5731560D01*
X10843006Y5736590D01*
X10841736Y5742330D01*
X10840974Y5748934D01*
X10840720Y5756300D01*
X10827766Y5756300D01*
X10827512Y5748121D01*
X10826750Y5740806D01*
X10825530Y5734354D01*
X10823854Y5728716D01*
X10821771Y5723839D01*
X10819231Y5719724D01*
X10816386Y5716320D01*
X10813135Y5713628D01*
X10809528Y5711596D01*
X10805668Y5710174D01*
X10801502Y5709310D01*
X10797032Y5709056D01*
X10790682Y5709666D01*
X10784992Y5711342D01*
X10780064Y5714085D01*
X10775899Y5717794D01*
X10772546Y5722315D01*
X10770108Y5727598D01*
X10768584Y5733542D01*
X10768076Y5740044D01*
X10768431Y5746394D01*
X10769549Y5752185D01*
X10771174Y5757468D01*
X10773359Y5762294D01*
X10776000Y5766612D01*
X10778896Y5770626D01*
X10782046Y5774283D01*
X10785348Y5777636D01*
G37*
G36*
X10774680Y5674766D02*
G01*
X10770819Y5670905D01*
X10767110Y5666587D01*
X10763656Y5661660D01*
X10760608Y5656173D01*
X10758068Y5650077D01*
X10756087Y5643321D01*
X10754817Y5635802D01*
X10754360Y5627522D01*
X10754664Y5621172D01*
X10755630Y5615076D01*
X10757255Y5609285D01*
X10759440Y5603900D01*
X10762183Y5598922D01*
X10765536Y5594451D01*
X10769447Y5590489D01*
X10773867Y5587136D01*
X10778794Y5584444D01*
X10784230Y5582462D01*
X10790123Y5581192D01*
X10796524Y5580786D01*
X10803890Y5581446D01*
X10810595Y5583275D01*
X10816539Y5586222D01*
X10821771Y5590082D01*
X10826191Y5594807D01*
X10829848Y5600192D01*
X10832642Y5606135D01*
X10834624Y5612536D01*
X10835386Y5612536D01*
X10837773Y5606846D01*
X10840770Y5601716D01*
X10844377Y5597194D01*
X10848543Y5593283D01*
X10853369Y5590133D01*
X10858804Y5587796D01*
X10864799Y5586374D01*
X10871454Y5585866D01*
X10877092Y5586222D01*
X10882274Y5587339D01*
X10887049Y5589066D01*
X10891367Y5591454D01*
X10895228Y5594400D01*
X10898632Y5597956D01*
X10901527Y5601970D01*
X10903915Y5606440D01*
X10905794Y5611368D01*
X10907166Y5616651D01*
X10908030Y5622340D01*
X10908284Y5628284D01*
X10907928Y5634482D01*
X10906963Y5640324D01*
X10905337Y5645810D01*
X10903254Y5651042D01*
X10900664Y5655919D01*
X10897666Y5660593D01*
X10894364Y5664962D01*
X10890758Y5669178D01*
X10880090Y5660034D01*
X10885881Y5653328D01*
X10890504Y5645861D01*
X10893602Y5637631D01*
X10894822Y5628792D01*
X10894314Y5623102D01*
X10892942Y5617972D01*
X10890808Y5613552D01*
X10887913Y5609844D01*
X10884408Y5606846D01*
X10880191Y5604662D01*
X10875467Y5603341D01*
X10870184Y5602884D01*
X10866120Y5603087D01*
X10862259Y5603798D01*
X10858601Y5605018D01*
X10855198Y5606796D01*
X10852099Y5609132D01*
X10849254Y5612079D01*
X10846765Y5615686D01*
X10844682Y5619953D01*
X10843006Y5624982D01*
X10841736Y5630672D01*
X10840974Y5637225D01*
X10840720Y5644540D01*
X10827766Y5644540D01*
X10827512Y5636361D01*
X10826750Y5629046D01*
X10825530Y5622645D01*
X10823854Y5617006D01*
X10821771Y5612180D01*
X10819231Y5608116D01*
X10816386Y5604713D01*
X10813135Y5602071D01*
X10809528Y5600039D01*
X10805668Y5598617D01*
X10801502Y5597804D01*
X10797032Y5597550D01*
X10790682Y5598160D01*
X10784992Y5599836D01*
X10780064Y5602579D01*
X10775899Y5606288D01*
X10772546Y5610809D01*
X10770108Y5616092D01*
X10768584Y5622036D01*
X10768076Y5628538D01*
X10768431Y5634888D01*
X10769549Y5640679D01*
X10771174Y5645962D01*
X10773359Y5650738D01*
X10776000Y5655106D01*
X10778896Y5659120D01*
X10782046Y5662777D01*
X10785348Y5666130D01*
G37*
G36*
X10831830Y5559196D02*
G01*
X10822381Y5558993D01*
X10813542Y5558383D01*
X10805363Y5557367D01*
X10797743Y5555996D01*
X10790783Y5554218D01*
X10784433Y5552084D01*
X10778693Y5549646D01*
X10773562Y5546801D01*
X10769041Y5543651D01*
X10765129Y5540197D01*
X10761827Y5536438D01*
X10759135Y5532424D01*
X10757052Y5528056D01*
X10755528Y5523484D01*
X10754664Y5518607D01*
X10754360Y5513476D01*
X10767568Y5513476D01*
X10767974Y5517743D01*
X10769244Y5521756D01*
X10771378Y5525465D01*
X10774426Y5528919D01*
X10778337Y5532018D01*
X10783112Y5534761D01*
X10788853Y5537200D01*
X10795508Y5539181D01*
X10803128Y5540806D01*
X10811713Y5541975D01*
X10821263Y5542686D01*
X10831830Y5542940D01*
X10842193Y5542686D01*
X10851591Y5541975D01*
X10859973Y5540806D01*
X10867440Y5539181D01*
X10873994Y5537200D01*
X10879632Y5534761D01*
X10884306Y5532018D01*
X10888167Y5528919D01*
X10891062Y5525465D01*
X10893196Y5521756D01*
X10894415Y5517743D01*
X10894822Y5513476D01*
X10894415Y5509209D01*
X10893196Y5505196D01*
X10891062Y5501487D01*
X10888167Y5498033D01*
X10884306Y5494934D01*
X10879632Y5492191D01*
X10873994Y5489752D01*
X10867440Y5487771D01*
X10859973Y5486146D01*
X10851591Y5484977D01*
X10842193Y5484266D01*
X10831830Y5484012D01*
X10821263Y5484266D01*
X10811713Y5484977D01*
X10803128Y5486146D01*
X10795508Y5487771D01*
X10788853Y5489752D01*
X10783112Y5492191D01*
X10778337Y5494934D01*
X10774426Y5498033D01*
X10771378Y5501487D01*
X10769244Y5505196D01*
X10767974Y5509209D01*
X10767568Y5513476D01*
X10754360Y5513476D01*
X10754664Y5508345D01*
X10755528Y5503519D01*
X10757052Y5498896D01*
X10759135Y5494578D01*
X10761827Y5490565D01*
X10765129Y5486806D01*
X10769041Y5483402D01*
X10773562Y5480253D01*
X10778693Y5477459D01*
X10784433Y5475020D01*
X10790783Y5472938D01*
X10797743Y5471160D01*
X10805363Y5469788D01*
X10813542Y5468823D01*
X10822381Y5468213D01*
X10831830Y5468010D01*
X10841177Y5468213D01*
X10849914Y5468823D01*
X10858042Y5469788D01*
X10865510Y5471160D01*
X10872419Y5472938D01*
X10878667Y5475020D01*
X10884357Y5477459D01*
X10889386Y5480253D01*
X10893856Y5483402D01*
X10897666Y5486806D01*
X10900918Y5490565D01*
X10903610Y5494578D01*
X10905642Y5498896D01*
X10907115Y5503519D01*
X10907979Y5508345D01*
X10908284Y5513476D01*
X10907979Y5518607D01*
X10907115Y5523484D01*
X10905642Y5528056D01*
X10903610Y5532424D01*
X10900918Y5536438D01*
X10897666Y5540197D01*
X10893856Y5543651D01*
X10889386Y5546801D01*
X10884357Y5549646D01*
X10878667Y5552084D01*
X10872419Y5554218D01*
X10865510Y5555996D01*
X10858042Y5557367D01*
X10849914Y5558383D01*
X10841177Y5558993D01*
G37*
G36*
X5842000Y5557266D02*
G01*
X5842000Y5477256D01*
X5855716Y5477256D01*
X5855716Y5507482D01*
X5990844Y5507482D01*
X5990844Y5519928D01*
X5987491Y5526176D01*
X5984697Y5533136D01*
X5982462Y5541060D01*
X5980684Y5550154D01*
X5969762Y5550154D01*
X5969762Y5523992D01*
X5855716Y5523992D01*
X5855716Y5557266D01*
G37*
G36*
X5859018Y5457952D02*
G01*
X5855309Y5454040D01*
X5851804Y5449722D01*
X5848451Y5444896D01*
X5845505Y5439511D01*
X5843016Y5433568D01*
X5841136Y5426862D01*
X5839917Y5419445D01*
X5839460Y5411216D01*
X5839815Y5405120D01*
X5840984Y5399125D01*
X5842812Y5393334D01*
X5845403Y5387797D01*
X5848705Y5382666D01*
X5852668Y5377992D01*
X5857341Y5373776D01*
X5862624Y5370169D01*
X5868619Y5367223D01*
X5875223Y5365038D01*
X5882436Y5363667D01*
X5890260Y5363210D01*
X5898083Y5363616D01*
X5905144Y5364784D01*
X5911494Y5366715D01*
X5917133Y5369255D01*
X5922060Y5372455D01*
X5926277Y5376214D01*
X5929833Y5380482D01*
X5932728Y5385206D01*
X5934964Y5390337D01*
X5936538Y5395823D01*
X5937453Y5401614D01*
X5937758Y5407660D01*
X5937300Y5414264D01*
X5936030Y5420156D01*
X5933998Y5425592D01*
X5931408Y5430774D01*
X5976620Y5426710D01*
X5976620Y5370322D01*
X5990844Y5370322D01*
X5990844Y5441442D01*
X5921756Y5446014D01*
X5915914Y5436870D01*
X5919774Y5430824D01*
X5922568Y5424982D01*
X5924245Y5418785D01*
X5924804Y5411724D01*
X5924194Y5404815D01*
X5922416Y5398566D01*
X5919470Y5393131D01*
X5915456Y5388457D01*
X5910427Y5384749D01*
X5904433Y5382006D01*
X5897524Y5380278D01*
X5889752Y5379720D01*
X5881776Y5380380D01*
X5874613Y5382361D01*
X5868365Y5385409D01*
X5863082Y5389422D01*
X5858865Y5394299D01*
X5855766Y5399887D01*
X5853836Y5405983D01*
X5853176Y5412486D01*
X5853531Y5418836D01*
X5854598Y5424627D01*
X5856224Y5429859D01*
X5858306Y5434584D01*
X5860846Y5438902D01*
X5863691Y5442864D01*
X5866739Y5446471D01*
X5869940Y5449824D01*
G37*
G36*
X5916930Y5342128D02*
G01*
X5907481Y5341924D01*
X5898642Y5341315D01*
X5890463Y5340299D01*
X5882843Y5338927D01*
X5875883Y5337149D01*
X5869533Y5335016D01*
X5863793Y5332577D01*
X5858662Y5329732D01*
X5854141Y5326583D01*
X5850229Y5323128D01*
X5846927Y5319369D01*
X5844235Y5315356D01*
X5842152Y5310987D01*
X5840628Y5306415D01*
X5839764Y5301538D01*
X5839460Y5296408D01*
X5852668Y5296408D01*
X5853074Y5300675D01*
X5854344Y5304688D01*
X5856478Y5308396D01*
X5859526Y5311851D01*
X5863437Y5314950D01*
X5868212Y5317693D01*
X5873953Y5320131D01*
X5880608Y5322112D01*
X5888228Y5323738D01*
X5896813Y5324906D01*
X5906363Y5325618D01*
X5916930Y5325872D01*
X5927293Y5325618D01*
X5936691Y5324906D01*
X5945073Y5323738D01*
X5952540Y5322112D01*
X5959094Y5320131D01*
X5964732Y5317693D01*
X5969406Y5314950D01*
X5973267Y5311851D01*
X5976162Y5308396D01*
X5978296Y5304688D01*
X5979515Y5300675D01*
X5979922Y5296408D01*
X5979515Y5292140D01*
X5978296Y5288127D01*
X5976162Y5284419D01*
X5973267Y5280964D01*
X5969406Y5277866D01*
X5964732Y5275122D01*
X5959094Y5272684D01*
X5952540Y5270703D01*
X5945073Y5269077D01*
X5936691Y5267909D01*
X5927293Y5267198D01*
X5916930Y5266944D01*
X5906363Y5267198D01*
X5896813Y5267909D01*
X5888228Y5269077D01*
X5880608Y5270703D01*
X5873953Y5272684D01*
X5868212Y5275122D01*
X5863437Y5277866D01*
X5859526Y5280964D01*
X5856478Y5284419D01*
X5854344Y5288127D01*
X5853074Y5292140D01*
X5852668Y5296408D01*
X5839460Y5296408D01*
X5839764Y5291277D01*
X5840628Y5286451D01*
X5842152Y5281828D01*
X5844235Y5277510D01*
X5846927Y5273497D01*
X5850229Y5269738D01*
X5854141Y5266334D01*
X5858662Y5263184D01*
X5863793Y5260390D01*
X5869533Y5257952D01*
X5875883Y5255869D01*
X5882843Y5254142D01*
X5890463Y5252720D01*
X5898642Y5251754D01*
X5907481Y5251145D01*
X5916930Y5250942D01*
X5926277Y5251145D01*
X5935014Y5251754D01*
X5943142Y5252720D01*
X5950610Y5254142D01*
X5957519Y5255869D01*
X5963767Y5257952D01*
X5969457Y5260390D01*
X5974486Y5263184D01*
X5978956Y5266334D01*
X5982766Y5269738D01*
X5986018Y5273497D01*
X5988710Y5277510D01*
X5990742Y5281828D01*
X5992215Y5286451D01*
X5993079Y5291277D01*
X5993384Y5296408D01*
X5993079Y5301538D01*
X5992215Y5306415D01*
X5990742Y5310987D01*
X5988710Y5315356D01*
X5986018Y5319369D01*
X5982766Y5323128D01*
X5978956Y5326583D01*
X5974486Y5329732D01*
X5969457Y5332577D01*
X5963767Y5335016D01*
X5957519Y5337149D01*
X5950610Y5338927D01*
X5943142Y5340299D01*
X5935014Y5341315D01*
X5926277Y5341924D01*
G37*
D10*
X8146541Y8116315D02*
G01*
X8136127Y8111236D01*
X8125713Y8100821D01*
X8120379Y8090408D01*
X8115300Y8074660D01*
X8115300Y8048752D01*
X8120379Y8033258D01*
X8125713Y8022844D01*
X8136127Y8012429D01*
X8146541Y8007350D01*
X8167370Y8007350D01*
X8177529Y8012429D01*
X8187943Y8022844D01*
X8193277Y8033258D01*
X8198358Y8048752D01*
X8198358Y8074660D01*
X8193277Y8090408D01*
X8187943Y8100821D01*
X8177529Y8111236D01*
X8167370Y8116315D01*
X8146541Y8116315D01*
X8232647Y8116315D02*
G01*
X8232647Y8007350D01*
X8232647Y8116315D02*
G01*
X8279384Y8116315D01*
X8295131Y8111236D01*
X8300211Y8105902D01*
X8305545Y8095487D01*
X8305545Y8079994D01*
X8300211Y8069579D01*
X8295131Y8064500D01*
X8279384Y8059165D01*
X8232647Y8059165D01*
X8339836Y8116315D02*
G01*
X8339836Y8007350D01*
X8339836Y8116315D02*
G01*
X8407400Y8116315D01*
X8339836Y8064500D02*
G01*
X8381238Y8064500D01*
X8339836Y8007350D02*
G01*
X8407400Y8007350D01*
X8441690Y8116315D02*
G01*
X8441690Y8007350D01*
X8441690Y8116315D02*
G01*
X8514334Y8007350D01*
X8514334Y8116315D02*
G01*
X8514334Y8007350D01*
X8548624Y8054086D02*
G01*
X8642095Y8054086D01*
X8676386Y8116315D02*
G01*
X8676386Y8007350D01*
X8749029Y8116315D02*
G01*
X8749029Y8007350D01*
X8676386Y8064500D02*
G01*
X8749029Y8064500D01*
X8824975Y8116315D02*
G01*
X8783320Y8007350D01*
X8824975Y8116315D02*
G01*
X8866631Y8007350D01*
X8799068Y8043671D02*
G01*
X8850884Y8043671D01*
X8900922Y8116315D02*
G01*
X8900922Y8007350D01*
X8900922Y8116315D02*
G01*
X8947658Y8116315D01*
X8963152Y8111236D01*
X8968486Y8105902D01*
X8973565Y8095487D01*
X8973565Y8085073D01*
X8968486Y8074660D01*
X8963152Y8069579D01*
X8947658Y8064500D01*
X8900922Y8064500D01*
X8937243Y8064500D02*
G01*
X8973565Y8007350D01*
X9007856Y8116315D02*
G01*
X9007856Y8007350D01*
X9007856Y8116315D02*
G01*
X9044177Y8116315D01*
X9059925Y8111236D01*
X9070340Y8100821D01*
X9075420Y8090408D01*
X9080500Y8074660D01*
X9080500Y8048752D01*
X9075420Y8033258D01*
X9070340Y8022844D01*
X9059925Y8012429D01*
X9044177Y8007350D01*
X9007856Y8007350D01*
X9114790Y8116315D02*
G01*
X9140952Y8007350D01*
X9166859Y8116315D02*
G01*
X9140952Y8007350D01*
X9166859Y8116315D02*
G01*
X9192768Y8007350D01*
X9218929Y8116315D02*
G01*
X9192768Y8007350D01*
X9294622Y8116315D02*
G01*
X9253220Y8007350D01*
X9294622Y8116315D02*
G01*
X9336277Y8007350D01*
X9268713Y8043671D02*
G01*
X9320529Y8043671D01*
X9370568Y8116315D02*
G01*
X9370568Y8007350D01*
X9370568Y8116315D02*
G01*
X9417304Y8116315D01*
X9432797Y8111236D01*
X9438131Y8105902D01*
X9443211Y8095487D01*
X9443211Y8085073D01*
X9438131Y8074660D01*
X9432797Y8069579D01*
X9417304Y8064500D01*
X9370568Y8064500D01*
X9406890Y8064500D02*
G01*
X9443211Y8007350D01*
X9477502Y8116315D02*
G01*
X9477502Y8007350D01*
X9477502Y8116315D02*
G01*
X9545065Y8116315D01*
X9477502Y8064500D02*
G01*
X9519158Y8064500D01*
X9477502Y8007350D02*
G01*
X9545065Y8007350D01*
X2476500Y4687315D02*
G01*
X2476500Y4578350D01*
X2476500Y4687315D02*
G01*
X2523236Y4687315D01*
X2538729Y4682236D01*
X2544063Y4676902D01*
X2549143Y4666487D01*
X2549143Y4656073D01*
X2544063Y4645660D01*
X2538729Y4640579D01*
X2523236Y4635500D01*
X2476500Y4635500D01*
X2512822Y4635500D02*
G01*
X2549143Y4578350D01*
X2656331Y4671821D02*
G01*
X2645918Y4682236D01*
X2630170Y4687315D01*
X2609595Y4687315D01*
X2593847Y4682236D01*
X2583434Y4671821D01*
X2583434Y4661407D01*
X2588768Y4650994D01*
X2593847Y4645660D01*
X2604261Y4640579D01*
X2635504Y4630165D01*
X2645918Y4625086D01*
X2650997Y4619752D01*
X2656331Y4609337D01*
X2656331Y4593844D01*
X2645918Y4583429D01*
X2630170Y4578350D01*
X2609595Y4578350D01*
X2593847Y4583429D01*
X2583434Y4593844D01*
X2690622Y4625086D02*
G01*
X2784093Y4625086D01*
X2823463Y4661407D02*
G01*
X2823463Y4666487D01*
X2828797Y4676902D01*
X2833877Y4682236D01*
X2844291Y4687315D01*
X2865120Y4687315D01*
X2875534Y4682236D01*
X2880613Y4676902D01*
X2885947Y4666487D01*
X2885947Y4656073D01*
X2880613Y4645660D01*
X2870200Y4630165D01*
X2818384Y4578350D01*
X2891027Y4578350D01*
X2935731Y4687315D02*
G01*
X2992881Y4687315D01*
X2961640Y4645660D01*
X2977388Y4645660D01*
X2987802Y4640579D01*
X2992881Y4635500D01*
X2998215Y4619752D01*
X2998215Y4609337D01*
X2992881Y4593844D01*
X2982468Y4583429D01*
X2966974Y4578350D01*
X2951479Y4578350D01*
X2935731Y4583429D01*
X2930652Y4588510D01*
X2925318Y4598923D01*
X3037586Y4661407D02*
G01*
X3037586Y4666487D01*
X3042920Y4676902D01*
X3048000Y4682236D01*
X3058413Y4687315D01*
X3079241Y4687315D01*
X3089656Y4682236D01*
X3094736Y4676902D01*
X3100070Y4666487D01*
X3100070Y4656073D01*
X3094736Y4645660D01*
X3084322Y4630165D01*
X3032506Y4578350D01*
X3105150Y4578350D01*
D11*
X2191258Y4038600D02*
G01*
X2076704Y4038600D01*
X2191258Y4038600D02*
G01*
X2076704Y3962145D01*
X2191258Y3962145D02*
G01*
X2076704Y3962145D01*
X2163825Y3844544D02*
G01*
X2174747Y3849878D01*
X2185670Y3860800D01*
X2191258Y3871721D01*
X2191258Y3893565D01*
X2185670Y3904487D01*
X2174747Y3915410D01*
X2163825Y3920744D01*
X2147570Y3926331D01*
X2120391Y3926331D01*
X2103881Y3920744D01*
X2092959Y3915410D01*
X2082038Y3904487D01*
X2076704Y3893565D01*
X2076704Y3871721D01*
X2082038Y3860800D01*
X2092959Y3849878D01*
X2103881Y3844544D01*
X2445258Y4013200D02*
G01*
X2330704Y4013200D01*
X2445258Y4051300D02*
G01*
X2445258Y3974845D01*
X2445258Y3939031D02*
G01*
X2330704Y3862578D01*
X2445258Y3862578D02*
G01*
X2330704Y3939031D01*
X2699258Y4038600D02*
G01*
X2584704Y4038600D01*
X2699258Y4038600D02*
G01*
X2699258Y3989578D01*
X2693670Y3973068D01*
X2688336Y3967734D01*
X2677413Y3962145D01*
X2666491Y3962145D01*
X2655570Y3967734D01*
X2649981Y3973068D01*
X2644647Y3989578D01*
X2644647Y4038600D01*
X2644647Y4000500D02*
G01*
X2584704Y3962145D01*
X2699258Y3926331D02*
G01*
X2584704Y3849878D01*
X2699258Y3849878D02*
G01*
X2584704Y3926331D01*
X2953258Y4038600D02*
G01*
X2838704Y3994912D01*
X2953258Y3951223D02*
G01*
X2838704Y3994912D01*
X2953258Y3915410D02*
G01*
X2838704Y3915410D01*
X2953258Y3879342D02*
G01*
X2838704Y3879342D01*
X2953258Y3879342D02*
G01*
X2838704Y3802887D01*
X2953258Y3802887D02*
G01*
X2838704Y3802887D01*
X3219958Y4038600D02*
G01*
X3105404Y4038600D01*
X3219958Y4038600D02*
G01*
X3105404Y3962145D01*
X3219958Y3962145D02*
G01*
X3105404Y3962145D01*
X3192525Y3844544D02*
G01*
X3203447Y3849878D01*
X3214370Y3860800D01*
X3219958Y3871721D01*
X3219958Y3893565D01*
X3214370Y3904487D01*
X3203447Y3915410D01*
X3192525Y3920744D01*
X3176270Y3926331D01*
X3149091Y3926331D01*
X3132581Y3920744D01*
X3121659Y3915410D01*
X3110738Y3904487D01*
X3105404Y3893565D01*
X3105404Y3871721D01*
X3110738Y3860800D01*
X3121659Y3849878D01*
X3132581Y3844544D01*
X3446525Y3956812D02*
G01*
X3457447Y3962145D01*
X3468370Y3973068D01*
X3473958Y3983989D01*
X3473958Y4005834D01*
X3468370Y4016755D01*
X3457447Y4027678D01*
X3446525Y4033265D01*
X3430270Y4038600D01*
X3403091Y4038600D01*
X3386581Y4033265D01*
X3375659Y4027678D01*
X3364738Y4016755D01*
X3359404Y4005834D01*
X3359404Y3983989D01*
X3364738Y3973068D01*
X3375659Y3962145D01*
X3386581Y3956812D01*
X3403091Y3956812D01*
X3403091Y3983989D02*
G01*
X3403091Y3956812D01*
X3473958Y3920744D02*
G01*
X3359404Y3920744D01*
X3473958Y3920744D02*
G01*
X3359404Y3844544D01*
X3473958Y3844544D02*
G01*
X3359404Y3844544D01*
X3473958Y3808476D02*
G01*
X3359404Y3808476D01*
X3473958Y3808476D02*
G01*
X3473958Y3770121D01*
X3468370Y3753865D01*
X3457447Y3742944D01*
X3446525Y3737610D01*
X3430270Y3732021D01*
X3403091Y3732021D01*
X3386581Y3737610D01*
X3375659Y3742944D01*
X3364738Y3753865D01*
X3359404Y3770121D01*
X3359404Y3808476D01*
X5401200Y7800992D02*
G01*
X5390278Y7795404D01*
X5379356Y7784482D01*
X5373768Y7773560D01*
X5368434Y7757304D01*
X5368434Y7730126D01*
X5373768Y7713616D01*
X5379356Y7702694D01*
X5390278Y7691772D01*
X5401200Y7686438D01*
X5423044Y7686438D01*
X5433966Y7691772D01*
X5444888Y7702694D01*
X5450222Y7713616D01*
X5455810Y7730126D01*
X5455810Y7757304D01*
X5450222Y7773560D01*
X5444888Y7784482D01*
X5433966Y7795404D01*
X5423044Y7800992D01*
X5401200Y7800992D01*
X5491624Y7800992D02*
G01*
X5491624Y7686438D01*
X5491624Y7800992D02*
G01*
X5540900Y7800992D01*
X5557156Y7795404D01*
X5562490Y7790070D01*
X5568078Y7779148D01*
X5568078Y7762638D01*
X5562490Y7751716D01*
X5557156Y7746382D01*
X5540900Y7741048D01*
X5491624Y7741048D01*
X5604146Y7800992D02*
G01*
X5604146Y7686438D01*
X5604146Y7800992D02*
G01*
X5675012Y7800992D01*
X5604146Y7746382D02*
G01*
X5647580Y7746382D01*
X5604146Y7686438D02*
G01*
X5675012Y7686438D01*
X5711080Y7800992D02*
G01*
X5711080Y7686438D01*
X5711080Y7800992D02*
G01*
X5787280Y7686438D01*
X5787280Y7800992D02*
G01*
X5787280Y7686438D01*
X5921646Y7822836D02*
G01*
X5823348Y7648084D01*
X6001148Y7800992D02*
G01*
X5957460Y7686438D01*
X6001148Y7800992D02*
G01*
X6044836Y7686438D01*
X5973970Y7724538D02*
G01*
X6028326Y7724538D01*
X6135260Y7800992D02*
G01*
X6135260Y7713616D01*
X6129926Y7697360D01*
X6124338Y7691772D01*
X6113416Y7686438D01*
X6102494Y7686438D01*
X6091826Y7691772D01*
X6086238Y7697360D01*
X6080904Y7713616D01*
X6080904Y7724538D01*
X6215016Y7800992D02*
G01*
X6171328Y7686438D01*
X6215016Y7800992D02*
G01*
X6258704Y7686438D01*
X6187584Y7724538D02*
G01*
X6242194Y7724538D01*
X6294518Y7800992D02*
G01*
X6294518Y7686438D01*
X6294518Y7800992D02*
G01*
X6343794Y7800992D01*
X6360050Y7795404D01*
X6365638Y7790070D01*
X6370972Y7779148D01*
X6370972Y7768226D01*
X6365638Y7757304D01*
X6360050Y7751716D01*
X6343794Y7746382D01*
X6294518Y7746382D01*
X6332872Y7746382D02*
G01*
X6370972Y7686438D01*
X5669788Y6687058D02*
G01*
X5626100Y6572504D01*
X5669788Y6687058D02*
G01*
X5713475Y6572504D01*
X5642356Y6610604D02*
G01*
X5696965Y6610604D01*
X5831077Y6659626D02*
G01*
X5825743Y6670547D01*
X5814822Y6681470D01*
X5803900Y6687058D01*
X5782056Y6687058D01*
X5771134Y6681470D01*
X5760211Y6670547D01*
X5754877Y6659626D01*
X5749290Y6643370D01*
X5749290Y6616192D01*
X5754877Y6599681D01*
X5760211Y6588760D01*
X5771134Y6577837D01*
X5782056Y6572504D01*
X5803900Y6572504D01*
X5814822Y6577837D01*
X5825743Y6588760D01*
X5831077Y6599681D01*
X5905245Y6687058D02*
G01*
X5905245Y6572504D01*
X5867145Y6687058D02*
G01*
X5943600Y6687058D01*
X5753100Y3893057D02*
G01*
X5753100Y3778504D01*
X5753100Y3893057D02*
G01*
X5802122Y3893057D01*
X5818631Y3887470D01*
X5823965Y3882136D01*
X5829554Y3871213D01*
X5829554Y3854704D01*
X5823965Y3843781D01*
X5818631Y3838447D01*
X5802122Y3833113D01*
X5753100Y3833113D01*
X5865368Y3893057D02*
G01*
X5892800Y3778504D01*
X5919977Y3893057D02*
G01*
X5892800Y3778504D01*
X5919977Y3893057D02*
G01*
X5947156Y3778504D01*
X5974588Y3893057D02*
G01*
X5947156Y3778504D01*
X6010656Y3893057D02*
G01*
X6010656Y3778504D01*
X6010656Y3893057D02*
G01*
X6059677Y3893057D01*
X6075934Y3887470D01*
X6081522Y3882136D01*
X6086856Y3871213D01*
X6086856Y3860292D01*
X6081522Y3849370D01*
X6075934Y3843781D01*
X6059677Y3838447D01*
X6010656Y3838447D01*
X6048756Y3838447D02*
G01*
X6086856Y3778504D01*
X5412231Y2508757D02*
G01*
X5357622Y2508757D01*
X5352034Y2459481D01*
X5357622Y2465070D01*
X5373877Y2470404D01*
X5390388Y2470404D01*
X5406643Y2465070D01*
X5417565Y2454147D01*
X5423154Y2437892D01*
X5423154Y2426970D01*
X5417565Y2410460D01*
X5406643Y2399537D01*
X5390388Y2394204D01*
X5373877Y2394204D01*
X5357622Y2399537D01*
X5352034Y2405126D01*
X5346700Y2416047D01*
X5458968Y2508757D02*
G01*
X5502656Y2394204D01*
X5546343Y2508757D02*
G01*
X5502656Y2394204D01*
X5582411Y2508757D02*
G01*
X5582411Y2394204D01*
X5582411Y2508757D02*
G01*
X5620511Y2508757D01*
X5636768Y2503170D01*
X5647690Y2492247D01*
X5653277Y2481326D01*
X5658611Y2465070D01*
X5658611Y2437892D01*
X5653277Y2421381D01*
X5647690Y2410460D01*
X5636768Y2399537D01*
X5620511Y2394204D01*
X5582411Y2394204D01*
X5776468Y2481326D02*
G01*
X5771134Y2492247D01*
X5760211Y2503170D01*
X5749290Y2508757D01*
X5727445Y2508757D01*
X5716524Y2503170D01*
X5705602Y2492247D01*
X5700268Y2481326D01*
X5694679Y2465070D01*
X5694679Y2437892D01*
X5700268Y2421381D01*
X5705602Y2410460D01*
X5716524Y2399537D01*
X5727445Y2394204D01*
X5749290Y2394204D01*
X5760211Y2399537D01*
X5771134Y2410460D01*
X5776468Y2421381D01*
X5896609Y2486913D02*
G01*
X5907531Y2492247D01*
X5923788Y2508757D01*
X5923788Y2394204D01*
X5965190Y2421381D02*
G01*
X5959856Y2416047D01*
X5965190Y2410460D01*
X5970777Y2416047D01*
X5965190Y2421381D01*
X6039358Y2508757D02*
G01*
X6023102Y2503170D01*
X6012179Y2486913D01*
X6006591Y2459481D01*
X6006591Y2443226D01*
X6012179Y2416047D01*
X6023102Y2399537D01*
X6039358Y2394204D01*
X6050279Y2394204D01*
X6066790Y2399537D01*
X6077711Y2416047D01*
X6083045Y2443226D01*
X6083045Y2459481D01*
X6077711Y2486913D01*
X6066790Y2503170D01*
X6050279Y2508757D01*
X6039358Y2508757D01*
X6162802Y2508757D02*
G01*
X6119113Y2394204D01*
X6162802Y2508757D02*
G01*
X6206236Y2394204D01*
X6135370Y2432304D02*
G01*
X6189979Y2432304D01*
X7378700Y2508757D02*
G01*
X7378700Y2394204D01*
X7378700Y2508757D02*
G01*
X7416800Y2508757D01*
X7433309Y2503170D01*
X7444231Y2492247D01*
X7449565Y2481326D01*
X7455154Y2465070D01*
X7455154Y2437892D01*
X7449565Y2421381D01*
X7444231Y2410460D01*
X7433309Y2399537D01*
X7416800Y2394204D01*
X7378700Y2394204D01*
X7572756Y2481326D02*
G01*
X7567422Y2492247D01*
X7556500Y2503170D01*
X7545577Y2508757D01*
X7523734Y2508757D01*
X7512811Y2503170D01*
X7501890Y2492247D01*
X7496556Y2481326D01*
X7490968Y2465070D01*
X7490968Y2437892D01*
X7496556Y2421381D01*
X7501890Y2410460D01*
X7512811Y2399537D01*
X7523734Y2394204D01*
X7545577Y2394204D01*
X7556500Y2399537D01*
X7567422Y2410460D01*
X7572756Y2421381D01*
X7608824Y2486913D02*
G01*
X7619745Y2492247D01*
X7636256Y2508757D01*
X7636256Y2394204D01*
X8382000Y2496057D02*
G01*
X8382000Y2381504D01*
X8382000Y2496057D02*
G01*
X8420100Y2496057D01*
X8436609Y2490470D01*
X8447531Y2479547D01*
X8452865Y2468626D01*
X8458454Y2452370D01*
X8458454Y2425192D01*
X8452865Y2408681D01*
X8447531Y2397760D01*
X8436609Y2386837D01*
X8420100Y2381504D01*
X8382000Y2381504D01*
X8576056Y2468626D02*
G01*
X8570722Y2479547D01*
X8559800Y2490470D01*
X8548877Y2496057D01*
X8527034Y2496057D01*
X8516111Y2490470D01*
X8505190Y2479547D01*
X8499856Y2468626D01*
X8494268Y2452370D01*
X8494268Y2425192D01*
X8499856Y2408681D01*
X8505190Y2397760D01*
X8516111Y2386837D01*
X8527034Y2381504D01*
X8548877Y2381504D01*
X8559800Y2386837D01*
X8570722Y2397760D01*
X8576056Y2408681D01*
X8617711Y2468626D02*
G01*
X8617711Y2474213D01*
X8623045Y2485136D01*
X8628634Y2490470D01*
X8639556Y2496057D01*
X8661145Y2496057D01*
X8672068Y2490470D01*
X8677656Y2485136D01*
X8682990Y2474213D01*
X8682990Y2463292D01*
X8677656Y2452370D01*
X8666734Y2436113D01*
X8612124Y2381504D01*
X8688577Y2381504D01*
X9893300Y2496057D02*
G01*
X9893300Y2381504D01*
X9893300Y2496057D02*
G01*
X9931400Y2496057D01*
X9947909Y2490470D01*
X9958831Y2479547D01*
X9964165Y2468626D01*
X9969754Y2452370D01*
X9969754Y2425192D01*
X9964165Y2408681D01*
X9958831Y2397760D01*
X9947909Y2386837D01*
X9931400Y2381504D01*
X9893300Y2381504D01*
X10087356Y2468626D02*
G01*
X10082022Y2479547D01*
X10071100Y2490470D01*
X10060177Y2496057D01*
X10038334Y2496057D01*
X10027411Y2490470D01*
X10016490Y2479547D01*
X10011156Y2468626D01*
X10005568Y2452370D01*
X10005568Y2425192D01*
X10011156Y2408681D01*
X10016490Y2397760D01*
X10027411Y2386837D01*
X10038334Y2381504D01*
X10060177Y2381504D01*
X10071100Y2386837D01*
X10082022Y2397760D01*
X10087356Y2408681D01*
X10134345Y2496057D02*
G01*
X10194290Y2496057D01*
X10161777Y2452370D01*
X10178034Y2452370D01*
X10188956Y2446781D01*
X10194290Y2441447D01*
X10199877Y2425192D01*
X10199877Y2414270D01*
X10194290Y2397760D01*
X10183368Y2386837D01*
X10167111Y2381504D01*
X10150856Y2381504D01*
X10134345Y2386837D01*
X10129011Y2392426D01*
X10123424Y2403347D01*
X10922000Y2496057D02*
G01*
X10922000Y2381504D01*
X10922000Y2496057D02*
G01*
X10960100Y2496057D01*
X10976609Y2490470D01*
X10987531Y2479547D01*
X10992865Y2468626D01*
X10998454Y2452370D01*
X10998454Y2425192D01*
X10992865Y2408681D01*
X10987531Y2397760D01*
X10976609Y2386837D01*
X10960100Y2381504D01*
X10922000Y2381504D01*
X11116056Y2468626D02*
G01*
X11110722Y2479547D01*
X11099800Y2490470D01*
X11088877Y2496057D01*
X11067034Y2496057D01*
X11056111Y2490470D01*
X11045190Y2479547D01*
X11039856Y2468626D01*
X11034268Y2452370D01*
X11034268Y2425192D01*
X11039856Y2408681D01*
X11045190Y2397760D01*
X11056111Y2386837D01*
X11067034Y2381504D01*
X11088877Y2381504D01*
X11099800Y2386837D01*
X11110722Y2397760D01*
X11116056Y2408681D01*
X11206734Y2496057D02*
G01*
X11152124Y2419604D01*
X11233911Y2419604D01*
X11206734Y2496057D02*
G01*
X11206734Y2381504D01*
X6297422Y3025647D02*
G01*
X6297422Y2927604D01*
X6248400Y2976626D02*
G01*
X6346697Y2976626D01*
X5156200Y2976626D02*
G01*
X5254497Y2976626D01*
X13025374Y7320787D02*
G01*
X13014452Y7315454D01*
X13003529Y7304531D01*
X12997941Y7293610D01*
X12997941Y7271765D01*
X13003529Y7260844D01*
X13014452Y7249921D01*
X13025374Y7244334D01*
X13041629Y7239000D01*
X13068808Y7239000D01*
X13085318Y7244334D01*
X13096240Y7249921D01*
X13107161Y7260844D01*
X13112495Y7271765D01*
X13112495Y7293610D01*
X13107161Y7304531D01*
X13096240Y7315454D01*
X13085318Y7320787D01*
X13068808Y7320787D01*
X13068808Y7293610D02*
G01*
X13068808Y7320787D01*
X12997941Y7422387D02*
G01*
X12997941Y7367778D01*
X13047218Y7362189D01*
X13041629Y7367778D01*
X13036295Y7384034D01*
X13036295Y7400544D01*
X13041629Y7416800D01*
X13052552Y7427721D01*
X13068808Y7433055D01*
X13079729Y7433055D01*
X13096240Y7427721D01*
X13107161Y7416800D01*
X13112495Y7400544D01*
X13112495Y7384034D01*
X13107161Y7367778D01*
X13101574Y7362189D01*
X13090652Y7356855D01*
X12997941Y7469123D02*
G01*
X13112495Y7469123D01*
X13112495Y7469123D02*
G01*
X13112495Y7534655D01*
X12997941Y7570723D02*
G01*
X13112495Y7570723D01*
X12997941Y7570723D02*
G01*
X12997941Y7641589D01*
X13052552Y7570723D02*
G01*
X13052552Y7614158D01*
X13112495Y7570723D02*
G01*
X13112495Y7641589D01*
X13063474Y7677658D02*
G01*
X13063474Y7775702D01*
X13019786Y7811770D02*
G01*
X13014452Y7822692D01*
X12997941Y7838947D01*
X13112495Y7838947D01*
X12997941Y7929626D02*
G01*
X13074395Y7875015D01*
X13074395Y7956804D01*
X12997941Y7929626D02*
G01*
X13112495Y7929626D01*
X13063474Y7992871D02*
G01*
X13063474Y8090915D01*
X12997941Y8126984D02*
G01*
X13112495Y8126984D01*
X12997941Y8126984D02*
G01*
X12997941Y8165084D01*
X13003529Y8181594D01*
X13014452Y8192515D01*
X13025374Y8197850D01*
X13041629Y8203437D01*
X13068808Y8203437D01*
X13085318Y8197850D01*
X13096240Y8192515D01*
X13107161Y8181594D01*
X13112495Y8165084D01*
X13112495Y8126984D01*
X13025374Y8321294D02*
G01*
X13014452Y8315705D01*
X13003529Y8304784D01*
X12997941Y8293862D01*
X12997941Y8272018D01*
X13003529Y8261095D01*
X13014452Y8250173D01*
X13025374Y8244839D01*
X13041629Y8239252D01*
X13068808Y8239252D01*
X13085318Y8244839D01*
X13096240Y8250173D01*
X13107161Y8261095D01*
X13112495Y8272018D01*
X13112495Y8293862D01*
X13107161Y8304784D01*
X13096240Y8315705D01*
X13085318Y8321294D01*
X12997941Y8368029D02*
G01*
X12997941Y8427974D01*
X13041629Y8395462D01*
X13041629Y8411718D01*
X13047218Y8422639D01*
X13052552Y8427974D01*
X13068808Y8433562D01*
X13079729Y8433562D01*
X13096240Y8427974D01*
X13107161Y8417305D01*
X13112495Y8400795D01*
X13112495Y8384539D01*
X13107161Y8368029D01*
X13101574Y8362695D01*
X13090652Y8357108D01*
X13012674Y4260087D02*
G01*
X13001752Y4254754D01*
X12990829Y4243831D01*
X12985241Y4232910D01*
X12985241Y4211065D01*
X12990829Y4200144D01*
X13001752Y4189221D01*
X13012674Y4183634D01*
X13028929Y4178300D01*
X13056108Y4178300D01*
X13072618Y4183634D01*
X13083540Y4189221D01*
X13094461Y4200144D01*
X13099795Y4211065D01*
X13099795Y4232910D01*
X13094461Y4243831D01*
X13083540Y4254754D01*
X13072618Y4260087D01*
X13056108Y4260087D01*
X13056108Y4232910D02*
G01*
X13056108Y4260087D01*
X12985241Y4361687D02*
G01*
X12985241Y4307078D01*
X13034518Y4301489D01*
X13028929Y4307078D01*
X13023595Y4323334D01*
X13023595Y4339844D01*
X13028929Y4356100D01*
X13039852Y4367021D01*
X13056108Y4372355D01*
X13067029Y4372355D01*
X13083540Y4367021D01*
X13094461Y4356100D01*
X13099795Y4339844D01*
X13099795Y4323334D01*
X13094461Y4307078D01*
X13088874Y4301489D01*
X13077952Y4296155D01*
X12985241Y4408423D02*
G01*
X13099795Y4408423D01*
X13099795Y4408423D02*
G01*
X13099795Y4473955D01*
X12985241Y4510023D02*
G01*
X13099795Y4510023D01*
X12985241Y4510023D02*
G01*
X12985241Y4580889D01*
X13039852Y4510023D02*
G01*
X13039852Y4553457D01*
X13099795Y4510023D02*
G01*
X13099795Y4580889D01*
X13050774Y4616957D02*
G01*
X13050774Y4715002D01*
X13007086Y4751070D02*
G01*
X13001752Y4761992D01*
X12985241Y4778247D01*
X13099795Y4778247D01*
X12985241Y4868926D02*
G01*
X13061695Y4814315D01*
X13061695Y4896104D01*
X12985241Y4868926D02*
G01*
X13099795Y4868926D01*
X13050774Y4932171D02*
G01*
X13050774Y5030215D01*
X12985241Y5066284D02*
G01*
X13099795Y5066284D01*
X12985241Y5066284D02*
G01*
X12985241Y5104384D01*
X12990829Y5120894D01*
X13001752Y5131815D01*
X13012674Y5137150D01*
X13028929Y5142737D01*
X13056108Y5142737D01*
X13072618Y5137150D01*
X13083540Y5131815D01*
X13094461Y5120894D01*
X13099795Y5104384D01*
X13099795Y5066284D01*
X13012674Y5260594D02*
G01*
X13001752Y5255005D01*
X12990829Y5244084D01*
X12985241Y5233162D01*
X12985241Y5211318D01*
X12990829Y5200395D01*
X13001752Y5189473D01*
X13012674Y5184139D01*
X13028929Y5178552D01*
X13056108Y5178552D01*
X13072618Y5184139D01*
X13083540Y5189473D01*
X13094461Y5200395D01*
X13099795Y5211318D01*
X13099795Y5233162D01*
X13094461Y5244084D01*
X13083540Y5255005D01*
X13072618Y5260594D01*
X12985241Y5307329D02*
G01*
X12985241Y5367273D01*
X13028929Y5334762D01*
X13028929Y5351018D01*
X13034518Y5361939D01*
X13039852Y5367273D01*
X13056108Y5372862D01*
X13067029Y5372862D01*
X13083540Y5367273D01*
X13094461Y5356605D01*
X13099795Y5340095D01*
X13099795Y5323839D01*
X13094461Y5307329D01*
X13088874Y5301995D01*
X13077952Y5296407D01*
X15004541Y4693665D02*
G01*
X15010129Y4682744D01*
X15021052Y4671821D01*
X15031974Y4666234D01*
X15048229Y4660900D01*
X15075408Y4660900D01*
X15091918Y4666234D01*
X15102840Y4671821D01*
X15113761Y4682744D01*
X15119095Y4693665D01*
X15119095Y4715510D01*
X15113761Y4726431D01*
X15102840Y4737354D01*
X15091918Y4742687D01*
X15075408Y4748276D01*
X15048229Y4748276D01*
X15031974Y4742687D01*
X15021052Y4737354D01*
X15010129Y4726431D01*
X15004541Y4715510D01*
X15004541Y4693665D01*
X15004541Y4784089D02*
G01*
X15119095Y4784089D01*
X15004541Y4784089D02*
G01*
X15004541Y4833365D01*
X15010129Y4849621D01*
X15015463Y4854955D01*
X15026386Y4860544D01*
X15042895Y4860544D01*
X15053818Y4854955D01*
X15059152Y4849621D01*
X15064486Y4833365D01*
X15064486Y4784089D01*
X15004541Y4896612D02*
G01*
X15119095Y4896612D01*
X15004541Y4896612D02*
G01*
X15004541Y4967478D01*
X15059152Y4896612D02*
G01*
X15059152Y4940045D01*
X15119095Y4896612D02*
G01*
X15119095Y4967478D01*
X15004541Y5003545D02*
G01*
X15119095Y5003545D01*
X15004541Y5003545D02*
G01*
X15119095Y5079745D01*
X15004541Y5079745D02*
G01*
X15119095Y5079745D01*
X15004541Y5115813D02*
G01*
X15119095Y5115813D01*
X15004541Y5115813D02*
G01*
X15004541Y5186679D01*
X15059152Y5115813D02*
G01*
X15059152Y5159502D01*
X15119095Y5115813D02*
G01*
X15119095Y5186679D01*
X15004541Y5222747D02*
G01*
X15119095Y5222747D01*
X15004541Y5222747D02*
G01*
X15004541Y5271770D01*
X15010129Y5288279D01*
X15015463Y5293613D01*
X15026386Y5299202D01*
X15037308Y5299202D01*
X15048229Y5293613D01*
X15053818Y5288279D01*
X15059152Y5271770D01*
X15059152Y5222747D01*
X15059152Y5260847D02*
G01*
X15119095Y5299202D01*
X15026386Y5419089D02*
G01*
X15021052Y5430012D01*
X15004541Y5446268D01*
X15119095Y5446268D01*
X15004541Y7754365D02*
G01*
X15010129Y7743444D01*
X15021052Y7732521D01*
X15031974Y7726934D01*
X15048229Y7721600D01*
X15075408Y7721600D01*
X15091918Y7726934D01*
X15102840Y7732521D01*
X15113761Y7743444D01*
X15119095Y7754365D01*
X15119095Y7776210D01*
X15113761Y7787131D01*
X15102840Y7798054D01*
X15091918Y7803387D01*
X15075408Y7808976D01*
X15048229Y7808976D01*
X15031974Y7803387D01*
X15021052Y7798054D01*
X15010129Y7787131D01*
X15004541Y7776210D01*
X15004541Y7754365D01*
X15004541Y7844789D02*
G01*
X15119095Y7844789D01*
X15004541Y7844789D02*
G01*
X15004541Y7894065D01*
X15010129Y7910321D01*
X15015463Y7915655D01*
X15026386Y7921244D01*
X15042895Y7921244D01*
X15053818Y7915655D01*
X15059152Y7910321D01*
X15064486Y7894065D01*
X15064486Y7844789D01*
X15004541Y7957312D02*
G01*
X15119095Y7957312D01*
X15004541Y7957312D02*
G01*
X15004541Y8028178D01*
X15059152Y7957312D02*
G01*
X15059152Y8000745D01*
X15119095Y7957312D02*
G01*
X15119095Y8028178D01*
X15004541Y8064245D02*
G01*
X15119095Y8064245D01*
X15004541Y8064245D02*
G01*
X15119095Y8140445D01*
X15004541Y8140445D02*
G01*
X15119095Y8140445D01*
X15004541Y8176513D02*
G01*
X15119095Y8176513D01*
X15004541Y8176513D02*
G01*
X15004541Y8247379D01*
X15059152Y8176513D02*
G01*
X15059152Y8220202D01*
X15119095Y8176513D02*
G01*
X15119095Y8247379D01*
X15004541Y8283447D02*
G01*
X15119095Y8283447D01*
X15004541Y8283447D02*
G01*
X15004541Y8332470D01*
X15010129Y8348979D01*
X15015463Y8354313D01*
X15026386Y8359902D01*
X15037308Y8359902D01*
X15048229Y8354313D01*
X15053818Y8348979D01*
X15059152Y8332470D01*
X15059152Y8283447D01*
X15059152Y8321547D02*
G01*
X15119095Y8359902D01*
X15031974Y8485124D02*
G01*
X15026386Y8485124D01*
X15015463Y8490712D01*
X15010129Y8496045D01*
X15004541Y8506968D01*
X15004541Y8528812D01*
X15010129Y8539734D01*
X15015463Y8545321D01*
X15026386Y8550655D01*
X15037308Y8550655D01*
X15048229Y8545321D01*
X15064486Y8534400D01*
X15119095Y8479789D01*
X15119095Y8556244D01*
X7769097Y7598663D02*
G01*
X7759954Y7616697D01*
X7741665Y7634986D01*
X7723631Y7644129D01*
X7687309Y7644129D01*
X7669022Y7634986D01*
X7650988Y7616697D01*
X7641843Y7598663D01*
X7632700Y7571231D01*
X7632700Y7525765D01*
X7641843Y7498587D01*
X7650988Y7480300D01*
X7669022Y7462265D01*
X7687309Y7453121D01*
X7723631Y7453121D01*
X7741665Y7462265D01*
X7759954Y7480300D01*
X7769097Y7498587D01*
X7838186Y7580376D02*
G01*
X7892795Y7453121D01*
X7947152Y7580376D02*
G01*
X7892795Y7453121D01*
X7874508Y7416800D01*
X7856220Y7398512D01*
X7838186Y7389368D01*
X7829041Y7389368D01*
X8143493Y7598663D02*
G01*
X8134604Y7616697D01*
X8116315Y7634986D01*
X8098027Y7644129D01*
X8061706Y7644129D01*
X8043672Y7634986D01*
X8025384Y7616697D01*
X8016240Y7598663D01*
X8007350Y7571231D01*
X8007350Y7525765D01*
X8016240Y7498587D01*
X8025384Y7480300D01*
X8043672Y7462265D01*
X8061706Y7453121D01*
X8098027Y7453121D01*
X8116315Y7462265D01*
X8134604Y7480300D01*
X8143493Y7498587D01*
X8143493Y7525765D01*
X8098027Y7525765D02*
G01*
X8143493Y7525765D01*
X8312658Y7580376D02*
G01*
X8312658Y7453121D01*
X8312658Y7553197D02*
G01*
X8294624Y7571231D01*
X8276336Y7580376D01*
X8249158Y7580376D01*
X8230870Y7571231D01*
X8212581Y7553197D01*
X8203691Y7525765D01*
X8203691Y7507731D01*
X8212581Y7480300D01*
X8230870Y7462265D01*
X8249158Y7453121D01*
X8276336Y7453121D01*
X8294624Y7462265D01*
X8312658Y7480300D01*
X8372602Y7580376D02*
G01*
X8372602Y7453121D01*
X8372602Y7525765D02*
G01*
X8381745Y7553197D01*
X8400034Y7571231D01*
X8418068Y7580376D01*
X8445500Y7580376D01*
X8614409Y7580376D02*
G01*
X8614409Y7453121D01*
X8614409Y7553197D02*
G01*
X8596375Y7571231D01*
X8578088Y7580376D01*
X8550909Y7580376D01*
X8532622Y7571231D01*
X8514588Y7553197D01*
X8505443Y7525765D01*
X8505443Y7507731D01*
X8514588Y7480300D01*
X8532622Y7462265D01*
X8550909Y7453121D01*
X8578088Y7453121D01*
X8596375Y7462265D01*
X8614409Y7480300D01*
X8783574Y7580376D02*
G01*
X8783574Y7434834D01*
X8774429Y7407655D01*
X8765540Y7398512D01*
X8747252Y7389368D01*
X8720074Y7389368D01*
X8701786Y7398512D01*
X8783574Y7553197D02*
G01*
X8765540Y7571231D01*
X8747252Y7580376D01*
X8720074Y7580376D01*
X8701786Y7571231D01*
X8683497Y7553197D01*
X8674608Y7525765D01*
X8674608Y7507731D01*
X8683497Y7480300D01*
X8701786Y7462265D01*
X8720074Y7453121D01*
X8747252Y7453121D01*
X8765540Y7462265D01*
X8783574Y7480300D01*
X8843518Y7525765D02*
G01*
X8952738Y7525765D01*
X8952738Y7544054D01*
X8943593Y7562087D01*
X8934450Y7571231D01*
X8916415Y7580376D01*
X8888984Y7580376D01*
X8870950Y7571231D01*
X8852661Y7553197D01*
X8843518Y7525765D01*
X8843518Y7507731D01*
X8852661Y7480300D01*
X8870950Y7462265D01*
X8888984Y7453121D01*
X8916415Y7453121D01*
X8934450Y7462265D01*
X8952738Y7480300D01*
X9152636Y7644129D02*
G01*
X9152636Y7453121D01*
X9152636Y7644129D02*
G01*
X9234424Y7644129D01*
X9261856Y7634986D01*
X9271000Y7625842D01*
X9279890Y7607554D01*
X9279890Y7589520D01*
X9271000Y7571231D01*
X9261856Y7562087D01*
X9234424Y7553197D01*
X9152636Y7553197D01*
X9216390Y7553197D02*
G01*
X9279890Y7453121D01*
X9340088Y7525765D02*
G01*
X9449054Y7525765D01*
X9449054Y7544054D01*
X9439909Y7562087D01*
X9430765Y7571231D01*
X9412731Y7580376D01*
X9385300Y7580376D01*
X9367265Y7571231D01*
X9348977Y7553197D01*
X9340088Y7525765D01*
X9340088Y7507731D01*
X9348977Y7480300D01*
X9367265Y7462265D01*
X9385300Y7453121D01*
X9412731Y7453121D01*
X9430765Y7462265D01*
X9449054Y7480300D01*
X9508997Y7580376D02*
G01*
X9563608Y7453121D01*
X9618218Y7580376D02*
G01*
X9563608Y7453121D01*
X9818115Y7607554D02*
G01*
X9836404Y7616697D01*
X9863581Y7644129D01*
X9863581Y7453121D01*
X9932670Y7498587D02*
G01*
X9923525Y7489444D01*
X9932670Y7480300D01*
X9941813Y7489444D01*
X9932670Y7498587D01*
X10092690Y7644129D02*
G01*
X10001758Y7516621D01*
X10138156Y7516621D01*
X10092690Y7644129D02*
G01*
X10092690Y7453121D01*
X7447874Y7269226D02*
G01*
X7442286Y7280147D01*
X7431364Y7291070D01*
X7420442Y7296658D01*
X7398852Y7296658D01*
X7387930Y7291070D01*
X7377008Y7280147D01*
X7371420Y7269226D01*
X7366086Y7252970D01*
X7366086Y7225792D01*
X7371420Y7209281D01*
X7377008Y7198360D01*
X7387930Y7187437D01*
X7398852Y7182104D01*
X7420442Y7182104D01*
X7431364Y7187437D01*
X7442286Y7198360D01*
X7447874Y7209281D01*
X7511120Y7258304D02*
G01*
X7500198Y7252970D01*
X7489276Y7242047D01*
X7483942Y7225792D01*
X7483942Y7214870D01*
X7489276Y7198360D01*
X7500198Y7187437D01*
X7511120Y7182104D01*
X7527376Y7182104D01*
X7538298Y7187437D01*
X7549220Y7198360D01*
X7554808Y7214870D01*
X7554808Y7225792D01*
X7549220Y7242047D01*
X7538298Y7252970D01*
X7527376Y7258304D01*
X7511120Y7258304D01*
X7590622Y7258304D02*
G01*
X7590622Y7143750D01*
X7590622Y7242047D02*
G01*
X7601544Y7252970D01*
X7612466Y7258304D01*
X7628976Y7258304D01*
X7639898Y7252970D01*
X7650820Y7242047D01*
X7656154Y7225792D01*
X7656154Y7214870D01*
X7650820Y7198360D01*
X7639898Y7187437D01*
X7628976Y7182104D01*
X7612466Y7182104D01*
X7601544Y7187437D01*
X7590622Y7198360D01*
X7697556Y7258304D02*
G01*
X7730322Y7182104D01*
X7763088Y7258304D02*
G01*
X7730322Y7182104D01*
X7719400Y7160260D01*
X7708478Y7149337D01*
X7697556Y7143750D01*
X7692222Y7143750D01*
X7799156Y7258304D02*
G01*
X7799156Y7182104D01*
X7799156Y7225792D02*
G01*
X7804490Y7242047D01*
X7815412Y7252970D01*
X7826334Y7258304D01*
X7842844Y7258304D01*
X7878658Y7296658D02*
G01*
X7884246Y7291070D01*
X7889580Y7296658D01*
X7884246Y7301992D01*
X7878658Y7296658D01*
X7884246Y7258304D02*
G01*
X7884246Y7182104D01*
X7991180Y7258304D02*
G01*
X7991180Y7171181D01*
X7985592Y7154671D01*
X7980258Y7149337D01*
X7969336Y7143750D01*
X7952826Y7143750D01*
X7941904Y7149337D01*
X7991180Y7242047D02*
G01*
X7980258Y7252970D01*
X7969336Y7258304D01*
X7952826Y7258304D01*
X7941904Y7252970D01*
X7930982Y7242047D01*
X7925648Y7225792D01*
X7925648Y7214870D01*
X7930982Y7198360D01*
X7941904Y7187437D01*
X7952826Y7182104D01*
X7969336Y7182104D01*
X7980258Y7187437D01*
X7991180Y7198360D01*
X8026994Y7296658D02*
G01*
X8026994Y7182104D01*
X8026994Y7236713D02*
G01*
X8043504Y7252970D01*
X8054426Y7258304D01*
X8070682Y7258304D01*
X8081604Y7252970D01*
X8087192Y7236713D01*
X8087192Y7182104D01*
X8139516Y7296658D02*
G01*
X8139516Y7203947D01*
X8144850Y7187437D01*
X8155772Y7182104D01*
X8166694Y7182104D01*
X8123006Y7258304D02*
G01*
X8161360Y7258304D01*
X8324936Y7318502D02*
G01*
X8314014Y7307579D01*
X8303092Y7291070D01*
X8292170Y7269226D01*
X8286836Y7242047D01*
X8286836Y7220204D01*
X8292170Y7193026D01*
X8303092Y7171181D01*
X8314014Y7154671D01*
X8324936Y7143750D01*
X8426282Y7242047D02*
G01*
X8415360Y7252970D01*
X8404438Y7258304D01*
X8388182Y7258304D01*
X8377260Y7252970D01*
X8366338Y7242047D01*
X8361004Y7225792D01*
X8361004Y7214870D01*
X8366338Y7198360D01*
X8377260Y7187437D01*
X8388182Y7182104D01*
X8404438Y7182104D01*
X8415360Y7187437D01*
X8426282Y7198360D01*
X8462350Y7318502D02*
G01*
X8473272Y7307579D01*
X8484194Y7291070D01*
X8495116Y7269226D01*
X8500450Y7242047D01*
X8500450Y7220204D01*
X8495116Y7193026D01*
X8484194Y7171181D01*
X8473272Y7154671D01*
X8462350Y7143750D01*
X8625926Y7269226D02*
G01*
X8625926Y7274813D01*
X8631514Y7285736D01*
X8636848Y7291070D01*
X8647770Y7296658D01*
X8669614Y7296658D01*
X8680536Y7291070D01*
X8686124Y7285736D01*
X8691458Y7274813D01*
X8691458Y7263892D01*
X8686124Y7252970D01*
X8675202Y7236713D01*
X8620592Y7182104D01*
X8696792Y7182104D01*
X8765626Y7296658D02*
G01*
X8749370Y7291070D01*
X8738448Y7274813D01*
X8732860Y7247381D01*
X8732860Y7231126D01*
X8738448Y7203947D01*
X8749370Y7187437D01*
X8765626Y7182104D01*
X8776548Y7182104D01*
X8792804Y7187437D01*
X8803726Y7203947D01*
X8809314Y7231126D01*
X8809314Y7247381D01*
X8803726Y7274813D01*
X8792804Y7291070D01*
X8776548Y7296658D01*
X8765626Y7296658D01*
X8850716Y7269226D02*
G01*
X8850716Y7274813D01*
X8856304Y7285736D01*
X8861638Y7291070D01*
X8872560Y7296658D01*
X8894404Y7296658D01*
X8905326Y7291070D01*
X8910660Y7285736D01*
X8916248Y7274813D01*
X8916248Y7263892D01*
X8910660Y7252970D01*
X8899738Y7236713D01*
X8845382Y7182104D01*
X8921582Y7182104D01*
X8962984Y7269226D02*
G01*
X8962984Y7274813D01*
X8968572Y7285736D01*
X8973906Y7291070D01*
X8984828Y7296658D01*
X9006672Y7296658D01*
X9017594Y7291070D01*
X9023182Y7285736D01*
X9028516Y7274813D01*
X9028516Y7263892D01*
X9023182Y7252970D01*
X9012260Y7236713D01*
X8957650Y7182104D01*
X9034104Y7182104D01*
X9235780Y7269226D02*
G01*
X9230446Y7280147D01*
X9219524Y7291070D01*
X9208602Y7296658D01*
X9186758Y7296658D01*
X9175836Y7291070D01*
X9164914Y7280147D01*
X9159326Y7269226D01*
X9153992Y7252970D01*
X9153992Y7225792D01*
X9159326Y7209281D01*
X9164914Y7198360D01*
X9175836Y7187437D01*
X9186758Y7182104D01*
X9208602Y7182104D01*
X9219524Y7187437D01*
X9230446Y7198360D01*
X9235780Y7209281D01*
X9277182Y7258304D02*
G01*
X9309948Y7182104D01*
X9342714Y7258304D02*
G01*
X9309948Y7182104D01*
X9299026Y7160260D01*
X9288104Y7149337D01*
X9277182Y7143750D01*
X9271848Y7143750D01*
X9378782Y7258304D02*
G01*
X9378782Y7182104D01*
X9378782Y7225792D02*
G01*
X9384116Y7242047D01*
X9395038Y7252970D01*
X9405960Y7258304D01*
X9422470Y7258304D01*
X9458284Y7258304D02*
G01*
X9458284Y7203947D01*
X9463872Y7187437D01*
X9474794Y7182104D01*
X9491050Y7182104D01*
X9501972Y7187437D01*
X9518482Y7203947D01*
X9518482Y7258304D02*
G01*
X9518482Y7182104D01*
X9614240Y7242047D02*
G01*
X9608906Y7252970D01*
X9592650Y7258304D01*
X9576140Y7258304D01*
X9559884Y7252970D01*
X9554296Y7242047D01*
X9559884Y7231126D01*
X9570806Y7225792D01*
X9597984Y7220204D01*
X9608906Y7214870D01*
X9614240Y7203947D01*
X9614240Y7198360D01*
X9608906Y7187437D01*
X9592650Y7182104D01*
X9576140Y7182104D01*
X9559884Y7187437D01*
X9554296Y7198360D01*
X9734382Y7296658D02*
G01*
X9734382Y7182104D01*
X9734382Y7296658D02*
G01*
X9783404Y7296658D01*
X9799914Y7291070D01*
X9805248Y7285736D01*
X9810836Y7274813D01*
X9810836Y7263892D01*
X9805248Y7252970D01*
X9799914Y7247381D01*
X9783404Y7242047D01*
X9734382Y7242047D02*
G01*
X9783404Y7242047D01*
X9799914Y7236713D01*
X9805248Y7231126D01*
X9810836Y7220204D01*
X9810836Y7203947D01*
X9805248Y7193026D01*
X9799914Y7187437D01*
X9783404Y7182104D01*
X9734382Y7182104D01*
X9846650Y7258304D02*
G01*
X9846650Y7182104D01*
X9846650Y7225792D02*
G01*
X9852238Y7242047D01*
X9863160Y7252970D01*
X9874082Y7258304D01*
X9890338Y7258304D01*
X9926406Y7258304D02*
G01*
X9926406Y7203947D01*
X9931740Y7187437D01*
X9942662Y7182104D01*
X9959172Y7182104D01*
X9970094Y7187437D01*
X9986350Y7203947D01*
X9986350Y7258304D02*
G01*
X9986350Y7182104D01*
X10022418Y7258304D02*
G01*
X10022418Y7182104D01*
X10022418Y7236713D02*
G01*
X10038674Y7252970D01*
X10049596Y7258304D01*
X10066106Y7258304D01*
X10077028Y7252970D01*
X10082362Y7236713D01*
X10082362Y7182104D01*
X10118430Y7258304D02*
G01*
X10118430Y7182104D01*
X10118430Y7236713D02*
G01*
X10134686Y7252970D01*
X10145608Y7258304D01*
X10162118Y7258304D01*
X10172786Y7252970D01*
X10178374Y7236713D01*
X10178374Y7182104D01*
X10214442Y7225792D02*
G01*
X10279720Y7225792D01*
X10279720Y7236713D01*
X10274386Y7247381D01*
X10268798Y7252970D01*
X10257876Y7258304D01*
X10241620Y7258304D01*
X10230698Y7252970D01*
X10219776Y7242047D01*
X10214442Y7225792D01*
X10214442Y7214870D01*
X10219776Y7198360D01*
X10230698Y7187437D01*
X10241620Y7182104D01*
X10257876Y7182104D01*
X10268798Y7187437D01*
X10279720Y7198360D01*
X10315788Y7258304D02*
G01*
X10315788Y7182104D01*
X10315788Y7225792D02*
G01*
X10321376Y7242047D01*
X10332298Y7252970D01*
X10342966Y7258304D01*
X10359476Y7258304D01*
X8131809Y7014971D02*
G01*
X8122665Y7024115D01*
X8113522Y7028687D01*
X8099806Y7028687D01*
X8090915Y7024115D01*
X8081772Y7014971D01*
X8077200Y7001510D01*
X8077200Y6992365D01*
X8081772Y6978650D01*
X8090915Y6969505D01*
X8099806Y6964934D01*
X8113522Y6964934D01*
X8122665Y6969505D01*
X8131809Y6978650D01*
X8166354Y7028687D02*
G01*
X8193531Y6964934D01*
X8220709Y7028687D02*
G01*
X8193531Y6964934D01*
X8184388Y6946900D01*
X8175497Y6937755D01*
X8166354Y6933184D01*
X8161781Y6933184D01*
X8250936Y7028687D02*
G01*
X8250936Y6964934D01*
X8250936Y7001510D02*
G01*
X8255508Y7014971D01*
X8264397Y7024115D01*
X8273541Y7028687D01*
X8287258Y7028687D01*
X8317229Y7028687D02*
G01*
X8317229Y6983221D01*
X8321802Y6969505D01*
X8330945Y6964934D01*
X8344408Y6964934D01*
X8353552Y6969505D01*
X8367268Y6983221D01*
X8367268Y7028687D02*
G01*
X8367268Y6964934D01*
X8447277Y7014971D02*
G01*
X8442706Y7024115D01*
X8428990Y7028687D01*
X8415274Y7028687D01*
X8401811Y7024115D01*
X8397240Y7014971D01*
X8401811Y7006081D01*
X8410956Y7001510D01*
X8433561Y6996937D01*
X8442706Y6992365D01*
X8447277Y6983221D01*
X8447277Y6978650D01*
X8442706Y6969505D01*
X8428990Y6964934D01*
X8415274Y6964934D01*
X8401811Y6969505D01*
X8397240Y6978650D01*
X8477250Y7060437D02*
G01*
X8477250Y6964934D01*
X8477250Y7014971D02*
G01*
X8486393Y7024115D01*
X8495284Y7028687D01*
X8509000Y7028687D01*
X8518143Y7024115D01*
X8527288Y7014971D01*
X8531859Y7001510D01*
X8531859Y6992365D01*
X8527288Y6978650D01*
X8518143Y6969505D01*
X8509000Y6964934D01*
X8495284Y6964934D01*
X8486393Y6969505D01*
X8477250Y6978650D01*
X8561831Y7028687D02*
G01*
X8561831Y6983221D01*
X8566404Y6969505D01*
X8575293Y6964934D01*
X8589009Y6964934D01*
X8598154Y6969505D01*
X8611870Y6983221D01*
X8611870Y7028687D02*
G01*
X8611870Y6964934D01*
X8641841Y7060437D02*
G01*
X8646413Y7055865D01*
X8650731Y7060437D01*
X8646413Y7065010D01*
X8641841Y7060437D01*
X8646413Y7028687D02*
G01*
X8646413Y6964934D01*
X8680958Y7060437D02*
G01*
X8680958Y6964934D01*
X8724391Y7060437D02*
G01*
X8724391Y6983221D01*
X8728963Y6969505D01*
X8738108Y6964934D01*
X8747252Y6964934D01*
X8710929Y7028687D02*
G01*
X8742679Y7028687D01*
X8845295Y7024115D02*
G01*
X8840724Y7033260D01*
X8831834Y7037831D01*
X8818118Y7037831D01*
X8808974Y7033260D01*
X8804402Y7028687D01*
X8799829Y7014971D01*
X8799829Y7001510D01*
X8804402Y6992365D01*
X8813545Y6987794D01*
X8827261Y6987794D01*
X8836406Y6992365D01*
X8840724Y7001510D01*
X8818118Y7037831D02*
G01*
X8808974Y7028687D01*
X8804402Y7014971D01*
X8804402Y7001510D01*
X8808974Y6992365D01*
X8813545Y6987794D01*
X8845295Y7037831D02*
G01*
X8840724Y7001510D01*
X8840724Y6992365D01*
X8849868Y6987794D01*
X8859011Y6987794D01*
X8868156Y6996937D01*
X8872727Y7010400D01*
X8872727Y7019544D01*
X8868156Y7033260D01*
X8863584Y7042404D01*
X8854440Y7051294D01*
X8845295Y7055865D01*
X8831834Y7060437D01*
X8818118Y7060437D01*
X8804402Y7055865D01*
X8795258Y7051294D01*
X8786368Y7042404D01*
X8781795Y7033260D01*
X8777224Y7019544D01*
X8777224Y7006081D01*
X8781795Y6992365D01*
X8786368Y6983221D01*
X8795258Y6974078D01*
X8804402Y6969505D01*
X8818118Y6964934D01*
X8831834Y6964934D01*
X8845295Y6969505D01*
X8854440Y6974078D01*
X8859011Y6978650D01*
X8849868Y7037831D02*
G01*
X8845295Y7001510D01*
X8845295Y6992365D01*
X8849868Y6987794D01*
X8957309Y7028687D02*
G01*
X8957309Y6956044D01*
X8952738Y6942328D01*
X8948165Y6937755D01*
X8939022Y6933184D01*
X8925306Y6933184D01*
X8916415Y6937755D01*
X8957309Y7014971D02*
G01*
X8948165Y7024115D01*
X8939022Y7028687D01*
X8925306Y7028687D01*
X8916415Y7024115D01*
X8907272Y7014971D01*
X8902700Y7001510D01*
X8902700Y6992365D01*
X8907272Y6978650D01*
X8916415Y6969505D01*
X8925306Y6964934D01*
X8939022Y6964934D01*
X8948165Y6969505D01*
X8957309Y6978650D01*
X8987281Y7028687D02*
G01*
X8987281Y6964934D01*
X8987281Y7010400D02*
G01*
X9000743Y7024115D01*
X9009888Y7028687D01*
X9023604Y7028687D01*
X9032747Y7024115D01*
X9037320Y7010400D01*
X9037320Y6964934D01*
X9037320Y7010400D02*
G01*
X9050781Y7024115D01*
X9059925Y7028687D01*
X9073641Y7028687D01*
X9082531Y7024115D01*
X9087104Y7010400D01*
X9087104Y6964934D01*
X9171686Y7028687D02*
G01*
X9171686Y6964934D01*
X9171686Y7014971D02*
G01*
X9162541Y7024115D01*
X9153652Y7028687D01*
X9139936Y7028687D01*
X9130791Y7024115D01*
X9121647Y7014971D01*
X9117075Y7001510D01*
X9117075Y6992365D01*
X9121647Y6978650D01*
X9130791Y6969505D01*
X9139936Y6964934D01*
X9153652Y6964934D01*
X9162541Y6969505D01*
X9171686Y6978650D01*
X9201658Y7060437D02*
G01*
X9206229Y7055865D01*
X9210802Y7060437D01*
X9206229Y7065010D01*
X9201658Y7060437D01*
X9206229Y7028687D02*
G01*
X9206229Y6964934D01*
X9240774Y7060437D02*
G01*
X9240774Y6964934D01*
X9275318Y6987794D02*
G01*
X9270745Y6983221D01*
X9275318Y6978650D01*
X9279890Y6983221D01*
X9275318Y6987794D01*
X9364472Y7014971D02*
G01*
X9355327Y7024115D01*
X9346184Y7028687D01*
X9332722Y7028687D01*
X9323577Y7024115D01*
X9314434Y7014971D01*
X9309861Y7001510D01*
X9309861Y6992365D01*
X9314434Y6978650D01*
X9323577Y6969505D01*
X9332722Y6964934D01*
X9346184Y6964934D01*
X9355327Y6969505D01*
X9364472Y6978650D01*
X9417304Y7028687D02*
G01*
X9408159Y7024115D01*
X9399015Y7014971D01*
X9394443Y7001510D01*
X9394443Y6992365D01*
X9399015Y6978650D01*
X9408159Y6969505D01*
X9417304Y6964934D01*
X9430765Y6964934D01*
X9439909Y6969505D01*
X9449054Y6978650D01*
X9453625Y6992365D01*
X9453625Y7001510D01*
X9449054Y7014971D01*
X9439909Y7024115D01*
X9430765Y7028687D01*
X9417304Y7028687D01*
X9483597Y7028687D02*
G01*
X9483597Y6964934D01*
X9483597Y7010400D02*
G01*
X9497313Y7024115D01*
X9506204Y7028687D01*
X9519920Y7028687D01*
X9529063Y7024115D01*
X9533636Y7010400D01*
X9533636Y6964934D01*
X9533636Y7010400D02*
G01*
X9547097Y7024115D01*
X9556241Y7028687D01*
X9569958Y7028687D01*
X9579102Y7024115D01*
X9583674Y7010400D01*
X9583674Y6964934D01*
X1014984Y7378700D02*
G01*
X871728Y7378700D01*
X1014984Y7378700D02*
G01*
X1014984Y7290054D01*
X946657Y7378700D02*
G01*
X946657Y7324089D01*
X1014984Y7190486D02*
G01*
X871728Y7245095D01*
X1014984Y7190486D02*
G01*
X871728Y7135876D01*
X919479Y7224521D02*
G01*
X919479Y7156450D01*
X1014984Y7090918D02*
G01*
X871728Y7090918D01*
X1014984Y7090918D02*
G01*
X1014984Y7029704D01*
X1008126Y7009129D01*
X1001268Y7002271D01*
X987805Y6995413D01*
X974089Y6995413D01*
X960373Y7002271D01*
X953515Y7009129D01*
X946657Y7029704D01*
X946657Y7090918D02*
G01*
X946657Y7029704D01*
X940054Y7009129D01*
X933195Y7002271D01*
X919479Y6995413D01*
X899160Y6995413D01*
X885444Y7002271D01*
X878586Y7009129D01*
X871728Y7029704D01*
X871728Y7090918D01*
X1014984Y6804660D02*
G01*
X1008126Y6824979D01*
X987805Y6838695D01*
X953515Y6845554D01*
X933195Y6845554D01*
X899160Y6838695D01*
X878586Y6824979D01*
X871728Y6804660D01*
X871728Y6790944D01*
X878586Y6770623D01*
X899160Y6756908D01*
X933195Y6750050D01*
X953515Y6750050D01*
X987805Y6756908D01*
X1008126Y6770623D01*
X1014984Y6790944D01*
X1014984Y6804660D01*
X1014984Y6664197D02*
G01*
X1008126Y6684518D01*
X987805Y6698234D01*
X953515Y6705092D01*
X933195Y6705092D01*
X899160Y6698234D01*
X878586Y6684518D01*
X871728Y6664197D01*
X871728Y6650481D01*
X878586Y6630162D01*
X899160Y6616445D01*
X933195Y6609587D01*
X953515Y6609587D01*
X987805Y6616445D01*
X1008126Y6630162D01*
X1014984Y6650481D01*
X1014984Y6664197D01*
X987805Y6564629D02*
G01*
X994410Y6550913D01*
X1014984Y6530594D01*
X871728Y6530594D01*
X1014984Y6444487D02*
G01*
X1008126Y6465062D01*
X987805Y6478778D01*
X953515Y6485636D01*
X933195Y6485636D01*
X899160Y6478778D01*
X878586Y6465062D01*
X871728Y6444487D01*
X871728Y6431026D01*
X878586Y6410452D01*
X899160Y6396989D01*
X933195Y6390131D01*
X953515Y6390131D01*
X987805Y6396989D01*
X1008126Y6410452D01*
X1014984Y6431026D01*
X1014984Y6444487D01*
X1014984Y6304279D02*
G01*
X1008126Y6324600D01*
X987805Y6338315D01*
X953515Y6345173D01*
X933195Y6345173D01*
X899160Y6338315D01*
X878586Y6324600D01*
X871728Y6304279D01*
X871728Y6290563D01*
X878586Y6269989D01*
X899160Y6256528D01*
X933195Y6249670D01*
X953515Y6249670D01*
X987805Y6256528D01*
X1008126Y6269989D01*
X1014984Y6290563D01*
X1014984Y6304279D01*
X987805Y6204712D02*
G01*
X994410Y6190995D01*
X1014984Y6170421D01*
X871728Y6170421D01*
X1014984Y5965952D02*
G01*
X871728Y6020562D01*
X1014984Y5965952D02*
G01*
X871728Y5911342D01*
X919479Y5999987D02*
G01*
X919479Y5931915D01*
X994410Y5770879D02*
G01*
X1008126Y5784595D01*
X1014984Y5805170D01*
X1014984Y5832347D01*
X1008126Y5852668D01*
X994410Y5866384D01*
X980947Y5866384D01*
X967231Y5859526D01*
X960373Y5852668D01*
X953515Y5839205D01*
X940054Y5798312D01*
X933195Y5784595D01*
X926337Y5777737D01*
X912621Y5770879D01*
X892302Y5770879D01*
X878586Y5784595D01*
X871728Y5805170D01*
X871728Y5832347D01*
X878586Y5852668D01*
X892302Y5866384D01*
X994410Y5630418D02*
G01*
X1008126Y5644134D01*
X1014984Y5664707D01*
X1014984Y5691886D01*
X1008126Y5712460D01*
X994410Y5725921D01*
X980947Y5725921D01*
X967231Y5719063D01*
X960373Y5712460D01*
X953515Y5698744D01*
X940054Y5657850D01*
X933195Y5644134D01*
X926337Y5637276D01*
X912621Y5630418D01*
X892302Y5630418D01*
X878586Y5644134D01*
X871728Y5664707D01*
X871728Y5691886D01*
X878586Y5712460D01*
X892302Y5725921D01*
X1014984Y5585460D02*
G01*
X946657Y5530850D01*
X871728Y5530850D01*
X1014984Y5476494D02*
G01*
X946657Y5530850D01*
X1014984Y5285486D02*
G01*
X1008126Y5306060D01*
X987805Y5319521D01*
X953515Y5326379D01*
X933195Y5326379D01*
X899160Y5319521D01*
X878586Y5306060D01*
X871728Y5285486D01*
X871728Y5271770D01*
X878586Y5251450D01*
X899160Y5237734D01*
X933195Y5230876D01*
X953515Y5230876D01*
X987805Y5237734D01*
X1008126Y5251450D01*
X1014984Y5271770D01*
X1014984Y5285486D01*
X1014984Y5145023D02*
G01*
X1008126Y5165597D01*
X987805Y5179060D01*
X953515Y5185918D01*
X933195Y5185918D01*
X899160Y5179060D01*
X878586Y5165597D01*
X871728Y5145023D01*
X871728Y5131307D01*
X878586Y5110987D01*
X899160Y5097271D01*
X933195Y5090413D01*
X953515Y5090413D01*
X987805Y5097271D01*
X1008126Y5110987D01*
X1014984Y5131307D01*
X1014984Y5145023D01*
X987805Y5045455D02*
G01*
X994410Y5031994D01*
X1014984Y5011420D01*
X871728Y5011420D01*
X1014984Y4925568D02*
G01*
X1008126Y4945887D01*
X987805Y4959604D01*
X953515Y4966462D01*
X933195Y4966462D01*
X899160Y4959604D01*
X878586Y4945887D01*
X871728Y4925568D01*
X871728Y4911852D01*
X878586Y4891531D01*
X899160Y4877815D01*
X933195Y4870957D01*
X953515Y4870957D01*
X987805Y4877815D01*
X1008126Y4891531D01*
X1014984Y4911852D01*
X1014984Y4925568D01*
X1014984Y4785105D02*
G01*
X1008126Y4805426D01*
X987805Y4819142D01*
X953515Y4826000D01*
X933195Y4826000D01*
X899160Y4819142D01*
X878586Y4805426D01*
X871728Y4785105D01*
X871728Y4771389D01*
X878586Y4751070D01*
X899160Y4737354D01*
X933195Y4730495D01*
X953515Y4730495D01*
X987805Y4737354D01*
X1008126Y4751070D01*
X1014984Y4771389D01*
X1014984Y4785105D01*
X980947Y4678679D02*
G01*
X987805Y4678679D01*
X1001268Y4671821D01*
X1008126Y4664963D01*
X1014984Y4651502D01*
X1014984Y4624070D01*
X1008126Y4610607D01*
X1001268Y4603750D01*
X987805Y4596892D01*
X974089Y4596892D01*
X960373Y4603750D01*
X940054Y4617465D01*
X871728Y4685537D01*
X871728Y4590034D01*
X12204700Y9536684D02*
G01*
X12204700Y9393428D01*
X12204700Y9536684D02*
G01*
X12259309Y9393428D01*
X12313665Y9536684D02*
G01*
X12259309Y9393428D01*
X12313665Y9536684D02*
G01*
X12313665Y9393428D01*
X12392913Y9488931D02*
G01*
X12379197Y9482074D01*
X12365481Y9468358D01*
X12358877Y9448037D01*
X12358877Y9434321D01*
X12365481Y9414002D01*
X12379197Y9400286D01*
X12392913Y9393428D01*
X12413234Y9393428D01*
X12426950Y9400286D01*
X12440665Y9414002D01*
X12447524Y9434321D01*
X12447524Y9448037D01*
X12440665Y9468358D01*
X12426950Y9482074D01*
X12413234Y9488931D01*
X12392913Y9488931D01*
X12574270Y9536684D02*
G01*
X12574270Y9393428D01*
X12574270Y9468358D02*
G01*
X12560554Y9482074D01*
X12547091Y9488931D01*
X12526518Y9488931D01*
X12512802Y9482074D01*
X12499340Y9468358D01*
X12492481Y9448037D01*
X12492481Y9434321D01*
X12499340Y9414002D01*
X12512802Y9400286D01*
X12526518Y9393428D01*
X12547091Y9393428D01*
X12560554Y9400286D01*
X12574270Y9414002D01*
X12619227Y9448037D02*
G01*
X12701015Y9448037D01*
X12701015Y9461754D01*
X12694158Y9475215D01*
X12687300Y9482074D01*
X12673838Y9488931D01*
X12653263Y9488931D01*
X12639802Y9482074D01*
X12626086Y9468358D01*
X12619227Y9448037D01*
X12619227Y9434321D01*
X12626086Y9414002D01*
X12639802Y9400286D01*
X12653263Y9393428D01*
X12673838Y9393428D01*
X12687300Y9400286D01*
X12701015Y9414002D01*
X12745974Y9536684D02*
G01*
X12745974Y9393428D01*
X12902945Y9502647D02*
G01*
X12902945Y9509505D01*
X12909804Y9522968D01*
X12916408Y9529826D01*
X12930124Y9536684D01*
X12957302Y9536684D01*
X12971018Y9529826D01*
X12977875Y9522968D01*
X12984734Y9509505D01*
X12984734Y9495789D01*
X12977875Y9482074D01*
X12964159Y9461754D01*
X12896088Y9393428D01*
X12991591Y9393428D01*
D10*
X5740400Y8687815D02*
G01*
X5740400Y8578850D01*
X5740400Y8687815D02*
G01*
X5776722Y8687815D01*
X5792470Y8682736D01*
X5802629Y8672321D01*
X5807963Y8661908D01*
X5813043Y8646160D01*
X5813043Y8620252D01*
X5807963Y8604758D01*
X5802629Y8594344D01*
X5792470Y8583929D01*
X5776722Y8578850D01*
X5740400Y8578850D01*
X5847334Y8666987D02*
G01*
X5857747Y8672321D01*
X5873495Y8687815D01*
X5873495Y8578850D01*
X5829300Y4712715D02*
G01*
X5829300Y4603750D01*
X5829300Y4712715D02*
G01*
X5865622Y4712715D01*
X5881370Y4707636D01*
X5891529Y4697221D01*
X5896863Y4686807D01*
X5901943Y4671060D01*
X5901943Y4645152D01*
X5896863Y4629657D01*
X5891529Y4619244D01*
X5881370Y4608829D01*
X5865622Y4603750D01*
X5829300Y4603750D01*
X5998718Y4697221D02*
G01*
X5993384Y4707636D01*
X5977890Y4712715D01*
X5967475Y4712715D01*
X5951981Y4707636D01*
X5941568Y4691887D01*
X5936234Y4665979D01*
X5936234Y4640071D01*
X5941568Y4619244D01*
X5951981Y4608829D01*
X5967475Y4603750D01*
X5972809Y4603750D01*
X5988304Y4608829D01*
X5998718Y4619244D01*
X6003797Y4634737D01*
X6003797Y4640071D01*
X5998718Y4655565D01*
X5988304Y4665979D01*
X5972809Y4671060D01*
X5967475Y4671060D01*
X5951981Y4665979D01*
X5941568Y4655565D01*
X5936234Y4640071D01*
X5765800Y7481315D02*
G01*
X5765800Y7372350D01*
X5765800Y7481315D02*
G01*
X5802122Y7481315D01*
X5817870Y7476236D01*
X5828029Y7465821D01*
X5833363Y7455408D01*
X5838443Y7439660D01*
X5838443Y7413752D01*
X5833363Y7398258D01*
X5828029Y7387844D01*
X5817870Y7377429D01*
X5802122Y7372350D01*
X5765800Y7372350D01*
X5878068Y7455408D02*
G01*
X5878068Y7460487D01*
X5883147Y7470902D01*
X5888481Y7476236D01*
X5898895Y7481315D01*
X5919470Y7481315D01*
X5929884Y7476236D01*
X5935218Y7470902D01*
X5940297Y7460487D01*
X5940297Y7450073D01*
X5935218Y7439660D01*
X5924804Y7424165D01*
X5872734Y7372350D01*
X5945631Y7372350D01*
X5667029Y7232027D02*
G01*
X5667029Y7190371D01*
X5646201Y7211199D02*
G01*
X5687857Y7211199D01*
X5881199Y7206198D02*
G01*
X5922855Y7206198D01*
X7938515Y4241800D02*
G01*
X7829550Y4241800D01*
X7938515Y4241800D02*
G01*
X7938515Y4205478D01*
X7933436Y4189729D01*
X7923022Y4179570D01*
X7912608Y4174236D01*
X7896859Y4169155D01*
X7870952Y4169155D01*
X7855458Y4174236D01*
X7845043Y4179570D01*
X7834629Y4189729D01*
X7829550Y4205478D01*
X7829550Y4241800D01*
X7938515Y4124452D02*
G01*
X7938515Y4067302D01*
X7896859Y4098289D01*
X7896859Y4082795D01*
X7891779Y4072381D01*
X7886700Y4067302D01*
X7870952Y4061968D01*
X7860538Y4061968D01*
X7845043Y4067302D01*
X7834629Y4077715D01*
X7829550Y4093210D01*
X7829550Y4108704D01*
X7834629Y4124452D01*
X7839709Y4129531D01*
X7850124Y4134865D01*
X8611615Y4241800D02*
G01*
X8502650Y4241800D01*
X8611615Y4241800D02*
G01*
X8611615Y4205478D01*
X8606536Y4189729D01*
X8596122Y4179570D01*
X8585708Y4174236D01*
X8569959Y4169155D01*
X8544052Y4169155D01*
X8528558Y4174236D01*
X8518143Y4179570D01*
X8507729Y4189729D01*
X8502650Y4205478D01*
X8502650Y4241800D01*
X8611615Y4082795D02*
G01*
X8538972Y4134865D01*
X8538972Y4056887D01*
X8611615Y4082795D02*
G01*
X8502650Y4082795D01*
X13131800Y3442715D02*
G01*
X13131800Y3333750D01*
X13131800Y3442715D02*
G01*
X13168122Y3442715D01*
X13183870Y3437636D01*
X13194029Y3427221D01*
X13199363Y3416807D01*
X13204443Y3401060D01*
X13204443Y3375152D01*
X13199363Y3359657D01*
X13194029Y3349244D01*
X13183870Y3338829D01*
X13168122Y3333750D01*
X13131800Y3333750D01*
X13301218Y3442715D02*
G01*
X13249147Y3442715D01*
X13244068Y3395979D01*
X13249147Y3401060D01*
X13264895Y3406394D01*
X13280390Y3406394D01*
X13295884Y3401060D01*
X13306297Y3390900D01*
X13311631Y3375152D01*
X13311631Y3364737D01*
X13306297Y3349244D01*
X13295884Y3338829D01*
X13280390Y3333750D01*
X13264895Y3333750D01*
X13249147Y3338829D01*
X13244068Y3343910D01*
X13238734Y3354323D01*
X10427715Y4241800D02*
G01*
X10318750Y4241800D01*
X10427715Y4241800D02*
G01*
X10427715Y4205478D01*
X10422636Y4189729D01*
X10412222Y4179570D01*
X10401808Y4174236D01*
X10386059Y4169155D01*
X10360152Y4169155D01*
X10344658Y4174236D01*
X10334243Y4179570D01*
X10323829Y4189729D01*
X10318750Y4205478D01*
X10318750Y4241800D01*
X10427715Y4061968D02*
G01*
X10318750Y4114037D01*
X10427715Y4134865D02*
G01*
X10427715Y4061968D01*
X11126215Y4254500D02*
G01*
X11017250Y4254500D01*
X11126215Y4254500D02*
G01*
X11126215Y4218178D01*
X11121136Y4202429D01*
X11110722Y4192270D01*
X11100308Y4186936D01*
X11084559Y4181855D01*
X11058652Y4181855D01*
X11043158Y4186936D01*
X11032743Y4192270D01*
X11022329Y4202429D01*
X11017250Y4218178D01*
X11017250Y4254500D01*
X11126215Y4121404D02*
G01*
X11121136Y4137152D01*
X11110722Y4142231D01*
X11100308Y4142231D01*
X11089893Y4137152D01*
X11084559Y4126737D01*
X11079479Y4105910D01*
X11074400Y4090415D01*
X11063986Y4080002D01*
X11053572Y4074668D01*
X11037824Y4074668D01*
X11027409Y4080002D01*
X11022329Y4085081D01*
X11017250Y4100829D01*
X11017250Y4121404D01*
X11022329Y4137152D01*
X11027409Y4142231D01*
X11037824Y4147565D01*
X11053572Y4147565D01*
X11063986Y4142231D01*
X11074400Y4131818D01*
X11079479Y4116323D01*
X11084559Y4095495D01*
X11089893Y4085081D01*
X11100308Y4080002D01*
X11110722Y4080002D01*
X11121136Y4085081D01*
X11126215Y4100829D01*
X11126215Y4121404D01*
X13131800Y6439915D02*
G01*
X13131800Y6330950D01*
X13131800Y6439915D02*
G01*
X13168122Y6439915D01*
X13183870Y6434836D01*
X13194029Y6424421D01*
X13199363Y6414007D01*
X13204443Y6398260D01*
X13204443Y6372352D01*
X13199363Y6356857D01*
X13194029Y6346444D01*
X13183870Y6336029D01*
X13168122Y6330950D01*
X13131800Y6330950D01*
X13306297Y6403594D02*
G01*
X13301218Y6388100D01*
X13290804Y6377686D01*
X13275309Y6372352D01*
X13269975Y6372352D01*
X13254481Y6377686D01*
X13244068Y6388100D01*
X13238734Y6403594D01*
X13238734Y6408673D01*
X13244068Y6424421D01*
X13254481Y6434836D01*
X13269975Y6439915D01*
X13275309Y6439915D01*
X13290804Y6434836D01*
X13301218Y6424421D01*
X13306297Y6403594D01*
X13306297Y6377686D01*
X13301218Y6351523D01*
X13290804Y6336029D01*
X13275309Y6330950D01*
X13264895Y6330950D01*
X13249147Y6336029D01*
X13244068Y6346444D01*
X3709415Y4292600D02*
G01*
X3600450Y4292600D01*
X3709415Y4219955D02*
G01*
X3600450Y4219955D01*
X3657600Y4292600D02*
G01*
X3657600Y4219955D01*
X3688588Y4185665D02*
G01*
X3693922Y4175252D01*
X3709415Y4159504D01*
X3600450Y4159504D01*
X5769609Y3468115D02*
G01*
X5769609Y3385057D01*
X5764275Y3369310D01*
X5759195Y3364229D01*
X5748781Y3359150D01*
X5738368Y3359150D01*
X5727954Y3364229D01*
X5722620Y3369310D01*
X5717540Y3385057D01*
X5717540Y3395471D01*
X5803900Y3468115D02*
G01*
X5803900Y3359150D01*
X5803900Y3468115D02*
G01*
X5850636Y3468115D01*
X5866129Y3463036D01*
X5871209Y3457702D01*
X5876543Y3447287D01*
X5876543Y3431794D01*
X5871209Y3421379D01*
X5866129Y3416300D01*
X5850636Y3410965D01*
X5803900Y3410965D01*
X5910834Y3447287D02*
G01*
X5921247Y3452621D01*
X5936741Y3468115D01*
X5936741Y3359150D01*
X7522209Y3468115D02*
G01*
X7522209Y3385057D01*
X7516875Y3369310D01*
X7511795Y3364229D01*
X7501381Y3359150D01*
X7490968Y3359150D01*
X7480554Y3364229D01*
X7475220Y3369310D01*
X7470140Y3385057D01*
X7470140Y3395471D01*
X7556500Y3468115D02*
G01*
X7556500Y3359150D01*
X7556500Y3468115D02*
G01*
X7603236Y3468115D01*
X7618729Y3463036D01*
X7623809Y3457702D01*
X7629143Y3447287D01*
X7629143Y3431794D01*
X7623809Y3421379D01*
X7618729Y3416300D01*
X7603236Y3410965D01*
X7556500Y3410965D01*
X7668513Y3442207D02*
G01*
X7668513Y3447287D01*
X7673847Y3457702D01*
X7678927Y3463036D01*
X7689341Y3468115D01*
X7710170Y3468115D01*
X7720584Y3463036D01*
X7725663Y3457702D01*
X7730997Y3447287D01*
X7730997Y3436873D01*
X7725663Y3426460D01*
X7715250Y3410965D01*
X7663434Y3359150D01*
X7736077Y3359150D01*
X8550909Y3468115D02*
G01*
X8550909Y3385057D01*
X8545575Y3369310D01*
X8540495Y3364229D01*
X8530081Y3359150D01*
X8519668Y3359150D01*
X8509254Y3364229D01*
X8503920Y3369310D01*
X8498840Y3385057D01*
X8498840Y3395471D01*
X8585200Y3468115D02*
G01*
X8585200Y3359150D01*
X8585200Y3468115D02*
G01*
X8631936Y3468115D01*
X8647429Y3463036D01*
X8652509Y3457702D01*
X8657843Y3447287D01*
X8657843Y3431794D01*
X8652509Y3421379D01*
X8647429Y3416300D01*
X8631936Y3410965D01*
X8585200Y3410965D01*
X8702547Y3468115D02*
G01*
X8759697Y3468115D01*
X8728456Y3426460D01*
X8743950Y3426460D01*
X8754363Y3421379D01*
X8759697Y3416300D01*
X8764777Y3400552D01*
X8764777Y3390137D01*
X8759697Y3374644D01*
X8749284Y3364229D01*
X8733790Y3359150D01*
X8718041Y3359150D01*
X8702547Y3364229D01*
X8697213Y3369310D01*
X8692134Y3379723D01*
X14070584Y5096510D02*
G01*
X14153641Y5096510D01*
X14169390Y5091176D01*
X14174470Y5086095D01*
X14179550Y5075681D01*
X14179550Y5065268D01*
X14174470Y5054854D01*
X14169390Y5049520D01*
X14153641Y5044439D01*
X14143227Y5044439D01*
X14070584Y5130800D02*
G01*
X14179550Y5130800D01*
X14070584Y5130800D02*
G01*
X14070584Y5177536D01*
X14075663Y5193029D01*
X14080997Y5198110D01*
X14091411Y5203444D01*
X14106906Y5203444D01*
X14117320Y5198110D01*
X14122400Y5193029D01*
X14127734Y5177536D01*
X14127734Y5130800D01*
X14070584Y5289550D02*
G01*
X14143227Y5237734D01*
X14143227Y5315712D01*
X14070584Y5289550D02*
G01*
X14179550Y5289550D01*
X10036809Y3455415D02*
G01*
X10036809Y3372357D01*
X10031475Y3356610D01*
X10026395Y3351529D01*
X10015981Y3346450D01*
X10005568Y3346450D01*
X9995154Y3351529D01*
X9989820Y3356610D01*
X9984740Y3372357D01*
X9984740Y3382771D01*
X10071100Y3455415D02*
G01*
X10071100Y3346450D01*
X10071100Y3455415D02*
G01*
X10117836Y3455415D01*
X10133329Y3450336D01*
X10138409Y3445002D01*
X10143743Y3434587D01*
X10143743Y3419094D01*
X10138409Y3408679D01*
X10133329Y3403600D01*
X10117836Y3398265D01*
X10071100Y3398265D01*
X10240263Y3455415D02*
G01*
X10188447Y3455415D01*
X10183113Y3408679D01*
X10188447Y3413760D01*
X10203941Y3419094D01*
X10219690Y3419094D01*
X10235184Y3413760D01*
X10245597Y3403600D01*
X10250677Y3387852D01*
X10250677Y3377437D01*
X10245597Y3361944D01*
X10235184Y3351529D01*
X10219690Y3346450D01*
X10203941Y3346450D01*
X10188447Y3351529D01*
X10183113Y3356610D01*
X10178034Y3367023D01*
X11065509Y3455415D02*
G01*
X11065509Y3372357D01*
X11060175Y3356610D01*
X11055095Y3351529D01*
X11044681Y3346450D01*
X11034268Y3346450D01*
X11023854Y3351529D01*
X11018520Y3356610D01*
X11013440Y3372357D01*
X11013440Y3382771D01*
X11099800Y3455415D02*
G01*
X11099800Y3346450D01*
X11099800Y3455415D02*
G01*
X11146536Y3455415D01*
X11162029Y3450336D01*
X11167109Y3445002D01*
X11172443Y3434587D01*
X11172443Y3419094D01*
X11167109Y3408679D01*
X11162029Y3403600D01*
X11146536Y3398265D01*
X11099800Y3398265D01*
X11268963Y3439921D02*
G01*
X11263884Y3450336D01*
X11248390Y3455415D01*
X11237975Y3455415D01*
X11222227Y3450336D01*
X11211813Y3434587D01*
X11206734Y3408679D01*
X11206734Y3382771D01*
X11211813Y3361944D01*
X11222227Y3351529D01*
X11237975Y3346450D01*
X11243056Y3346450D01*
X11258550Y3351529D01*
X11268963Y3361944D01*
X11274297Y3377437D01*
X11274297Y3382771D01*
X11268963Y3398265D01*
X11258550Y3408679D01*
X11243056Y3413760D01*
X11237975Y3413760D01*
X11222227Y3408679D01*
X11211813Y3398265D01*
X11206734Y3382771D01*
X14057884Y8169910D02*
G01*
X14140941Y8169910D01*
X14156690Y8164576D01*
X14161770Y8159495D01*
X14166850Y8149081D01*
X14166850Y8138668D01*
X14161770Y8128254D01*
X14156690Y8122920D01*
X14140941Y8117839D01*
X14130527Y8117839D01*
X14057884Y8204200D02*
G01*
X14166850Y8204200D01*
X14057884Y8204200D02*
G01*
X14057884Y8250936D01*
X14062963Y8266429D01*
X14068297Y8271510D01*
X14078711Y8276844D01*
X14094206Y8276844D01*
X14104620Y8271510D01*
X14109700Y8266429D01*
X14115034Y8250936D01*
X14115034Y8204200D01*
X14057884Y8383778D02*
G01*
X14166850Y8331962D01*
X14057884Y8311134D02*
G01*
X14057884Y8383778D01*
X12051284Y4533900D02*
G01*
X12160250Y4533900D01*
X12051284Y4606544D02*
G01*
X12123927Y4533900D01*
X12098020Y4559807D02*
G01*
X12160250Y4606544D01*
X12072111Y4640834D02*
G01*
X12066777Y4651247D01*
X12051284Y4666995D01*
X12160250Y4666995D01*
X12051284Y7594600D02*
G01*
X12160250Y7594600D01*
X12051284Y7667244D02*
G01*
X12123927Y7594600D01*
X12098020Y7620508D02*
G01*
X12160250Y7667244D01*
X12077191Y7706868D02*
G01*
X12072111Y7706868D01*
X12061697Y7711947D01*
X12056363Y7717281D01*
X12051284Y7727695D01*
X12051284Y7748270D01*
X12056363Y7758684D01*
X12061697Y7764018D01*
X12072111Y7769097D01*
X12082525Y7769097D01*
X12092940Y7764018D01*
X12108434Y7753604D01*
X12160250Y7701534D01*
X12160250Y7774431D01*
X7925815Y5664200D02*
G01*
X7816850Y5664200D01*
X7925815Y5664200D02*
G01*
X7925815Y5617463D01*
X7920736Y5601970D01*
X7915402Y5596636D01*
X7904988Y5591555D01*
X7894574Y5591555D01*
X7884159Y5596636D01*
X7879079Y5601970D01*
X7874000Y5617463D01*
X7874000Y5664200D01*
X7874000Y5627878D02*
G01*
X7816850Y5591555D01*
X7904988Y5557265D02*
G01*
X7910322Y5546852D01*
X7925815Y5531104D01*
X7816850Y5531104D01*
X8611615Y5664200D02*
G01*
X8502650Y5664200D01*
X8611615Y5664200D02*
G01*
X8611615Y5617463D01*
X8606536Y5601970D01*
X8601202Y5596636D01*
X8590788Y5591555D01*
X8580374Y5591555D01*
X8569959Y5596636D01*
X8564879Y5601970D01*
X8559800Y5617463D01*
X8559800Y5664200D01*
X8559800Y5627878D02*
G01*
X8502650Y5591555D01*
X8585708Y5551931D02*
G01*
X8590788Y5551931D01*
X8601202Y5546852D01*
X8606536Y5541518D01*
X8611615Y5531104D01*
X8611615Y5510529D01*
X8606536Y5500115D01*
X8601202Y5494781D01*
X8590788Y5489702D01*
X8580374Y5489702D01*
X8569959Y5494781D01*
X8554465Y5505195D01*
X8502650Y5557265D01*
X8502650Y5484368D01*
X10402315Y5651500D02*
G01*
X10293350Y5651500D01*
X10402315Y5651500D02*
G01*
X10402315Y5604763D01*
X10397236Y5589270D01*
X10391902Y5583936D01*
X10381488Y5578855D01*
X10371074Y5578855D01*
X10360659Y5583936D01*
X10355579Y5589270D01*
X10350500Y5604763D01*
X10350500Y5651500D01*
X10350500Y5615178D02*
G01*
X10293350Y5578855D01*
X10402315Y5492495D02*
G01*
X10329672Y5544565D01*
X10329672Y5466587D01*
X10402315Y5492495D02*
G01*
X10293350Y5492495D01*
X11100815Y5638800D02*
G01*
X10991850Y5638800D01*
X11100815Y5638800D02*
G01*
X11100815Y5592063D01*
X11095736Y5576570D01*
X11090402Y5571236D01*
X11079988Y5566155D01*
X11069574Y5566155D01*
X11059159Y5571236D01*
X11054079Y5576570D01*
X11049000Y5592063D01*
X11049000Y5638800D01*
X11049000Y5602478D02*
G01*
X10991850Y5566155D01*
X11100815Y5469381D02*
G01*
X11100815Y5521452D01*
X11054079Y5526531D01*
X11059159Y5521452D01*
X11064493Y5505704D01*
X11064493Y5490210D01*
X11059159Y5474715D01*
X11049000Y5464302D01*
X11033252Y5458968D01*
X11022838Y5458968D01*
X11007343Y5464302D01*
X10996929Y5474715D01*
X10991850Y5490210D01*
X10991850Y5505704D01*
X10996929Y5521452D01*
X11002009Y5526531D01*
X11012424Y5531865D01*
X6185915Y5473700D02*
G01*
X6076950Y5473700D01*
X6185915Y5473700D02*
G01*
X6185915Y5426963D01*
X6180836Y5411470D01*
X6175502Y5406136D01*
X6165088Y5401055D01*
X6154674Y5401055D01*
X6144259Y5406136D01*
X6139179Y5411470D01*
X6134100Y5426963D01*
X6134100Y5473700D01*
X6134100Y5437378D02*
G01*
X6076950Y5401055D01*
X6185915Y5356352D02*
G01*
X6185915Y5299202D01*
X6144259Y5330189D01*
X6144259Y5314695D01*
X6139179Y5304281D01*
X6134100Y5299202D01*
X6118352Y5293868D01*
X6107938Y5293868D01*
X6092443Y5299202D01*
X6082029Y5309615D01*
X6076950Y5325110D01*
X6076950Y5340604D01*
X6082029Y5356352D01*
X6087109Y5361431D01*
X6097524Y5366765D01*
X2692400Y8764015D02*
G01*
X2692400Y8686037D01*
X2697479Y8670544D01*
X2707893Y8660129D01*
X2723641Y8655050D01*
X2734056Y8655050D01*
X2749550Y8660129D01*
X2759963Y8670544D01*
X2765043Y8686037D01*
X2765043Y8764015D01*
X2799334Y8743187D02*
G01*
X2809747Y8748521D01*
X2825495Y8764015D01*
X2825495Y8655050D01*
D11*
X2935477Y8051800D02*
G01*
X2741675Y8051800D01*
X2935477Y7922513D02*
G01*
X2741675Y7922513D01*
X2843275Y8051800D02*
G01*
X2843275Y7922513D01*
X2870961Y7861554D02*
G01*
X2778506Y7861554D01*
X2750820Y7852410D01*
X2741675Y7833868D01*
X2741675Y7806181D01*
X2750820Y7787639D01*
X2778506Y7759954D01*
X2870961Y7759954D02*
G01*
X2741675Y7759954D01*
X2870961Y7597394D02*
G01*
X2741675Y7698994D01*
X2870961Y7698994D02*
G01*
X2870961Y7597394D01*
X2741675Y7698994D02*
G01*
X2741675Y7597394D01*
X2870961Y7434834D02*
G01*
X2741675Y7536434D01*
X2870961Y7536434D02*
G01*
X2870961Y7434834D01*
X2741675Y7536434D02*
G01*
X2741675Y7434834D01*
X2870961Y7263129D02*
G01*
X2741675Y7263129D01*
X2843275Y7263129D02*
G01*
X2861563Y7281418D01*
X2870961Y7299960D01*
X2870961Y7327645D01*
X2861563Y7346187D01*
X2843275Y7364729D01*
X2815590Y7373873D01*
X2797047Y7373873D01*
X2769361Y7364729D01*
X2750820Y7346187D01*
X2741675Y7327645D01*
X2741675Y7299960D01*
X2750820Y7281418D01*
X2769361Y7263129D01*
X2935477Y7202170D02*
G01*
X2741675Y7202170D01*
X2833877Y7202170D02*
G01*
X2861563Y7174229D01*
X2870961Y7155942D01*
X2870961Y7128255D01*
X2861563Y7109713D01*
X2833877Y7100570D01*
X2741675Y7100570D01*
X2935477Y6897370D02*
G01*
X2741675Y6897370D01*
X2935477Y6897370D02*
G01*
X2935477Y6777228D01*
X2843275Y6897370D02*
G01*
X2843275Y6823455D01*
X2741675Y6897370D02*
G01*
X2741675Y6777228D01*
X2907791Y6586981D02*
G01*
X2926334Y6605270D01*
X2935477Y6633210D01*
X2935477Y6670039D01*
X2926334Y6697726D01*
X2907791Y6716268D01*
X2889250Y6716268D01*
X2870961Y6706870D01*
X2861563Y6697726D01*
X2852420Y6679184D01*
X2833877Y6623812D01*
X2824734Y6605270D01*
X2815590Y6596126D01*
X2797047Y6586981D01*
X2769361Y6586981D01*
X2750820Y6605270D01*
X2741675Y6633210D01*
X2741675Y6670039D01*
X2750820Y6697726D01*
X2769361Y6716268D01*
X2935477Y6526021D02*
G01*
X2741675Y6526021D01*
X2935477Y6526021D02*
G01*
X2935477Y6442710D01*
X2926334Y6415023D01*
X2917190Y6405879D01*
X2898647Y6396736D01*
X2870961Y6396736D01*
X2852420Y6405879D01*
X2843275Y6415023D01*
X2833877Y6442710D01*
X2833877Y6526021D01*
X2935477Y6289547D02*
G01*
X2926334Y6317234D01*
X2907791Y6326378D01*
X2889250Y6326378D01*
X2870961Y6317234D01*
X2861563Y6298692D01*
X2852420Y6261862D01*
X2843275Y6234176D01*
X2824734Y6215634D01*
X2806191Y6206489D01*
X2778506Y6206489D01*
X2759963Y6215634D01*
X2750820Y6224778D01*
X2741675Y6252463D01*
X2741675Y6289547D01*
X2750820Y6317234D01*
X2759963Y6326378D01*
X2778506Y6335776D01*
X2806191Y6335776D01*
X2824734Y6326378D01*
X2843275Y6308089D01*
X2852420Y6280150D01*
X2861563Y6243320D01*
X2870961Y6224778D01*
X2889250Y6215634D01*
X2907791Y6215634D01*
X2926334Y6224778D01*
X2935477Y6252463D01*
X2935477Y6289547D01*
X2889250Y6136131D02*
G01*
X2898647Y6136131D01*
X2917190Y6126987D01*
X2926334Y6117589D01*
X2935477Y6099302D01*
X2935477Y6062218D01*
X2926334Y6043929D01*
X2917190Y6034531D01*
X2898647Y6025387D01*
X2880106Y6025387D01*
X2861563Y6034531D01*
X2833877Y6053073D01*
X2741675Y6145529D01*
X2741675Y6015989D01*
X2907791Y5844286D02*
G01*
X2926334Y5853429D01*
X2935477Y5881370D01*
X2935477Y5899657D01*
X2926334Y5927344D01*
X2898647Y5945886D01*
X2852420Y5955029D01*
X2806191Y5955029D01*
X2769361Y5945886D01*
X2750820Y5927344D01*
X2741675Y5899657D01*
X2741675Y5890513D01*
X2750820Y5862828D01*
X2769361Y5844286D01*
X2797047Y5835142D01*
X2806191Y5835142D01*
X2833877Y5844286D01*
X2852420Y5862828D01*
X2861563Y5890513D01*
X2861563Y5899657D01*
X2852420Y5927344D01*
X2833877Y5945886D01*
X2806191Y5955029D01*
X2907791Y5663184D02*
G01*
X2926334Y5672581D01*
X2935477Y5700268D01*
X2935477Y5718810D01*
X2926334Y5746495D01*
X2898647Y5764784D01*
X2852420Y5774181D01*
X2806191Y5774181D01*
X2769361Y5764784D01*
X2750820Y5746495D01*
X2741675Y5718810D01*
X2741675Y5709412D01*
X2750820Y5681726D01*
X2769361Y5663184D01*
X2797047Y5654039D01*
X2806191Y5654039D01*
X2833877Y5663184D01*
X2852420Y5681726D01*
X2861563Y5709412D01*
X2861563Y5718810D01*
X2852420Y5746495D01*
X2833877Y5764784D01*
X2806191Y5774181D01*
G36*
X8771128Y8805621D02*
G01*
X8759647Y8692692D01*
X8734145Y8685225D01*
X8709558Y8675116D01*
X8686292Y8662263D01*
X8598306Y8733993D01*
X8538006Y8673693D01*
X8609736Y8585708D01*
X8596934Y8562441D01*
X8586724Y8537854D01*
X8579358Y8512302D01*
X8466429Y8500872D01*
X8466429Y8415528D01*
X8579358Y8404098D01*
X8586724Y8378545D01*
X8596934Y8353958D01*
X8609736Y8330692D01*
X8538006Y8242706D01*
X8598306Y8182406D01*
X8686292Y8254136D01*
X8703614Y8244281D01*
X8721699Y8235899D01*
X8771940Y8357158D01*
X8760358Y8362746D01*
X8749538Y8369706D01*
X8739581Y8377885D01*
X8730640Y8387181D01*
X8722817Y8397443D01*
X8716314Y8408568D01*
X8711184Y8420354D01*
X8707475Y8432647D01*
X8705189Y8445347D01*
X8704427Y8458200D01*
X8705240Y8471662D01*
X8707729Y8484920D01*
X8711844Y8497773D01*
X8717483Y8510066D01*
X8724595Y8521496D01*
X8733028Y8532012D01*
X8742781Y8541359D01*
X8753551Y8549487D01*
X8765235Y8556193D01*
X8777681Y8561476D01*
X8790635Y8565083D01*
X8803995Y8567166D01*
X8817508Y8567521D01*
X8830868Y8566251D01*
X8844076Y8563305D01*
X8856776Y8558784D01*
X8868867Y8552738D01*
X8880043Y8545220D01*
X8890254Y8536432D01*
X8899347Y8526373D01*
X8907068Y8515350D01*
X8913418Y8503412D01*
X8918194Y8490813D01*
X8921445Y8477707D01*
X8923020Y8464346D01*
X8922918Y8450834D01*
X8921191Y8437473D01*
X8917838Y8424367D01*
X8912860Y8411870D01*
X8906408Y8399983D01*
X8898534Y8389061D01*
X8889390Y8379155D01*
X8879078Y8370468D01*
X8867800Y8363102D01*
X8855659Y8357158D01*
X8905900Y8235899D01*
X8923985Y8244281D01*
X8941308Y8254136D01*
X9029293Y8182406D01*
X9089593Y8242706D01*
X9017863Y8330692D01*
X9030665Y8353958D01*
X9040876Y8378545D01*
X9048242Y8404098D01*
X9161170Y8415528D01*
X9161170Y8500872D01*
X9048242Y8512302D01*
X9040876Y8537854D01*
X9030665Y8562441D01*
X9017863Y8585708D01*
X9089593Y8673693D01*
X9029293Y8733993D01*
X8941308Y8662263D01*
X8918041Y8675116D01*
X8893454Y8685225D01*
X8867952Y8692692D01*
X8856472Y8805621D01*
G37*
D12*
X8941308Y8254136D02*
G01*
X9029268Y8182406D01*
X9089593Y8242731D01*
X9017863Y8330692D01*
X9048267Y8404072D02*
G01*
X9161195Y8415553D01*
X9161195Y8500846D01*
X9048267Y8512327D01*
X9017863Y8585708D02*
G01*
X9089593Y8673668D01*
X9029268Y8733993D01*
X8941308Y8662263D01*
X8867927Y8692667D02*
G01*
X8856446Y8805595D01*
X8771153Y8805595D01*
X8759672Y8692667D01*
X8686291Y8662263D02*
G01*
X8598331Y8733993D01*
X8538006Y8673668D01*
X8609736Y8585708D01*
X8579332Y8512327D02*
G01*
X8466404Y8500846D01*
X8466404Y8415553D01*
X8579332Y8404072D01*
X8609736Y8330692D02*
G01*
X8538006Y8242731D01*
X8598331Y8182406D01*
X8686291Y8254136D01*
X8721699Y8235899D02*
G01*
X8771940Y8357158D01*
X8855659Y8357158D02*
G01*
X8905900Y8235899D01*
D13*
X6045200Y8026400D02*
G01*
X6045200Y8407400D01*
X6108700Y4533900D02*
G01*
X5727700Y4533900D01*
X5981700Y7251700D02*
G01*
X5981700Y7132320D01*
X5981700Y6870700D02*
G01*
X5981700Y6982460D01*
X7797800Y3924300D02*
G01*
X7797800Y4051300D01*
X7797800Y4051300D02*
G01*
X7797800Y4559300D01*
X7797800Y4559300D02*
G01*
X7670800Y4559300D01*
X7670800Y4559300D02*
G01*
X7543800Y4559300D01*
X7543800Y4559300D02*
G01*
X7543800Y4051300D01*
X7543800Y4051300D02*
G01*
X7543800Y3924300D01*
X7543800Y3924300D02*
G01*
X7670800Y3924300D01*
X7670800Y3924300D02*
G01*
X7797800Y3924300D01*
X7797800Y4051300D02*
G01*
X7543800Y4051300D01*
X7670800Y4559300D02*
G01*
X7670800Y4622800D01*
X7670800Y3924300D02*
G01*
X7670800Y3860800D01*
X8470900Y3924300D02*
G01*
X8470900Y4051300D01*
X8470900Y4051300D02*
G01*
X8470900Y4559300D01*
X8470900Y4559300D02*
G01*
X8343900Y4559300D01*
X8343900Y4559300D02*
G01*
X8216900Y4559300D01*
X8216900Y4559300D02*
G01*
X8216900Y4051300D01*
X8216900Y4051300D02*
G01*
X8216900Y3924300D01*
X8216900Y3924300D02*
G01*
X8343900Y3924300D01*
X8343900Y3924300D02*
G01*
X8470900Y3924300D01*
X8470900Y4051300D02*
G01*
X8216900Y4051300D01*
X8343900Y4559300D02*
G01*
X8343900Y4622800D01*
X8343900Y3924300D02*
G01*
X8343900Y3860800D01*
X13449300Y3302000D02*
G01*
X13322300Y3302000D01*
X13322300Y3302000D02*
G01*
X12814300Y3302000D01*
X12814300Y3302000D02*
G01*
X12814300Y3175000D01*
X12814300Y3175000D02*
G01*
X12814300Y3048000D01*
X12814300Y3048000D02*
G01*
X13322300Y3048000D01*
X13322300Y3048000D02*
G01*
X13449300Y3048000D01*
X13449300Y3048000D02*
G01*
X13449300Y3175000D01*
X13449300Y3175000D02*
G01*
X13449300Y3302000D01*
X13322300Y3302000D02*
G01*
X13322300Y3048000D01*
X12814300Y3175000D02*
G01*
X12750800Y3175000D01*
X13449300Y3175000D02*
G01*
X13512800Y3175000D01*
X10287000Y3924300D02*
G01*
X10287000Y4051300D01*
X10287000Y4051300D02*
G01*
X10287000Y4559300D01*
X10287000Y4559300D02*
G01*
X10160000Y4559300D01*
X10160000Y4559300D02*
G01*
X10033000Y4559300D01*
X10033000Y4559300D02*
G01*
X10033000Y4051300D01*
X10033000Y4051300D02*
G01*
X10033000Y3924300D01*
X10033000Y3924300D02*
G01*
X10160000Y3924300D01*
X10160000Y3924300D02*
G01*
X10287000Y3924300D01*
X10287000Y4051300D02*
G01*
X10033000Y4051300D01*
X10160000Y4559300D02*
G01*
X10160000Y4622800D01*
X10160000Y3924300D02*
G01*
X10160000Y3860800D01*
X10985500Y3937000D02*
G01*
X10985500Y4064000D01*
X10985500Y4064000D02*
G01*
X10985500Y4572000D01*
X10985500Y4572000D02*
G01*
X10858500Y4572000D01*
X10858500Y4572000D02*
G01*
X10731500Y4572000D01*
X10731500Y4572000D02*
G01*
X10731500Y4064000D01*
X10731500Y4064000D02*
G01*
X10731500Y3937000D01*
X10731500Y3937000D02*
G01*
X10858500Y3937000D01*
X10858500Y3937000D02*
G01*
X10985500Y3937000D01*
X10985500Y4064000D02*
G01*
X10731500Y4064000D01*
X10858500Y4572000D02*
G01*
X10858500Y4635500D01*
X10858500Y3937000D02*
G01*
X10858500Y3873500D01*
X13449300Y6299200D02*
G01*
X13322300Y6299200D01*
X13322300Y6299200D02*
G01*
X12814300Y6299200D01*
X12814300Y6299200D02*
G01*
X12814300Y6172200D01*
X12814300Y6172200D02*
G01*
X12814300Y6045200D01*
X12814300Y6045200D02*
G01*
X13322300Y6045200D01*
X13322300Y6045200D02*
G01*
X13449300Y6045200D01*
X13449300Y6045200D02*
G01*
X13449300Y6172200D01*
X13449300Y6172200D02*
G01*
X13449300Y6299200D01*
X13322300Y6299200D02*
G01*
X13322300Y6045200D01*
X12814300Y6172200D02*
G01*
X12750800Y6172200D01*
X13449300Y6172200D02*
G01*
X13512800Y6172200D01*
X3568700Y4140200D02*
G01*
X1993900Y4140200D01*
X1993900Y4445000D01*
X3568700Y4445000D01*
X3568700Y4140200D01*
X3289300Y4140200D02*
G01*
X3289300Y4445000D01*
X5389879Y3312160D02*
G01*
X6090920Y3312160D01*
X6090920Y3312160D02*
G01*
X6090920Y2692400D01*
X6090920Y2692400D02*
G01*
X6090920Y2611120D01*
X6090920Y2611120D02*
G01*
X5389879Y2611120D01*
X5389879Y2611120D02*
G01*
X5389879Y2692400D01*
X5389879Y2692400D02*
G01*
X5389879Y3312160D01*
X6090920Y2692400D02*
G01*
X5389879Y2692400D01*
X7142479Y3312160D02*
G01*
X7843520Y3312160D01*
X7843520Y3312160D02*
G01*
X7843520Y2692400D01*
X7843520Y2692400D02*
G01*
X7843520Y2611120D01*
X7843520Y2611120D02*
G01*
X7142479Y2611120D01*
X7142479Y2611120D02*
G01*
X7142479Y2692400D01*
X7142479Y2692400D02*
G01*
X7142479Y3312160D01*
X7843520Y2692400D02*
G01*
X7142479Y2692400D01*
X8171179Y3312160D02*
G01*
X8872220Y3312160D01*
X8872220Y3312160D02*
G01*
X8872220Y2692400D01*
X8872220Y2692400D02*
G01*
X8872220Y2611120D01*
X8872220Y2611120D02*
G01*
X8171179Y2611120D01*
X8171179Y2611120D02*
G01*
X8171179Y2692400D01*
X8171179Y2692400D02*
G01*
X8171179Y3312160D01*
X8872220Y2692400D02*
G01*
X8171179Y2692400D01*
X14226540Y4716779D02*
G01*
X14226540Y5417820D01*
X14226540Y5417820D02*
G01*
X14846300Y5417820D01*
X14846300Y5417820D02*
G01*
X14927579Y5417820D01*
X14927579Y5417820D02*
G01*
X14927579Y4716779D01*
X14927579Y4716779D02*
G01*
X14846300Y4716779D01*
X14846300Y4716779D02*
G01*
X14226540Y4716779D01*
X14846300Y5417820D02*
G01*
X14846300Y4716779D01*
X9657079Y3299460D02*
G01*
X10358120Y3299460D01*
X10358120Y3299460D02*
G01*
X10358120Y2679700D01*
X10358120Y2679700D02*
G01*
X10358120Y2598420D01*
X10358120Y2598420D02*
G01*
X9657079Y2598420D01*
X9657079Y2598420D02*
G01*
X9657079Y2679700D01*
X9657079Y2679700D02*
G01*
X9657079Y3299460D01*
X10358120Y2679700D02*
G01*
X9657079Y2679700D01*
X10685779Y3299460D02*
G01*
X11386820Y3299460D01*
X11386820Y3299460D02*
G01*
X11386820Y2679700D01*
X11386820Y2679700D02*
G01*
X11386820Y2598420D01*
X11386820Y2598420D02*
G01*
X10685779Y2598420D01*
X10685779Y2598420D02*
G01*
X10685779Y2679700D01*
X10685779Y2679700D02*
G01*
X10685779Y3299460D01*
X11386820Y2679700D02*
G01*
X10685779Y2679700D01*
X14213840Y7790179D02*
G01*
X14213840Y8491220D01*
X14213840Y8491220D02*
G01*
X14833600Y8491220D01*
X14833600Y8491220D02*
G01*
X14914879Y8491220D01*
X14914879Y8491220D02*
G01*
X14914879Y7790179D01*
X14914879Y7790179D02*
G01*
X14833600Y7790179D01*
X14833600Y7790179D02*
G01*
X14213840Y7790179D01*
X14833600Y8491220D02*
G01*
X14833600Y7790179D01*
X12214809Y3570909D02*
G01*
X13864793Y3570909D01*
X13864793Y5730900D01*
X12214809Y5730900D01*
X12214809Y3570909D01*
X12214809Y6631609D02*
G01*
X13864793Y6631609D01*
X13864793Y8791600D01*
X12214809Y8791600D01*
X12214809Y6631609D01*
X7558100Y5386908D02*
G01*
X7558100Y5966917D01*
X7758099Y5966917D01*
X7758099Y5386908D01*
X7558100Y5386908D01*
X8443899Y5954191D02*
G01*
X8443899Y5374182D01*
X8243900Y5374182D01*
X8243900Y5954191D01*
X8443899Y5954191D01*
X10047300Y5348808D02*
G01*
X10047300Y5928817D01*
X10247299Y5928817D01*
X10247299Y5348808D01*
X10047300Y5348808D01*
X10933099Y5928791D02*
G01*
X10933099Y5348782D01*
X10733100Y5348782D01*
X10733100Y5928791D01*
X10933099Y5928791D01*
X5818200Y5107508D02*
G01*
X5818200Y5687517D01*
X6018199Y5687517D01*
X6018199Y5107508D01*
X5818200Y5107508D01*
X1562100Y8623300D02*
G01*
X4038600Y8623300D01*
X4038600Y4851400D01*
X1562100Y4851400D01*
X1562100Y8623300D01*
D12*
G75*
G01*
X8905900Y8235899D02*
G03*
X8941308Y8254136I-92094J222292D01*
G75*
G01*
X9017864Y8330692D02*
G03*
X9048267Y8404073I-204039J127528D01*
G75*
G01*
X9048267Y8512327D02*
G03*
X9017864Y8585708I-234442J-54147D01*
G75*
G01*
X8941308Y8662264D02*
G03*
X8867927Y8692667I-127528J-204039D01*
G75*
G01*
X8759673Y8692667D02*
G03*
X8686292Y8662264I54147J-234442D01*
G75*
G01*
X8609736Y8585708D02*
G03*
X8579333Y8512327I204039J-127528D01*
G75*
G01*
X8579333Y8404073D02*
G03*
X8609736Y8330692I234442J54147D01*
G75*
G01*
X8686292Y8254136D02*
G03*
X8721700Y8235899I127502J204055D01*
G75*
G01*
X8771941Y8357159D02*
G02*
X8704428Y8458200I41859J101045D01*
G75*
G01*
X8704428Y8458200D02*
G02*
X8855659Y8357159I109372J4D01*
D13*
G75*
G01*
X6045200Y8026400D02*
G02*
X6045200Y8407400I-254000J190500D01*
G75*
G01*
X6108700Y4533900D02*
G02*
X5727700Y4533900I-190500J-254000D01*
G75*
G01*
X5981690Y7251690D02*
G03*
X5981690Y6870710I-187046J-190490D01*
G75*
G01
X6045200Y8216900D02*
G03X6045200Y8216900I-254000J0D01*
G75*
G01
X6172200Y4279900D02*
G03X6172200Y4279900I-254000J0D01*
M02*
