G04 Layer: TopLayer*
G04 EasyEDA v6.5.8, 2022-08-15 07:29:34*
G04 028e3914a6f949ed9ca799ef75e4ed4f,10*
G04 Gerber Generator version 0.2*
G04 Scale: 100 percent, Rotated: No, Reflected: No *
G04 Dimensions in millimeters *
G04 leading zeros omitted , absolute positions ,4 integer and 5 decimal *
%FSLAX45Y45*%
%MOMM*%

%ADD10C,0.6096*%
%ADD11C,1.2192*%
%ADD12C,1.8000*%
%ADD13R,1.8000X1.8000*%
%ADD14C,1.6510*%
%ADD15C,1.9812*%
%ADD16R,1.7000X1.7000*%
%ADD17C,1.7000*%
%ADD18C,2.0320*%
%ADD19R,2.0320X2.0320*%
%ADD20C,2.2499*%
%ADD21C,1.5240*%
%ADD22C,3.5052*%
%ADD23C,1.7780*%
%ADD24C,0.6200*%

%LPD*%
D10*
X10833100Y5137734D02*
G01*
X10515600Y5137734D01*
X10515600Y9461500D01*
X2184400Y9461500D01*
X2184400Y7251700D01*
X1778000Y7251700D01*
D11*
X5918200Y7061200D02*
G01*
X5918200Y5898565D01*
D10*
X8343900Y5163134D02*
G01*
X8001000Y5163134D01*
X8001000Y8648700D01*
X7659903Y5177967D02*
G01*
X7188200Y5177967D01*
X7188200Y8877300D01*
X2794000Y8877300D01*
X2794000Y6743700D01*
X1778000Y6743700D01*
X10149103Y5139867D02*
G01*
X9652000Y5139867D01*
X9652000Y9131300D01*
X2552700Y9131300D01*
X2552700Y6997700D01*
X1778000Y6997700D01*
X11620500Y7569200D02*
G01*
X11620500Y4025900D01*
X12439802Y4025900D01*
D11*
X5918200Y8216900D02*
G01*
X5918200Y7061200D01*
X13639800Y4025900D02*
G01*
X13322300Y4025900D01*
X13322300Y5651500D01*
X13639800Y5651500D01*
X13639800Y6172200D01*
X9832340Y2959100D02*
G01*
X9832340Y2616200D01*
X11201400Y2616200D01*
X11201400Y2948939D01*
X11211559Y2959100D01*
X7317740Y2971800D02*
G01*
X7317740Y2616200D01*
X8712200Y2616200D01*
X8712200Y2956560D01*
X8696959Y2971800D01*
X5918200Y5898565D02*
G01*
X5549900Y5898565D01*
X5565140Y5883325D01*
X5565140Y2971800D01*
D12*
G01*
X5664200Y8216900D03*
G36*
X5828207Y8306892D02*
G01*
X6008192Y8306892D01*
X6008192Y8126907D01*
X5828207Y8126907D01*
G37*
G01*
X5918200Y4152900D03*
D13*
G01*
X5918200Y4406900D03*
G36*
X5581650Y7143750D02*
G01*
X5746750Y7143750D01*
X5746750Y6978650D01*
X5581650Y6978650D01*
G37*
D14*
G01*
X5918200Y7061200D03*
D15*
G01*
X7670800Y4749800D03*
G01*
X7670800Y3733800D03*
G01*
X8343900Y4749800D03*
G01*
X8343900Y3733800D03*
G01*
X12623800Y3175000D03*
G01*
X13639800Y3175000D03*
G01*
X10160000Y4749800D03*
G01*
X10160000Y3733800D03*
G01*
X10858500Y4762500D03*
G01*
X10858500Y3746500D03*
G01*
X12623800Y6172200D03*
G01*
X13639800Y6172200D03*
D16*
G01*
X3416300Y4292600D03*
D17*
G01*
X3162300Y4292600D03*
G01*
X2908300Y4292600D03*
G01*
X2654300Y4292600D03*
G01*
X2400300Y4292600D03*
G01*
X2146300Y4292600D03*
G36*
X5463540Y3073400D02*
G01*
X5666740Y3073400D01*
X5666740Y2870200D01*
X5463540Y2870200D01*
G37*
D18*
G01*
X5915659Y2971800D03*
G36*
X7216140Y3073400D02*
G01*
X7419340Y3073400D01*
X7419340Y2870200D01*
X7216140Y2870200D01*
G37*
G01*
X7668259Y2971800D03*
G36*
X8244840Y3073400D02*
G01*
X8448040Y3073400D01*
X8448040Y2870200D01*
X8244840Y2870200D01*
G37*
G01*
X8696959Y2971800D03*
D19*
G01*
X14566900Y4892039D03*
D18*
G01*
X14566900Y5242560D03*
G36*
X9730740Y3060700D02*
G01*
X9933940Y3060700D01*
X9933940Y2857500D01*
X9730740Y2857500D01*
G37*
G01*
X10182859Y2959100D03*
G36*
X10759440Y3060700D02*
G01*
X10962640Y3060700D01*
X10962640Y2857500D01*
X10759440Y2857500D01*
G37*
G01*
X11211559Y2959100D03*
D19*
G01*
X14554200Y7965439D03*
D18*
G01*
X14554200Y8315960D03*
D20*
G01*
X13039801Y3825900D03*
G01*
X13639800Y4025900D03*
G01*
X13639800Y5245887D03*
G01*
X12439802Y5245887D03*
G01*
X12439802Y4025900D03*
G01*
X13039801Y6886600D03*
G01*
X13639800Y7086600D03*
G01*
X13639800Y8306587D03*
G01*
X12439802Y8306587D03*
G01*
X12439802Y7086600D03*
D21*
G01*
X7658100Y6177965D03*
G01*
X7659903Y5177967D03*
G01*
X8343900Y5163134D03*
G01*
X8342096Y6163132D03*
G01*
X10147300Y6139865D03*
G01*
X10149103Y5139867D03*
G01*
X10833100Y5137734D03*
G01*
X10831296Y6137732D03*
G01*
X5920003Y4898567D03*
G01*
X5918200Y5898565D03*
D22*
G01*
X3810000Y8394700D03*
D23*
G01*
X3810000Y5727700D03*
G01*
X3810000Y5981700D03*
G01*
X3810000Y6235700D03*
G01*
X3810000Y6489700D03*
G01*
X3810000Y6743700D03*
G01*
X3810000Y6997700D03*
G01*
X3810000Y7251700D03*
G01*
X3810000Y7505700D03*
G01*
X3810000Y7759700D03*
G01*
X3810000Y8013700D03*
D22*
G01*
X3810000Y5092700D03*
D23*
G01*
X3429000Y5041900D03*
G01*
X2159000Y5041900D03*
G01*
X2413000Y5041900D03*
G01*
X2667000Y5041900D03*
G01*
X2921000Y5041900D03*
G01*
X3175000Y5041900D03*
D22*
G01*
X1778000Y5092700D03*
D23*
G01*
X1778000Y5727700D03*
G01*
X1778000Y8013700D03*
G01*
X1778000Y7759700D03*
G01*
X1778000Y7505700D03*
G01*
X1778000Y7251700D03*
G01*
X1778000Y6997700D03*
G01*
X1778000Y6743700D03*
G01*
X1778000Y6489700D03*
G01*
X1778000Y6235700D03*
G01*
X1778000Y5981700D03*
G01*
X1778000Y5727700D03*
D22*
G01*
X1778000Y8394700D03*
D24*
G01*
X11620500Y7569200D03*
G01*
X8001000Y8648700D03*
M02*
